<svg width="397" height="106" viewBox="0 0 397 106" fill="none" xmlns="http://www.w3.org/2000/svg">
<path opacity="0.2" d="M37.7595 8.86297C38.8143 8.03974 40.1276 8.99871 41.1372 10.2987C41.4533 10.702 41.199 12.4247 41.4109 12.7812C41.8255 13.4767 42.2986 12.6514 42.7223 13.4814C42.8604 13.7648 42.5009 16.4929 42.6464 16.7273C43.4454 17.9932 44.349 17.3551 45.4262 18.0468C46.1932 18.5284 46.9489 18.9639 48.3764 19.5462C49.1968 19.8888 49.7946 20.0482 52.4569 21.0893C53.2464 21.4259 53.8857 21.6425 55.7983 22.6935C56.2438 22.9466 56.7317 23.2415 57.2719 23.6026C57.542 23.7833 57.8251 23.9808 58.1221 24.1994C58.2707 24.3087 58.4227 24.4233 58.5782 24.5438C58.8002 24.7145 59.044 24.9089 59.2888 25.1134C61.2083 26.7924 63.9289 29.2542 65.9576 34.6461C68.7537 40.8297 66.1413 50.9242 64.0662 53.391C62.0808 56.5908 60.1222 58.2454 58.6475 59.3897C56.5278 60.9452 55.3619 61.4276 54.2819 61.9117C48.7249 62.7903 45.6701 62.5663 42.7315 62.4106C41.4202 62.3126 39.5216 60.2018 38.82 61.5019C38.7396 61.6558 39.3947 63.9754 39.4221 64.1733C39.851 67.2006 38.7618 62.4589 38.3926 61.8864C37.4567 60.4238 36.741 59.918 36.321 60.0224C38.0777 59.4575 41.2917 58.322 44.1259 54.3454C47.0586 50.3538 47.0546 44.633 46.1036 41.9661C44.1095 36.4741 42.5792 36.1544 41.8519 35.2518C41.7249 35.1393 41.7291 35.1439 41.6998 35.1182C41.6755 35.0971 41.6516 35.0765 41.6282 35.0565C41.5814 35.0164 41.5362 34.9782 41.4927 34.9418C41.4055 34.869 41.3246 34.803 41.2488 34.7424C41.0974 34.6212 40.9666 34.521 40.8506 34.4342C40.3907 34.0921 40.1444 33.9332 39.9655 33.8095C39.8792 33.7503 39.8045 33.6993 39.7617 33.6668C39.7322 33.6419 39.7075 33.6193 39.6869 33.5983C39.6458 33.5565 39.6208 33.5213 39.6074 33.4895C39.5559 33.3641 39.6836 33.2874 39.8166 33.1698C40.1956 32.9084 42.0937 28.5086 41.1393 31.0321C41.0761 31.2032 39.8986 33.4757 39.844 33.7526C39.7086 34.3698 40.3295 34.1577 40.3794 34.4043C40.5065 34.909 40.5741 34.9118 40.8883 35.0883C41.2471 35.3214 41.3031 36.7428 41.9871 36.414C42.1416 36.3394 43.0813 33.8863 43.424 33.5508C43.76 33.2131 44.1309 33.622 44.0089 34.2443C43.8996 34.8726 43.0028 36.73 42.8363 37.1731C41.427 40.9113 44.1799 36.0888 44.3017 35.9931C46.4209 34.3838 46.1973 37.7191 47.3484 38.2085C48.2153 38.5696 49.5559 38.0163 50.3325 38.5049C51.2432 39.0918 51.5323 40.7613 52.586 40.9449C52.6966 40.9673 53.7869 38.0797 53.9242 38.1013C55.3838 38.3333 56.5587 39.1969 57.0638 41.6704C57.1133 41.9209 55.8895 44.3432 55.8761 44.7428C55.8209 47.1352 55.0332 52.6034 60.0847 41.9387C60.4521 42.5924 60.9323 43.3096 60.5073 45.7079C60.2326 47.251 58.7871 49.8436 59.6608 48.8448C59.8562 48.6226 60.74 46.1922 60.9574 46.0391C61.8661 45.3941 62.1671 46.4298 63.2167 45.4213C63.4332 45.2108 64.2934 43.0617 64.4848 42.6899C66.0433 39.6825 64.3498 45.0216 64.2888 45.4354C63.8516 48.5281 64.8592 47.6579 65.5043 48.0047C65.6528 48.086 66.6575 45.1371 66.8425 45.1119C67.81 45.0298 68.5006 45.6033 68.7598 47.2006C68.8091 47.5605 67.6501 49.9476 67.6223 50.245C67.508 51.5248 69.4842 46.9287 69.4282 48.0732C69.4181 48.3082 68.5204 50.3906 68.4398 50.6266C67.1754 54.3323 69.4406 49.2746 69.5372 49.182C70.8438 47.9095 69.0683 53.4283 70.0518 52.94C70.1644 52.8731 71.0631 50.1431 71.3109 50.1167C71.4852 50.0922 71.6707 50.0925 71.8484 50.11C72.0252 50.127 72.1627 50.1488 72.3073 50.1932C72.4695 50.2445 72.5914 50.2996 72.6565 50.3528C72.7067 50.386 72.727 50.4124 72.6824 50.421C72.671 50.4231 72.6551 50.424 72.6333 50.4233C72.6094 50.422 72.5974 50.4243 72.4806 50.394C72.37 50.3667 72.2239 50.3258 71.8775 50.2438C71.6985 50.2025 71.4725 50.1495 71.0777 50.0805C70.6584 50.0194 70.1718 49.9013 68.8385 49.9001C68.5878 49.9449 68.223 50.0012 67.6255 50.1422C67.4757 50.1779 67.3106 50.2198 67.1272 50.2709C66.9327 50.3263 66.7973 50.3634 66.319 50.5099C65.4892 50.7854 64.3255 51.1973 62.8167 52.3138C62.4432 52.5949 62.0535 52.9233 61.6615 53.3087C61.2525 53.7213 60.9453 54.0314 60.3497 54.8414C59.2955 56.2816 58.5074 58.2468 58.2984 60.0819C58.0706 61.9262 58.3378 63.5337 58.7 64.7058C58.7439 64.8491 58.7978 65.0112 58.8364 65.1189C58.8676 65.2043 58.8991 65.2875 58.931 65.3687C58.9949 65.5309 59.0601 65.6848 59.1258 65.8309C59.2574 66.123 59.3911 66.3841 59.5229 66.6193C60.5878 68.4452 61.4271 68.9728 61.6826 69.1179C62.4199 69.5428 62.6899 69.4096 62.8913 69.2409C63.0929 69.0628 63.1946 68.7784 63.2907 68.4606C63.3812 68.1011 64.5856 66.3125 64.7239 66.0856C66.7518 62.4588 63.7235 67.1288 63.5984 67.2984C62.5119 68.4064 64.271 64.0525 60.8147 69.716C59.8809 66.614 55.8139 68.7898 56.0059 62.3014C56.005 62.2248 57.2418 59.7801 57.2347 59.6377C57.1583 57.8965 55.4662 61.8062 52.7357 66.2719C52.0499 67.3932 54.383 61.5415 54.5483 61.1098C55.1588 59.5198 57.0401 55.9023 57.1413 55.5863C57.9188 53.0961 52.1668 65.2835 51.7096 65.0699C51.7051 65.0428 52.8343 62.8333 52.9025 62.5925C53.118 61.8373 52.5753 62.6704 52.8277 61.8446C53.4137 59.9348 56.1506 53.985 54.0984 57.2277C53.833 57.6489 50.6077 64.5803 50.3524 64.0572C50.2519 63.8422 49.478 63.6151 49.4824 63.0668C49.4922 62.5219 50.7058 60.3725 50.7374 60.2693C51.6087 57.0721 52.4052 55.9577 54.2438 51.4895C56.0807 47.0405 51.1413 57.3805 50.4705 58.4764C49.8049 59.5709 50.5734 56.9551 50.889 56.0692C51.2025 55.1819 52.0135 53.8362 52.16 53.3189C53.1173 49.9388 49.399 58.2996 48.4034 59.8366C46.0472 63.4761 49.4408 55.6729 49.4191 54.7301C49.4101 54.4739 48.6305 56.2483 48.4504 56.3603C47.7541 56.7834 48.7006 54.2904 47.142 56.2225C46.888 56.5375 44.1719 60.8848 45.6426 57.4219C45.8592 56.9249 46.9415 55.1015 46.9886 54.5902C47.053 53.8197 46.8553 53.1892 46.2234 53.65C45.7609 53.9937 44.3257 57.1868 44.5744 56.0861C44.6898 55.5967 45.8942 53.9304 46.0368 53.1644C46.1883 52.4044 45.6102 52.1779 45.3574 52.1086C45.114 52.0478 43.8685 54.3866 43.7613 54.5304C43.137 55.3488 42.0031 56.1503 41.9367 56.1032C41.192 55.718 40.8031 55.1934 39.7716 53.6372C39.6428 53.4349 39.5085 53.2139 39.3663 52.9625C39.1989 52.6835 38.8966 52.2182 38.6327 51.6631C38.4963 51.3791 38.3563 51.0556 38.2248 50.6748C38.0898 50.2588 37.9886 49.9901 37.8298 49.0848C37.5144 47.5319 38.0156 44.9712 39.269 43.5209C41.2176 41.2278 43.2818 41.1509 43.569 41.1598C44.2105 41.1401 44.6813 41.2202 45.0995 41.3106C45.5401 41.4575 45.9802 41.606 46.4815 41.7736C46.7565 41.859 47.2443 41.9734 47.7376 42.1572C47.9924 42.2507 48.2711 42.3646 48.5781 42.5186C48.9896 42.7158 49.6056 43.0681 50.1656 43.605C51.361 44.6076 52.1435 46.9018 51.8869 48.3113C51.8467 48.67 51.7777 48.9867 51.6981 49.266C51.6319 49.4952 51.5793 49.643 51.5162 49.8089C51.393 50.1286 51.2653 50.3929 51.1435 50.6248C51.0219 50.8558 50.9029 51.0579 50.7955 51.2353C50.7204 51.3674 50.6497 51.4917 50.583 51.6117C50.4496 51.8513 50.3324 52.0746 50.2273 52.2984C50.0768 52.6153 52.2227 54.4112 52.2201 54.4799C52.2643 56.0754 47.6634 50.1968 45.6826 48.6491C49.5324 52.8038 48.5911 52.2765 48.6569 53.0259C48.6781 53.4015 50.1536 55.0278 50.2807 55.214C52.066 58.0554 49.1827 54.8445 48.6233 54.1646C46.5014 51.7124 48.6492 54.8839 47.2423 53.2331C45.864 51.5809 44.1782 48.8672 43.9341 49.098C45.0463 50.7967 48.4238 54.8908 48.675 55.7711C49.6041 59.1203 45.6208 56.7747 44.7435 56.8266C43.8493 56.8927 43.827 57.3502 43.0553 56.974C41.654 56.2961 44.0117 59.4551 44.5473 61.2465C45.0791 63.0395 40.1151 54.7338 38.9416 53.0158C37.7707 51.2971 38.8496 53.1463 38.1646 52.2276C37.4804 51.3087 36.8844 50.0128 36.482 49.7598C36.0796 49.5073 37.5784 52.9337 38.6764 54.8117C41.0033 58.79 43.797 62.7436 42.4292 61.598C42.3488 61.5295 41.0782 59.3239 40.8395 59.1705C38.9881 58.0233 38.0918 58.4452 36.369 57.491C36.1299 57.3564 34.7039 54.9099 34.5464 54.8053C32.8912 53.7163 35.7047 57.5799 38.2264 62.2597C34.4782 56.2849 31.9472 52.7815 31.3894 53.0957C31.0596 53.2785 32.8022 55.8196 33.8039 57.7594C34.1079 58.3427 32.7302 56.7182 33.4895 57.9531C35.9868 61.9796 39.1092 66.2677 37.4711 64.8248C37.3944 64.7555 36.0135 62.5604 35.8536 62.4788C34.8202 61.9372 37.5293 66.0848 37.4547 66.8693C37.396 67.4841 35.0554 65.4552 34.4562 65.3088C29.5506 59.0748 30.1215 60.9599 33.7267 65.0772C33.4513 65.0134 33.6465 65.3111 33.3595 64.441C33.2527 64.1442 31.2843 62.9532 31.0949 62.7913C29.5104 61.6529 29.7372 61.9905 30.6084 62.1709C31.0369 62.268 31.6034 62.3564 32.093 62.3271C32.5899 62.271 32.9966 62.0996 33.0664 61.9112C33.6235 60.7052 32.791 58.3068 31.6928 57.5272C31.4522 57.313 31.1442 57.1166 31.0173 57.0415C30.8686 56.9526 30.7297 56.8849 30.6026 56.833C30.3482 56.7294 30.1416 56.6875 29.9792 56.6753C29.6256 56.6503 29.5815 56.7527 29.4954 56.8303C29.427 56.9129 29.415 56.9968 29.4378 57.0264C28.3371 57.0859 28.2195 57.2284 28.0279 57.2651C27.9155 57.2995 27.8916 57.2983 27.8539 57.2907C27.7896 57.2723 27.7843 57.1897 27.7526 57.06C27.7028 56.795 27.6014 56.3224 27.3559 55.5604C27.3186 55.4203 24.8611 50.4914 26.8211 54.0061C26.9636 54.2445 27.8959 56.583 28.2806 56.6031C28.6667 56.6232 30.7122 58.8764 29.9564 56.3785C29.7728 55.7783 27.8937 51.708 29.8099 54.6393C30.0712 55.0367 30.8075 56.4349 31.2803 57.1777C32.7929 59.5412 30.1505 54.6402 32.641 58.6659C35.1182 62.6988 37.263 65.5559 36.1343 62.4428C36.1036 62.351 34.0298 58.454 34.2174 58.4268C34.5212 58.3855 35.318 58.9873 35.5631 58.812C35.6787 58.7273 34.2255 56.4026 34.2216 56.3469C34.2524 54.5538 36.0578 56.3266 37.4692 56.7208C37.7335 56.7961 36.266 53.3205 38.0911 55.6695C40.0994 58.2344 46.6936 69.9677 45.857 66.7269C45.546 65.4156 37.0015 50.6375 42.207 57.8135C42.1289 55.2823 45.6111 58.4353 44.9994 55.0656C44.9768 54.913 42.4038 50.9017 42.5429 50.8831C42.7533 50.864 44.1212 52.6223 44.3253 52.655C44.5477 52.6974 44.667 52.6188 44.7193 52.4818C44.7961 52.3258 44.788 52.1246 44.7617 51.9161C44.7528 51.8081 44.7286 51.7065 44.6898 51.625C44.6508 51.5465 44.6071 51.4634 44.4916 51.5158C44.4756 51.5166 44.2479 51.6326 44.2268 52.2365C44.2182 52.5278 44.3985 52.9809 44.678 53.2168C44.9499 53.4587 45.1853 53.5189 45.3237 53.5526C45.5559 53.5982 45.5428 53.5887 45.5988 53.5896C45.6362 53.5871 45.6457 53.5779 45.6373 53.5648C45.6281 53.5632 45.6188 53.5612 45.6094 53.5588C45.3558 53.4969 45.0119 51.2197 44.7319 51.1403C44.457 51.0615 44.8351 54.0735 44.2063 52.6945C43.7433 51.64 42.5522 45.5556 42.2254 44.8715C43.0489 50.9257 42.8299 50.8337 42.5752 52.4807C42.5255 52.7999 42.8165 54.9087 42.7999 55.1693C42.7154 56.2785 42.3584 54.5384 42.2387 55.7383C42.2038 56.0268 42.2896 58.112 42.2512 58.4659C41.7882 61.579 40.4899 56.8034 40.4165 55.8787C40.3097 54.2249 39.968 54.071 39.3288 53.3728C38.7203 52.6924 38.5277 51.6685 39.2305 51.5224C39.9192 51.4125 40.4999 51.8366 41.0802 52.0686C41.6544 52.3223 42.1991 52.4909 42.5216 52.6788C43.1918 53.0319 43.5855 53.0201 43.9967 52.5014C44.1931 52.2264 44.4264 51.8261 44.5109 51.0389C44.6236 50.2712 44.2482 49.0797 43.706 48.4842C43.3115 48.037 42.8173 48.5753 42.3934 49.1232C41.9701 49.6824 41.5294 50.2428 41.494 50.2524C40.9706 50.6293 40.9232 47.6684 39.8981 53.1135C41.5452 38.86 39.5201 54.4588 39.4109 51.5857C39.3935 51.3526 39.5483 44.5668 39.907 43.5872C40.2979 42.613 40.5049 44.7488 41.2379 43.2832C41.2478 42.9047 43.5462 36.8547 44.0516 36.5926C45.3063 35.3412 45.905 37.4447 45.3786 39.6462C44.917 41.8656 43.9175 44.3572 43.8358 44.6254C43.1049 47.6555 43.4389 47.4255 45.1288 47.9494C46.8462 48.392 48.9511 50.5497 49.0764 51.2363C49.7669 54.6465 49.0177 55.5028 48.9108 56.0533C48.8223 56.3021 48.7862 56.4235 48.9214 56.4292C49.0605 56.4078 49.3579 56.3901 50.0838 55.653C50.9162 54.832 53.8226 52.5719 54.1941 47.8957C54.8261 43.501 51.5739 38.0468 48.4573 36.9067C43.6172 35.1372 43.3292 36.4536 42.4753 37.098C41.8474 37.9052 41.7021 38.8882 41.562 39.5886C41.3676 40.9942 41.5093 41.2971 41.084 37.3013C40.9321 35.5936 39.9317 28.4038 40.7652 34.0509C40.7927 34.4108 41.7731 39.5446 41.3949 36.2596C41.3446 35.8459 41.0037 33.758 40.9943 33.5795C40.938 32.4237 41.3309 34.0663 41.3621 33.2407C41.3842 32.7099 41.3975 32.014 41.5095 31.7574C42.4996 31.5229 43.7447 31.2353 46.2541 31.3146C46.6339 31.5147 51.1143 30.7616 57.7839 35.331C61.0554 37.5624 64.4885 42.298 65.5183 46.4921C66.693 50.7515 66.2837 54.3584 65.6989 56.7774C64.671 60.8501 62.989 62.8957 62.629 63.2457C61.988 63.9576 61.3905 64.4189 60.8405 64.7434C59.7332 65.392 58.8195 65.4895 58.1859 65.3048C56.8174 65.0228 55.7124 64.3477 55.234 64.1254C52.7835 62.5655 55.1528 66.4707 52.8802 63.9688C50.6651 61.3984 47.943 57.0243 46.2473 55.5549C49.4469 60.0239 52.697 64.6354 55.8757 69.1576C54.4279 69.9481 52.5693 69.0255 51.7601 69.8333C51.6642 69.9366 53.3706 72.3531 53.306 72.5298C53.0164 73.2701 51.4525 71.764 51.3774 72.7974C51.3186 73.6109 52.5144 76.5478 52.4921 77.484C48.9645 72.2686 49.4603 74.4642 48.7182 74.2386C48.4601 74.1617 47.6081 72.7139 47.2172 72.3092C45.765 70.8156 48.8047 75.4738 49.137 76.294C50.5437 79.8004 44.0893 69.0026 43.6863 69.6008C43.6648 69.6277 46.6889 75.628 46.8459 76.0199C47.8895 78.564 45.6127 74.0374 45.1572 73.7297C44.3243 73.1674 43.2715 71.9271 43.8112 73.8834C43.9752 74.4604 45.7486 78.2621 43.8824 75.6053C43.6387 75.257 42.5565 73.3226 42.4654 73.2252C40.9164 71.6182 44.3532 77.6751 45.2233 79.8932C46.0948 82.1099 43.2855 78.1736 42.519 77.0146C40.5337 74.0179 41.9514 75.5768 41.7936 75.2619C39.8943 71.5275 39.9247 72.3372 39.5154 72.1602C36.1571 66.2145 36.0361 66.7504 39.1036 72.001C39.4447 72.5713 39.3148 71.9149 39.5154 72.1602C42.5827 78.1209 42.5554 79.1175 39.1279 73.8553C37.5164 71.3913 36.0729 68.2836 36.0764 69.7031C36.0543 70.3556 38.3784 74.445 38.7053 75.7222C39.0395 77.1213 38.5741 77.0648 37.7805 76.8039C37.4192 76.6552 36.9375 76.4754 36.4148 76.3975C36.1944 76.34 35.7898 76.388 35.3184 76.4872C35.1973 76.5133 35.0673 76.5444 34.9235 76.5818C34.8516 76.6005 34.7762 76.6208 34.6965 76.6428C34.6077 76.668 34.4148 76.7284 34.244 76.7781C33.4463 76.9586 32.7518 77.3833 29.6158 77.5142C29.4984 77.5266 29.3795 77.5479 29.2587 77.5792C28.2741 77.8103 29.2082 80.4089 28.4334 80.6438C27.8875 80.7952 27.2991 80.7621 26.6618 80.6157C26.5024 80.5791 26.3397 80.5353 26.1734 80.4853C26.0904 80.4603 26.0063 80.4338 25.9213 80.4058C25.8204 80.3754 25.6738 80.3357 25.5462 80.2971C25.0196 80.1398 24.4514 79.9454 23.8268 79.7043C22.5144 79.1774 21.3128 78.6998 19.0806 77.3579C16.4108 75.7609 12.7902 72.4839 10.8946 67.7342C10.2925 65.9102 8.85168 71.5111 7.24988 64.7243C6.75115 61.5418 7.03812 58.7731 7.51696 56.6495C7.97518 54.7008 8.36429 53.7665 8.83637 52.6778C9.72231 50.6923 10.7963 49.2064 11.276 48.6386C12.4631 47.1898 13.5378 46.3546 14.2015 45.9604C15.7411 44.9855 16.7236 44.77 17.5094 44.1602C18.2081 43.6227 18.3679 41.657 19.1069 41.5003C20.3571 41.2254 23.5503 43.801 23.6862 42.5711C23.7789 41.7803 22.2072 39.5892 21.3911 37.9288C19.8261 34.6993 23.9168 39.6466 24.526 40.4287C24.5457 40.4547 24.5334 41.2187 25.4734 42.2584C27.1444 44.6105 24.5282 40.4422 24.526 40.4287C24.926 40.9292 25.9663 40.9892 25.8214 40.4711C25.7448 40.1861 24.331 38.0596 24.3173 37.9515C24.0303 35.4253 24.5931 34.3044 26.1047 34.7622C26.1476 34.7961 27.6481 37.2261 27.73 37.2757C28.9118 38.0314 27.371 34.8725 26.6519 32.8724C25.9382 30.87 26.6056 31.2678 29.4717 35.2541C29.4224 34.5529 31.0037 36.112 31.9425 37.07C32.8824 38.0273 29.8759 33.3508 29.8322 33.2481C28.4686 29.9354 30.5204 32.3907 31.2359 32.4965C31.5883 32.5511 31.4005 31.6844 30.9341 31.2745C30.7569 31.1022 30.8306 31.3034 30.8645 31.4838C30.8923 31.6699 30.902 31.813 30.4186 31.687C30.288 31.655 28.6864 29.7663 28.6046 29.7117C25.9582 28.125 30.3995 32.2632 31.0392 33.1445C32.1982 34.7595 33.0591 36.0251 33.2858 36.9542C33.4625 38.1125 33.3009 37.6616 30.597 41.1457C30.4479 41.3634 30.1541 41.603 29.7454 41.9207C29.3381 42.251 28.8198 42.561 28.133 43.5409C26.8452 45.2792 25.1594 48.4841 25.2018 53.2822C24.935 63.5437 34.5622 72.0219 36.7062 72.6595C40.0411 74.2014 40.6978 73.5057 41.5785 73.0959C41.9879 72.862 42.3769 72.6225 42.8659 72.5091C43.1095 72.452 43.376 72.4255 43.6694 72.4419C43.9378 72.4555 44.1009 72.5026 44.3503 72.6141C44.4891 72.681 44.4341 74.6267 45.5001 74.5633C46.1717 74.5181 46.6913 74.4289 47.1053 74.3259C47.7358 74.2283 48.5141 74.0971 49.5444 73.8618C50.0602 73.7432 50.6402 73.5974 51.304 73.4034C51.6358 73.3062 51.9888 73.1968 52.3654 73.071C52.5538 73.0081 52.748 72.9411 52.9486 72.8694C53.1984 72.7828 53.6155 72.6363 53.9772 72.4961C56.8578 71.3117 61.7229 69.2461 66.3237 62.8321C72.8972 54.6179 70.8355 40.6729 69.1485 38.22C67.6196 34.5922 66.09 32.7529 64.979 31.4391C64.844 31.2843 64.68 31.1008 64.5877 31.0032C64.4977 30.9079 64.4097 30.8164 64.3239 30.7285C64.1522 30.5527 63.9887 30.3909 63.833 30.2407C63.5215 29.9403 63.241 29.6859 62.9869 29.4632C62.4791 29.0187 62.0765 28.6979 61.7496 28.4364C61.4969 28.2368 61.3025 28.0777 61.1403 27.9282C60.934 27.749 63.0568 25.5202 62.7705 25.2107C61.619 23.9479 61.771 24.2568 61.2365 25.5794C61.1128 25.925 60.0299 27.7708 59.7312 28.3317C57.9484 31.7395 60.8339 26.9521 60.9032 26.8685C62.7964 24.8436 61.2358 29.7247 63.3449 28.0873C63.4718 27.9928 66.5543 22.8381 64.482 27.5414C64.3428 27.8537 62.2283 32.6687 63.9926 29.5329C64.1025 29.3365 65.1654 26.8454 65.2657 27.2014C65.3735 27.5604 66.5082 26.104 65.5273 28.931C65.2163 29.8205 63.1774 34.6563 65.298 31.0408C65.4462 30.7886 70.0041 22.4989 67.3495 28.4541C66.9124 29.4343 63.8967 35.6373 65.7985 32.6276C66.1659 32.0434 66.7023 30.5945 67.3044 29.8179C68.2294 28.6194 67.8112 30.4672 69.4939 27.866C69.7908 27.4051 72.0736 23.3076 70.7575 26.6165C70.5514 27.1348 69.4951 29.182 69.4978 29.4689C69.5076 30.8433 70.7402 29.7249 70.6234 31.4349C70.5825 32.036 68.8739 35.345 68.6518 36.3445C68.4315 37.3445 68.4294 38.4073 69.3924 36.9827C70.3527 35.556 72.6758 30.0903 73.22 29.8252C75.5837 28.6747 75.5835 32.5411 77.0206 33.8379C77.2332 34.031 77.9873 32.0328 78.3745 32.1847C79.8674 32.7955 83.2909 32.2097 84.334 38.3599C85.187 43.454 79.8843 42.9532 81.1411 45.735C81.6047 46.5505 83.4457 46.0618 85.7574 46.0924C88.5055 46.4445 92.4617 49.2892 93.3202 51.228C94.0605 52.4913 96.4618 58.32 95.6069 64.9958C95.2571 71.5701 89.7121 79.4162 87.5971 81.0276C81.8825 86.2813 77.5678 87.0939 75.2678 87.7415C72.219 88.4371 70.5429 88.2915 69.1706 88.1369C64.4638 88.0199 63.8664 87.5403 62.8492 87.3507C62.007 87.1232 61.5865 86.9681 61.2377 86.8381C60.9098 86.7127 60.6322 86.595 60.5076 86.5278C60.4261 86.475 60.3532 86.4248 60.2858 86.3769C60.0183 86.1855 59.8304 86.0265 59.6486 85.8968C59.4459 85.759 59.3549 85.6892 59.2289 85.6533C59.1052 85.6181 58.9666 85.6239 58.8021 85.6855C58.5279 85.7883 57.724 88.4746 57.4968 88.5311C56.813 88.7863 56.7421 87.4156 56.2887 87.4803C56.0665 87.5087 55.307 89.5046 55.1954 89.2823C54.8831 88.7587 54.9484 87.8171 55.3036 85.8019C55.3376 85.619 56.5681 83.2518 56.3168 83.0434C55.9094 82.7138 56.1334 80.6734 54.8351 82.3449C54.458 82.8533 52.6043 87.3673 53.5621 84.1178C53.7609 83.4386 56.0738 78.054 53.7732 82.5825C53.3866 83.3334 50.1574 89.3893 51.5318 85.1946C51.8923 84.0902 53.514 79.5723 53.0456 80.1942C52.9751 80.2952 52.0739 82.7588 51.8256 82.9329C50.9622 83.5019 50.5547 83.0306 49.69 83.5608C49.4584 83.7076 48.6365 86.3032 48.3237 86.4417C47.4903 86.8382 47.0116 85.8912 46.7727 84.8718C46.6878 84.4917 47.6956 82.4776 47.7745 82.2457C49.0628 78.474 46.8521 83.3681 46.65 83.623C45.4222 85.1415 45.9987 82.6495 45.2833 83.0735C45.087 83.1836 44.1895 85.5826 44.0759 85.7825C42.9499 87.7285 44.9222 83.5711 44.9502 83.0335C45.0344 81.5134 44.4244 81.4807 43.8279 81.5849C43.6058 81.626 42.6523 84.4445 42.466 84.4497C41.3358 84.5296 40.4846 83.8629 40.2119 81.9716C40.1638 81.611 41.1602 79.551 41.3279 79.0553C42.5058 75.5885 40.2087 80.0253 39.9409 80.4272C38.7214 82.2637 39.3632 80.3408 38.8848 80.5477C36.5312 81.5903 35.0484 79.5034 33.842 78.0857C32.2545 76.2461 31.5635 73.5792 29.4029 73.2499C29.2648 73.2255 28.1709 76.0654 28.0359 76.0799C26.3789 76.1537 25.4612 74.4497 23.6068 74.5727C23.4547 74.5769 22.443 77.2828 22.1572 77.3769C21.5853 77.5986 21.0618 77.186 21.0007 76.1419C20.9703 75.6384 22.3065 73.5329 22.2585 73.0737C22.0809 71.9657 21.692 71.558 20.6057 71.5326C20.1594 71.5351 19.3842 74.4456 18.883 74.2303C18.617 74.126 18.0248 73.8562 17.3623 73.5183C17.1897 73.43 17.003 73.3321 16.7947 73.2189C16.56 73.0907 16.0633 72.8055 15.5291 72.4712C14.9695 72.1179 14.2884 71.6835 13.2202 70.8749C12.9515 70.6703 12.6563 70.439 12.3249 70.167C12.1592 70.0309 11.9844 69.8845 11.799 69.7252C11.7758 69.7053 11.7524 69.6852 11.7289 69.6649C11.7036 69.6428 11.6958 69.6366 11.5803 69.5352C11.3966 69.3738 11.2027 69.1997 10.9969 69.0095C10.5853 68.6289 10.1264 68.186 9.60382 67.6393C7.89228 65.1401 3.05149 62.8461 1.04454 48.4012C0.193429 41.2806 3.5152 30.675 9.17854 24.9812C14.7185 19.0941 19.9086 17.2472 23.224 16.1928C25.5898 15.3124 27.4106 15.1406 29.607 17.7892C29.7924 18.014 31.3113 23.8101 31.2908 22.633C30.9182 21.0125 30.4567 19.112 30.0466 17.3829C32.216 15.8911 34.4474 17.3971 34.4067 17.7305C34.3943 17.749 33.3015 14.7685 33.2522 14.7967C33.1431 14.8567 32.9095 14.8467 32.597 14.9918C31.5283 15.4931 30.1786 16.1616 28.3061 17.4428C27.6437 17.8994 25.6399 19.3127 23.6221 21.4471C22.5906 22.5342 21.475 23.8635 20.3609 25.5452C19.2596 27.2861 18.1609 28.9441 16.8237 32.9097C14.1075 39.9654 15.832 51.0321 18.6308 55.6475C21.1862 60.5975 24.1018 63.3577 26.282 65.1806C29.9049 68.037 31.4281 68.5564 33.0245 69.3167C35.2699 70.2678 36.4759 70.5183 37.1551 70.6568C37.5309 70.7299 37.8547 70.7768 38.1181 70.8019C38.3501 70.8196 38.5519 70.8234 38.731 70.8165C40.0634 70.7288 40.2091 70.1067 40.3998 69.1006C40.4372 68.7944 41.0797 63.2466 40.8762 64.0748C40.8515 64.2267 40.5457 64.9466 40.3694 66.1488C40.3458 66.3304 40.1783 68.9318 40.0915 69.001C39.576 69.3562 38.8278 68.7165 38.0995 67.0907C37.9792 66.8232 38.2412 64.0563 38.1546 63.8416C37.5313 62.3398 36.6841 64.4223 36.0906 61.8857C35.6881 60.178 35.9608 55.3854 35.8208 50.6581C35.7916 49.9909 35.5048 49.8797 35.5446 47.1323C35.6142 40.2227 35.9075 32.6604 35.968 25.2952C35.9794 24.5021 35.8241 24.5299 35.6982 24.278C35.6052 24.1516 35.4421 23.9554 35.378 23.5521C35.3274 23.1483 35.5814 22.536 35.7408 21.58C35.7955 21.3236 36.2717 20.0594 36.3674 18.7608C36.4535 17.8633 36.386 15.0667 36.5531 13.9189C36.73 12.7725 36.8112 15.1175 37.0677 13.7711C37.3116 12.4077 37.3191 9.22743 37.7595 8.86297ZM36.1854 41.3131C37.8896 43.3844 32.4421 35.2643 33.5429 37.3432C33.6025 37.4534 36.1016 41.2116 36.1854 41.3131ZM48.5468 62.8406C45.8506 59.4502 49.0377 64.9395 51.1075 67.5682C53.1922 70.1824 49.3738 63.8618 48.5468 62.8406ZM43.9043 45.145C44.0293 45.5403 44.1044 45.6875 44.1385 45.6464C44.9376 45.3786 45.9804 43.0871 47.9657 41.3198C48.5078 40.312 46.5486 38.8946 45.8826 38.1547C44.8501 37.3465 43.503 36.9773 42.5446 37.2257C42.5228 37.2546 42.5158 37.3757 42.5266 37.6076C42.5349 37.7672 43.8446 44.9553 43.9043 45.145ZM37.0658 49.3457C37.0649 49.2157 36.8479 49.0826 36.8403 49.2112C36.635 52.3119 37.0576 52.5756 37.0658 49.3457ZM41.9728 48.9206C41.5661 50.7554 41.8545 48.6171 41.8526 46.2793C41.8876 44.3728 42.8923 46.7014 41.9728 48.9206ZM51.5512 50.4599C51.4896 50.592 51.5787 50.7835 51.9447 50.0457C53.1229 47.6689 52.5863 48.2372 51.5512 50.4599ZM37.4301 46.3906C38.6636 46.8665 39.0225 58.3331 38.2787 57.0497C38.1075 56.82 38.5366 53.3903 38.3085 52.3625C37.7795 50.4939 37.9025 57.6871 37.2693 53.863C37.1301 53.1639 37.3468 46.3379 37.4313 46.3746C37.4309 46.3799 37.4305 46.3852 37.4301 46.3906ZM42.8667 50.9734C42.9441 51.0773 43.2079 51.047 43.1401 50.9379C41.4981 48.3009 40.9841 48.3482 42.8667 50.9734ZM57.7149 60.1552C57.6065 60.4087 57.9764 60.8719 58.1031 60.6512C60.5541 56.1969 59.8036 55.2423 57.7149 60.1552ZM34.3194 65.1474C36.1373 67.6937 36.3897 67.9628 33.7297 65.0799C33.9368 65.1738 34.0719 65.0997 34.3194 65.1474ZM311.514 41.9271C313.642 40.9949 316.537 41.7841 318.791 42.9337C319.497 43.2901 319.226 45.0369 319.718 45.3607C320.681 45.9915 321.514 45.1021 322.477 45.8606C322.797 46.1204 322.543 48.8803 322.876 49.0899C324.702 50.2187 326.348 49.4398 328.184 49.9359C337.227 52.385 346.2 52.9789 355.557 54.0024C358.649 54.3365 362.426 56.7692 365.618 55.6716C365.992 55.5408 365.763 53.1321 365.834 52.9333C366.954 49.8911 366.587 54.756 367.316 55.4025C370.213 57.9563 373.4 58.2195 376.231 57.3662C377.437 56.997 376.373 52.1788 377.507 54.8996C377.585 55.0836 377.203 57.6317 377.522 57.9145C378.243 58.55 379.668 58.1439 380.236 58.3704C381.327 58.8193 381.513 58.8019 382.562 58.8812C382.798 58.903 383.04 58.9582 383.286 59.0333C383.386 59.0397 383.486 59.0462 383.65 59.0587C383.734 59.0652 383.832 59.0728 383.994 59.0883C384.172 59.1075 384.347 59.1165 384.947 59.2109C385.285 59.2749 385.637 59.3007 386.802 59.6463C387.43 59.8693 388.207 60.0175 390.106 61.1747C391.05 61.8094 392.427 62.6851 394.058 65.0025C395.688 67.1644 397.172 71.9182 396.033 75.9958C394.974 80.0646 392.754 82.1619 391.42 83.2833C390.006 84.4187 389.051 84.8534 388.329 85.1879C386.909 85.8004 386.277 85.9097 385.766 86.0374C384.806 86.2443 384.476 86.2604 384.177 86.2968C383.635 86.3499 383.464 86.3505 383.297 86.3585C383.142 86.3641 383.047 86.3654 382.966 86.3665C382.29 86.3688 382.516 86.3583 382.452 86.3541C382.421 86.3433 382.389 86.3319 382.357 86.3202C382.293 86.2968 382.227 86.2717 382.159 86.2455C382.022 86.193 381.873 86.1359 381.707 86.0777C381.378 85.9611 380.966 85.8397 380.507 85.7419C380.008 85.5531 379.422 85.4621 378.782 85.6926C378.45 85.818 378.845 88.4485 378.3 88.8849C378.033 89.1029 377.479 89.1483 376.977 89.0616C376.594 88.9771 376.195 88.7592 375.994 88.4461C375.59 87.8196 375.806 85.7618 375.742 85.288C375.226 81.289 373.524 86.7802 373.292 86.9122C369.782 89.1704 366.371 85.9531 363.314 85.8994C360.818 85.8616 357.827 86.8391 355.57 86.6502C352.777 86.4129 350.019 84.9346 347.416 85.1257C347.126 85.1425 347.402 88.2327 347.047 88.2595C343.268 88.5411 339.256 88.1231 335.595 85.9668C335.217 85.7476 335.765 83.0505 335.39 82.6696C333.12 80.3981 329.297 74.9748 327.787 86.7358C326.241 86.2444 324.33 85.7306 322.942 83.3263C322.046 81.7788 323.006 78.8475 321.84 80.0833C321.577 80.3586 321.861 82.9479 321.469 83.1654C319.824 84.0786 318.01 83.203 316.461 84.5075C316.138 84.7788 316.179 87.0947 316.081 87.5096C315.26 90.8697 314.1 85.2659 313.83 84.8551C311.774 81.7908 310.186 82.95 308.173 82.8372C307.705 82.8097 308.198 85.9289 307.746 86.0141C305.355 86.4136 303.12 86.1035 300.882 84.681C300.39 84.3572 300.899 81.7181 300.666 81.4279C299.637 80.1805 299.308 85.1772 298.314 84.0774C298.104 83.852 298.268 81.5874 298.234 81.3377C297.696 77.4182 297.058 82.9455 296.898 83.0647C294.873 84.6975 293.667 78.8921 291.785 79.6758C291.558 79.7753 292.014 82.653 291.376 82.7575C287.146 83.4706 282.522 82.5975 278.368 80.2276C277.72 79.863 278.226 77.7167 278.19 77.4504C277.594 73.2881 277.058 78.841 276.841 79.0466C275.128 80.5237 273.627 75.8322 272.355 82.4349C265.139 80.0076 258.025 83.6057 250.972 77.5536C250.883 77.4834 251.09 74.7474 250.912 74.6191C248.766 73.0455 249.113 77.3089 247.59 82.4911C247.207 83.7924 246.207 77.4893 246.117 77.0271C245.789 75.3236 246.224 71.2551 246.11 70.9243C245.166 68.3266 245.109 81.8038 243.78 81.7867C243.739 81.7636 243.953 79.2862 243.846 79.0378C243.512 78.2581 243.152 79.2381 242.826 78.3789C242.082 76.391 241.909 69.839 240.662 73.6308C240.504 74.123 240.612 81.77 239.43 81.3901C238.96 81.2322 236.864 81.3304 236.285 80.826C235.706 80.3221 236.147 77.8653 236.107 77.758C234.578 74.4764 235.198 73.1359 234.481 68.3016C233.763 63.4856 233.806 74.9466 233.464 76.2204C233.122 77.4907 232.005 74.7857 231.735 73.8472C231.465 72.9083 231.844 71.3485 231.599 70.8158C229.975 67.3349 230.777 76.4918 230.198 78.302C228.832 82.5882 227.947 74.076 226.77 73.2258C226.451 72.9961 226.685 74.9353 226.396 75.112C225.252 75.7864 224.597 73.1249 223.264 75.537C223.046 75.93 221.923 81.0235 221.299 77.2646C221.211 76.7226 221.514 74.6091 221.035 74.1278C220.32 73.4056 219.021 72.9241 218.233 73.6209C217.651 74.1365 218.26 77.6349 217.553 76.5408C217.238 76.0523 217.862 74.0196 217.269 73.2721C216.679 72.5249 215.146 72.5933 214.563 72.6557C213.981 72.7198 214.262 75.3708 214.213 75.5484C213.915 76.5659 212.784 77.8269 212.686 77.8224C207.663 78.0771 203.108 73.5563 198.273 74.9744C197.886 75.0817 198.109 77.8758 198.05 77.921C196.715 79.0744 197.845 71.6664 196.953 69.1715C197.018 74.8368 196.486 73.8047 195.552 74.4149C195.102 74.7136 195.319 76.9095 195.276 77.1335C194.575 80.4567 194.166 76.149 194.058 75.2674C193.658 72.0247 193.139 75.8447 192.867 73.6772C192.595 71.5259 193.314 68.3495 192.43 68.3802C192.159 70.4048 192.754 75.7105 192.074 76.5616C189.493 79.7803 184.933 75.5737 182.829 75.1208C180.785 74.6686 180.127 75.0364 178.952 74.2922C176.835 72.9471 177.578 76.8856 176.247 78.6728C174.915 80.4599 175.642 70.7935 175.472 68.7125C175.305 66.6325 175.083 68.7701 174.863 67.6255C174.644 66.4812 175.154 65.0718 174.617 64.6381C174.075 64.2047 172.595 67.8897 172.356 70.062C171.898 74.6645 172.544 79.5045 171.084 77.7935C171 77.692 171.296 75.151 170.973 74.8913C168.413 72.912 165.776 72.7706 163.293 71.022C162.952 70.7775 163.278 67.9503 163.079 67.776C161.017 65.9525 161.727 70.7281 160.567 76.0206C160.873 68.9696 160.25 64.6504 158.609 64.5992C157.627 64.5661 157.779 67.6474 157.136 69.8149C156.943 70.4683 156.266 68.3496 156.135 69.7976C155.702 74.5309 156.315 79.8349 154.675 77.7159C154.603 77.6153 154.846 75.0244 154.597 74.8662C152.99 73.8311 152.775 78.7833 151.061 79.3763C149.761 79.8417 147.273 76.8133 145.687 76.3187C145.738 68.3893 144.241 70.2018 143.637 75.6682C142.626 75.4427 141.546 75.7506 140.592 74.9945C140.263 74.7367 140.48 72.441 140.439 72.1929C139.804 68.3013 139.377 73.6203 139.167 73.8289C136.851 75.856 134.751 71.8276 132.546 75.7738C132.467 75.916 132.354 81.4243 131.748 77.4046C131.709 77.1275 132.434 74.619 131.389 74.4287C130.32 74.2382 128.49 71.2933 126.885 73.8557C126.516 74.4723 125.619 78.9496 124.864 75.4617C124.763 74.988 124.858 73.4076 124.711 72.5296C124.234 69.7321 124.032 75.3011 123.466 70.576C122.901 65.8512 121.765 62.3188 120.377 65.5972C120.332 65.6925 120.045 70.1085 119.605 70.0438C118.809 69.9377 117.675 69.033 116.877 69.0733C116.495 69.0941 116.779 71.8303 116.714 71.8814C114.103 73.4566 112.748 71.0355 109.699 70.0474C109.173 69.86 107.855 73.6325 106.873 70.7079C105.734 67.5098 106.542 54.0198 104.025 57.3167C102.929 58.6415 102.431 75.7412 100.425 66.9985C99.2935 67.8215 97.8618 67.8756 96.8609 67.7193C96.7297 67.7002 96.6012 67.6779 96.4752 67.6539C96.4122 67.6419 96.3499 67.6294 96.2882 67.6166C96.2093 67.6057 96.0882 67.5995 95.9913 67.5908C95.5868 67.558 95.215 67.5245 94.8671 67.5029C94.5185 67.4817 94.1958 67.4709 93.8704 67.4949C93.7889 67.501 93.7069 67.5095 93.6234 67.5212C93.6227 67.5148 93.4395 67.563 93.2903 67.6123C93.1343 67.6636 92.9671 67.7261 92.7718 67.8219C92.4108 68.034 91.7622 68.2691 91.2156 69.4715C90.9622 70.0602 90.9251 70.8979 91.1302 71.5138C91.3267 72.1402 91.6456 72.5353 91.898 72.7963C92.2703 73.1615 92.501 73.2708 92.6757 73.3681C92.8426 73.4555 92.9952 73.514 93.0319 73.5287C93.1547 73.5765 93.2507 73.6076 93.3392 73.6344C93.5171 73.6868 93.5857 73.7021 93.7019 73.7278C93.897 73.7694 94.0684 73.7933 94.2152 73.805C94.5286 73.8315 94.8238 73.8206 95.102 73.7724C95.6772 73.6782 96.2549 73.4419 96.8389 73.0179C97.019 72.8972 97.9445 68.2013 98.2671 68.293C98.7589 68.4399 98.8805 70.6801 99.253 70.8517C100.807 71.6197 102.332 69.7691 103.706 69.972C104.236 70.0301 104.25 72.3632 105.088 72.3533C105.38 72.3426 105.613 71.9069 105.689 71.4111C105.724 71.1676 105.718 70.892 105.594 70.7362C105.458 70.5594 105.23 70.7599 105.199 70.8439C104.994 70.7017 104.951 70.4585 105.232 70.0535C105.975 68.9136 111.601 66.2437 112.122 65.4676C106.271 67.2172 106.205 66.6359 104.383 65.8847C104.029 65.7332 102.004 66.4265 101.728 66.373C100.553 66.1263 102.201 65.3625 100.952 65.124C100.651 65.0617 98.5902 65.39 98.2267 65.3461C95.0378 64.9141 99.5565 62.9006 100.368 62.6925C103.405 61.6608 100.685 61.4546 101.896 60.7899C103.114 60.1903 104.646 61.0288 105.386 60.3862C106.916 59.1156 106.714 57.5805 107.017 56.3161C107.125 55.8196 104.322 55.6977 104.273 55.6167C103.778 54.3025 106.91 53.9267 101.701 51.9072C115.782 54.7952 100.52 50.8561 103.814 49.9255C104.081 49.855 110.572 51.8291 111.394 52.5324C112.22 53.2194 109.998 53.2549 111.35 54.2225C111.655 54.488 117.67 56.6576 118.041 56.7776C120.861 57.9579 110.905 56.0791 110.343 56.0398C104.329 55.4726 110.927 57.646 111.386 57.8402C113.415 59.0901 111.961 59.7756 113.511 60.5501C114.518 61.043 121.16 60.7931 120.966 60.9794C120.305 61.4068 111.295 63.7504 119.328 62.8153C121.036 62.5711 127.987 60.4893 122.593 62.3729C122.233 62.4346 117.437 64.5617 120.626 63.6462C121.025 63.5218 122.994 62.7472 123.168 62.7061C123.724 62.5787 123.64 62.682 123.515 62.824C124.723 65.7595 125.739 69.79 124.546 75.0504C123.267 80.2376 120.582 83.2815 118.419 85.2184C114.541 88.4299 112.549 88.8194 111.112 89.5858C108.4 90.8201 107.242 91.364 106.082 91.8179C104.966 92.2376 104.071 92.3926 103.29 92.0523C102.312 91.6458 101.392 87.6885 101.092 86.7163C100.243 83.9186 99.1155 88.4244 98.7571 85.031C98.4616 81.6228 99.6884 76.5544 98.6344 74.2935C98.2024 79.773 97.6849 85.3918 97.1845 90.8973C96.1544 90.7586 95.1659 90.4464 94.1069 90.0576C93.5722 89.8619 93.0306 89.6499 92.3477 89.4055C92.0117 89.2831 91.6433 89.1561 91.0709 88.9789C90.9239 88.9337 90.7684 88.8857 90.5983 88.833C90.4151 88.7775 90.153 88.7028 89.8717 88.6169C89.7258 88.5726 89.5803 88.5273 89.3911 88.4678C89.1422 88.3918 88.8578 88.302 88.5037 88.1798C88.3263 88.1184 88.1311 88.0487 87.91 87.9652C87.7994 87.9234 87.6823 87.8782 87.5572 87.8284C87.4273 87.7762 87.3278 87.7372 87.0268 87.6104C85.9421 87.0405 84.5324 86.8491 81.0415 83.5615C78.9011 81.4866 75.084 76.0489 75.8291 68.8273C76.6232 61.6784 80.7094 57.8526 82.7828 56.2155C85.0611 54.4843 86.4881 53.9588 87.5868 53.5131C88.1338 53.3051 88.5961 53.1561 89.0064 53.0349C89.0542 53.0208 89.1216 53.0011 89.1462 52.9945C89.1604 52.9911 89.1745 52.9877 89.1885 52.9844C89.2165 52.9777 89.2446 52.9711 89.2722 52.9647C89.3274 52.9518 89.3815 52.9394 89.4352 52.9274C90.2867 52.7384 90.9311 52.645 91.5115 52.5644C92.6588 52.4108 93.5586 52.3171 94.4865 52.1658C94.8995 52.0843 94.1616 49.1924 94.5672 49.0338C96.1807 48.3909 98.2329 50.3651 99.6793 49.4456C100.773 48.7234 101.972 45.5363 103.329 44.6955C104.555 50.9417 106.025 48.7562 107.378 49.2936C107.84 49.4794 107.856 51.1594 108.198 51.6985C109.497 53.6922 108.775 48.1514 109.101 47.2682C110.489 43.5009 111.117 56.0702 112.607 55.7298C112.686 55.7159 113.605 48.9922 113.749 48.5722C114.637 45.8335 113.943 50.9031 114.537 51.3886C115.63 52.2761 116.411 53.8658 117.711 51.8842C118.069 51.2976 119.044 47.1055 119.741 50.3308C119.835 50.7531 119.811 52.97 119.884 53.099C121.213 55.2482 121.182 48.2842 121.928 45.9182C122.676 43.5528 123.935 48.3502 124.195 49.7339C124.873 53.3133 123.708 51.2696 123.678 51.6217C123.303 55.8111 124.176 55.083 124.864 55.4318C125.012 62.2594 125.968 61.8429 125.578 55.7659C125.533 55.1021 125.003 55.7427 124.864 55.4318C125.414 48.7277 126.48 47.8622 127.718 54.1164C128.28 57.0479 127.844 60.4712 129.38 59.2122C130.085 58.644 129.79 53.9434 130.417 52.6589C131.851 49.7283 133.79 54.1089 135.352 53.4154C135.919 53.1637 135.362 50.5908 135.75 50.33C136.769 49.6301 137.757 51.5605 138.727 50.571C138.816 50.4781 138.599 47.784 138.903 47.7496C141.21 47.4365 143.266 49.1644 145.792 49.2179C146.997 49.2424 149.279 47.7634 150.437 48.0666C152.539 48.576 155.163 52.5061 157.032 51.5646C158.252 50.962 158.002 48.2659 158.536 46.4328C159.576 42.8796 161.327 49.2657 161.53 50.2542C161.536 50.2869 160.525 50.9158 161.054 52.3024C161.348 55.1867 161.518 50.2666 161.53 50.2542C161.676 50.8927 163.698 51.5179 164.109 51.0057C164.331 50.7257 164.226 48.1718 164.342 48.0741C167.09 45.8084 169.882 45.1812 172.734 46.3994C172.784 46.4514 172.684 49.3065 172.802 49.3931C174.383 50.6766 175.432 47.1923 176.777 45.1303C178.121 43.0694 179.175 43.7739 179.919 48.684C180.933 48.0765 182.367 50.2584 183.195 51.5821C184.022 52.9057 184.198 47.3482 184.273 47.239C186.649 43.746 187.851 46.941 190.214 47.4625C191.329 47.7198 193.57 46.9389 194.803 46.3455C195.776 45.8671 196.346 47.1768 197.251 46.3545C197.374 46.2447 197.281 43.7682 197.319 43.6734C198.355 40.7242 197.802 46.769 197.995 47.8521C198.701 51.7909 199.128 53.8893 200.405 52.0561C200.7 51.6363 201.653 42.9349 202.19 42.432C202.887 41.7943 202.587 44.9137 203.319 44.1664C203.382 44.1053 203.393 42.1786 203.839 42.2693C205.907 42.6645 208.162 43.8151 210.338 43.6511C210.635 43.6361 210.295 40.5753 210.725 40.5033C212.761 40.1683 214.915 40.3109 216.844 41.7684C217.318 42.1367 216.988 44.272 217.083 44.9087C217.666 48.7613 218.65 43.1893 218.801 43.085C222.399 40.4516 225.091 45.5461 228.742 43.1938C228.942 43.0555 230.553 37.0914 231.154 42.2363C231.196 42.5786 231.788 47.842 232.436 44.2593C232.476 44.0352 232.099 41.3244 232.826 41.6111C233.552 41.8973 234.756 40.1094 235.715 43.0964C236.019 44.0374 236.689 49.2893 237.703 45.1269C237.769 44.8362 239.383 35.414 239.804 41.939C239.872 43.013 239.674 49.9078 240.863 46.3899C241.09 45.7079 240.722 44.1635 241.307 43.212C242.205 41.7455 243.334 43.611 244.457 40.5563C244.653 40.0155 245.526 35.3476 246.108 38.9106C246.199 39.4686 245.972 41.7678 246.305 42.031C247.89 43.2929 249.595 41.7804 251.195 43.4002C251.762 43.9694 251.406 47.6864 251.989 48.6937C252.574 49.7008 253.759 50.6799 254.424 48.9897C255.085 47.2988 254.494 41.3554 255.449 40.8966C259.604 38.9043 263.608 42.4537 267.661 43.0337C268.27 43.1204 267.801 40.9889 268.704 40.9644C272.04 40.8648 277.77 38.9764 280.513 43.5379C282.732 47.1917 279.794 49.8894 281.529 51.3914C282.373 52.1082 283.422 45.2289 283.632 45.0156C285.684 42.847 287.018 45.9274 288.826 45.0233C289.199 44.8357 288.889 42.0339 289.206 41.9051C290.289 41.4402 291.389 42.7087 292.411 42.4995C292.87 42.3993 292.825 40.2629 293.242 40.4355C294.226 40.8237 295.132 41.7384 296.1 43.7581C296.188 43.9422 295.52 46.5861 296.281 46.6992C297.513 46.8748 298.998 48.8774 300.438 46.8657C300.866 46.2604 300.976 41.3819 301.802 44.7682C301.975 45.4755 301.626 51.3295 302.757 46.2872C302.948 45.4494 304.81 38.6548 305.568 43.0721C305.769 44.2347 306.244 49.0396 306.747 48.2956C306.817 48.1767 306.598 45.5509 307.013 45.3032C308.526 44.4767 310.074 44.7864 311.599 43.9949C312.006 43.7784 311.459 41.0549 312.064 40.8187C313.728 40.1654 315.749 40.8957 317.306 41.7754C317.88 42.1049 317.435 44.3434 317.472 44.5886C318.072 48.5782 318.576 43.2191 318.806 42.9105C320.282 41.065 321.369 43.6085 322.711 42.9677C323.082 42.7977 322.872 40.2335 322.95 40.0067C323.752 37.7923 323.096 42.3767 323.565 42.8928C324.878 44.3538 326.359 44.1776 327.688 43.877C328.176 43.7628 327.69 40.7847 328.127 40.7165C330.619 40.2548 333.559 40.5979 336.054 42.2849C336.529 42.608 336.18 44.8867 336.27 45.4106C336.888 49.0757 337.989 44.1158 338.227 43.646C339.312 41.5011 339.671 43.5297 340.583 43.1709C345.44 41.3911 350.711 42.838 355.251 43.7584C358.004 44.3472 360.467 45.2077 363.007 45.866C364.24 46.1944 365.418 46.4707 366.572 46.6354C367.869 46.803 369.277 46.8617 370.583 46.747C370.917 46.7208 370.643 43.6744 370.931 43.6127C374.472 42.9502 378.644 44.2267 382.123 43.4005C382.374 43.3369 382.083 40.4512 382.428 40.2512C382.491 40.2054 382.541 40.1661 382.567 40.1333C382.58 40.117 382.587 40.1023 382.586 40.0893C382.585 40.0828 382.582 40.0767 382.576 40.0711C382.566 40.0698 382.612 40.068 382.449 40.0672C382.369 40.0671 382.256 40.0668 382.014 40.0711C381.737 40.0801 381.499 40.0699 380.325 40.1506C379.597 40.2343 379.113 40.15 375.895 40.7892C375.02 40.9838 373.921 41.2257 372.059 41.8635C370.157 42.624 367.572 43.23 362.345 47.2338C359.794 49.3263 356.25 52.5743 353.284 58.6839C350.252 64.6298 349.121 73.9992 351.236 81.1653C355.979 95.8477 363.185 98.5719 366.058 100.753C372.436 104.256 373.741 103.973 375.245 104.475C376.563 104.782 377.228 104.881 377.766 104.968C378.793 105.124 379.207 105.158 379.558 105.196C380.209 105.258 380.42 105.269 380.603 105.282C380.772 105.294 380.854 105.298 380.908 105.302C380.133 105.403 379.287 105.113 378.595 104.359C378.165 103.897 378.868 101.451 378.429 101.037C377.402 100.068 376.254 99.8242 375.134 100.256C374.658 100.447 375.286 103.412 374.68 103.43C370.538 103.618 366.455 104.111 362.058 100.349C361.757 100.09 361.411 94.1035 360.782 95.262C360.759 96.9252 360.792 98.8807 360.798 100.658C354.533 101.713 348.11 99.8691 341.511 99.8385C341.233 99.8379 341.852 102.988 341.315 103.003C338.21 103.094 335.211 104.117 331.823 101.121C331.487 100.828 331.385 95.2423 330.478 96.1314C330.318 96.2933 328.924 97.1058 328.611 98.3344C328.569 98.5194 328.955 101.11 328.497 101.208C325.83 101.732 322.962 101.271 320.17 99.8002C319.72 99.5577 320.065 96.7642 319.744 96.5673C317.468 95.1924 315.131 97.4003 312.898 94.961C311.407 93.3176 311.762 88.5031 310.845 83.8098C310.715 83.1477 309.838 83.072 309.701 80.3271C309.357 73.4249 309.517 65.8491 309.099 58.4938C309.01 56.9097 307.943 58.6543 308.482 54.801C308.52 54.5431 309.289 53.2442 309.444 51.9375C309.552 51.0341 309.206 48.2498 309.448 47.0897C309.689 45.9307 310.083 48.2609 310.502 46.8925C310.92 45.5073 310.597 42.3381 311.514 41.9271ZM186.89 57.4993C187.62 60.177 187.838 50.4008 186.991 52.7312C186.95 52.8555 186.852 57.3679 186.89 57.4993ZM84.3408 66.9493C86.1286 63.3708 88.15 62.6913 89.1806 62.1999C90.2936 61.7707 90.9503 61.7173 91.4928 61.652C91.8232 61.6058 91.836 61.6572 91.9186 61.6749C91.9904 61.6967 92.0568 61.7118 92.1186 61.7205C92.2422 61.7377 92.3471 61.7289 92.4384 61.6954C92.7997 61.5627 92.9609 61.0278 93.0101 60.2721C93.0845 58.7702 92.7634 56.3615 91.573 54.9057C90.9639 54.1852 90.4158 54.1501 89.9784 54.5296C89.9237 54.577 89.871 54.6308 89.8201 54.6905C89.7948 54.7203 89.7698 54.7516 89.7453 54.7843C89.7331 54.8007 89.7208 54.8174 89.709 54.8344C89.6863 54.8547 89.6144 54.8906 89.5652 54.9202C89.1401 55.1672 88.678 55.4652 88.1602 55.8393C87.1377 56.5927 85.828 57.624 84.3693 59.4053C82.9284 61.1307 81.444 63.9421 81.1245 66.6342C80.7601 69.3396 81.4094 71.3362 81.9179 72.1309C82.4553 72.9519 82.8249 72.8472 83.0198 71.9584C83.2385 71.104 83.3355 69.1571 84.3408 66.9493ZM104.825 78.491C103.024 75.2191 102.966 89.1022 105.344 86.1381C105.516 85.9637 104.963 78.6756 104.825 78.491ZM314.264 82.3369C314.249 82.2076 313.619 82.1054 313.608 82.2346C313.394 85.3507 314.658 85.5527 314.264 82.3369ZM107.501 62.3723C105.657 62.879 107.925 63.5436 110.19 62.8608C112.016 62.3857 109.796 61.8331 107.501 62.3723ZM226.808 68.4529C226.818 68.5988 227.26 68.7366 227.263 67.9129C227.273 65.26 226.644 65.9994 226.808 68.4529ZM110.46 47.0786C109.085 48.9545 97.6966 46.7779 100.076 44.2143C100.5 43.7867 103.018 46.6928 104.24 46.4169C106.424 46.0189 100.168 42.3671 104.23 42.7508C104.95 42.8652 110.545 47.0084 110.473 47.0889C110.468 47.0855 110.464 47.082 110.46 47.0786ZM187.201 69.248C187.214 69.3774 187.822 69.5066 187.838 69.3786C188.202 66.2781 186.977 66.0161 187.201 69.248ZM252.659 74.9075C252.687 75.1835 254.112 75.465 254.165 75.212C254.996 70.1489 252.113 69.5647 252.659 74.9075ZM145.663 76.1071C144.975 79.2284 144.169 79.5946 143.641 75.6722C144.307 75.8814 144.983 75.9134 145.663 76.1071ZM78.4304 30.8071C77.6636 30.436 78.4994 30.7981 79.6413 31.3069C79.9955 31.4647 81.5684 32.192 81.8837 32.3336C82.4985 32.6095 81.7291 32.2482 82.4609 32.5782C82.7111 32.6911 85.2031 33.842 85.4084 33.9341C86.5154 34.4304 85.8852 34.1273 86.4204 34.3602C89.061 35.5085 90.0189 35.892 91.1832 36.3536C91.5645 36.506 93.8379 37.525 92.8571 37.0503C92.7403 36.9939 90.5511 35.9876 90.3709 35.9042C87.6125 34.6262 92.0298 36.6625 92.6188 36.9285C94.9445 37.9785 95.1547 38.0526 94.3173 37.6479C93.9546 37.4728 89.6043 35.4785 92.0475 36.5949C92.2125 36.6703 94.536 37.7419 94.7847 37.8541C95.3442 38.1066 94.9324 37.9075 95.118 37.989C95.4876 38.1515 95.4643 38.1404 95.494 38.1457C95.5546 38.1626 96.7149 38.6835 96.1927 38.4316C96.0743 38.3747 93.6904 37.2808 93.2864 37.091C92.8831 36.9015 93.0891 36.9859 93.6521 37.2416C94.2153 37.4973 96.0875 38.3603 96.517 38.5573C100.142 40.2204 95.1285 37.9015 95.005 37.8432C92.9009 36.8476 95.7682 38.1439 95.7694 38.1199C95.7643 38.0989 94.8279 37.6487 94.9637 37.6942C95.135 37.7522 96.4345 38.3284 96.2206 38.2086C96.2008 38.1972 93.3979 36.9111 93.368 36.8945C93.0532 36.7201 93.3693 36.8374 95.2713 37.6843C95.4646 37.7704 97.9234 38.9041 98.2636 39.0577C100.292 39.9727 105.158 42.1848 94.4512 37.2519C94.8743 37.4335 95.3122 37.6197 97.4757 38.6027C98.8682 39.2353 101.546 40.4722 100.406 39.9397C100.151 39.821 97.8031 38.7448 97.5996 38.6484C96.7449 38.2436 97.5128 38.5834 96.3043 38.0169C96.053 37.8992 93.9493 36.9338 93.5707 36.7593C90.5052 35.3462 95.5795 37.6673 95.9488 37.8348C98.7023 39.0841 97.6248 38.5792 97.6972 38.5985C97.7153 38.6032 94.888 37.3098 94.804 37.2677C94.4059 37.0667 94.6556 37.1634 95.9157 37.7251C96.2028 37.8532 98.6087 38.9602 98.8691 39.0778C99.9878 39.5832 95.4418 37.4965 96.4269 37.9412C96.6287 38.0322 98.6892 38.9781 98.9157 39.0816C102.47 40.7074 97.4374 38.3957 97.3266 38.3439C95.8131 37.6364 101.072 40.0389 100.333 39.6874C100.239 39.6429 97.6297 38.4504 97.5255 38.3985C96.8184 38.0404 97.5465 38.3433 99.6427 39.2768C99.9651 39.4203 101.924 40.3189 102.166 40.4292C105.942 42.1521 100.886 39.8354 100.696 39.7473C99.3292 39.1101 103.576 41.0384 97.5528 38.2813C98.6054 38.7432 98.2919 38.5746 98.3832 38.6133C98.4261 38.6392 98.5867 38.679 99.0212 38.9862C99.0655 39.0482 99.119 39.0997 99.1222 39.2929C99.1216 39.3452 99.1169 39.4082 99.0967 39.5159C99.0741 39.6345 99.0461 39.748 98.9362 40.1635C98.88 40.4024 98.7943 40.6303 98.6497 41.5173C98.615 41.7512 98.5764 42.0372 98.5507 42.4587C98.5362 42.8946 98.4803 43.3674 98.6484 44.5744C98.8819 45.6822 99.092 47.79 101.745 50.3662C104.442 53.0849 109.324 53.2993 111.198 52.5319C113.297 51.8559 114.058 51.1362 114.65 50.6836C115.214 50.21 115.497 49.8932 115.722 49.6406C116.152 49.1449 116.312 48.894 116.449 48.693C116.699 48.309 116.77 48.1548 116.837 48.0215C117.045 47.5659 116.998 47.5351 116.998 47.4317C116.986 47.3493 116.955 47.2996 116.919 47.2545C116.85 47.161 116.747 47.1215 116.645 47.0615C116.231 46.8351 115.699 46.5776 115.029 46.2602C114.967 46.2309 112.489 45.0632 112.375 45.0103C110.981 44.3617 114.833 46.1731 119.547 48.3838C120.731 48.938 115.037 46.2764 114.619 46.0824C113.08 45.3648 109.389 43.6366 109.091 43.4979C106.749 42.4118 118.958 48.1161 118.96 48.1219C118.94 48.1125 116.693 47.0624 116.469 46.9585C115.767 46.6323 116.659 47.0507 115.885 46.6911C114.093 45.8588 108.157 43.0932 111.608 44.7107C112.056 44.9205 118.985 48.1488 118.655 48.0019C118.518 47.9409 118.632 48.0065 118.181 47.8001C117.731 47.5942 115.499 46.5531 115.402 46.5083C112.445 45.1427 111.222 44.5701 106.847 42.5413C102.488 40.5208 112.879 45.3507 114.038 45.8917C115.194 46.4312 112.754 45.3051 111.905 44.9132C111.057 44.5211 109.638 43.8592 109.158 43.6379C106.019 42.1929 114.314 46.0392 115.962 46.8088C119.864 48.631 112.154 45.0562 111.396 44.7131C111.191 44.6204 112.947 45.4337 113.11 45.5116C113.734 45.8091 111.327 44.6972 113.529 45.7282C113.888 45.8963 118.52 48.0521 115.116 46.4787C114.626 46.2519 112.705 45.3593 112.274 45.1628C111.626 44.8677 111.202 44.682 111.842 44.9839C112.315 45.2075 115.483 46.671 114.498 46.2193C114.058 46.0177 112.207 45.1558 111.535 44.8486C110.863 44.5415 110.94 44.5886 111.002 44.6218C111.066 44.6556 113.469 45.7662 113.63 45.8415C114.556 46.2725 115.712 46.8156 115.708 46.8149C115.988 46.9811 111.926 45.1342 113.252 45.7847C113.353 45.8341 115.887 47.0038 115.928 47.0234C116.986 47.5222 110.253 44.4017 107.996 43.3652C113.137 45.7411 112.205 45.3142 112.766 45.5806C113.041 45.7109 115.032 46.6295 115.236 46.724C118.258 48.1254 114.351 46.323 113.552 45.9545C110.611 44.5989 114.083 46.2065 112.117 45.3005C110.167 44.4013 107.278 43.0614 107.312 43.084C109.152 43.936 113.964 46.1544 114.742 46.5187C117.684 47.8959 113.896 46.1813 113.498 46.0133C113.101 45.8449 113.439 46.0055 112.77 45.7058C111.561 45.1638 115.133 46.8059 116.763 47.5677C118.393 48.3292 109.611 44.2739 107.723 43.4042C105.835 42.5348 107.777 43.4322 106.739 42.9552C105.701 42.4782 104.419 41.8828 104.027 41.7067C103.637 41.5309 106.99 43.0891 108.964 44.0007C113.146 45.932 117.538 47.9522 115.991 47.2498C115.899 47.2081 113.59 46.1415 113.356 46.0358C111.571 45.2319 111.453 45.1971 109.873 44.4883C109.652 44.3892 107.083 43.2033 106.925 43.1322C105.275 42.3885 109.611 44.3798 114.421 46.604C108.016 43.6519 104.095 41.8509 104.052 41.8439C104.024 41.8387 106.823 43.1259 108.793 44.0378C109.387 44.3127 107.464 43.4325 108.779 44.0391C113.079 46.0218 117.896 48.2346 115.975 47.3619C115.883 47.3204 113.529 46.2352 113.386 46.171C112.448 45.7514 116.947 47.8233 117.487 48.0844C117.911 48.2892 115.16 47.0415 114.71 46.8458C107.505 43.5328 109.151 44.3008 114.117 46.588C113.91 46.5007 114.188 46.6363 113.499 46.3268C113.264 46.2212 111.178 45.2613 110.953 45.1579C107.415 43.5372 112.247 45.7609 112.436 45.8492C114.271 46.7099 110.602 45.0394 114.176 46.6969C114.305 46.7566 119.311 49.0553 115.654 47.3811C115.402 47.2657 113.126 46.2157 112.947 46.1412C112.768 46.0666 110.079 44.8472 112.394 45.9208C112.952 46.1793 117.013 48.0487 113.836 46.5968C113.404 46.3996 111.969 45.7405 111.169 45.375C108.622 44.2103 113.682 46.5322 109.381 44.5643C105.08 42.5965 101.857 41.1282 104.819 42.4974C104.905 42.5372 108.916 44.3777 108.851 44.3515C108.744 44.3082 107.905 43.932 107.929 43.9488C107.942 43.9576 110.434 45.097 110.479 45.1182C111.868 45.7723 109.642 44.7673 108.67 44.3433C108.487 44.2635 111.881 45.8258 109.192 44.6035C106.248 43.2658 94.0166 37.6672 96.9236 39.0165C98.086 39.5568 113.607 46.6529 105.558 42.9925C107.541 43.9243 103.414 42.0681 106.251 43.3867C106.377 43.4452 110.711 45.4209 110.651 45.3962C110.553 45.3558 108.526 44.4361 108.391 44.3779C107.776 44.1108 109.506 44.9077 109.232 44.7943C109.133 44.7533 107.037 43.8011 106.918 43.7524C106.801 43.7046 109.56 44.9587 108.224 44.36C107.206 43.904 101.559 41.3541 100.898 41.0647C106.465 43.5837 106.349 43.5366 107.815 44.2084C108.1 44.3386 110.039 45.2128 110.273 45.3196C111.271 45.7733 109.664 45.05 110.75 45.5433C111.011 45.6617 112.914 46.5202 113.234 46.6654C116.035 47.9324 111.753 46.0071 111.007 45.6729C108.175 44.4018 110.649 45.5181 109.533 45.0197C108.417 44.522 107.026 43.8893 106.347 43.5899C104.943 42.9714 105.244 43.1241 105.152 43.0954C105.127 43.0894 107.672 44.2228 107.727 44.2484C108.37 44.5423 105.659 43.3462 110.728 45.6037C97.6116 39.7878 111.998 46.1732 109.37 45.0142C109.157 44.9203 102.947 42.1873 102.039 41.778C101.132 41.3685 103.075 42.2172 101.66 41.5787C101.327 41.4303 95.5252 38.8302 95.1741 38.6719C92.4317 37.4312 101.692 41.5604 102.201 41.7873C107.691 44.2322 101.441 41.4294 101.011 41.2315C99.0381 40.3307 100.345 40.9018 98.9383 40.255C98.0295 39.8367 91.9734 37.1103 92.1619 37.1868C92.785 37.4394 101.231 41.2478 93.9185 37.9221C92.3589 37.2125 85.743 34.2255 90.9508 36.562C91.2793 36.709 96.0411 38.8519 93.0351 37.4833C92.6561 37.3107 90.729 36.4379 90.5676 36.3634C89.5237 35.8821 91.0605 36.5739 90.3285 36.2336C89.5965 35.8934 88.5046 35.3876 89.1616 35.6761C89.5546 35.8485 93.1461 37.4724 94.0256 37.8694C96.5591 39.0134 92.4126 37.1215 95.4788 38.5107C98.5602 39.9075 103.235 42.0399 105.228 42.9367C100.225 40.6613 95.09 38.3253 90.0586 36.0365C90.2458 36.0925 91.8714 36.8112 91.6598 36.69C91.6285 36.6727 88.9387 35.4496 88.8359 35.3994C88.4142 35.1928 90.3353 36.0568 89.5776 35.6966C88.9809 35.413 86.1397 34.1032 85.4271 33.7662C91.1504 36.3738 89.2144 35.4734 89.7417 35.7024C89.9239 35.7815 91.4514 36.4802 91.9509 36.7057C93.7982 37.5396 88.7419 35.2324 87.9476 34.866C84.5581 33.3021 95.9982 38.5343 95.721 38.3932C95.7101 38.3876 89.6165 35.5888 89.2374 35.4137C86.7649 34.273 91.3602 36.384 91.8127 36.5858C92.6396 36.9547 94.0979 37.6164 92.3163 36.7895C91.7886 36.5446 87.9919 34.7972 90.9333 36.1386C91.3185 36.3143 93.3333 37.2379 93.4515 37.2915C95.4229 38.1831 89.0919 35.2814 86.9505 34.2926C84.8096 33.304 89.184 35.2984 90.4443 35.8742C93.7047 37.3636 91.8351 36.5163 92.1547 36.6632C95.9586 38.4108 95.3063 38.1041 95.63 38.2468C101.837 41.0926 101.468 40.9155 95.9406 38.3833C95.3369 38.1068 95.914 38.3759 95.63 38.2468C89.5419 35.45 88.7658 35.084 94.4602 37.6865C97.129 38.9063 100.237 40.3365 99.1045 39.8037C98.5932 39.5631 94.319 37.6039 93.156 37.0647C90.5027 35.8342 94.495 37.6504 93.8718 37.3515C93.6456 37.2429 91.305 36.1725 91.0698 36.0612C90.4384 35.7625 92.1961 36.5623 91.3005 36.1422C91.2164 36.1027 88.7675 34.9795 88.7373 34.9629C88.461 34.8149 90.0357 35.5209 90.0872 35.5233C90.111 35.524 88.7681 34.8879 89.0435 35.0039C89.5066 35.1982 93.074 36.8178 92.2153 36.4071C91.6658 36.1439 89.2172 35.0187 87.5511 34.2471C84.3217 32.7513 90.1179 35.4055 91.0152 35.817C91.0449 35.8306 91.6186 36.1035 92.8768 36.6784C95.4958 37.882 91.0265 35.8223 91.0152 35.817C91.5949 36.0826 92.1571 36.3243 91.6906 36.1059C91.4356 35.9866 89.1164 34.9191 89.0272 34.877C86.961 33.9016 86.3809 33.6101 87.4742 34.0899C87.5212 34.1112 90.1143 35.3076 90.1924 35.3426C91.3507 35.863 88.1816 34.3927 86.3026 33.5143C84.4243 32.6364 85.0584 32.9195 89.5125 34.9682C88.9553 34.7025 90.9278 35.601 92.1246 36.1463C93.3214 36.6916 88.2745 34.3608 88.175 34.3142C84.9889 32.8234 87.8823 34.1476 88.3395 34.3387C88.5655 34.4335 87.8407 34.0797 87.2929 33.8162C86.8514 33.6041 88.036 34.1462 87.2828 33.7903C87.1823 33.7427 84.9351 32.705 84.8487 32.6647C82.164 31.4147 87.6549 33.9574 88.6365 34.4094C92.2062 36.0531 94.1075 36.9285 92.4336 36.1436C92.0502 35.964 84.1451 32.3007 83.6845 32.0828C83.1001 31.8063 85.9336 33.1193 85.2495 32.7965C85.1935 32.77 83.4448 31.9612 83.5235 31.9936C83.8654 32.1332 84.8901 32.5884 84.7228 32.4903C84.7066 32.48 81.9321 31.1991 81.8631 31.1631C81.5415 30.9954 81.652 31.0259 82.9566 31.6127C83.2865 31.7611 85.2268 32.663 85.8036 32.9293C89.2936 34.5409 84.229 32.1859 84.133 32.1399C81.7111 30.9826 86.3069 33.087 84.1371 32.0458C84.0094 31.9853 78.5851 29.4497 83.2454 31.6067C83.5555 31.7501 88.3228 33.9581 85.0676 32.4391C84.864 32.344 82.4094 31.2079 82.6625 31.3175C82.9149 31.4269 81.2822 30.6545 83.9809 31.8988C84.8312 32.2906 89.5858 34.4953 85.8019 32.7245C85.5373 32.6019 76.9808 28.5993 82.892 31.3445C83.8649 31.7965 90.1164 34.7101 86.9165 33.2049C86.2962 32.913 84.8998 32.2674 84.032 31.8553C82.6947 31.2199 84.3746 31.9882 81.5966 30.6757C81.1049 30.4433 76.8677 28.453 80.0917 29.9467C80.5966 30.1806 82.681 31.1588 82.9171 31.2624C84.0489 31.76 82.6685 31.0759 84.1283 31.7155C84.6445 31.9332 88.007 33.5302 88.9194 33.9341C89.8319 34.337 90.7213 34.7 89.2166 33.9039C88.4682 33.4968 86.775 32.6142 85.196 31.8477C84.4101 31.4571 83.6589 31.0826 83.1028 30.7411C82.8256 30.5687 82.5962 30.4064 82.4505 30.2254C82.3134 30.0289 82.2186 29.8872 82.4074 29.399C82.5523 29.0717 82.5996 28.8484 83.408 27.4743C83.6353 27.1005 83.9188 26.6341 84.4898 25.8275C85.1547 24.9706 85.676 23.9673 88.5661 21.2404C90.2068 19.8975 92.0934 17.7497 98.5087 15.2819C101.714 14.1551 106.568 12.9838 112.828 13.9079C119.05 14.7196 125.905 18.4651 129.814 22.7704C137.688 31.7899 137.306 37.6227 137.84 40.7119C138.059 43.9325 137.881 44.9819 137.779 46.2429C137.24 50.48 136.87 50.9534 136.661 51.8572C136.444 52.5958 136.323 52.9614 136.228 53.2602C136.045 53.8298 135.972 54.0641 135.915 54.2663C135.809 54.6423 135.789 54.7833 135.772 54.9113C135.757 55.0319 135.756 55.1077 135.756 55.1701C135.78 55.3658 135.821 55.3498 135.78 55.3882C135.712 55.4315 135.457 55.3697 135.139 55.2542C134.505 55.0142 133.584 54.6309 133.339 54.5543C133.266 54.5307 135.2 55.4065 135.233 55.432C135.363 55.5278 137.143 56.4199 133.033 54.5614C129.74 53.0753 127.248 51.9098 125.906 51.3106C125.265 51.0246 131.534 53.9018 131.73 53.9939C133.729 54.9273 130.946 53.6663 131.792 54.071C131.967 54.155 134.51 55.3163 134.631 55.375C135.068 55.5856 133.929 55.0763 134.133 55.1786C134.231 55.227 136.172 56.1161 136.021 56.0503C135.682 55.9032 134.863 55.5354 133.041 54.7081C132.875 54.6327 130.462 53.5217 130.37 53.4856C130.228 53.4304 128.429 52.6178 130.277 53.4775C130.833 53.7361 135.269 55.7708 132.202 54.3721C131.562 54.08 126.237 51.635 130.835 53.7536C131.6 54.1056 137.8 56.9664 133.797 55.1371C132.743 54.6556 128.383 52.66 129.066 52.978C129.175 53.0287 131.558 54.1199 131.789 54.2297C132.561 54.598 132.303 54.4917 133.044 54.8435C133.247 54.9397 135.714 56.0675 135.937 56.1748C136.555 56.4715 135.922 56.197 135.145 55.8535C134.854 55.7247 132.814 54.7843 132.591 54.6826C128.975 53.0275 133.852 55.2705 134.136 55.4027C135.834 56.1947 133.54 55.1498 134.142 55.4375C134.302 55.5141 136.628 56.5807 136.836 56.6765C138.859 57.6126 134.684 55.6899 134.222 55.4817C132.914 54.8922 133.096 54.9886 133.389 55.1349C133.5 55.1902 136.199 56.4253 136.267 56.4606C136.722 56.6951 136.458 56.5908 134.963 55.9246C134.677 55.7968 132.601 54.8405 132.127 54.6231C128.807 53.1024 133.33 55.1892 133.76 55.3889C135.725 56.3007 133.888 55.4593 134.228 55.6231C135.92 56.4376 134.686 55.9176 133.921 55.6031C132.938 55.1931 130.95 54.312 131.447 54.5831C131.476 54.5992 134.239 55.8677 134.299 55.8978C134.953 56.2292 133.862 55.7579 134.648 56.1515C134.707 56.1815 137.327 57.3833 137.511 57.4721C137.906 57.6625 137.759 57.6063 136.92 57.2276C136.516 57.0453 134.271 56.0071 133.91 55.8447C133.065 55.4643 132.875 55.3864 133.291 55.5871C133.474 55.6752 136.154 56.9028 136.183 56.9213C136.435 57.0722 136.883 57.3136 133.402 55.7477C133.162 55.6402 127.72 53.1365 128.761 53.6214C130.271 54.3171 132.048 55.135 133.662 55.8784C134.512 56.3225 132.603 55.5018 132.293 55.4067C132.281 55.4031 135.165 56.728 135.156 56.7277C135.104 56.7278 135.894 57.1152 133.019 55.816C132.737 55.689 127.666 53.3516 128.43 53.711C128.57 53.7765 129.242 54.0973 130.342 54.6069C130.508 54.6837 132.876 55.7726 132.944 55.8073C133.295 55.9902 132.746 55.7596 131.292 55.111C131.052 55.0042 128.533 53.8397 128.34 53.7536C126.995 53.1514 128.905 54.0502 126.609 53.0097C125.064 52.309 120.707 50.2977 116.416 48.3263C115.81 48.0482 115.712 48.0098 113.216 46.8602C106.94 43.9694 100.069 40.8004 93.3793 37.7195C91.9383 37.0558 93.4867 37.7786 90.0069 36.1697C89.7741 36.0621 88.621 35.5241 87.4405 34.9785C86.6243 34.6013 84.0854 33.4335 83.0409 32.95C81.9974 32.4668 84.126 33.445 82.8993 32.8759C81.6573 32.2999 78.7693 30.9709 78.4304 30.8071ZM97.4735 38.5845C99.8996 39.6986 91.0229 35.5982 93.1441 36.5848C93.2572 36.6374 97.3545 38.5298 97.4735 38.5845ZM98.5834 39.8684C102.511 41.6493 96.7429 39.0147 93.7096 37.6389C90.6792 36.2651 97.3925 39.3288 98.5834 39.8684ZM101.414 41.2497C104.514 42.6467 91.8895 36.9138 94.4369 38.0832C94.5809 38.1493 101.234 41.1686 101.414 41.2497ZM115.205 47.7406C115.087 47.6863 114.97 47.6375 115.087 47.6914C117.906 48.9931 118.138 49.0898 115.205 47.7406ZM104.503 42.7398C106.214 43.508 104.243 42.6106 102.116 41.6549C100.404 40.8866 102.374 41.7847 104.503 42.7398ZM107.066 42.7038C107.198 42.7651 107.319 42.8176 106.572 42.4708C104.165 41.3541 104.843 41.6732 107.066 42.7038ZM104.567 42.9901C105.083 43.1109 115.553 47.7556 114.388 47.1937C114.175 47.0965 111.031 45.7537 110.086 45.3377C108.354 44.6046 114.979 47.401 111.443 45.8689C110.785 45.6142 104.508 42.9881 104.552 42.9838C104.557 42.9859 104.562 42.988 104.567 42.9901ZM108.138 43.5054C108.255 43.5595 108.368 43.607 108.252 43.5532C105.435 42.2495 105.205 42.1532 108.138 43.5054ZM112.61 45.1213C112.859 45.2383 113.086 45.3606 112.854 45.2591C108.283 43.0503 107.79 42.8377 112.61 45.1213ZM114.517 46.7576C117.353 48.0663 117.685 48.2245 114.12 46.5897C114.311 46.6726 114.341 46.6814 114.517 46.7576ZM134.728 63.0809C134.686 64.1524 134.376 64.9336 134.222 64.5528C133.854 63.9189 134.836 63.2183 133.241 54.4159C132.519 51.4573 131.487 50.4439 130.809 50.0436C130.043 49.5709 129.623 49.5205 128.029 46.8468C126.359 44.1343 123.934 41.3075 121.227 39.2202C118.169 36.9067 115.663 35.6848 113.82 35.7709C113.042 35.8456 113.151 38.713 112.475 38.7717C110.785 39.0046 110.397 39.2084 110.296 39.2419C110.225 39.2938 110.523 39.2594 111.056 39.4814C113.304 40.3352 117.417 40.1091 121.684 39.325C128.465 38.1047 135.191 36.0027 142.115 33.5139C145.846 32.1787 151.368 32.1435 154.591 29.1721C154.964 28.8242 153.564 26.8414 153.553 26.6221C153.458 24.514 154.155 25.4894 154.977 26.542C155.387 27.2161 155.835 27.9228 156.133 28.0314C158.764 28.8053 162.36 26.743 168.013 24.5587C169.735 24.0352 172.378 23.1892 176.745 24.2416C181.233 25.2907 184.826 29.0531 185.993 31.2869C188.422 35.9695 187.969 37.3535 188.212 38.7421C188.355 41.2153 188.229 42.2371 188.192 43.3253C188.105 44.9588 189.336 45.1518 190.228 45.3659C190.672 45.4623 191.027 45.5399 191.075 45.7425C191.1 45.8389 191.045 45.977 190.889 46.1426C190.811 46.2299 190.707 46.3224 190.576 46.416C190.512 46.4576 190.437 46.5142 190.364 46.5392C190.326 46.5557 190.289 46.5632 190.256 46.5422C190.241 46.5281 190.229 46.5011 190.225 46.4341C190.226 46.389 190.215 46.3969 190.246 46.2141C190.26 46.1292 190.279 46.0203 190.312 45.8271C190.346 45.6204 190.393 45.3872 190.48 44.7128C190.455 44.7445 190.428 44.7761 190.401 44.8074C190.303 44.9235 189.761 44.7083 189.157 44.5383C189.014 45.1735 188.914 45.3552 188.826 45.5221C188.739 45.6742 188.666 45.7472 188.597 45.7991C188.462 45.8965 188.344 45.9088 188.237 45.8952C188.131 45.8754 188.027 45.8576 187.947 45.761C187.907 45.7111 187.872 45.6488 187.853 45.511C187.844 45.4401 187.84 45.351 187.845 45.2005C187.851 45.0413 187.867 44.8564 187.91 44.374C187.66 44.41 187.463 44.5195 187.372 44.714C186.452 46.5458 186.78 47.339 186.578 47.4707C186.365 47.6058 186.279 47.5498 186.227 47.445C186.168 47.3146 186.191 47.1892 186.032 46.4842C185.844 45.7323 185.12 44.1465 183.489 42.6852C181.867 41.1997 179.867 40.6094 178.959 40.4247C178.841 40.4021 178.82 40.359 178.856 40.2487C178.891 40.1209 179.215 37.5176 179.217 37.069C179.219 36.8451 179.257 36.7954 179.431 36.8738C179.595 36.9526 179.873 37.1523 180.04 37.4519C180.385 38.0502 180.41 40.1134 180.503 40.5809C181.425 44.5251 182.476 38.8157 182.591 38.6495C185.971 35.7626 190.38 37.7652 195.6 36.4538C195.839 36.3951 196.092 36.3307 196.34 36.266C199.765 35.3522 203.151 33.6565 206.339 33.0656C210.368 32.3289 214.021 32.9352 217.699 31.7493C218.085 31.6272 216.865 28.756 217.332 28.6015C220.212 27.6477 223.055 26.8939 225.94 26.5006C225.511 26.6468 224.933 26.8402 223.98 27.3019C223.74 27.4192 223.476 27.5558 223.181 27.7221C223.033 27.8053 222.878 27.8959 222.714 27.9959C222.632 28.0459 222.547 28.0983 222.461 28.1533C222.43 28.1728 222.345 28.2268 222.247 28.2908C222.153 28.3526 222.056 28.4175 221.956 28.486C220.493 29.5875 217.575 31.5037 215.784 36.9395C213.84 42.5166 216.505 49.3099 218.757 51.5995C220.968 54.1916 222.8 55.0014 223.081 55.1964C224.294 55.8574 224.999 56.086 225.523 56.261C227.003 56.6859 226.97 56.5432 227.096 56.5261C227.158 56.4789 227.08 56.4037 226.953 56.3216C226.828 56.2396 226.677 56.152 226.481 56.057C225.734 55.6816 224.768 55.244 223.774 54.7426C223.303 54.5001 224.11 51.8389 223.637 51.4346C220.73 49.0052 215.454 43.5238 213.469 55.3055C211.34 54.8223 208.807 54.366 206.925 52.0559C205.685 50.5733 206.711 47.5755 205.308 48.9021C205.005 49.1994 205.547 51.7563 205.107 52.0068C204.466 52.3724 203.82 52.5371 203.355 52.6545C203.12 52.7128 202.931 52.7621 202.926 52.7919C202.922 52.8061 202.983 52.8136 203.176 52.7857C203.323 52.7641 203.787 52.6928 204.695 52.3201C206.622 51.4822 208.94 49.6236 210.26 47.259C211.62 45.0224 211.937 42.1424 211.907 41.2523C211.91 39.0251 211.464 37.7472 211.148 36.8393C210.758 35.83 210.657 35.6945 210.476 35.332C210.313 35.0227 210.172 34.7838 210.05 34.5845C209.776 34.1498 209.705 34.0495 209.586 33.8733C209.482 33.721 209.392 33.5952 209.341 33.5183C209.141 33.2163 209.129 33.1429 209.152 33.0816C209.214 32.9786 209.451 32.9956 209.723 32.9648C210.11 32.9409 211.594 31.161 211.924 30.8973C214.549 28.7235 212.073 33.8904 212.114 34.4313C212.135 36.3621 212.77 37.3831 213.469 37.9498C213.816 38.2321 214.193 38.4068 214.43 38.4762C214.541 38.5078 214.627 38.5159 214.563 38.4642C214.464 38.4127 214.391 38.2982 213.291 38.0333C212.807 37.9247 212.305 37.6974 212.105 37.4215C211.895 37.1446 211.971 36.8015 212.116 36.4487C212.257 36.0959 212.456 35.7371 212.415 35.4157C212.355 35.1013 212.146 34.7844 210.973 34.6681C211.001 34.6347 211.033 34.6135 211.072 34.6067C213.982 34.1342 217.051 34.2563 220.157 35.4169C220.849 35.6821 220.424 38.3682 220.768 38.6296C222.303 39.7459 222.218 34.7336 223.674 35.6933C223.983 35.8885 224.019 38.1613 224.094 38.4047C225.28 42.2243 225.512 36.6396 225.71 36.4982C228.255 34.5778 230.616 40.1398 233.23 39.0292C233.541 38.8905 232.501 36.1194 233.392 35.9037C239.317 34.4503 246.021 34.4394 252.513 36.2063C253.521 36.4779 252.996 38.683 253.08 38.9426C254.399 42.9999 254.605 37.4085 254.917 37.1756C257.363 35.4845 259.931 40.0207 261.424 33.3368C266.229 34.1482 271.047 34.0435 275.966 34.4202C281.389 34.3744 288.342 39.1295 289.499 41.0789C289.878 41.5528 290.019 41.8323 289.941 41.9932C289.869 42.1569 289.562 42.2292 289.288 42.4104C288.676 42.7565 288.729 43.5544 289.6 44.2528C289.683 44.3079 290.017 47.031 290.214 47.1225C291.057 47.4948 291.557 47.1859 291.716 46.4785C292.044 45.0946 291.278 42.1675 290.86 38.6472C290.623 37.3441 294.197 42.6389 294.559 42.9739C295.675 44.3264 296.982 48.2139 297.26 48.4466C299.675 50.1525 293.482 38.1863 294.776 37.4919C294.832 37.4875 295.827 39.7693 296.064 39.9217C296.812 40.397 296.711 39.3251 297.508 39.8539C299.34 41.0818 303.047 46.5023 302.515 42.3715C302.442 41.8361 298.189 35.479 299.792 34.9213C300.41 34.7171 303.042 32.9547 304.16 32.8912C304.165 32.891 304.17 32.8908 304.175 32.8907C305.081 32.9553 305.861 35.3244 305.96 35.3898C309.451 37.1144 309.446 38.682 312.918 42.2184C316.426 45.7019 310.122 36.1241 309.813 34.8106C309.502 33.5038 312.266 34.9241 313.117 35.4796C313.961 36.043 314.406 37.6241 314.996 37.869C318.912 39.4116 312.689 32.5696 312.284 30.6487C311.237 26.1477 317.216 32.3161 319.087 31.9587C319.58 31.8695 318.126 30.5412 318.331 30.16C319.136 28.6806 321.537 30.1702 321.378 27.1613C321.363 26.7495 319.846 23.3668 321.084 23.5389C321.434 23.493 321.874 23.6257 322.439 23.9894C322.903 24.3113 323.898 26.2248 324.791 26.1211C325.115 26.0919 325.461 26.0289 325.734 25.9761C325.868 25.9518 325.988 25.9242 326.028 25.953C326.047 25.9706 326.047 25.9972 325.986 26.1C325.933 26.2171 325.786 26.322 325.527 27.0384C325.411 27.3987 325.243 28.0871 325.468 28.9707C325.69 29.8774 326.324 30.5532 326.683 30.8108C327.487 31.3676 327.679 31.2972 327.851 31.3595C328.116 31.4068 328.052 31.39 328 31.4154C327.869 31.456 327.606 31.5703 327.41 31.7614C326.909 32.2219 327.489 34.5272 327.267 34.8798C327.224 34.9647 327.142 34.9345 326.994 34.7384C326.629 34.2953 327.009 32.1898 326.254 31.5421C325.462 30.8729 323.727 31.4313 323.19 31.7816C322.621 32.1147 324.087 34.36 324.104 34.5466C324.287 35.5782 324.374 37.0177 324.346 37.0438C321.994 38.3318 315.605 43.9991 308.7 50.1483C308.114 50.631 309.958 52.7792 309.883 52.8776C307.915 55.2905 306.283 47.7472 303.965 46.1156C306.495 51.1762 305.205 50.6991 303.76 51.7995C303.066 52.3241 304.085 54.307 304.08 54.5434C303.96 55.6087 303.644 56.0157 303.292 56.0283C302.474 56.0538 301.544 53.8745 301.291 53.293C299.972 50.2449 299.739 54.1262 298.965 52.0306C298.296 49.9361 298.965 46.6805 297.735 46.8273C297.48 48.8781 298.995 54.0837 297.871 55.0215C293.136 58.6517 285.893 53.4035 283.19 52.4383C280.292 51.4739 279.299 51.6398 277.758 50.5804C275.004 48.6581 275.305 52.7332 273.073 54.1048C270.847 55.4767 273.731 46.1983 273.888 44.1068C274.049 42.0171 273.324 44.0513 273.229 42.8646C273.133 41.6781 274.132 40.4414 273.446 39.861C272.756 39.2787 269.891 42.4718 269.205 44.5546C267.746 48.963 267.735 53.8826 266.101 51.8389C266.007 51.7184 266.85 49.2895 266.462 48.9544C263.344 46.3745 259.801 45.6772 256.463 43.6789C255.994 43.4003 256.646 40.6121 256.365 40.4178C253.383 38.4231 254.143 43.2612 252.635 48.5288C253.041 41.4925 252.177 37.1034 249.551 37.2088C247.983 37.2963 248.512 40.3544 247.909 42.6082C247.747 43.2833 246.464 41.3402 246.534 42.803C246.872 47.5644 248.52 52.6063 246.604 50.8904C246.508 50.8119 246.088 48.2423 245.792 48.1578C243.778 47.6705 245.234 52.4538 244.694 53.423C244.36 54.0919 241.772 52.823 240.263 53.5902C239.755 54.2683 239.292 54.679 238.926 54.9744C238.629 55.21 238.375 55.3769 238.154 55.5116C237.737 55.7603 237.486 55.8704 237.26 55.9685C236.843 56.1426 236.59 56.2153 236.367 56.2812C233.364 48.9826 232.122 51.1313 232.749 56.6287C232.471 56.6475 232.221 56.6985 232.119 56.7194C232.073 56.7264 232.058 56.7325 232.193 56.6661C232.261 56.6304 232.363 56.5827 232.589 56.4452C232.798 56.3019 233.147 56.1335 233.83 55.4064C234.128 55.0522 234.496 54.7082 235.003 53.5555C235.216 53.0668 235.52 52.0426 235.493 50.9982C235.497 49.8256 235.052 48.4851 234.501 47.6474C233.257 45.8293 232.351 45.5755 231.84 45.2778C231.546 45.14 231.358 45.0721 231.182 45.0114C231.008 44.9524 230.857 44.9102 230.749 44.8829C230.277 44.7671 230.1 44.7594 229.944 44.7432C229.798 44.7315 229.718 44.732 229.659 44.7339C229.451 44.7463 229.527 44.7781 229.606 44.8073C229.697 44.8378 229.836 44.8726 230.009 44.9163C230.193 44.9602 230.365 45.0113 230.758 45.0792C230.802 45.1041 230.851 45.1303 230.902 45.1579C231.355 45.401 231.141 47.7049 231.205 47.951C232.258 51.808 232.69 46.4642 232.983 46.2432C235.234 44.7445 237.357 46.1327 239.421 45.7874C240.358 45.6307 241.291 45.1261 242.229 43.8561C242.337 43.7085 242.237 38.1982 243.31 42.1696C243.38 42.4436 242.442 45.0017 243.974 45.1163C245.505 45.2313 248.528 48.0304 250.507 45.3707C250.986 44.7303 252.044 40.1972 253.265 43.6311C253.428 44.0976 253.36 45.6831 253.606 46.5504C254.399 49.3134 254.457 43.7353 255.466 48.4182C256.474 53.1009 258.242 56.5541 260.2 53.1814C260.263 53.0831 260.531 48.6498 261.205 48.6835C262.281 48.741 263.849 49.5768 264.965 49.4874C265.499 49.443 265.008 46.7256 265.098 46.6706C268.608 44.9417 271.299 47.2398 275.211 48.0815C275.929 48.2413 277.744 44.3961 279.279 47.2669C280.965 50.409 280.193 63.9281 283.469 60.5282C284.794 59.1671 285.551 42.028 288.575 50.7052C293.293 48.2287 298.062 52.4685 302.731 49.034C302.941 48.8816 303.326 44.084 303.843 44.1155C304.612 44.1714 305.175 46.3655 305.729 46.4763C308.056 46.9961 310.018 44.9565 312.236 45.1027C313.079 45.1533 312.943 47.4698 313.949 47.5299C314.954 47.5876 315.409 44.5181 316.859 45.8844C317.955 46.9264 319.411 53.0346 320.82 53.6581C320.438 47.5588 321.377 47.6184 322.911 45.8898C323.206 45.5546 322.712 43.4579 322.843 43.1899C323.374 42.0522 324.067 43.7691 324.559 42.5365C324.679 42.2403 324.532 40.1585 324.622 39.7989C325.373 36.6621 327.331 41.2235 327.67 42.0177C328.965 45.0335 329.258 42.2892 330.165 43.4462C331.072 44.6029 329.97 46.2192 330.978 46.8862C333.069 48.2654 335.581 47.7314 337.594 47.6669C338.396 47.6283 337.628 44.895 337.738 44.825C339.332 43.9889 341.246 46.8058 341.706 41.2001C344.03 55.4047 342.587 39.7319 345.181 42.3967C345.386 42.6125 346.194 49.3535 345.561 50.4064C344.927 51.4583 343.665 49.4353 342.799 51.0646C342.595 51.4472 341.762 57.8946 341.607 58.2935C340.402 61.4113 339.382 51.321 339.262 50.7721C337.917 44.8513 336.818 51.8097 336.419 52.3158C334.602 54.6345 332.802 53.3434 331.257 55.0136C330.246 56.0938 330.639 62.7245 329.767 62.5863C326.862 62.1301 325.2 52.9621 323.1 61.1684C322.649 62.9186 323.74 70.1185 321.268 64.5725C321.112 64.2229 319.214 59.1227 318.562 62.4792C318.48 62.9024 318.631 65.0125 318.497 65.2001C317.594 66.4155 316.822 64.7798 315.807 65.6587C314.793 66.5377 313.586 67.8261 312.315 67.1925C311.549 66.8141 310.342 62.9444 309.926 62.0049C308.749 59.2973 307.984 63.9154 307.148 60.5967C306.308 57.2613 307.181 52.0553 305.418 49.9799C305.715 55.4685 305.944 61.1069 306.206 66.6291C302.62 66.6684 298.997 65.1163 295.434 65.5785C294.992 65.6413 295.627 68.5627 295.158 68.706C293.177 69.2976 291.297 67.301 289.266 68.2624C287.694 69.0178 286.11 72.245 284.469 73.1299C283.074 66.9113 280.701 69.187 278.853 68.7162C278.206 68.5541 278.153 66.8746 277.67 66.3531C275.852 64.426 276.964 69.9298 276.545 70.8294C274.748 74.6693 273.873 62.1188 271.531 62.5601C271.407 62.5793 270.247 69.3592 270.059 69.7877C268.869 72.5802 269.709 67.4695 268.844 67.0208C267.265 66.2005 266.116 64.6594 264.428 66.7177C263.937 67.3269 262.907 71.5682 261.717 68.3945C261.561 67.9789 261.516 65.7617 261.402 65.6379C259.34 63.5816 259.661 70.5386 258.673 72.9532C257.685 75.3673 255.712 70.6574 255.29 69.2922C254.186 65.761 255.909 67.7254 255.94 67.3715C256.301 63.1605 255.087 63.9465 254.111 63.6437C253.613 56.8319 252.298 57.3116 253.102 63.3572C253.192 64.0174 253.903 63.3423 254.111 63.6437C253.625 70.3785 252.197 71.3129 250.246 65.1455C249.333 62.2549 249.872 58.8008 247.63 60.1711C246.613 60.7899 247.262 65.4643 246.404 66.7926C244.776 69.3095 242.451 66.8135 240.484 66.3544C240.052 66.2621 239.666 66.2524 239.295 66.3879C238.507 66.6777 239.414 69.2102 238.877 69.4969C237.453 70.2652 236.085 68.3966 234.649 69.4505C234.518 69.5493 234.967 72.2264 234.504 72.2811C233.54 72.4062 232.707 72.3821 231.502 72.2803C231.846 72.2559 231.89 72.2355 231.904 72.2198C231.91 72.204 231.847 72.1918 231.752 72.1811C231.558 72.1598 231.246 72.1452 230.776 72.1279C230.27 72.105 229.754 72.1091 228.311 72.0068C227.459 71.8988 226.821 72.0183 223.616 71.2015C222.69 70.9249 221.742 70.6831 219.735 69.6991C218.086 68.7092 214.741 67.504 210.985 61.3989C209.29 58.5746 208.117 54.1758 208.257 50.7068C208.279 47.4753 209.304 44.3024 209.949 42.8796C211.591 39.2873 212.749 38.1945 213.757 37.0189C216.566 34.1223 217.977 33.551 219.053 32.9017C220.108 32.3345 220.796 32.0557 221.388 31.8246C222.521 31.3957 223.197 31.2284 223.788 31.0849C224.935 30.8202 225.637 30.7405 226.252 30.6656C226.851 30.5976 227.326 30.5558 227.615 30.5364C227.755 30.5281 227.849 30.5245 227.804 30.5536C227.78 30.569 227.717 30.5932 227.573 30.644C227.415 30.7006 227.205 30.7673 226.685 30.9695C226.372 31.0959 225.946 31.2549 225.09 31.6816C224.855 31.8005 224.591 31.9397 224.288 32.1114C224.135 32.1983 223.981 32.2881 223.799 32.399C223.588 32.5271 223.361 32.6708 223.115 32.8356C222.604 33.1819 222.112 33.525 221.321 34.1944C220.461 34.9359 219.415 35.9264 218.25 37.506C220.14 34.4068 223.84 29.181 227.161 27.4654C233.519 23.8608 241.461 25.9659 245.178 24.5606C247.752 23.6299 246.907 21.0425 247.974 19.1084C250.205 15.3536 254.097 21.7709 254.4 22.7856C254.41 22.8122 252.371 23.4166 253.429 24.8153C253.981 27.7071 254.368 22.7976 254.4 22.7856C254.737 23.4084 258.527 24.2481 259.264 23.8248C259.688 23.582 259.709 21.0195 259.931 20.9419C265.244 19.1691 270.05 19.3813 274.056 21.3908C274.121 21.4563 273.453 24.2351 273.61 24.3537C275.777 26.0819 277.973 22.977 280.272 21.3389C282.567 19.7023 283.796 20.6666 283.856 25.6801C285.296 25.3433 286.684 27.8164 287.475 29.2897C288.264 30.7634 289.32 25.2994 289.416 25.2048C292.479 22.1351 293.284 25.4326 295.003 26.0051C295.377 26.1414 295.884 25.9974 296.111 25.7332C296.361 25.4692 296.269 25.1062 295.985 24.8568C295.939 24.8127 295.893 24.7902 295.848 24.7844C295.432 24.7527 295.449 25.7434 294.649 25.2849C294.521 25.2207 293.585 22.9273 293.519 22.8527C291.276 20.645 294.472 25.8274 294.848 26.845C296.321 30.5264 297.721 32.139 296.547 30.7012C296.378 30.2804 290.177 24.1482 289.64 23.9777C289.094 23.6173 291.462 25.6603 290.999 25.03C290.968 24.9697 289.446 23.79 289.621 23.7035C290.528 23.2796 293.271 20.6278 297.511 15.5156C298.125 14.8177 295.031 13.6591 295.955 12.5558C300.043 7.201 310.457 0.894925 318.521 0.957357C320.458 0.920528 319.702 3.26632 320.219 3.80875C322.043 5.76966 323.274 4.57357 324.412 3.22727C325.001 2.31364 325.634 1.31394 325.866 1.25828C326.479 1.11364 327.131 0.984257 328.165 0.90319C329.236 0.85922 330.34 0.673511 333.829 1.23821C335.766 1.8026 337.999 1.38202 345.013 6.04574C348.1 8.11548 354.009 14.2827 355.601 22.3036C356.434 26.1414 356.35 29.5049 355.921 32.3421C355.527 34.8889 354.893 36.8512 354.242 38.4859C351.75 44.1842 350.309 45.225 349.275 46.5927C348.307 47.7046 347.667 48.3208 347.173 48.7986C345.32 50.5299 344.966 50.725 344.607 51.0018C344.307 51.2103 344.278 51.1813 344.462 50.938C341.228 52.9984 337.437 53.8307 334.933 57.6123C334.766 57.9137 335.925 64.4231 332.022 60.8531C331.75 60.625 327.881 56.8971 328.992 60.4595C329.058 60.6843 331.161 62.544 329.922 63.0198C328.697 63.4865 327.851 66.1484 324.806 64.5031C324.162 64.1587 322.264 62.3248 321.3 62.4491C320.976 62.4205 320.876 62.8843 321.28 64.258C321.373 64.539 324.792 73.5134 320.71 68.3737C320.033 67.5293 316.593 61.551 316.948 65.4767C317.01 66.2411 318.352 67.2267 318.06 68.5268C317.589 70.5411 314.897 69.9965 314.406 73.7562C314.359 74.4026 314.93 79.4055 311.957 76.8988C311.503 76.5008 310.89 74.2402 310.081 74.3441C307.224 74.6937 304.606 76.4563 301.308 77.1972C299.961 77.5171 298.495 77.7053 296.857 77.6306C294.449 77.5215 295.042 73.6573 292.563 72.9858C290.167 72.3621 284.598 71.3172 280.685 71.785C276.688 72.2066 278.716 79.4541 272.601 77.3221C268.215 75.5663 265.342 73.4334 263.979 72.4259C262.594 71.3591 262.53 71.2951 263.407 71.7823C265.173 72.9848 270.795 74.455 273.016 73.8723C271.744 73.2831 270.389 72.752 268.967 72.5595C268.307 72.4716 268.817 74.6012 267.856 74.6305C264.318 74.7141 257.783 77.0936 253.627 72.9703C250.292 69.6527 253.837 66.5571 251.368 65.3137C250.157 64.7252 249.617 71.7147 249.371 71.9586C246.925 74.4308 244.681 71.6094 242.249 72.8262C241.747 73.0786 242.575 75.7985 242.143 75.9827C240.67 76.6368 238.895 75.5816 237.409 75.9753C236.742 76.1583 237.1 78.2669 236.452 78.1719C234.901 77.9688 233.444 77.2206 231.734 75.3815C231.579 75.2137 232.235 72.4784 231.086 72.4944C229.219 72.5279 226.733 70.7767 224.695 72.982C224.091 73.6439 224.426 78.5151 222.743 75.2568C222.387 74.5751 222.386 68.7059 221.048 73.8661C220.855 74.7252 218.292 81.713 216.627 77.3678C216.192 76.226 215.067 71.4694 214.268 72.2445C214.157 72.3677 214.688 74.9758 213.995 75.2497C213.132 75.5731 212.239 75.7494 211.331 75.8746C203.245 75.6165 202.24 74.4099 200.244 73.8824C198.541 73.2444 197.569 72.7922 196.644 72.3728C194.871 71.5554 193.675 70.9773 192.481 70.5237C191.509 70.1549 191.282 73.2551 189.882 72.6239C186.049 70.8459 183.652 68.1358 180.928 64.5501C179.791 63.0631 182.269 62.297 182.338 62.0287C182.879 60.0222 182.128 59.5199 180.522 58.8144C179.724 58.4482 178.626 57.9985 177.059 56.5487C176.588 56.0615 176.076 55.4749 175.52 54.7118C175.242 54.3298 174.953 53.903 174.655 53.4159C174.501 53.1613 174.371 52.9505 174.187 52.6044C173.956 52.1542 173.719 51.6577 173.481 51.1012C172.568 48.8755 171.376 45.693 171.377 40.3797C171.31 37.6818 172.283 31.2379 175.477 26.2309C178.597 20.9947 183.638 17.1113 187.768 15.2611C188.108 15.0155 188.419 14.8201 188.709 14.673C190.121 13.9647 191.198 13.524 192.11 13.1747C192.807 12.889 193.408 12.6703 193.955 12.4899C195.124 12.1165 195.715 11.9618 196.414 11.828C197.747 11.5797 198.631 11.6041 199.453 11.6761C201.115 11.8252 202.348 12.2142 203.616 11.8144C204.327 11.6023 203.696 9.07043 203.829 8.83549C205.165 6.54455 204.298 11.1824 205.203 11.6538C207.689 12.9979 210.105 12.7696 212.306 12.449C213.109 12.3283 212.216 9.35651 212.944 9.28321C217.277 8.80033 221.602 9.20894 225.915 11.1082C226.732 11.4735 226.059 13.7212 226.199 14.253C227.117 17.9677 229.33 13.1513 229.902 12.7316C231.094 11.7561 231.977 11.8166 232.973 12.1394C233.24 12.2229 233.509 12.3227 233.794 12.4286C233.936 12.4816 234.083 12.5362 234.236 12.5913C234.418 12.6512 234.622 12.7144 234.833 12.7778C235.807 13.1027 236.202 13.0316 240.144 14.2075C241.32 14.6095 242.784 15.1112 245.123 16.4022C245.611 16.736 249.332 18.487 253.331 23.3224C257.489 27.6577 262.106 40.1436 258.498 50.149C255.182 59.9245 249.902 63.4211 247.143 65.4816C246.956 65.6095 246.773 65.731 246.596 65.847C246.507 65.905 246.419 65.9616 246.332 66.0169C246.281 66.0493 246.246 66.0715 246.204 66.0983C246.04 66.2021 245.88 66.3011 245.724 66.396C245.412 66.5857 245.115 66.7587 244.83 66.9183C244.262 67.2372 243.747 67.5031 243.273 67.7341C241.387 68.6447 240.129 69.072 239.097 69.4135C232.264 73.1298 223.745 73.8724 217.628 74.4659C213.05 74.9216 209.099 74.8635 205.339 75.1026C203.302 75.0509 199.539 75.7907 195.498 76.9689C194.91 77.135 196.182 79.9655 195.672 80.1487C189.501 81.6678 185.004 83.7211 169.021 81.1404C164.165 80.0733 157.242 77.0496 152.011 71.4374C149.461 68.5251 150.813 74.8746 146.695 69.8257C138.466 58.2491 139.652 48.4689 140.653 44.5616C141.248 42.5449 143.505 45.3916 144.058 43.5069C144.528 42.0218 144.955 40.7747 145.263 39.8132C145.417 39.3323 145.54 38.931 145.615 38.6748C145.688 38.4421 145.713 38.2818 145.628 38.8003C145.814 37.4584 145.901 37.1441 145.966 36.801C146.029 36.4958 146.066 36.3362 146.094 36.2099C146.127 36.0661 146.142 36.0034 146.157 35.9383C146.186 35.8143 146.196 35.7703 146.202 35.7404C146.216 35.6766 146.218 35.6594 146.219 35.6472C146.22 35.6242 146.212 35.6322 146.204 35.6398C146.187 35.6595 146.162 35.6947 146.132 35.7416C146.072 35.8355 145.991 35.9697 145.884 36.1954C145.721 36.5625 144.954 36.3862 144.212 36.1645C143.466 35.9945 142.749 35.6588 142.609 36.5961C142.541 37.6458 142.112 38.4453 142.652 43.3923C143.398 45.9597 142.457 50.3384 150.758 60.0419C154.917 64.7745 163.516 68.9325 169.636 69.3171C175.977 69.9109 179.699 68.8026 182.436 67.9595C184.382 67.3524 184.499 67.1654 183.859 67.508C183.137 67.8521 181.769 68.6126 178.54 70.0409C176.04 70.8744 173.323 71.3896 170.295 71.3641C169.731 71.3601 166.609 66.2304 166.207 67.7254C166.892 69.2424 167.783 70.9833 168.559 72.5826C159.628 78.2063 148.882 80.7891 138.328 84.1652C137.88 84.3092 139.706 87.0324 138.834 87.3289C138.683 87.3803 138.532 87.4322 138.381 87.4847C133.545 89.1561 128.124 91.6781 120.549 89.9158C119.759 89.732 119.25 84.1796 117.296 85.3109C116.986 85.5309 113.673 86.6305 112.629 87.8619C112.486 88.0501 113.388 90.624 112.025 90.754C106.855 90.7891 98.973 92.0488 86.8374 82.6477C80.8466 77.8567 77.5898 70.4884 76.8339 65.8471C75.9656 61.0238 76.4071 57.9271 76.8558 55.5276C77.3496 53.3468 79.8548 55.9364 80.2351 54.5197C83.1321 46.0022 83.3785 42.0078 87.165 39.575C89.6948 38.2477 93.6185 41.1593 98.3333 42.2713C99.0091 42.4099 99.5805 41.4759 102.077 42.6168C108.415 45.3768 114.961 49.2327 121.736 52.1344C122.468 52.4421 122.692 51.9058 123.173 51.4324C123.669 50.9159 124.351 50.669 125.621 52.5687C125.741 52.9569 126.117 55.1271 127.167 55.9295C127.87 56.538 130.569 57.3819 131.387 58.3261C132.216 59.2476 129.905 58.6358 130.858 59.7642C131.842 60.872 134.777 62.0987 134.728 63.0809ZM291.08 35.7812C291.719 38.5424 292.844 28.828 291.704 31.0529C291.647 31.1717 291.049 35.6455 291.08 35.7812ZM298.557 57.7519C296.85 53.5375 296.258 59.9276 297.481 63.189C298.705 66.4465 299.078 59.0292 298.557 57.7519ZM313.274 53.636C311.364 50.3575 312.031 64.2096 313.649 61.2904C313.743 61.1252 313.385 53.8263 313.274 53.636ZM97.2807 47.6301C97.4066 47.6621 97.931 46.8026 97.8244 46.7301C95.2277 44.9326 94.1425 46.7351 97.2807 47.6301ZM327.819 49.1619C327.156 47.3307 325.808 49.6016 326.631 51.8794C327.295 53.7118 328.646 51.4397 327.819 49.1619ZM321.986 35.7506C321.884 35.645 321.29 35.9243 321.79 36.5782C323.405 38.6846 323.695 37.5323 321.986 35.7506ZM352.912 46.9606C349.15 46.7684 345.942 35.546 350.064 36.4867C350.812 36.6562 348.813 40.2619 349.829 41.21C351.692 42.9362 352.183 35.6733 354.253 39.3569C354.631 40.0313 353.13 46.9971 352.907 46.9771C352.908 46.9716 352.91 46.9661 352.912 46.9606ZM290.317 47.5155C290.326 47.648 291.192 47.8605 291.224 47.7332C291.97 44.6891 290.32 44.2705 290.317 47.5155ZM288.71 46.9967C288.704 46.8592 288.473 46.7151 288.312 46.6168C288.149 46.5211 288.011 46.4729 287.957 46.5889C285.285 51.2125 289.408 52.5137 288.71 46.9967ZM236.208 56.1141C235.12 59.7613 234.365 60.2395 232.754 56.6316C233.147 56.6327 233.596 56.5823 234.108 56.5112C234.656 56.4236 235.104 56.3955 236.208 56.1141Z" fill="#FF931E"/>
</svg>
