<svg width="698" height="135" viewBox="0 0 698 135" fill="none" xmlns="http://www.w3.org/2000/svg">
<path opacity="0.1" d="M22.8045 7.29692C24.5882 7.02115 26.2167 6.82547 27.4862 6.68162C36.6819 5.7762 49.1503 6.28261 59.8644 8.22001C60.9307 8.40857 61.5638 8.71575 61.9642 9.06966C62.9025 10.0337 62.3604 11.3623 64.0594 11.81C68.5612 13.005 72.5236 12.1416 76.2199 13.4534C77.4401 13.8985 75.677 17.5398 76.9661 17.9199C81.5501 19.254 85.5783 19.3364 89.2409 19.2845C88.433 19.3536 89.766 19.2702 91.8655 19.1472C94.0486 19.0606 97.1757 18.8409 102.238 19.5257C105.277 19.9721 109.147 20.7662 113.705 22.8189C124.415 27.2233 130.6 37.9663 131.942 42.9201C133.646 48.3528 133.591 51.2164 133.679 53.381C133.702 55.4937 133.572 56.8106 133.492 57.5733C133.45 57.9417 133.416 58.1625 133.399 58.0854C133.376 57.9719 133.404 57.711 133.345 56.1833C133.227 59.107 133.05 60.7779 132.939 61.8769C132.793 62.9081 132.82 63.316 132.242 61.8615C131.656 60.6882 130.075 55.6721 123.376 51.2268C116.523 46.9053 110.566 47.6907 109.04 48.0572C107.807 48.4829 105.972 49.6337 105.113 50.8557C104.201 52.0731 104.133 53.0314 104.279 53.3424C104.168 53.7587 104.127 53.9462 104.102 54.0562C104.075 54.1776 104.068 54.2231 104.062 54.2602C104.052 54.3249 104.061 54.31 104.073 54.2773C104.098 54.2064 104.141 54.0518 104.188 53.8774C104.282 53.5254 104.396 53.0817 104.531 52.5583C104.671 52.018 104.813 51.4571 105.093 50.4499C105.256 49.8927 105.367 49.4124 105.908 47.8495C106.063 47.415 106.227 46.954 106.586 46.0977C106.673 45.8915 106.77 45.6693 106.88 45.4265C107.004 45.1521 107.17 44.7959 107.359 44.4194C107.779 43.6191 108.088 42.8909 109.484 40.8485C109.821 40.3679 110.213 39.8389 110.693 39.2497C110.932 38.955 111.194 38.6455 111.484 38.3196C111.766 38 112.363 37.3577 112.924 36.8197C114.094 35.6947 115.613 34.3906 117.817 33.0502C120.186 31.7325 122.272 30.3512 128.14 29.3516C133.461 28.4886 139.995 29.6247 144.592 32.0704C147.147 33.4062 148.244 34.2793 149.455 35.2336C150.621 36.1816 151.593 37.127 152.415 38.0252C155.635 41.5754 156.887 44.6413 157.289 45.4889C159.427 50.8488 159.041 51.2568 159.364 52.6625C158.918 49.7755 157.236 46.4782 156.096 45.144C154.94 43.7253 154.642 43.7618 155.314 44.4352C153.936 43.3666 151.958 42.8805 151.656 43.0442C151.278 43.1672 152.271 43.4522 153.907 43.3269C157.252 43.1302 162.632 41.5732 167.963 39.279C170.401 38.2395 173.111 37.1419 175.871 35.9339C176.394 36.2379 178.604 34.9059 183.53 31.18C184.541 30.3648 185.732 29.4175 188.048 28.2388C190.48 27.1096 194.411 25.2476 201.239 25.9599C208.06 26.6056 214.192 31.3974 216.309 34.2774C218.748 37.3472 219.478 39.3518 220.07 40.8317C221.104 43.7219 221.198 44.9862 221.367 46.0707C221.5 47.1111 221.532 47.7866 221.554 48.3563C221.589 49.4661 221.555 50.1128 221.532 50.559C221.519 50.7713 221.506 50.9295 221.498 50.926C221.494 50.9187 221.492 50.8724 221.489 50.6832C221.487 50.5698 221.486 50.4629 221.479 50.1858C221.47 49.9317 221.467 49.5499 221.393 48.6997C221.07 44.4612 218.667 39.8239 216.492 37.5834C214.298 35.2186 212.685 34.4077 211.702 33.8967C209.742 32.9948 209.609 33.2081 209.787 33.2383C210.011 33.317 210.685 33.435 211.607 33.5162C212.075 33.559 212.608 33.5951 213.3 33.6413C214.063 33.7065 214.642 33.6858 216.749 34.0045C217.18 34.0435 217.614 34.0749 218.046 34.0978C219.451 34.1664 219.193 30.7903 219.499 30.5697C224.205 27.1596 221.801 33.4686 224.438 34.7479C233.638 39.1324 245.038 40.6032 255.666 40.5472C256.8 40.514 257.946 40.4172 259.092 40.2653C262.993 39.6841 258.938 33.2495 262.921 36.7818C263.217 37.0154 262.338 40.5427 263.481 40.861C266.069 41.5995 271.246 40.443 273.527 40.4148C277.118 40.4087 278.307 40.2851 280.985 39.9293C281.478 39.864 282.01 39.7877 282.588 39.6966C284.637 39.3967 286.416 39.3272 287.4 39.2579C288.413 39.1789 288.464 39.2927 288.111 39.3981C288.155 39.2914 288.14 39.2389 288.064 39.2583C287.911 39.3266 287.085 38.8846 286.259 38.3358C285.838 38.0743 285.404 37.8073 284.973 37.7026C284.527 37.6433 284.159 37.5237 283.518 38.525C283.215 39.0324 282.807 39.7254 282.323 41.4195C281.959 42.8878 281.144 45.8097 282.211 50.7155C283.099 55.5343 287.381 61.0599 290.577 62.9709C293.719 65.042 295.642 65.4214 296.87 65.713C299.151 66.123 299.334 65.8597 299.436 65.7551C299.474 65.6151 299.193 65.4532 298.977 65.2641C297.99 64.524 297.957 61.7102 297.698 61.0927C295.034 55.906 290.281 64.6627 289.501 65.052C288.635 65.4451 287.739 65.8218 286.666 66.2007C286.138 66.3873 285.537 66.5827 284.763 66.7888C284.55 66.8439 284.327 66.8987 284.09 66.9535C283.971 66.9809 283.848 67.0083 283.72 67.0357C283.568 67.0671 283.39 67.1013 283.208 67.1341C282.835 67.2005 282.448 67.2646 281.899 67.3297C281.154 67.4057 280.269 67.504 278.639 67.4457C263.767 68.0062 252.24 63.2404 239.46 62.2998C228.502 61.4685 217.031 62.3721 207.728 62.7022C200.874 62.9248 194.935 63.0008 190.189 64.0071C190.172 63.9795 190.177 63.9761 190.843 63.6603C191.021 63.573 191.207 63.4827 191.582 63.2818C191.951 63.0765 192.308 62.8916 193.153 62.3166C193.843 61.7907 195.185 61.0252 197.236 58.3666C198.555 56.4607 200.095 54.2948 200.684 49.3914C201.241 44.4264 199.176 39.4935 197.239 37.0374C193.309 32.2719 191.59 32.2478 190.463 31.5476C189.844 31.2699 189.472 31.1361 189.13 31.0158C188.795 30.8997 188.489 30.8077 188.277 30.7488C187.422 30.5165 187.088 30.4809 186.856 30.4474C186.428 30.3975 186.462 30.4334 186.543 30.4565C186.747 30.5121 187.294 30.5746 187.91 30.6199C188.226 30.6433 188.566 30.6637 188.963 30.6838C189.168 30.6941 189.383 30.7042 189.646 30.7165C189.792 30.7233 189.913 30.7292 190.122 30.7398C190.308 30.7499 190.554 30.7615 190.976 30.7941C192.26 30.9104 193.573 30.9841 194.921 31.0089C196.101 31.0321 194.922 26.7783 196.336 26.7923C208.7 26.9071 222.34 26.1636 237.24 27.619C240.189 27.9386 243.149 28.3121 246.12 28.7496C247.81 29.0015 245.716 32.7329 247.414 33.2043C257.792 36.0202 274.545 42.7321 280.197 26.4843C287.283 26.8711 295.936 27.2294 302.404 30.2799C306.571 32.2443 302.694 36.3681 307.688 34.5186C308.816 34.1071 307.243 30.6307 308.944 30.2799C316.117 28.8068 324.033 29.7984 331.204 27.927C332.664 27.5382 332.244 24.391 332.656 23.8208C336.142 19.1983 342.006 26.8051 343.257 27.3688C345.257 28.2337 347.143 28.8589 348.958 29.3098C349.554 29.3374 349.456 29.3549 349.614 29.375C349.729 29.3949 349.79 29.4124 349.886 29.4314C350.05 29.4682 350.216 29.5048 350.357 29.5395C350.662 29.61 350.959 29.678 351.236 29.7423C351.81 29.8722 352.383 29.9925 352.941 30.1037C354.07 30.3274 355.194 30.517 356.386 30.704C357.593 30.8965 358.803 31.0615 360.449 31.3683C361.328 31.5482 362.163 31.6718 363.998 32.2682C364.442 32.4186 365.069 32.6441 365.841 32.9983C366.181 33.1533 366.77 33.4419 367.361 33.79C367.664 33.9679 367.989 34.1708 368.34 34.4103C368.746 34.6875 369.253 35.0632 369.774 35.5118C370.3 35.9647 370.872 36.5113 371.47 37.2035C372.195 38.0422 373.027 39.1879 373.728 40.6264C375.173 43.2153 375.936 48.542 374.64 52.2035C373.723 55.2734 371.896 57.5392 370.986 58.4858C370.035 59.4915 369.193 60.1557 368.466 60.6718C364.368 63.5882 360.978 64.9746 357.972 66.0923C355.8 66.8624 359.782 69.9149 357.783 70.7755C355.803 71.6101 354.193 72.2847 353.555 72.6225C353.688 72.5655 353.548 72.6324 353.463 72.6753C353.368 72.7226 353.252 72.78 353.135 72.8382C352.897 72.9554 352.646 73.0795 352.395 73.2034C351.887 73.4532 351.375 73.704 350.881 73.9445C350.392 74.1832 349.905 74.42 349.532 74.5999C349.353 74.6858 349.184 74.7691 349.184 74.759C349.193 74.7475 349.227 74.7271 349.508 74.5487C349.688 74.4301 349.854 74.3368 350.507 73.8681C350.587 73.8093 350.668 73.7497 350.77 73.6727C350.901 73.5743 351.047 73.4618 351.215 73.3277C351.564 73.0451 351.928 72.7527 352.594 72.1169C353.085 71.6393 353.695 71.0288 354.522 69.974C354.934 69.4417 355.403 68.7926 355.925 67.9198C356.193 67.4678 356.436 67.0372 356.76 66.371C357.338 65.1683 357.969 63.6178 358.398 61.4913C359.427 57.4798 358.519 49.7058 354.32 44.8268C353.391 43.6514 352.164 42.4865 351.396 41.8663C350.754 41.3372 350.117 40.8793 349.503 40.4828C348.274 39.69 347.137 39.1388 346.13 38.7292C342.09 37.1854 340.072 37.3087 338.615 37.2442C343.362 37.4724 348.58 37.7197 354.044 38.3486C356.252 38.6109 354.521 42.3571 355.595 42.6657C356.914 43.0303 357.918 42.7625 358.776 42.2112C361.008 40.778 362.23 37.4147 365.652 38.2472C366.65 38.4826 366.302 41.5989 366.503 41.9252C369.603 47.0511 371.59 39.3979 372.335 39.1945C377.056 37.7849 381.138 39.207 385.106 40.8216C385.678 40.9598 386.175 41.1077 386.812 41.2794C387.524 41.4785 387.96 41.5604 389.948 42.1082C390.499 42.2869 391.154 42.4111 392.822 43.1903C393.738 43.7158 394.99 44.0425 397.457 46.7547C398.739 48.2662 400.306 50.7548 400.648 54.3279C400.935 58.0029 399.943 60.4241 398.927 62.2679C398.097 63.7014 397.309 64.5637 396.615 65.2477C396.074 65.7679 395.619 66.1301 395.201 66.4355C394.377 67.0254 393.992 67.2187 393.519 67.47C393.158 67.6521 392.852 67.7862 392.572 67.9004C392.321 68.0001 392.124 68.0685 391.924 68.135C390.489 68.5774 389.986 68.5586 389.364 68.6231C386.584 68.5431 383.874 68.6306 381.043 69.5136C379.937 69.8587 383.228 73.236 380.022 73.9678C370.187 76.1516 360.595 76.6594 351.845 76.8896C340.991 77.1965 330.371 76.5658 320.259 75.4542C317.343 75.14 319.235 72.0935 319.034 71.7427C315.727 66.2735 314.261 73.9532 313.351 74.2974C308.27 76.0669 303.161 73.7611 299.123 75.5325C297.365 76.2883 295.826 77.7653 294.626 80.5888C282.166 80.5507 270.623 82.4072 261.758 86.494C261.774 86.4768 261.248 86.7736 260.966 86.9915C260.818 87.1001 260.705 87.1985 260.703 87.1976C260.703 87.1861 260.81 87.114 261.183 86.5926C261.5 86.0133 262.412 85.1871 262.971 81.7213C263.214 80.0037 263.063 77.3664 262.015 74.9776C261.013 72.6006 259.373 70.8806 258.254 70.0073C255.868 68.223 254.961 68.2394 254.505 68.0759C254.061 67.9811 254.078 68.0257 254.224 68.0525C258.192 68.5906 263.584 68.4587 270.023 68.7862C277.533 69.2643 285.051 70.195 292.587 71.8601C292.992 71.9405 292.393 75.6905 293.2 75.8348C302.923 77.6123 300.88 71.8812 307.038 64.5897C308.589 62.7585 313.763 71.1507 314.217 71.7634C315.87 74.022 314.414 79.6193 314.957 80.0494C316.602 81.2846 317.468 79.6075 318.195 76.9771C319.443 72.4287 320.217 65.041 323.849 64.88C324.031 64.9026 323.421 68.309 323.92 68.6232C325.478 69.6098 326.915 68.1985 328.457 69.2853C331.988 71.7994 333.708 80.6339 338.67 75.1602C339.299 74.4505 337.688 64.1191 342.989 64.3129C345.089 64.3941 354.487 63.7142 357.194 64.284C359.882 64.8426 358.196 68.2713 358.394 68.408C365.69 72.5567 363.062 74.5038 366.767 80.9564C370.405 87.4058 369.09 71.8402 370.527 70.0703C371.972 68.2982 377.288 71.924 378.55 73.2155C379.823 74.497 378.213 76.6155 379.339 77.3446C386.713 82.1624 382.787 69.6587 385.398 67.2434C391.069 62.1533 395.116 71.2253 399.522 74.3288C400.051 74.6834 400.59 74.966 401.148 75.1492C402.636 75.6461 401.714 72.8668 403.157 72.8181C409.111 72.8857 411.279 76.8323 419.075 77.1763C419.724 77.2318 422.273 76.497 424.942 77.0448C427.575 77.5348 430.259 79.4662 429.724 82.8218C429.515 83.74 426.371 84.3802 427.543 86.9306C427.783 87.4868 428.045 88.0917 428.321 88.7435C428.548 89.1316 428.571 89.2275 428.628 89.3627C428.677 89.486 428.703 89.5697 428.737 89.6684C428.791 89.8392 428.838 89.999 428.886 90.1594C428.975 90.4663 429.059 90.7631 429.148 91.0634C429.323 91.6548 429.512 92.2515 429.718 92.8353C429.922 93.4158 430.149 93.9996 430.37 94.4969C430.423 94.6158 430.477 94.7325 430.522 94.8245C430.556 94.8991 430.627 95.0165 430.532 94.8688C430.485 94.8022 430.477 94.7737 430.269 94.5174C430.206 94.4422 430.126 94.3506 430.008 94.2315C429.949 94.172 429.879 94.1054 429.795 94.0301C429.752 93.9924 429.706 93.9525 429.654 93.9103C429.586 93.8557 429.603 93.8651 429.424 93.7329C429.133 93.53 428.73 93.2533 427.974 93.0218C427.247 92.7948 425.976 92.6692 424.735 93.1977C422.378 94.3021 422.074 95.9505 421.886 96.5721C421.845 96.7528 421.82 96.9058 421.803 97.039C421.786 97.1705 421.778 97.2975 421.776 97.3231C421.77 97.4195 421.767 97.5033 421.766 97.5781C421.765 97.7274 421.77 97.8409 421.776 97.9345C421.789 98.1181 421.808 98.239 421.814 98.2756C421.83 98.3819 421.841 98.4351 421.847 98.4647C421.863 98.5394 421.837 98.442 421.802 98.3427C421.367 96.9941 420.899 95.7472 420.369 94.7222C419.079 92.1421 415.089 96.3291 415.822 92.4176C416.192 90.7178 419.422 93.1053 419.927 90.0614C420.367 87.0692 419.815 79.9029 419.878 77.1495C419.867 74.4154 416.224 75.7474 415.986 75.5236C414.603 74.0851 413.404 68.3081 413.51 67.8109C414.213 61.3498 415.936 55.3378 418.071 49.7481C418.154 49.5197 418.214 49.3716 418.31 49.11C418.358 48.9819 418.389 48.9071 418.453 48.7319C418.516 48.5622 418.553 48.4691 418.675 48.1472C418.743 47.9761 418.753 47.9315 418.983 47.3956C419.038 47.2708 419.104 47.1256 419.196 46.9387C419.242 46.8451 419.295 46.7409 419.359 46.6207C419.361 46.6169 419.498 46.3588 419.626 46.1461C419.765 45.916 419.938 45.639 420.212 45.2693C420.878 44.5989 421.295 43.1651 425.322 41.5985C427.316 40.8853 430.77 40.7904 433.547 42.4047C436.222 43.9465 437.252 45.8228 437.817 46.9412C438.838 49.252 438.716 50.0197 438.813 50.6696C438.856 51.3907 438.837 51.3098 438.841 51.4954C438.817 52.5254 438.754 52.6959 438.734 52.8879C438.706 53.0769 438.678 53.2272 438.66 53.3152C438.619 53.5205 438.583 53.6746 438.551 53.8062C438.516 53.9499 438.486 54.0581 438.455 54.174C438.213 55.052 437.989 55.741 437.757 56.4614C437.277 57.9499 436.881 59.0201 436.287 60.8335C434.366 65.9059 432.651 68.6397 431.398 71.9273C430.782 73.4779 430.313 74.9818 430.107 76.0916C430 76.638 429.97 77.0726 429.94 77.2253C429.909 77.3934 429.84 77.1814 429.51 76.8457C429.555 76.977 429.529 77.018 429.709 77.1289C429.883 77.2321 430.294 77.3557 430.902 77.3793C432.126 77.4404 433.965 77.0689 435.81 76.33C437.079 75.8198 435.15 72.4121 435.332 72.2967C438.97 69.4267 438.79 80.1924 443.649 81.9563C440.255 74.9989 442.792 75.5572 445.848 73.0934C447.312 71.8941 445.048 69.6893 445.065 69.3397C445.125 68.4233 445.303 67.7969 445.56 67.3932C446.756 65.4887 449.931 68.4874 450.783 69.1471C454.564 72.0886 453.715 66.5512 456.292 68.4375C458.909 70.2694 458.563 75.5581 461.901 73.4536C461.356 70.5433 455.192 65.8822 456.974 63.3964C462.172 56.1439 475.016 49.9794 483.89 44.6473C485.677 43.7215 487.907 41.9952 489.681 40.6519C491.506 39.2576 493.351 37.9458 495.55 36.8977C496.41 36.4919 497.541 36.0083 499.433 36.0238C501.35 36.0099 503.569 37.0267 504.697 38.1254C506.886 40.3324 506.851 41.3847 507.169 42.1837C507.563 43.6909 507.538 44.3362 507.577 44.9953C507.611 46.2351 507.54 47.0449 507.473 47.8248C507.401 48.5905 507.313 49.2667 507.215 49.9035C507.165 50.2255 507.114 50.5306 507.059 50.832C507.03 50.9875 507.002 51.138 506.974 51.2753C506.959 51.3559 506.947 51.4125 506.932 51.4848C506.925 51.5189 506.92 51.5385 506.914 51.5634C506.912 51.5728 506.911 51.5763 506.911 51.5676C506.911 51.5651 506.912 51.5532 506.917 51.5089C506.922 51.4545 506.931 51.42 506.953 51.1317C506.71 52.97 506.38 54.2376 505.937 55.7813C504.735 59.9537 505.908 60.9342 507.361 61.2633C508.102 61.4129 508.97 61.4276 509.781 61.2915C510.525 61.1042 511.551 60.9301 511.094 59.143C510.552 57.4171 508.477 56.4408 507.463 56.8539C506.525 57.8403 506.099 60.592 505.366 63.1879C504.694 65.8068 503.724 68.3102 503.78 69.4648C504.096 72.4593 505.642 69.7409 506.643 71.3095C507.892 72.8673 504.965 74.8163 508.206 75.3513C511.897 75.9106 517.551 69.0071 517.233 65.9342C516.939 59.4007 512.085 54.1919 518.408 54.3299C518.789 54.3323 518.93 57.9813 520.336 57.8221C522.258 57.5831 524.196 57.2152 526.412 56.8012C535.967 55.241 545.117 52.8445 554.353 51.2729C555.892 51.0124 556.055 55.0963 556.981 54.9776C561.362 54.3951 562.621 53.0056 562.782 50.9826C562.874 50.6477 562.842 50.283 562.596 50.0749C562.467 49.9797 562.213 50.0482 562.064 50.2857C561.912 50.5159 561.873 50.8037 561.833 51.0233C561.597 51.8002 561.275 52.4761 560.917 53.2597C560.2 54.808 559.345 56.557 557.955 58.3182C560.824 49.1182 558.876 42.5819 551.348 41.9412C546.912 41.5925 547.421 45.8453 544.549 48.6764C543.709 49.5279 540.752 46.5863 540.178 48.5637C538.489 55.0417 540.838 62.0986 534.755 59.4938C534.49 59.3766 535.059 55.7956 534.138 55.6513C533.238 55.5151 532.54 55.5797 532.128 55.767C531.942 55.8556 531.817 55.9816 531.909 56.0749C531.959 56.1192 532.066 56.1537 532.263 56.1466C532.497 56.1208 532.86 56.0402 533.391 55.7748C535.735 54.2042 536.746 51.5929 536.933 50.1791C536.994 49.8043 537.023 49.4719 537.036 49.1759C537.044 48.9911 537.047 48.8404 537.046 48.6894C537.044 48.3915 537.028 48.136 537.007 47.9115C536.923 47.0415 536.758 46.5117 536.733 46.3452C536.629 45.8794 536.572 45.6514 536.584 45.5459C536.586 45.2983 536.689 45.2565 536.811 45.2191C537.06 45.1611 537.401 45.2033 537.768 45.2506C538.5 45.3444 539.323 45.4616 540.17 45.6421C541.869 46.005 543.664 46.6487 545.357 48.1508C546.091 48.7981 546.811 49.6696 547.373 50.4766C547.646 50.8745 547.903 51.2684 547.908 51.4544C547.894 51.5385 547.853 51.5827 547.435 51.4078C547.236 51.3317 546.886 51.1594 546.258 50.9194C545.481 50.6776 544.532 50.0875 541.434 50.0268C545.812 51.1722 551.151 52.4095 555.168 52.3394C556.231 63.103 562.511 59.7984 563.944 52.0323C568.349 51.6779 573.1 50.4706 577.646 50.8432C579.21 50.9693 578.664 54.2072 578.904 54.5134C582.53 59.339 583.507 51.9201 584.494 51.513C594.097 47.8663 602.615 51.5975 612.515 49.7538C614.299 49.6515 616.302 49.7876 618.319 50.2189C618.679 50.2964 620.003 48.7918 621.69 48.4155C623.307 47.9878 625.52 48.9844 625.223 52.6026C625.199 52.8384 623.559 52.5513 622.651 53.0067C621.682 53.4398 621.889 54.6263 623.781 57.0412C625.234 58.9402 626.185 61.5573 626.52 62.4719C626.688 62.9232 626.415 63.1286 626.828 63.2949C627.215 63.4408 628.168 63.2149 629.016 62.5948C629.953 61.9493 630.746 61.0329 631.257 59.8803C632.031 58.3982 630.58 51.8566 635.907 53.4215C636.637 53.6327 637.749 55.5271 638.993 56.014C643.018 57.5027 638.626 51.2195 644.755 54.2964C647.25 55.5523 649.871 56.3168 652.149 56.3908C655.622 56.3642 658.701 54.3522 659.65 49.5954C659.72 49.3369 656.498 44.0404 657.939 42.6094C660.28 40.3117 664.275 37.5291 666.376 34.7525C667.378 33.4276 663.773 31.9891 663.895 31.7206C664.109 31.2955 664.326 30.8805 664.545 30.4743C664.914 29.8323 665.286 29.2673 665.605 28.7822C665.762 28.5417 665.907 28.3203 666.012 28.1449C666.113 27.9785 666.186 27.8194 666.108 27.92C666.069 27.9851 665.97 28.0987 665.835 28.5882C665.771 28.8491 665.696 29.2278 665.741 29.7949C665.781 30.3729 666.023 31.1452 666.452 31.7377C667.365 32.9364 668.095 33.0542 668.384 33.178C668.715 33.277 668.803 33.2742 668.854 33.2837C668.973 33.2889 668.479 33.292 668.069 33.332C663.687 33.1958 658.456 37.6608 654.055 45.3404C652.976 47.052 654.86 55.662 648.51 57.2223C645.368 57.8028 641.612 54.0886 638.354 51.1158C635.081 48.17 632.687 45.1077 634.406 45.314C634.566 45.3717 634.723 45.5116 634.819 45.7452C635.373 46.5376 634.711 53.0441 631.564 57.2407C628.601 61.4726 624.087 63.3391 622.197 56.4912C607.517 55.648 595.126 41.0847 577.75 49.4912C576.88 49.9627 577.591 56.7114 576.776 57.1945C575.263 58.0084 572.352 56.6145 571.097 57.7262C569.294 59.3368 568.193 61.3728 567.428 63.6063C567.224 64.0192 567.041 64.1099 566.898 64.2399C566.748 64.358 566.611 64.4493 566.477 64.5353C566.21 64.7047 565.956 64.8482 565.705 64.9882C565.204 65.2663 564.72 65.5233 564.252 65.7856C563.786 66.0469 563.333 66.3121 562.946 66.5824C562.755 66.7164 562.579 66.8543 562.46 66.9761C562.344 67.0815 562.28 67.2528 562.455 67.0649C562.507 66.9697 562.621 66.8489 562.652 66.4074C562.706 65.9596 562.333 65.3265 562.09 65.1747C561.845 64.9845 561.731 64.961 561.664 64.9303C561.597 64.9047 561.577 64.8974 561.569 64.8897C561.554 64.8657 561.709 64.8491 561.855 64.8187C562.182 64.7618 562.498 64.675 563.082 64.6161C564.462 64.4488 565.936 64.3164 567.402 64.3275C569.995 64.3336 569.258 67.5144 572.373 67.5079C572.512 67.5077 572.667 67.4969 572.801 67.4787C575.646 67.1024 577.474 63.3237 581.579 64.9682C584.832 66.2851 588.527 74.5012 592.792 75.2111C592.417 66.8994 595.31 66.8864 600.283 64.3568C601.239 63.8665 599.992 61.0475 600.434 60.6666C602.227 59.0522 604.138 61.329 605.825 59.5867C606.236 59.1678 606.064 56.3322 606.388 55.8298C609.135 51.4511 614.569 57.4767 615.51 58.5247C619.102 62.5062 620.378 58.7092 623.023 60.1839C625.668 61.6575 622.047 64.0098 625.071 64.799C631.343 66.4304 639.176 65.3589 645.401 64.9689C647.883 64.7958 645.874 61.1587 646.222 61.0462C651.251 59.6599 656.795 63.2146 658.939 55.4324C664.278 74.5506 661.847 53.2713 669.496 56.4543C670.099 56.7124 671.748 65.8309 669.658 67.3985C667.565 68.9647 663.924 66.4128 661.037 68.8007C660.358 69.3629 656.941 78.3612 656.408 78.9335C652.263 83.4129 650.442 69.7123 650.143 68.9781C646.772 61.0587 642.455 70.7701 641.151 71.5205C635.223 74.9613 629.834 73.4251 624.836 75.9062C621.565 77.5116 621.884 86.5518 619.206 86.466C610.302 86.1793 606.398 73.8007 598.828 85.2593C597.204 87.7023 599.61 97.4496 592.732 90.1081C592.298 89.6455 587.119 82.8548 584.675 87.5134C584.368 88.1008 584.56 90.974 584.123 91.244C581.19 92.9967 579.026 90.8335 575.797 92.1355C575.334 92.3222 574.858 92.5209 574.371 92.7219C571.085 93.931 568.411 95.1968 563.86 94.5209C563.844 94.5192 563.829 94.5174 563.814 94.5155C564.593 94.4674 564.774 94.4111 564.886 94.3632C564.98 94.3143 564.933 94.2682 564.816 94.2215C564.569 94.1276 564.069 94.0332 563.197 93.911C562.218 93.7565 561.335 93.7449 557.876 93.1494C556.935 92.9682 555.831 92.7584 554.003 92.2001C552.237 91.5754 549.656 90.9635 545.183 87.6753C540.777 85.0396 533.95 74.4093 534.696 66.1514C535.093 58.0956 537.269 55.3342 538.508 53.0114C542.138 47.629 544.629 46.4951 546.311 45.4234C548.013 44.4837 549.17 44.1344 550.113 43.9088C551.977 43.4956 553.063 43.6298 553.972 43.7845C555.732 44.1399 556.605 44.7721 557.097 45.0479C557.67 45.4116 558.067 45.6139 557.938 45.876C557.854 46.0214 557.667 46.1491 556.921 46.5854C556.539 46.8177 556.003 47.1113 554.99 47.8507C553.943 48.8699 552.259 49.134 549.089 55.0827C550.378 51.8529 550.57 47.3561 554.704 47.322C560.259 47.7741 562.497 55.8116 568.883 53.1789C563.796 47.6882 559.074 41.5763 554.651 35.445C565.055 26.0078 580.164 24.1986 588.966 25.5244C598.305 26.694 604.853 29.252 611.007 30.9481C612.517 31.3746 612.204 27.0545 613.857 27.42C620.714 28.9704 624.829 33.5693 629.74 33.7813C633.33 34.12 637.542 29.3898 631.924 28.7861C631.582 30.6515 630.993 32.089 630.193 33.3506C628.638 35.7114 626.72 37.6613 625.947 38.6616C625.138 39.6729 625.164 39.4301 625.851 38.7704C626.498 38.1308 628.541 39.1469 629.628 38.6118C633.916 35.9078 626.219 34.5059 625.661 32.8553C624.606 28.9746 628.408 27.8925 632.83 27.1656C637.449 26.3161 641.865 25.9768 646.621 20.3417C646.905 20.052 647.016 16.4768 648.706 12.3723C650.269 8.26969 653.639 4.12258 654.614 3.49166C666.633 -3.70077 658.536 4.83801 664.595 4.82386C664.823 4.85127 665.079 4.86548 665.373 4.86593C666.18 4.86594 667.062 4.86901 668.421 4.93226C669.887 5.07206 671.24 4.8834 675.873 6.11208C678 6.87943 682.247 7.71411 687.66 13.5818C693.501 19.7476 694.167 29.9491 693.17 33.5348C692.332 37.6963 691.315 39.3077 690.644 40.621C689.926 41.9052 689.418 42.5937 688.988 43.1673C687.328 45.2737 686.746 45.5857 686.249 45.9976C685.786 46.3355 685.565 46.4249 685.523 46.3424C683.865 48.0113 682.495 50.0313 681.506 53.2362C680.964 55.1447 682.163 62.473 676.34 62.2206C675.584 62.1826 673.576 59.9145 673.182 60.0738C666.255 63.0091 672.735 69.8164 671.757 75.1175C671.595 75.9707 671.207 76.6764 670.662 77.2516C669.461 78.7812 662.997 78.2557 661.158 77.792C655.484 76.3916 661.532 74.6023 661.23 74.2142C658.631 68.824 656.58 72.1599 653.593 74.1821C647.066 67.5911 643.822 71.0176 650.414 76.3002C651.185 76.8511 652.817 74.3194 653.593 74.1821C657.584 82.7742 652.419 89.1486 640.021 85.7015C639.941 85.6759 639.863 85.6492 639.786 85.6216C636.781 84.8101 635.969 82.8131 634.216 81.9369C633.36 81.4662 632.271 81.307 630.197 81.4197C628.212 81.43 624.537 82.1662 618.976 80.2963C614.252 78.4379 612.631 78.7792 610.37 79.4447C608.282 80.1117 605.798 80.559 603.449 79.087C600.633 77.3173 599.491 76.4734 600.32 77.2871C600.955 78.0557 605.346 80.3079 608.483 79.9968C606.355 78.8717 603.92 77.7813 601.614 78.1801C599.735 78.5171 601.55 82.0202 600.311 82.3795C597.095 83.3647 593.768 80.97 590.07 82.7339C589.742 82.8984 590.982 86.4478 589.824 86.6274C580.978 88.0715 571.629 87.5851 559.242 89.0038C554.967 89.4879 547.956 91.1612 541.25 91.5508C532.382 91.1868 530.024 89.1906 527.923 88.3853C525.881 87.3669 524.873 86.7012 523.864 86.0376C522.119 84.8645 521.068 83.9988 520.222 83.2927C518.533 81.8584 517.521 80.8246 516.657 79.8656C514.309 77.2255 512.695 74.7176 511.123 71.9552C510.341 70.5706 509.599 69.1526 508.775 67.5176C508.343 66.6664 507.939 65.842 507.329 64.6294C507.018 64.0045 506.684 63.3491 506.129 62.1983C506.012 61.9502 505.81 61.5374 505.616 61.1107C505.517 60.893 505.412 60.6596 505.302 60.4044C505.246 60.2768 505.19 60.1436 505.131 60.004C505.061 59.8378 504.973 59.6286 504.888 59.4205C504.717 58.9982 504.533 58.5192 504.334 57.9443C504.234 57.6566 504.131 57.3444 504.024 56.9998C503.967 56.8127 503.932 56.6959 503.85 56.4128C503.766 56.1245 503.681 55.8145 503.597 55.4772C503.268 54.118 502.873 52.3776 502.794 49.5592C502.639 47.8764 502.808 35.3471 513.897 27.6989C515.909 26.3637 517.538 25.622 518.915 25.0701C520.064 24.6252 520.965 24.3559 521.82 24.1285C523.498 23.6953 524.462 23.5748 525.504 23.4413C527.328 23.2442 528.661 23.2392 529.885 23.2538C532.242 23.3052 534.015 23.4857 535.736 23.6224C539.087 23.9107 541.903 24.0884 544.448 23.8175C550.588 23.2265 549.434 19.5426 552.312 17.218C555.119 14.9918 558.736 16.2606 562.286 18.5186C564.092 19.6614 565.803 20.9991 568.176 22.5483C569.431 23.367 570.641 24.0898 573.197 25.5793C574.154 26.2025 576.231 27.3435 578.558 29.2828C579.823 30.3903 580.542 30.9045 582.801 33.6048C584.711 35.9682 586.493 39.1786 587.466 42.4818C587.515 42.7163 587.074 40.9397 585.78 38.4186C584.598 35.975 582.011 32.7369 580.357 31.3074C577.615 28.7191 574.068 26.9765 573.028 26.5964C571.487 25.9616 570.216 25.6191 569.448 25.4673C568.588 25.288 567.831 25.1928 567.336 25.1865C566.246 25.1506 565.54 25.3035 565.326 25.6116C565.14 25.9316 565.196 26.3387 566.492 27.1266C567.567 29.4314 569.384 29.1145 572.825 29.4731C574.935 29.8795 577.699 30.705 580.61 32.8716C584.601 35.9561 587.183 41.3042 587.466 42.4818C588.115 44.6888 588.935 48.1987 588.424 52.9303C587.974 57.5936 585.73 62.7578 582.999 66.0781C582.326 66.9247 581.638 67.6814 580.958 68.3539C580.553 68.7536 580.447 68.8441 580.223 69.0494C580.02 69.2333 579.818 69.4112 579.615 69.5831C578.806 70.2708 578.01 70.8616 577.25 71.3698C575.726 72.3862 574.357 73.0777 573.161 73.5987C570.359 74.1455 562.629 76.6937 561.232 77.8368C560.345 78.5825 562.144 81.6175 561.652 81.946C553.848 87.0746 546.075 90.6647 538.846 93.161C537.208 93.7179 531.878 95.6706 526.201 96.8864C525.881 96.913 525.16 93.0662 524.44 93.168C516.053 93.5207 511.513 100.447 491.634 97.0633C482.887 94.6593 474.776 87.1889 471.19 81.2011C463.392 67.5395 464.615 62.2165 464.988 57.6048C465.799 53.2503 468.051 50.6001 471.519 49.3152C471.472 48.8828 471.461 48.4829 471.449 48.5116C471.545 47.3207 471.58 47.1959 471.608 46.9446C471.621 46.8413 471.631 46.7677 471.64 46.7068C471.644 46.6736 471.648 46.6485 471.651 46.6236C471.664 46.5266 471.673 46.4659 471.68 46.4154C471.693 46.3264 471.697 46.2972 471.704 46.2527C471.715 46.1815 471.723 46.1318 471.731 46.0906C471.747 46.0038 471.764 45.9315 471.782 45.8644C471.818 45.7276 471.863 45.6028 471.913 45.4997C472.015 45.2949 472.139 45.1461 472.276 45.2516C472.427 45.4189 472.516 45.555 472.843 47.3837C473.134 48.4858 472.929 49.4485 474.89 54.3688C476.217 56.7221 477.406 61.8651 487.066 67.429C491.669 69.9426 498.049 70.7689 502.048 70.1967C506.654 69.5929 508.699 68.577 510.844 67.5405C512.807 65.5656 511.357 65.1565 510.35 65.1431C507.405 65.3859 511.473 71.9695 511.362 72.2621C510.871 73.1701 510.218 74.1553 509.256 75.2815C504.011 83.8679 496.673 84.9099 487.344 90.7272C482.59 93.7239 473.464 100.811 468.029 104.599C467.239 105.169 466.464 105.624 465.703 106.008C462.465 107.632 459.225 108.146 455.214 110.784C454.529 111.223 456.539 114.046 456.359 114.258C451.095 120.585 451.442 111.596 449.637 110.694C446.252 108.999 443.629 107.62 440.579 107.165C437.377 106.596 434.429 107.504 426.384 107.894C424.722 107.891 421.094 109.971 415.077 110.362C409.185 110.903 400.841 108.586 395.84 104.323C394.057 102.657 392.595 100.862 391.52 99.1529C385.789 89.0796 387.36 86.8106 387.496 84.2392C387.964 81.8415 388.364 79.2752 388.024 74.3056C388.007 73.5998 385.237 73.1218 386.015 68.1731C387.071 62.213 388.535 58.2973 389.826 54.95C390.474 53.3094 391.104 51.8454 391.614 50.7121C391.869 50.1465 392.09 49.6691 392.244 49.3784C392.393 49.1135 392.482 48.9549 392.365 49.6111C392.293 49.8984 392.278 49.9648 392.262 50.0339C392.249 50.0934 392.242 50.1278 392.241 50.1342C392.238 50.1542 392.239 50.1599 392.241 50.1586C392.246 50.1518 392.254 50.1326 392.264 50.1067C392.285 50.0448 392.304 49.9932 392.329 49.916C392.374 49.7829 392.422 49.633 392.471 49.4786C392.567 49.1801 392.664 48.8721 392.759 48.5635C392.947 47.9545 393.131 47.3415 393.295 46.7783C393.377 46.5006 393.455 46.2265 393.521 45.9997C393.586 45.7795 393.647 45.5566 393.657 45.5842C393.658 45.5965 393.657 45.624 393.644 45.7138C393.633 45.7985 393.61 45.9401 393.559 46.2856C393.54 46.4235 393.49 46.7536 393.432 47.2401C393.413 47.7362 393.174 48.1942 393.187 52.199C393.239 53.1917 393.169 55.2029 394.072 59.3265C394.601 61.4662 395.276 64.3314 397.754 68.8181C400.175 73.0623 405.327 80.2667 415.778 84.3842C426.386 88.5045 436.516 86.5025 442.377 83.9245C448.376 81.2818 451.25 78.5472 453.301 76.6029C457.183 72.6432 458.09 70.711 459.022 69.2407C459.232 68.88 459.411 68.5583 459.57 68.2657C459.674 68.0731 459.659 68.0991 459.695 68.0318C459.722 67.9815 459.748 67.9321 459.773 67.8836C459.875 67.6896 459.967 67.5091 460.053 67.3399C460.223 67.0015 460.364 66.7075 460.487 66.4444C460.732 65.9192 460.906 65.5149 461.049 65.1749C461.191 64.8358 461.299 64.5631 461.389 64.3298C461.479 64.0973 461.498 64.0449 461.544 63.9198C461.625 63.701 461.688 63.5236 461.741 63.3725C461.847 63.0661 461.906 62.8821 461.937 62.7839C461.973 62.6709 461.998 62.5856 462.018 62.5192C462.058 62.3821 462.062 62.359 462.069 62.3269C462.077 62.2825 462.059 62.326 462.033 62.4036C461.677 63.5054 461.382 64.5879 461.158 65.6453C460.961 66.5472 465.273 66.4267 465.077 67.6863C464.157 73.64 463.657 78.1793 462.072 81.8059C461.674 82.7256 458.723 82.5134 457.886 82.8113C452.855 84.9493 460.753 85.5494 460.932 85.6095C461.253 85.9531 461.539 86.2867 461.795 86.619C462.002 87.2655 462.194 87.7436 462.644 89.6507C462.786 90.2907 462.95 91.0646 463.126 92.2204C463.202 92.7235 463.404 94.144 463.486 95.8701C463.529 96.7727 463.555 97.8463 463.497 99.2414C463.373 99.631 463.746 104.537 460.491 112.336C458.759 116.298 455.61 121.849 449.274 126.816C443.771 131.718 431.193 135.577 423.653 134.479C415.679 133.753 411.013 131.274 407.89 129.509C406.324 128.589 405.117 127.734 404.128 126.979C403.661 126.622 403.24 126.283 402.856 125.961C399.849 123.394 398.697 121.891 397.727 120.73C396.411 119.075 395.97 118.374 395.48 117.647C394.812 116.633 394.44 115.997 394.204 115.605C393.939 115.159 393.774 114.874 393.622 114.611C393.321 114.089 393.126 113.746 392.955 113.448C392.287 112.276 391.924 111.628 391.559 110.959C391.207 110.314 390.907 109.74 390.667 109.271C390.548 109.041 390.443 108.834 390.397 108.745C390.377 108.708 390.366 108.691 390.432 108.825C390.464 108.888 390.527 109.015 390.655 109.261C390.896 109.677 390.768 109.621 392.262 112.01C393.878 114.638 397.429 116.206 398.347 115.904C399.39 115.724 398.241 114.753 395.571 114.952C394.207 114.962 392.787 115.081 391.309 115.339C390.516 115.458 384.721 123.308 382.348 116.285C382.212 115.815 379.701 108.608 377.319 113.495C377.177 113.802 378.791 117.482 375.954 117.107C373.094 116.735 368.513 119.275 364.245 115.383C362.91 114.154 359.457 107.145 355.68 113.024C355.428 113.43 349.873 126.595 347.085 117.87C346.628 116.433 346.518 107.035 341.777 112.124C340.868 113.109 342.735 115.102 340.269 116.55C336.479 118.781 331.105 116.56 326.252 120.959C325.516 121.645 322.681 126.805 319.753 124.76C319.396 124.485 319.038 124.082 318.685 123.522C318.217 122.779 318.958 119.619 317.451 119.317C310.286 117.868 302.91 120.206 295.621 118.274C293.039 117.596 294.181 112.489 291.471 111.219C288.761 109.949 283.348 108.819 280.635 111.224C277.92 113.631 281.231 121.602 277.073 122.384C275.315 122.715 273.556 122.974 271.797 123.172C267.577 123.702 260.098 124.416 249.167 123.016C246.899 122.734 244.545 122.408 240.81 121.405C237.124 120.219 232.245 119.278 223.877 112.802C215.188 107.523 205.679 86.404 208.729 74.6481C210.666 62.9233 214.457 58.4845 216.81 54.9657C226.748 43.0983 230.499 42.228 239.47 37.796C246.996 34.9681 254.128 33.2627 260.735 31.8503C264.31 31.126 260.743 28.9376 265.954 27.7883C274.624 25.9096 285.223 24.1223 294.158 23.2384C305.925 22.05 317.068 22.2163 324.195 25.1797C334.637 29.5551 322.039 33.9666 329.9 35.5575C333.69 36.3155 337.127 26.721 337.973 26.3749C341.737 24.8055 344.977 24.6969 348.078 24.8747C352.372 25.0562 356.168 25.7664 360.003 24.7482C361.423 24.3638 359.701 20.6904 360.886 20.4051C364.878 19.4001 368.78 20.6306 371.55 19.8001C372.766 19.4191 371.965 16.6137 372.998 16.6198C373.741 16.6119 374.419 16.6697 375.071 16.812C374.84 16.9151 374.551 17.0364 374.044 17.2389C373.502 17.459 372.84 17.7002 371.278 18.3854C370.851 18.5743 370.394 18.7834 369.824 19.0602C369.16 19.3816 368.393 19.7711 367.477 20.2882C366.298 20.9657 365.186 21.5931 363.019 23.1906C361.873 24.0494 360.565 25.1103 359.078 26.5494C357.292 28.2852 354.85 30.9407 352.531 34.8026C349.719 39.5917 346.473 46.7551 346.815 57.2526C347.224 67.8398 351.87 76.2008 355.683 80.859C363.376 89.7057 367.146 90.4382 369.808 91.9814C374.75 94.1941 376.38 94.3305 377.796 94.6952C380.448 95.2352 381.281 95.2249 382.076 95.2761C382.81 95.3036 383.23 95.2778 383.564 95.2443C384.225 95.173 384.442 95.0605 384.867 94.943C383.576 94.2784 382.225 93.442 380.752 92.3857C380.404 92.1458 382.602 88.4776 379.785 88.4109C375.227 88.3198 368.932 86.0289 363.072 89.2625C362.814 89.4065 362.604 89.6759 362.419 90.0161C361.348 91.9627 361.182 96.2245 357.37 92.5943C356.394 91.7012 357.061 83.6745 352.492 90.8859C351.9 92.0357 343.829 101.09 338.353 96.4964C335.24 96.2919 330.83 96.7652 321.531 92.5622C319.226 91.4405 316.629 89.9076 313.935 87.714C310.374 84.9399 305.322 79.1714 302.741 72.8665C297.084 59.5121 300.347 47.8183 302.646 42.4666C302.952 41.7384 303.26 41.0689 303.565 40.4465C303.732 40.1075 303.864 39.849 304.012 39.5665C304.302 39.014 304.586 38.503 304.865 38.0259C305.421 37.0729 305.951 36.2563 306.448 35.5368C307.444 34.1 308.309 33.0389 309.066 32.1669C309.823 31.298 310.475 30.6242 311.05 30.0566C311.331 29.7798 311.629 29.4961 311.838 29.3032C311.993 29.1609 312.142 29.0265 312.286 28.8991C314.557 26.9174 315.673 26.2656 316.296 25.8751C317.005 25.4431 317.525 25.1746 317.869 25.024C318.236 24.8592 318.58 24.7183 318.826 24.6422C321.795 23.78 323.603 25.1881 325.702 26.0123C327.709 26.9015 329.514 27.5476 330.495 26.5076C330.789 26.1867 327.774 23.6682 329.863 22.2917C329.978 22.2224 330.075 22.1619 330.224 22.0782C330.367 21.9976 330.531 21.9067 330.832 21.7577C335.572 19.2218 338.333 18.2021 339.87 17.4312C341.322 16.7951 341.49 16.1835 338.414 17.911C337.388 18.6287 336.227 19.5135 334.926 20.6899C334.275 21.2787 333.59 21.9416 332.876 22.7003C332.501 23.1007 332.215 23.413 331.731 23.9766C331.227 24.5678 330.711 25.2094 330.192 25.9092C328.121 28.7167 325.946 32.4145 324.472 37.4591C322.707 43.3098 322.557 50.6951 324.215 56.7802C325.689 62.4213 328.22 66.7204 330.567 69.7824C332.946 72.8135 334.348 74.0331 335.965 75.4391C339.295 78.1623 340.633 78.7853 342.206 79.677C344.928 81.1077 346.208 81.5135 347.151 81.872C348.157 82.2292 348.681 82.3888 349.174 82.5411C350.878 83.0516 350.958 83.1034 351.055 83.2403C350.88 83.5264 350.778 87.2323 350.226 87.5065C349.891 87.5929 349.331 87.6315 348.716 87.6477C348.408 87.6555 348.078 87.6568 347.761 87.6546C347.608 87.6538 347.45 87.6516 347.315 87.6497C347.257 87.6492 347.188 87.6479 347.161 87.6485C347.148 87.6487 347.14 87.6492 347.17 87.6512C347.188 87.6523 347.218 87.6539 347.275 87.6563C347.296 87.6572 347.355 87.6596 347.472 87.6635C347.598 87.6671 347.729 87.6727 348.179 87.6795C342.656 87.6485 336.667 86.913 331.635 86.1033C329.116 85.6918 330.826 82.6187 330.641 82.2874C327.625 76.9012 325.946 84.2341 324.976 84.6739C318.902 87.3162 314.143 83.9919 308.444 85.0513C306.872 85.3351 308.086 88.7877 307.78 89.1067C304.609 92.2308 306.862 85.9089 304.775 85.278C298.924 83.4913 292.417 83.9848 286.483 84.63C284.303 84.8722 286.896 88.8269 284.937 88.9977C273.347 90.0856 261.046 90.1205 249.312 88.1542C247.103 87.7761 248.42 84.6355 247.946 83.9352C244.698 79.0355 240.191 85.8916 239.118 86.5515C238.747 86.7833 238.393 86.981 238.053 87.1489C234.553 89.1664 232.787 86.9095 229.118 87.4994C217.848 89.3128 203.017 90.2208 186.591 88.5212C187.257 88.5667 187.453 88.5676 187.567 88.57C187.683 88.5713 187.688 88.5674 187.674 88.5633C187.637 88.5545 187.483 88.5423 187.296 88.5292C186.922 88.5031 186.419 88.4731 185.858 88.437C184.713 88.3608 183.424 88.2819 181.396 88.0703C180.346 87.9527 179.18 87.835 177.014 87.4516C175.898 87.2406 174.538 87.0011 172.075 86.2855C171.459 86.1037 170.62 85.8392 169.74 85.523C168.846 85.1985 167.876 84.8357 166.358 84.1412C163.597 82.4285 159.494 82.2569 150.574 71.2398C146.215 65.6258 141.732 54.3714 143.139 43.3812C144.554 32.6883 148.023 27.7822 151.029 23.5417C153.285 20.5845 155.283 18.6939 157.009 17.2095C157.969 16.3972 158.423 16.054 159.014 15.6077C159.575 15.1875 160.103 14.8145 160.602 14.4769C162.744 13.0476 163.742 12.544 164.843 11.9619C165.973 11.3826 166.62 11.0936 167.298 10.7941C169.923 9.66951 171.032 9.35666 172.245 8.96767C182.307 6.06636 190.528 5.34503 197.597 4.94459C229.913 4.00772 249.203 10.5482 272.267 11.4725C273.687 11.542 272.599 7.30319 273.808 7.30726C276.558 7.34689 279.181 7.43292 281.569 7.50685C277.635 7.35033 276.044 7.66003 275.459 7.69908C274.71 7.7857 274.217 7.86621 274.018 7.89752C273.543 7.97499 273.48 7.98996 273.507 7.98111C273.592 7.95949 274.051 7.85608 274.561 7.7382C275.612 7.49614 276.976 7.18157 278.434 6.86394C281.381 6.2279 284.669 5.54797 288.931 4.95315C291.085 4.66376 293.495 4.37036 296.828 4.23818C300.432 4.31743 303.743 3.45617 314.325 6.45796C319.277 8.23672 329.882 11.6981 338.214 25.8143C346.103 40.0518 343.186 53.2043 341.723 58.1129C337.913 69.3802 335.205 71.3921 333.016 74.6324C325.388 84.5699 314.892 90.6288 307.081 93.7111C304.02 94.8872 309.811 97.0681 304.857 98.9995C299.383 101.054 294.055 102.081 290.046 102.46C287.63 102.646 285.037 102.657 282.569 102.406C279.894 102.14 282.95 98.3582 280.274 98.1528C274.018 97.6544 266.805 98.0724 259.021 98.6665C255.659 98.905 260.756 102.992 256.262 102.96C254.741 102.94 253.192 102.891 251.619 102.809C237.295 102.135 221.857 101.408 205.039 96.5326C206.258 96.7122 206.373 96.6634 206.417 96.6304C206.428 96.5884 206.227 96.5195 205.95 96.442C205.388 96.2858 204.526 96.0927 203.55 95.8671C201.575 95.4084 199.13 94.846 195.964 93.886C192.729 92.8317 188.946 91.7965 182.455 88.0784C179.228 86.1203 175.006 83.3926 170.294 77.8064C165.599 72.4286 161.121 62.8465 160.699 54.0608C160.63 53.2316 160.604 52.643 160.588 52.1645C160.576 51.7637 160.573 51.4581 160.572 51.1923C160.572 50.6907 160.582 50.4024 160.59 50.1772C160.609 49.7375 160.629 49.5517 160.645 49.4323C160.696 49.1133 160.835 49.3261 161.06 49.7404C161.289 50.1869 161.583 50.847 162.044 52.2522C162.284 52.9859 162.551 53.8713 163.013 55.3808C163.549 56.9591 163.93 58.8324 166.132 63.4292C167.331 65.6928 168.889 68.9806 173.502 73.6059C177.732 78.1651 187.92 83.6785 196.918 83.6324C215.16 82.7812 217.254 76.9263 220.122 75.1882C218.533 73.8631 216.808 72.8031 216.215 74.4495C217.555 76.287 219.334 78.2677 220.868 80.1406C218.778 82.1584 214.361 86.3216 208.307 90.0036C198.207 96.1574 187.605 101.441 173.318 105.085C160.314 108.027 135.386 112.615 112.327 92.383C110.559 90.6624 107.521 87.9618 103.881 82.8868C100.253 77.9428 96.5737 69.8864 95.6023 62.2802C96.0203 64.042 95.4916 64.4947 98.3184 71.5801C98.8558 72.7085 100.498 76.7499 104.787 81.4985C105.88 82.6979 107.174 83.9619 108.728 85.2305C110.361 86.5221 111.745 87.6387 115.167 89.4512C121.291 92.7441 130.034 94.3219 137.194 93.1985C145.069 91.9036 147.965 90.0182 151.13 88.2651C154.094 86.4719 156.135 84.7251 157.705 83.2214C158.461 82.4972 159.242 81.6596 159.645 81.2042C160.032 80.7698 160.381 80.3577 160.7 79.9658C161.338 79.1822 161.858 78.4803 162.303 77.8446C164.147 75.147 164.543 74.2007 165.08 73.1754C165.321 72.6925 165.529 72.2443 165.685 71.8968C165.822 71.5926 165.94 71.3172 166.046 71.0644C166.48 70.0168 166.661 69.4909 166.827 69.0127C167.392 67.3236 167.407 67.0932 167.496 66.7628C167.614 66.2499 167.572 66.342 167.534 66.4617C167.489 66.6043 167.422 66.8604 167.331 67.2306C167.284 67.4226 167.233 67.6388 167.156 67.9642C167.117 68.1312 167.072 68.3221 167.002 68.6171C166.964 68.7762 166.927 68.9303 166.86 69.2036C166.799 69.4472 166.709 69.8154 166.532 70.4586C164.001 79.2246 159.408 87.9946 152.383 95.4686C149.953 97.9498 157.447 96.5649 152.4 101.521C143.297 110.122 130.873 115.936 119.066 117.561C111.667 118.65 97.9338 119.09 84.2768 110.067C70.7911 100.912 66.2974 88.897 64.4089 82.2368C61.0301 68.4842 62.7335 61.8307 63.5497 58.4596C63.5462 56.0594 63.6873 55.2375 63.7702 54.5966C63.862 54.0011 63.9399 53.774 64.0058 53.7261C64.1431 53.6628 64.2103 54.2726 64.4016 55.8511C64.6579 57.8802 66.0752 59.5194 68.0758 61.8599C69.14 63.1209 70.2293 64.6464 72.5164 67.7644C74.7044 70.5608 79.2242 76.9944 88.5666 80.6923C90.5815 81.0822 92.7832 81.4995 94.4508 81.9945C94.764 82.0955 95.648 82.2988 96.2683 82.4627C96.9034 82.6328 97.2422 82.7924 97.0545 83.0383C96.8025 83.5011 94.0309 84.4703 91.3953 85.3433C91.3399 85.3836 91.2876 85.4241 91.2388 85.4648C91.1081 85.5855 91.3902 86.4178 91.4587 87.2874C91.4765 87.4239 91.4828 87.5616 91.4721 87.6979C91.4573 88.5422 91.1289 89.3264 89.906 89.4023C77.2509 90.1038 66.2221 88.4948 57.6336 86.6985C55.9715 86.2932 54.2417 85.8773 52.454 85.4466C50.9086 85.0744 52.6057 81.3113 51.4789 81.0157C45.5907 79.5178 38.7846 80.9656 31.7789 80.7804C28.5905 80.7368 26.0587 80.3569 23.9108 79.5478C18.965 77.585 20.3395 70.9347 16.9045 64.8737C16.3684 64.0069 13.6103 64.3831 12.5735 60.8177C9.74059 51.8201 9.58204 41.286 6.45378 31.7172C5.8596 29.5022 -1.97913 34.2974 1.58233 27.7604C1.88396 27.2302 7.63836 24.0996 8.74083 22.1992C9.56429 20.825 7.06216 17.3724 8.97615 15.4836C10.9225 13.6068 13.5531 16.4951 16.3445 14.4163C19.0285 12.3451 17.8351 8.06648 22.8045 7.29692ZM491.728 70.3934C486.691 69.7131 494.361 80.6044 495.545 75.6493C495.592 75.3968 491.983 70.4194 491.728 70.3934ZM595.406 37.6602C599.52 44.3883 604.842 37.0521 602.328 31.684C599.344 26.2702 593.863 35.6012 595.406 37.6602ZM569.449 75.9184C563.962 71.5737 563.914 90.4684 569.561 86.3575C569.885 86.124 569.773 76.1697 569.449 75.9184ZM30.9284 62.0689C30.9187 62.0392 30.8305 62.0141 30.6906 61.9939C29.9498 61.902 27.9864 61.9039 27.9433 62.0507C26.9926 65.1914 29.7594 66.078 30.8421 64.6094C31.1922 64.0746 31.3087 63.2283 30.9284 62.0689ZM615.004 68.2972C613.202 65.8654 608.733 69.1275 610.968 72.1557C612.771 74.5924 617.251 71.3228 615.004 68.2972ZM400.511 81.6163C400.492 81.4589 399.37 81.1881 398.816 81.5856C398.644 81.7059 398.527 81.8868 398.511 82.149C398.476 82.7456 398.522 83.2229 398.621 83.5885C399.089 85.4241 400.858 84.4641 400.511 81.6163ZM692.781 61.1018C681.179 61.7132 672.696 46.901 685.24 47.3214C687.519 47.3906 680.947 52.7941 683.957 53.8784C689.494 55.8466 691.836 45.7251 697.776 50.2923C698.868 51.1303 693.458 61.104 692.763 61.1257C692.769 61.1178 692.775 61.1098 692.781 61.1018ZM480.313 59.0215C480.152 58.9269 477.883 60.4564 477.934 60.6325C479.295 64.9119 483.939 61.7829 480.313 59.0215ZM285.393 75.7362C285.23 75.3663 278.877 75.2225 278.681 75.5746C275.598 82.5886 288.444 82.8997 285.393 75.7362ZM555.305 52.6133C557.611 48.0654 560.812 47.1014 563.93 52.0289C561.012 52.1815 558.148 52.5428 555.305 52.6133Z" fill="#EF813A"/>
</svg>
