<svg width="686" height="291" viewBox="0 0 686 291" fill="none" xmlns="http://www.w3.org/2000/svg">
<path d="M596.737 244.754C593.907 247.077 590.155 244.477 586.891 240.839C585.862 239.709 586.713 234.986 586.027 233.989C584.686 232.042 582.989 234.253 581.327 231.864C580.782 231.048 582.33 223.62 581.771 222.938C580.244 221.094 578.441 220.52 575.885 219.944C573.199 219.269 570.418 219.09 563.057 215.694C560.998 214.702 558.254 213.413 554.442 211.154C552.345 209.913 549.977 208.396 547.287 206.352C544.371 204.145 540.381 200.79 536.415 196.12C532.333 191.408 526.656 182.999 523.637 172.82C520.183 162.274 520.247 148.338 522.617 139.472C527.952 120.172 535.009 114.549 539.697 109.432C559.596 98.7135 569.332 98.9296 574.738 98.9748C576.272 99.1706 579.276 102.671 579.257 102.991C572.197 107.455 565.035 115.958 561.913 124.713C558.635 133.485 558.732 141.177 559.425 146.45C561.101 157.057 563.923 160.814 565.51 163.764C565.938 164.469 566.33 165.075 566.693 165.612C567.041 166.131 567.456 166.706 567.483 166.744C567.711 167.061 567.925 167.35 568.127 167.618C568.531 168.153 568.887 168.602 569.207 168.997C570.478 170.553 571.207 171.335 571.736 171.955C571.996 172.258 572.214 172.515 572.278 172.631C572.373 172.777 572.45 172.912 572.511 173.039C572.634 173.294 572.695 173.518 572.71 173.732C572.712 174.211 568.194 179.06 567.881 179.513C563.011 186.355 571.448 175.963 572.601 174.613C576.686 168.876 575.144 166.905 572.287 167.961C571.01 168.385 563.703 179.357 567.562 173.017C567.821 172.587 572.192 167.07 572.481 166.349C573.13 164.725 571.635 165.18 571.65 164.496C571.745 163.184 571.609 163.172 571.097 162.694C570.41 161.974 571.589 158.501 569.793 159.163C569.398 159.322 565.382 165.32 564.369 166.101C563.348 166.872 562.975 165.843 563.72 164.283C564.467 162.723 567.909 158.216 568.629 157.132C574.705 147.988 564.874 159.625 564.54 159.846C558.738 163.548 561.99 155.227 559.982 153.819C558.462 152.776 555.18 153.944 553.968 152.602C552.537 150.977 553.338 146.754 551.271 146.116C551.058 146.042 546.371 153.115 546.102 153.039C543.248 152.231 541.499 149.87 542.502 143.582C542.608 142.946 547.175 137.053 547.536 136.053C549.628 130.047 555.79 116.42 536.411 142.432C536.198 140.74 535.769 138.849 538.649 132.893C540.502 129.059 545.652 122.759 543.012 125.141C542.423 125.671 538.571 131.645 537.994 131.998C535.513 133.443 535.827 130.853 532.769 133.203C532.139 133.696 528.581 138.975 527.876 139.881C522.146 147.206 530.104 134.055 530.574 133.025C533.979 125.276 531.265 127.384 530.172 126.394C529.933 126.17 525.438 133.454 525.04 133.495C523.044 133.62 522.066 132.073 523.057 128.181C523.277 127.291 527.519 121.364 527.826 120.625C529.159 117.462 521.48 128.878 522.897 126.258C523.198 125.728 526.53 120.458 526.889 119.874C532.476 110.675 524.232 123.556 525.873 124.819C526.352 125.192 526.963 125.64 528.516 126.373C529.323 126.74 530.347 127.192 532.226 127.748C534.206 128.23 536.668 129.199 543.179 128.937C544.928 129.127 547.169 128.898 549.899 127.955C552.71 126.85 555.374 125.938 560.835 121.125C565.682 116.811 569.559 109.03 570.04 103.498C570.714 97.9026 569.552 93.6633 568.279 90.9111C563.067 82.7013 559.514 85.3387 559.945 83.5941C560.017 83.2162 566.733 79.0121 566.453 78.1209C566.198 76.9238 566.257 76.6366 566.315 76.6824C566.384 76.7471 566.429 77.1633 566.401 77.8603C566.333 79.2454 565.873 81.6674 564.849 84.9417C564.546 85.9592 560.469 90.2712 560.014 90.8431C552.972 99.8399 563.087 88.3626 563.559 88.007C567.053 85.5305 559.743 96.1298 571.919 82.5561C571.691 90.5507 582.222 85.8254 576.246 101.937C576.181 102.127 571.388 107.94 571.279 108.293C569.915 112.617 576.973 103.271 586.788 92.7872C589.259 90.1592 579.097 104.17 578.357 105.201C575.642 109.01 568.401 117.568 567.905 118.329C564.027 124.324 587.177 95.3803 588.003 96.032C587.989 96.1004 583.595 101.32 583.236 101.902C582.106 103.727 584.018 101.787 582.743 103.776C579.788 108.376 568.579 122.472 575.902 114.92C576.853 113.941 590.01 97.5417 590.122 98.9173C590.145 99.4699 591.698 100.284 591.203 101.647C590.703 103.001 586.108 107.991 585.948 108.24C581.165 115.917 578.416 118.458 570.319 128.979C562.236 139.446 582.458 115.277 584.936 112.765C587.412 110.266 583.335 116.503 581.818 118.588C580.307 120.68 577.295 123.767 576.49 124.993C571.195 132.978 587.152 113.533 590.782 110.062C599.483 101.935 584.654 120.022 583.805 122.345C583.588 122.984 587.007 118.898 587.527 118.698C589.58 118.003 584.906 123.61 590.433 119.652C591.292 118.965 601.994 109.779 595.193 117.575C594.2 118.687 589.845 122.562 589.249 123.82C588.378 125.736 588.139 127.346 590.252 126.84C591.802 126.456 598.666 119.687 597.027 122.401C596.261 123.58 591.391 126.468 590.232 128.285C589.083 130.123 590.377 131.433 591.211 133.097C591.899 134.478 598.625 131.718 599.119 131.621C600.517 131.544 603.217 134.219 603.958 139.063C604.137 140.264 604.191 141.527 604.079 142.851C603.935 144.294 603.612 145.709 603.21 146.933C602.401 149.397 601.351 151.022 601.038 151.418C599.514 153.362 597.681 154.986 596.035 156.117C594.741 157.014 593.474 157.695 592.292 158.218C589.92 159.261 587.909 159.701 586.229 159.924C584.983 160.055 583.565 160.106 581.895 159.974C581.061 159.907 580.163 159.793 579.2 159.606C578.146 159.415 576.467 159.04 574.923 158.462C571.726 157.269 568.254 155.305 565.088 151.485C562.094 147.898 560.783 143.358 560.617 141.075C560.328 138.457 560.627 136.252 561.003 134.866C561.37 133.629 561.821 132.642 562.286 131.805C563.275 129.978 564.088 129.466 564.948 128.631C568.226 126.035 570.504 125.253 569.922 122.551C569.838 122.085 563.102 118.398 563.021 118.287C560.941 115.49 577.968 126.786 584.178 129.715C570.798 121.738 573.437 122.82 572.401 121.25C571.894 120.484 566.669 117.464 566.163 117.108C558.734 111.709 568.969 117.667 571.052 118.902C578.747 123.397 570.098 117.394 575.233 120.414C580.317 123.432 587.39 128.619 587.65 128.013C583.086 124.804 570.576 117.311 568.908 115.545C562.635 108.799 574.301 111.998 576.115 111.475C577.984 110.864 577.414 109.885 579.579 110.307C583.487 111.079 574.295 105.358 570.815 101.701C567.335 98.0459 588.829 113.726 593.591 116.896C598.349 120.066 593.621 116.56 596.293 118.224C598.963 119.887 601.93 122.428 603.13 122.772C604.329 123.115 596.648 116.358 591.832 112.81C581.632 105.293 570.462 98.066 574.89 99.8857C575.152 99.995 580.77 104.166 581.483 104.381C586.96 105.946 588.325 104.567 593.285 105.743C593.979 105.907 600.283 110.475 600.762 110.616C605.784 112.078 594.609 105.18 582.942 96.4099C598.96 107.348 609.068 113.586 609.89 112.548C610.376 111.946 603.216 107.416 598.455 103.784C597.015 102.697 602.173 105.433 598.875 103.195C588.063 95.9288 575.565 88.4178 580.987 90.7053C581.244 90.8144 587.201 94.733 587.65 94.8291C590.584 95.4668 579.087 88.1563 578.052 86.6676C577.23 85.52 584.931 88.7479 586.323 88.9622C605.929 98.536 602.093 94.8724 588.031 89.5003C588.609 89.7694 587.534 89.9172 589.329 92.1201C589.97 92.8261 596.303 92.9478 596.973 93.1003C602.295 93.7644 601.311 93.3767 598.954 93.963C596.591 94.4437 592.998 95.9119 592.867 96.4914C591.995 99.8231 596.063 105.042 599.295 105.866C601.045 106.489 601.924 106.416 602.753 106.332C603.558 106.225 604.137 105.989 604.553 105.782C609.133 105.221 610.006 104.067 610.917 103.587C611.312 103.313 611.601 103.078 611.769 102.929C611.869 102.831 611.952 102.745 612.024 102.668C612.308 102.361 612.43 102.19 612.519 102.094C612.655 101.937 612.705 102.018 612.886 102.246C613.243 102.704 614.035 103.824 615.909 105.78C616.161 106.085 627.591 116.024 619.028 109.018C618.428 108.547 613.498 103.709 612.682 103.842C611.896 103.936 604.704 99.8903 609.509 105.114C610.644 106.397 619.886 114.527 612.063 108.927C611.001 108.166 607.651 105.399 605.698 103.971C599.457 99.4414 611.351 109.084 600.919 101.306C590.488 93.5274 582.268 88.2182 588.639 94.6427C588.823 94.8316 598.227 102.506 597.871 102.651C597.291 102.882 594.797 101.975 594.511 102.479C594.376 102.723 600.463 107.17 600.543 107.291C602.782 111.312 596.666 108.26 593.131 108.121C592.465 108.094 600.108 115.037 593.158 110.773C585.534 106.13 556.227 83.5345 562.17 90.3392C564.508 93.1159 602.037 121.309 581.53 108.183C584.981 113.722 573.325 108.675 579 115.736C579.246 116.059 590.089 123.416 589.831 123.49C589.4 123.63 584.089 120.578 583.601 120.604C582.519 120.607 582.959 121.535 583.572 122.458C584.219 123.272 584.991 124.426 584.787 123.686C584.798 123.077 582.917 122.171 581.309 122.886C580.945 123.092 580.664 123.437 580.585 123.844C580.48 124.249 580.705 124.703 580.844 125.029C581.148 125.713 581.852 126.077 582.364 125.953C582.387 125.947 582.41 125.941 582.431 125.934C582.941 125.884 580.204 118.243 582.331 121.682C584.061 124.299 590.355 140.146 590.931 142.051C585.696 126.087 586.027 126.313 585.718 121.825C585.684 120.95 584.213 115.286 584.155 114.572C584.126 113.034 584.571 113.413 584.944 113.783C585.337 114.152 585.618 114.504 585.962 112.829C586.118 112.027 585.782 106.297 586.051 105.314C586.984 101.076 590.487 101.949 594.083 106.023C595.643 107.956 596.938 110.794 597.079 112.999C597.265 115.215 596.66 116.724 596.377 117.344C595.26 119.77 594.207 120.63 593.791 121.271C593.344 121.898 593.382 122.177 593.583 122.477C593.979 123.054 594.953 123.64 593.231 123.86C589.819 123.967 585.756 122.719 583.694 122.705C579.545 122.318 579.793 123.963 579.53 127.032C579.527 128.325 587.12 126.85 587.297 127.036C587.8 127.224 587.684 127.415 587.508 127.71C587.328 127.996 587.121 128.42 587.316 128.62C587.671 129.036 589.727 128.271 593.395 121.532C582.641 138.12 585.476 138.534 587.378 133.948C589.842 129.616 591.691 120.928 591.001 124.819C590.765 125.427 589.067 144.049 587.184 146.524C586.203 147.738 585.513 146.818 584.411 145.876C583.287 144.906 582.379 144.178 579.56 145.04C578.893 145.212 575.31 148.59 570.045 150.221C564.975 152.058 558.932 152.115 557.913 151.607C549.951 147.893 552.883 141.04 558.19 137.707C563.455 134.093 570.602 132.171 571.286 131.797C578.901 128.169 578.364 127.929 575.528 126.691C572.716 125.651 567.822 124.066 567.228 123.564C561.861 118.996 566.224 117.935 561.607 119.33C558.937 121.181 539.138 119.926 542.292 133.828C543.827 139.624 548.703 148.412 555.225 153.674C558.427 156.384 562.025 158.489 565.202 159.765C568.098 160.885 570.821 161.483 573.234 161.736C578.417 162.294 580.773 161.248 583.168 160.347C584.304 159.865 585.28 159.331 586.119 158.796C586.785 158.255 587.365 157.725 587.881 157.23C592.13 153.155 591.915 152.076 596.251 162.421C597.871 166.859 603.69 185.979 600.473 170.522C600.424 169.494 595.895 155.863 599.081 164.367C599.5 165.432 601.598 170.859 601.798 171.305C603.101 174.191 601.379 169.886 602.167 171.962C602.307 172.324 602.458 172.717 602.606 173.11C599.957 174.485 596.477 176.128 590.683 177.435C587.776 178.068 584.252 178.598 579.874 178.632C578.78 178.638 577.635 178.612 576.436 178.542C575.104 178.448 574.476 178.446 571.894 178.067C567.538 177.405 562.61 176.105 557.568 173.837C535.314 165.487 524.899 136.197 525.291 132.433C523.761 123.969 524.253 118.55 524.671 114.5C524.789 113.489 524.922 112.567 525.062 111.715C525.17 111.029 525.226 110.644 525.313 110.145C525.476 109.199 525.649 108.344 525.829 107.561C526.188 105.996 526.568 104.714 526.961 103.613C527.82 101.246 528.411 100.378 529.229 99.505C531.748 96.7515 542.089 100.534 544.681 101.294C552.097 103.656 541.765 96.5257 550.065 100.683C558.278 105.083 569.959 113.068 575.605 115.358C562.757 107.395 549.618 99.1426 536.756 91.0403C539.078 88.3275 544.428 89.1779 545.217 86.8589C545.302 86.5654 538.456 82.1761 538.38 81.7346C538.108 79.8662 543.474 82.3116 542.344 79.9248C541.447 78.0567 535.115 72.1283 533.989 69.9933C548.347 79.6579 544.473 75.0113 546.394 75.0749C547.057 75.0969 550.752 77.8702 552.119 78.5573C557.182 81.0897 544.648 72.3311 542.886 70.6696C535.391 63.5487 563.135 84.2166 563.246 82.6508C563.256 82.5804 549.089 70.7419 548.255 69.9413C542.772 64.7802 553.445 73.7202 554.824 74.1587C557.353 74.9474 561.203 77.1632 557.566 73.0339C556.483 71.8186 547.855 64.1856 555.247 69.1625C556.216 69.8131 561.001 73.5901 561.322 73.7588C566.719 76.5127 551.639 64.7066 546.965 60.155C542.317 55.5731 553.362 62.9235 556.472 65.136C564.544 70.8228 559.5 68.0964 560.245 68.7147C569.056 76.1321 567.947 74.3383 569.079 74.4806C583.811 86.1268 583.392 84.8473 570.179 74.5988C568.734 73.4818 569.822 74.9252 569.079 74.4806C554.985 62.6019 553.805 60.301 567.824 70.3533C574.384 75.0794 581.361 81.4061 579.621 78.1056C578.843 76.61 568.715 68.5652 566.472 65.7526C563.902 62.5604 565.36 62.3949 567.497 62.6552C568.648 62.6952 569.895 62.9194 571.147 62.6694C572.646 62.2256 573.086 62.0892 576.383 58.696C576.877 57.9989 580.403 54.7704 581.826 53.1732C583.465 51.3964 583.002 50.5864 581.84 50.0791C580.735 49.5541 579.311 49.236 579.688 48.1423C579.912 47.5877 580.5 46.8449 582.52 45.6236C584.825 44.5136 587.328 42.2649 598.736 40.7343C599.216 40.6847 599.708 40.6408 600.214 40.6035C605.351 39.4139 610.799 40.1208 619.63 43.4804C629.527 47.1188 641.997 55.9071 650.133 68.5298C651.577 70.8703 655.172 61.119 659.464 70.0733C665.979 85.7953 664.17 96.0093 663.538 100.493C662.58 105.921 661.038 109.438 659.817 111.635C657.116 116.618 654.848 118.492 653.601 121.032C652.463 123.315 654.392 128.302 652.781 129.433C650.06 131.385 639.429 128.03 640.667 130.934C641.443 132.815 647.784 136.656 651.721 139.86C659.313 146.133 643.787 137.809 641.436 136.438C641.359 136.392 640.426 134.648 636.991 132.94C630.252 128.755 641.415 136.408 641.436 136.438C639.901 135.581 637.48 136.154 638.464 137.222C638.997 137.815 644.852 141.691 645.019 141.927C648.839 147.471 648.975 150.393 645.051 150.272C644.913 150.221 638.515 145.666 638.271 145.604C634.701 144.613 642.118 150.768 646.23 154.84C650.343 158.904 648.359 158.408 636.998 151.126C637.992 152.668 632.547 150.056 629.259 148.45C625.97 146.846 638.506 155.598 638.729 155.806C645.886 162.468 638.27 158.102 636.436 158.395C635.555 158.499 636.845 160.58 638.09 161.743C639.076 162.703 635.958 160.935 637.85 162.234C638.104 162.404 643.935 165.916 644.157 166.055C651.134 170.257 636.861 161.701 634.297 160.197C624.986 154.707 619.86 152.075 624.316 154.525C625.29 155.171 646.58 166.183 648.15 166.187C650.086 166.289 642.229 162.816 644.553 162.768C644.753 162.74 649.529 165.048 649.692 164.116C649.795 163.572 649.891 162.947 649.989 162.228C650.113 161.445 650.295 160.421 650.473 159.277C650.813 156.921 651.32 154.276 651.998 148.191C652.11 143.197 654.671 132.343 647.729 112.562C643.695 101.145 633.957 87.5044 622.286 79.5296C611.788 72.079 600.952 68.7348 592.816 67.3749C585.071 66.331 595.096 58.909 585.696 57.9203C578.665 57.415 573.337 57.8875 569.17 58.4913C564.608 59.2207 558.984 60.4897 552.156 63.2945C545.104 66.4763 538.375 69.1613 526.689 80.3099C516.205 90.3574 507.815 106.532 505.317 119.254C502.665 131.429 503.339 141.778 504.725 149.437C510.861 174.678 516.425 175.308 519.641 178.431C521.749 179.703 525.717 175.113 527.401 174.468C537.244 170.045 525.923 180.375 526.025 180.964C524.26 190.089 533.077 178.91 527.925 183.264C527.6 183.494 516.428 195.597 525.49 184.763C526.102 184.05 535.328 172.925 528.676 180.235C528.262 180.695 523.554 186.455 523.81 185.677C524.058 184.894 520.428 188.328 525.297 181.745C526.837 179.676 535.738 168.331 527.969 176.814C527.41 177.392 510.265 196.925 521.421 182.894C523.256 180.583 535.332 165.956 528.624 173.033C527.327 174.408 524.836 177.836 522.895 179.661C519.907 182.479 522.551 178.081 516.707 184.221C515.671 185.308 507.202 195.016 513.009 187.147C513.917 185.913 517.986 181.059 518.256 180.367C519.563 177.056 516.021 179.646 517.86 175.508C518.503 174.052 525.05 166.18 526.426 163.767C527.8 161.356 528.756 158.745 525.482 162.118C522.207 165.493 512.44 178.571 511.087 179.163C505.209 181.732 508.671 172.259 506.9 169.032C506.629 168.545 503.298 173.359 502.628 172.96C500.252 171.605 492.446 172.269 497.996 160.649C502.621 151.5 509.936 147.844 511.221 143.597C511.852 141.585 498.387 154.989 497.77 155.236C494.813 156.653 494.259 155.349 494.006 153.703C493.761 152.061 493.841 150.116 491.536 149.603C490.584 149.39 485.636 155.332 484.851 155.052C484.16 154.814 483.659 154.337 483.256 153.719C482.803 153.048 482.364 152.141 481.955 151.212C481.538 150.274 481.114 149.272 480.574 148.283C480.304 147.788 480.005 147.295 479.662 146.813C479.252 146.246 478.746 145.618 478.197 145.019C476.161 142.757 471.712 146.662 470.076 143.396C468.645 140.203 464.518 132.337 462.293 120.254C461.121 114.044 458.607 100.192 462.24 83.8884C464.637 68.6633 479.336 44.3615 495.382 35.4624C498.22 33.643 491.612 40.9935 490.454 45.0843C489.838 47.0691 490.402 47.7747 493.576 45.7627C496.38 44.0327 503.922 38.5539 511.355 35.2186C522.064 30.2964 530.517 29.6534 536.572 29.696C552.684 29.1997 556.818 31.7785 560.821 32.764C564.438 33.9769 566.262 34.8479 567.734 35.5411C570.541 36.9113 571.67 37.664 572.651 38.296C572.936 38.4789 572.974 38.5269 573.06 38.6005C573.139 38.6707 573.215 38.739 573.288 38.8059C573.434 38.9396 573.568 39.067 573.693 39.1892C573.944 39.4334 574.16 39.6568 574.354 39.8641C574.743 40.2785 575.052 40.6301 575.338 40.9344C575.48 41.0864 575.617 41.2261 575.751 41.354C575.835 41.4507 575.913 41.533 575.998 41.6072C576.643 42.1764 577.69 42.1862 579.267 40.7295C580.552 39.5543 587.944 28.3519 583.669 36.6345C582.752 38.3497 573.737 51.7062 582.187 40.6038C583.556 38.7341 595.479 24.115 589.263 34.5251C587.643 37.276 580.665 48.4747 582.179 46.9977C582.414 46.7571 586.258 40.6547 586.952 40.2754C589.253 38.9927 589.903 40.3661 592.132 39.1551C592.74 38.8237 596.562 32.4008 597.338 32.1057C599.509 31.3063 599.756 33.7806 599.486 36.4306C599.381 37.4209 595.602 42.321 595.249 42.8943C589.504 52.2181 598.129 40.2335 598.767 39.6282C602.596 36.008 599.378 42.2144 601.258 41.2848C601.763 41.0417 605.613 35.1452 606.016 34.6608C609.983 29.9495 602.427 40.0927 601.932 41.4452C600.513 45.2628 601.823 45.4843 603.16 45.3189C603.665 45.2552 607.979 38.3139 608.38 38.3349C610.858 38.3469 612.126 40.1854 611.177 45.0148C610.984 45.9318 607.188 50.9462 606.427 52.1658C601.093 60.6917 609.592 49.9202 610.49 48.9563C614.582 44.5486 611.65 49.2814 612.841 48.85C618.685 46.6441 620.144 52.1818 621.54 55.9643C623.399 60.876 622.674 67.7074 626.987 68.9027C627.259 68.9873 631.929 62.0467 632.228 62.0331C635.817 62.1379 636.366 66.5739 640.296 66.4651C640.611 66.4691 644.997 59.8564 645.68 59.6621C647.115 59.2213 647.761 60.2338 646.951 62.7852C646.569 64.0203 642.045 69.1321 641.754 70.2721C641.098 72.9617 641.603 74.0436 643.261 73.7017C643.993 73.5547 648.272 66.6285 648.85 66.9469C650.545 67.7993 652.316 68.5803 654.049 70.4675C654.499 70.9527 654.925 71.4916 655.33 72.1084C655.824 72.7964 656.39 73.6388 656.949 74.6028C657.374 75.456 658.444 76.9644 659.768 78.9525C660.121 79.4709 660.451 79.981 660.944 80.669C661.719 81.6334 662.633 82.7635 663.844 84.3063C665.064 85.8712 666.564 87.7778 668.748 90.9191C669.022 91.3148 669.307 91.7323 669.605 92.1757C669.753 92.3974 669.905 92.6256 670.061 92.8609C670.099 92.9197 670.138 92.9789 670.178 93.0387C670.291 93.2023 670.407 93.3703 670.524 93.5418C670.759 93.8848 671 94.243 671.249 94.6186C673.227 97.6674 675.744 101.557 678.773 108.669C681.52 115.842 686.118 126.535 684.908 146.675C684.647 166.363 668.692 196.5 648.573 208.175C646.709 208.118 644.846 207.762 642.972 207.087C642.086 206.783 633.173 192.922 633.963 196.126C636.223 200.101 638.959 204.732 641.41 208.96C633.533 216.44 628.321 212.765 630.565 210.352C630.683 210.228 635.343 217.618 635.648 217.38C637.061 216.274 640.922 215.39 641.527 208.978C644.853 205.221 648.718 200.318 652.51 193.326C657.316 184.239 662.074 173.133 662.342 155.163C662.519 137.48 655.66 120.96 648.44 111.093C640.786 100.667 635.563 97.1617 630.319 93.5098C625.619 90.5803 622.795 93.7378 618.683 95.5232C614.568 97.3702 610.283 98.7964 606.914 96.2958C606.412 95.8629 603.742 94.3016 602.506 92.9749C601.004 91.5544 600.287 90.0432 600.156 88.3122C600.131 87.7949 602.221 80.9005 601.095 80.4649C598.123 79.3586 597.284 79.4735 596.682 80.2274C596.14 81.0025 596.082 82.5143 596.188 84.7109C596.231 85.4343 595.779 93.055 595.823 93.6372C596.24 97.7135 597.34 91.9373 598.119 98.8701C598.682 103.538 598.452 116.733 598.923 129.72C598.993 131.552 599.437 131.838 599.572 139.393C599.996 158.392 599.893 179.204 600.357 199.454C600.434 201.634 600.744 201.547 601.306 202.222C601.493 202.564 602.456 203.068 602.911 204.152C603.283 205.247 601.72 207.005 601.451 209.642C601.114 210.358 600.043 213.872 599.81 217.449C599.643 219.923 600.033 227.606 599.69 230.774C599.322 233.939 598.902 227.499 598.309 231.218C597.732 234.981 597.952 243.727 596.737 244.754ZM614.545 141.314C608.19 137.603 630.397 152.767 625.362 148.73C625.092 148.517 614.857 141.496 614.545 141.314ZM561.2 100.597C571.487 106.559 557.451 96.1947 549.523 91.5583C541.569 86.979 558.062 98.8188 561.2 100.597ZM561.406 125.625C561.699 123.196 562.248 121.801 562.604 120.725C562.789 120.192 562.944 119.75 563.061 119.36C563.166 119.04 563.204 118.881 563.222 118.661C563.281 117.839 562.78 117.13 561.906 116.36C560.153 114.85 556.935 113.088 553.534 111.62C550.13 110.177 546.528 109.037 543.884 109.463C542.563 109.689 541.477 110.309 540.797 111.683C540.458 112.373 540.221 113.256 540.127 114.425C539.937 116.118 539.755 118.692 540.173 122.515C540.35 124.348 545.657 126.611 550.933 127.101C556.215 127.666 561.29 126.719 561.406 125.625ZM596.853 133.408C596.856 133.766 597.235 134.119 597.246 133.765C597.527 125.227 596.835 124.528 596.853 133.408ZM580.516 128.676C583.492 128.129 584.503 128.786 585.157 130.655C585.519 132.445 586.093 135.619 584.331 138.599C583.18 141.082 578.652 139.748 576.586 135.851C574.546 131.883 576.904 129.193 580.516 128.676ZM574.996 132.076C575.26 131.774 575.255 131.283 573.742 132.969C568.872 138.4 570.563 137.155 574.996 132.076ZM595.303 138.948C591.411 137.896 591.776 106.218 591.426 109.822C591.606 110.453 591.96 119.853 592.297 122.677C593.571 127.761 591.317 108.113 593.392 118.512C593.958 120.388 595.629 139.063 595.304 138.992C595.303 138.977 595.303 138.963 595.303 138.948ZM587.679 123.383C587.378 123.192 586.845 123.377 587.131 123.584C594.065 128.569 595.125 128.225 587.679 123.383ZM570.697 106.917C571.149 106.308 570.755 105.089 570.293 105.614C561.166 116.191 561.927 118.681 570.697 106.917ZM586.85 89.207C579.178 85.3317 578.002 85.4921 588.021 89.4961C587.507 89.2402 587.395 89.2919 586.85 89.207ZM160.397 165.248C157.409 167.976 152.639 166.083 148.634 163.166C147.384 162.263 147.291 157.464 146.391 156.63C144.626 155.004 143.534 157.518 141.704 155.547C141.094 154.871 140.665 147.307 140.047 146.77C136.667 143.879 134.134 146.185 130.863 145.032C114.722 139.336 98.5736 138.789 81.1663 136.831C75.3862 136.197 68.0843 129.811 62.2417 133.019C61.5537 133.401 62.2102 140.008 62.0956 140.558C60.2277 148.988 60.493 135.594 59.0747 133.858C53.4208 126.997 47.5578 126.392 42.1337 128.785C39.8214 129.818 41.6744 143.051 39.585 135.583C39.4445 135.078 40.2924 128.069 39.6983 127.295C39.1135 126.537 38.2714 126.325 37.414 126.272C37.0901 126.256 36.7226 126.238 36.0698 126.187C35.2981 126.102 34.8141 126.164 31.5585 125.577C30.6683 125.398 29.5566 125.18 27.6029 124.592C25.5612 123.849 22.9877 123.47 16.6257 119.256C13.5154 116.972 8.75288 113.518 4.26388 105.148C-0.432586 97.1046 -1.6258 82.2999 2.61446 72.8365C11.7297 53.9769 19.6599 53.8661 22.8375 51.5612C29.7033 48.6956 30.7933 49.0298 32.3405 48.6335C33.6543 48.4094 34.3184 48.3406 34.8644 48.2787C35.9066 48.1687 36.3623 48.1443 36.7724 48.1167C36.9699 48.1043 37.136 48.0951 37.2863 48.0872C37.3614 48.0833 37.4323 48.0797 37.5002 48.0765C37.5713 48.073 37.6316 48.0703 37.6172 48.0709C37.6409 48.0697 37.6642 48.0684 37.6872 48.0671C37.7792 48.0619 37.8662 48.0563 37.9499 48.0503C38.1171 48.0383 38.2714 48.0247 38.42 48.0107C38.7164 47.9826 38.9917 47.9527 39.2593 47.933C39.7912 47.8937 40.2961 47.8953 40.6803 48.0448C40.9942 48.177 41.3586 48.2903 41.5704 48.3909C41.7252 48.4925 41.8682 48.5785 42.0029 48.6515C42.2726 48.7974 42.5081 48.8911 42.7465 48.9526C43.2269 49.0758 43.702 49.0703 44.6072 49.0969C47.582 49.2244 49.5797 52.6984 52.3267 51.0711C52.8883 50.7033 52.049 43.4994 52.9466 42.2613C53.3795 41.6435 54.3111 41.4792 55.0756 41.6829C55.7614 41.8874 56.4647 42.4576 56.8296 43.3037C57.5613 44.9969 57.3217 50.6694 57.4624 51.9675C58.6076 62.9237 61.0526 47.7051 61.4096 47.3256C67.7818 40.8557 72.6159 49.4606 78.5139 49.3748C82.5795 49.2957 87.4028 46.3887 91.5656 46.7369C96.2489 47.1825 100.451 51.0471 105.4 50.3218C105.923 50.2535 105.217 41.7796 105.857 41.6791C112.032 40.6255 118.797 41.4753 125.276 47.1273C125.917 47.7017 125.185 55.1568 125.83 56.1759C129.761 62.2511 136.272 76.8764 138.313 44.4291C141.163 45.6612 144.256 46.932 146.743 53.4372C148.332 57.6243 146.936 65.754 148.788 62.2696C149.206 61.4931 148.562 54.3964 149.196 53.7693C151.867 51.1354 154.884 53.4071 157.572 49.7021C158.118 48.9318 157.885 42.5687 158.028 41.4205C159.255 32.121 161.594 47.4378 162.066 48.5469C165.705 56.8158 168.272 53.5095 171.629 53.6677C172.408 53.7079 171.373 45.1707 172.119 44.9023C175.971 43.6252 180.155 44.3028 183.894 48.0448C184.741 48.8975 184.075 56.1909 184.485 56.971C186.295 60.322 186.493 46.5614 188.233 49.5093C188.6 50.113 188.487 56.3504 188.562 57.0342C189.738 67.7679 190.413 52.5255 190.672 52.1855C193.946 47.5432 196.327 63.4107 199.56 61.111C199.947 60.8198 198.948 52.9445 200.042 52.6083C207.208 50.3236 214.836 52.3729 222.172 58.5649C223.311 59.5171 222.606 65.4558 222.688 66.1852C224.016 77.5804 224.495 62.2754 224.847 61.6935C227.623 57.5012 230.507 70.2815 232.142 52.0337C244.406 58.1496 256.231 47.7035 268.588 63.7849C268.744 63.9709 268.618 71.5077 268.93 71.8463C272.69 76.0026 271.754 64.3113 273.894 49.9471C274.432 46.3401 276.643 63.586 276.834 64.8495C277.529 69.5059 277.134 80.7231 277.354 81.6231C279.165 88.6888 278.136 51.6404 280.374 51.5822C280.445 51.6426 280.292 58.4689 280.494 59.1431C281.122 61.26 281.645 58.5379 282.266 60.8737C283.686 66.2788 284.533 84.2739 286.311 73.7529C286.534 72.3876 285.704 51.3776 287.72 52.3279C288.518 52.7248 292.063 52.2878 293.082 53.628C294.103 54.9667 293.571 61.7546 293.648 62.0464C296.517 70.9437 295.586 74.6778 297.22 87.9076C298.855 101.087 297.78 69.5897 298.246 66.0611C298.713 62.5424 300.833 69.8876 301.372 72.4455C301.91 75.0045 301.409 79.3218 301.869 80.7663C304.917 90.2032 302.754 65.0999 303.569 60.0782C305.487 48.1879 307.731 71.5124 309.789 73.7545C310.345 74.3599 309.778 69.0491 310.248 68.5401C312.124 66.594 313.475 73.856 315.508 67.1184C315.842 66.0204 317.27 51.9304 318.668 62.2106C318.867 63.693 318.549 69.5265 319.402 70.8104C320.676 72.7373 322.913 73.9547 324.175 71.9753C325.106 70.5109 323.753 60.9458 325.046 63.8949C325.62 65.2118 324.761 70.8495 325.829 72.8554C326.893 74.8608 329.465 74.5476 330.437 74.3281C331.409 74.1045 330.683 66.8417 330.749 66.3494C331.147 63.5289 332.944 59.9701 333.12 59.9741C341.657 58.8578 349.525 70.9102 357.743 66.5983C358.384 66.2706 357.718 58.6111 357.813 58.482C359.933 55.1996 358.807 75.6527 360.569 82.4331C359.866 66.8702 360.869 69.6613 362.371 67.9054C363.093 67.0465 362.497 61.0306 362.546 60.4113C363.367 51.2199 364.506 63.0228 364.782 65.4359C365.796 74.3128 366.256 63.7715 366.942 69.7045C367.627 75.5929 366.765 84.3827 368.242 84.223C368.476 78.6365 366.913 64.1074 367.955 61.711C371.771 52.6519 380.309 63.8014 383.739 64.8657C387.187 65.9299 388.229 64.8614 390.259 66.8028C393.909 70.3123 392.219 59.5567 394.298 54.5251C396.387 49.4928 396.309 76.1165 396.859 81.8181C397.405 87.5171 397.528 81.6239 398.052 84.7481C398.575 87.8715 397.861 91.7906 398.848 92.9324C399.841 94.073 401.988 83.8102 402.07 77.8224C402.248 65.137 400.582 51.8988 403.193 56.4677C403.343 56.739 403.178 63.7463 403.74 64.4307C408.178 69.6377 412.529 69.7846 417.15 74.3413C417.774 74.9793 417.598 82.7767 417.966 83.2359C421.791 88.0418 419.901 74.9946 421.143 60.3449C421.626 79.7397 423.275 91.5428 425.943 91.5271C427.54 91.5244 426.846 83.0768 427.564 77.063C427.772 75.2506 429.186 81.0033 429.224 77.0122C429.272 63.9697 427.423 49.468 430.565 55.118C430.704 55.387 430.678 62.5265 431.132 62.9352C434.057 65.611 433.662 51.9911 436.457 50.1845C438.701 48.7639 442.834 56.8448 445.797 58.0144C447.081 79.7841 449.356 74.6387 449.375 59.5698C451.114 60.0743 452.844 59.1065 454.55 61.0712C455.136 61.7406 455.222 68.0636 455.337 68.7394C457.135 79.3417 456.802 64.7001 457.097 64.1039C460.799 58.248 465 69.0366 467.565 57.9372C467.658 57.5372 466.523 42.4315 468.402 53.3677C468.557 54.1192 467.936 61.095 469.744 61.4671C471.68 61.8299 475.935 69.5726 477.414 62.344C477.841 60.5964 477.507 48.2608 480.02 57.6324C480.344 58.9069 480.691 63.2415 481.232 65.6106C482.997 73.1535 481.442 57.9174 484.024 70.6952C486.644 83.4643 489.96 92.853 491.256 83.5306C491.33 83.253 489.955 71.1773 490.749 71.2204C492.165 71.2677 493.928 73.4846 495.438 72.9638C496.169 72.6965 493.422 65.6568 493.5 65.4885C493.79 64.637 493.791 64.1559 493.411 64.1844C493.315 64.1935 493.195 64.2373 493.048 64.325C492.781 64.4981 492.185 64.9087 491.498 65.8049C490.82 66.6781 489.99 68.2836 489.91 70.2288C489.8 72.172 490.534 73.9911 491.252 74.9642C492.743 77.1129 493.818 77.4055 494.041 77.5582C494.419 77.7382 494.681 77.8104 494.814 77.8237C495.078 77.8469 495.182 77.7799 495.221 77.6889C495.3 77.5043 495.211 77.2376 495.096 76.9495C494.848 76.3676 494.489 75.683 494.056 74.9714C493.215 73.5528 492.144 72.0299 490.804 70.9471C489.859 70.3075 487.529 80.4407 486.228 72.3591C483.46 63.816 487.304 25.5098 474.052 36.7261C471.893 38.5492 470.026 45.7218 469.581 54.3428C469.389 58.608 469.638 63.6168 471.524 67.3225C473.372 71.1811 476.554 72.1553 478.141 72.3179C480.947 72.1826 480.542 73.2558 473.616 76.2927C481.043 80.0037 470.102 87.6986 479.492 91.3546C479.908 91.5133 492.956 90.0811 492.89 90.7704C492.761 91.7685 486.792 93.2293 486.491 93.9249C485.07 96.8542 490.575 98.6731 490.036 101.45C489.84 102.489 483.506 102.743 483.258 103.923C483.009 105.08 491.387 105.244 487.48 107.144C484.5 108.594 467.552 110.662 465.625 112.103C482.417 111.44 482.123 112.502 486.606 114.328C487.476 114.685 493.314 114.14 494.027 114.304C497.058 114.997 492.223 115.779 495.513 116.448C496.304 116.613 502.043 116.558 503.013 116.697C511.481 117.923 498.563 120.059 496.311 120.338C487.763 121.559 495.215 122.249 491.833 123.186C488.449 124.083 484.283 122.544 482.217 123.602C477.943 125.758 478.741 128.627 478.332 130.903C478.204 131.807 485.889 131.683 486.048 131.823C487.859 133.94 479.582 135.187 494.69 137.598C455.264 135.473 498.406 139.122 490.251 141.275C489.592 141.443 471.007 139.758 468.362 138.701C465.718 137.656 471.639 137.014 467.482 135.545C466.51 135.172 449.202 132.321 448.156 132.088C440.01 130.079 467.833 131.872 469.368 131.881C485.927 132.045 467.243 128.955 465.963 128.484C460.12 126.082 464.101 124.506 459.888 122.679C457.162 121.493 438.9 121.104 439.469 120.366C441.339 118.038 466.803 116.469 444.65 114.532C439.922 114.149 419.996 115.381 435.613 113.1C436.6 112.998 450.875 110.878 441.757 110.635C440.608 110.611 434.801 110.981 434.306 110.895C431.101 110.331 435.687 109.48 433.404 108.81C431.121 108.148 427.738 107.542 429.601 106.436C430.717 105.787 441.389 103.752 443.981 103.101C451.452 101.244 438.909 102.065 447.994 100.221C457.107 98.2536 471.277 97.4408 476.949 94.77C462.005 97.0397 446.659 99.3246 431.635 101.644C431.755 99.0027 436.015 95.4168 434.698 92.9133C434.522 92.617 426.725 94.9292 426.34 94.691C424.763 93.7376 430.007 90.9875 427.365 90.2563C426.629 90.071 425.064 90.1426 423.254 90.3218C421.608 86.5871 420.136 82.1537 419.229 77.0566C418.263 71.3356 418.033 64.8493 419.066 57.9478C421.031 43.6124 429.101 30.4621 435.647 23.3904C449.52 8.90284 457.305 6.50294 462.972 3.72018C478.935 17.1985 484.603 12.0016 489.884 13.5782C491.554 14.1852 491.207 18.8 492.188 20.3633C495.655 26.1875 495.041 10.8352 496.407 8.53104C502.824 -1.11033 498.374 33.1171 503.963 33.3403C504.573 33.7833 510.933 14.66 525.573 20.504C528.296 21.9454 536.287 23.6432 547.538 39.5441C558.344 54.2791 558.159 71.1806 556.967 76.4662C555.723 82.5566 554.381 82.1123 553.238 81.3371C552.035 80.4939 550.775 79.3247 548.863 82.3032C546.965 84.9556 543.926 93.1518 536.928 101.507C530.568 109.1 523.682 112.488 523.277 112.407C521.468 113.125 519.92 113.558 518.545 113.872C515.801 114.486 513.718 114.65 511.913 114.92C510.115 115.181 508.612 115.521 507.223 116.232C506.402 116.621 506.181 116.947 505.801 117.45C505.448 117.945 505.112 118.567 504.784 119.339C504.125 121.152 503.571 133.03 499.804 124.671C499.321 123.576 498.386 117.55 498.113 117.237C493.29 112.034 497.061 130.799 496.056 137.516C495.199 144.202 490.659 131.462 489.681 127.742C487.05 118.138 490.218 123.428 490.166 122.457C489.517 110.93 487.965 113.137 486.418 112.343C483.891 93.7342 482.346 95.0502 484.885 111.587C485.093 113.401 486.038 111.526 486.418 112.343C487.175 130.812 485.707 133.357 481.742 116.463C479.918 108.54 479.892 99.0884 477.311 102.807C476.112 104.485 477.888 117.305 476.966 120.934C474.487 129.246 470.642 117.467 467.969 119.588C467.032 120.355 468.562 127.334 467.934 128.101C466.254 130.161 464.209 124.99 462.498 127.842C462.342 128.11 463.307 135.469 462.712 135.606C458.742 136.756 454.831 132.26 450.317 132.408C448 132.492 444.756 136.776 442.549 136.077C438.802 134.907 433.464 124.399 430.406 127.172C428.497 128.945 429.297 136.325 428.681 141.411C427.486 151.27 423.631 133.901 423.102 131.208C423.087 131.118 424.768 129.29 423.648 125.534C422.728 117.642 423.12 131.172 423.102 131.208C422.758 129.469 419.118 127.953 418.46 129.4C418.107 130.191 418.64 137.195 418.449 137.475C413.722 143.977 409.397 145.947 404.4 142.863C404.31 142.724 404.121 134.872 403.913 134.645C400.994 131.267 399.573 140.937 397.445 146.728C395.254 152.517 393.526 150.671 391.671 137.247C390.041 139.006 387.376 133.138 385.832 129.573C384.289 126.009 384.627 141.295 384.513 141.601C380.96 151.405 378.255 142.742 374.23 141.512C372.326 140.901 368.63 143.239 366.606 144.975C365.008 146.373 363.906 142.823 362.456 145.159C362.26 145.472 362.677 152.269 362.622 152.533C361.17 160.726 361.479 144.067 361.037 141.107C359.434 130.343 358.48 124.613 356.445 129.761C355.972 130.94 355.217 154.934 354.37 156.36C353.256 158.172 353.446 149.574 352.284 151.689C352.184 151.862 352.36 157.158 351.596 156.946C348.055 156.033 344.113 153.06 340.427 153.691C339.922 153.757 340.8 162.141 340.074 162.374C336.653 163.464 332.899 163.252 329.514 159.404C328.677 158.43 329.035 152.535 328.814 150.792C327.462 140.252 326.318 155.646 326.071 155.945C320.213 163.477 315.12 149.696 309.154 156.455C308.83 156.852 306.627 173.374 305.149 159.282C305.048 158.344 303.579 143.925 302.794 153.824C302.745 154.444 303.626 161.864 302.366 161.134C301.108 160.406 299.215 165.417 297.323 157.284C296.724 154.722 295.129 140.341 293.763 151.862C293.678 152.666 291.733 178.693 290.461 160.792C290.254 157.846 289.999 138.879 288.289 148.643C287.962 150.536 288.718 154.751 287.808 157.413C286.412 161.515 284.344 156.477 282.696 164.963C282.409 166.465 281.319 179.364 280.032 169.617C279.83 168.09 280.024 161.753 279.436 161.056C276.641 157.713 273.869 162.005 271.013 157.679C270.002 156.159 270.303 145.914 269.228 143.191C268.153 140.469 266.045 137.872 265.066 142.569C264.087 147.269 265.568 163.559 263.989 164.895C257.112 170.698 250.078 161.253 243.079 159.976C242.041 159.785 243 165.607 241.478 165.744C235.842 166.278 226.365 171.91 221.251 159.584C217.178 149.712 221.98 142.07 218.928 138.075C217.457 136.169 216.202 155.16 215.864 155.762C212.57 161.881 210.096 153.515 207.112 156.139C206.497 156.684 207.225 164.361 206.7 164.74C204.9 166.101 202.977 162.697 201.196 163.352C200.408 163.663 200.641 169.532 199.906 169.089C198.148 168.098 196.575 165.653 194.808 160.174C194.647 159.675 195.577 152.357 194.294 152.103C192.217 151.715 189.583 146.323 187.306 151.962C186.632 153.658 186.791 167.077 185.163 157.831C184.822 155.9 184.996 139.782 183.45 153.728C183.208 156.045 180.483 174.865 178.833 162.781C178.4 159.601 177.229 146.429 176.403 148.512C176.291 148.845 176.853 156.046 176.155 156.759C173.69 159.145 171.083 158.41 168.587 160.701C167.921 161.327 169.023 168.773 168.028 169.467C165.269 171.389 161.927 169.533 159.055 167.234C158.023 166.372 158.651 160.185 158.568 159.514C157.236 148.592 156.721 163.363 156.338 164.228C153.953 169.413 152.018 162.502 149.82 164.365C149.214 164.86 149.735 171.893 149.62 172.522C148.433 178.67 149.218 166.018 148.403 164.634C146.103 160.717 143.726 161.311 141.409 162.239C140.552 162.59 141.617 170.739 140.847 170.96C136.296 172.421 131.647 171.694 127.35 167.243C126.541 166.39 126.972 160.1 126.79 158.667C125.517 148.637 124.057 162.354 123.613 163.664C121.817 169.643 121.038 164.093 119.429 165.148C111.711 170.4 101.97 166.823 94.7739 164.625C85.1032 161.799 77.7419 155.895 68.6575 157.542C68.1086 157.639 68.75 165.993 68.2794 166.184C61.8569 168.267 55.3259 165.069 49.3629 167.561C48.919 167.75 49.6605 175.667 48.962 176.237C46.9772 177.469 44.9396 177.069 43.7178 174.561C42.8255 173.36 43.8178 166.537 42.9723 165.465C42.6495 165.007 42.4199 164.613 42.3732 164.28C42.3514 164.114 42.3762 163.962 42.4842 163.824C42.5386 163.754 42.6144 163.688 42.7219 163.624C42.7757 163.592 42.8375 163.561 42.9095 163.53C42.7868 163.527 43.2197 163.509 44.3035 163.431C44.8798 163.387 45.6069 163.337 47.1061 163.178C48.9213 162.894 49.9803 163.144 58.3785 161.106C60.6777 160.48 63.5818 159.719 68.6623 157.611C73.7666 155.059 81.3337 153.157 95.2443 138.92C101.895 131.684 110.675 119.352 114.111 101.285C117.836 83.3436 113.166 62.7694 106.036 50.4807C90.9332 25.5887 79.0354 22.5359 72.8117 18.6456C60.0865 12.798 57.1195 13.0987 53.939 12.2407C51.1064 11.6875 49.6334 11.5117 48.4478 11.3597C46.1775 11.0889 45.2487 11.0399 44.4771 10.9841C43.742 10.9364 43.3117 10.9182 42.9829 10.9052C43.8013 11.6561 44.6979 11.6239 45.5899 10.8439C46.1811 10.303 45.5665 2.17547 46.2892 2.10238C51.2483 1.42715 56.1308 -0.0578681 62.7234 10.0732C63.1689 10.769 64.5535 27.1918 65.299 23.9774C65.0721 19.4101 64.7171 14.0433 64.4274 9.16463C72.9456 5.97112 82.9716 10.5997 93.518 10.0944C93.9595 10.0716 92.0607 1.51742 92.9049 1.42959C97.7997 0.908941 102.345 -2.17433 108.925 5.65082C109.577 6.41479 111.473 21.6574 112.723 19.1324C112.939 18.6733 115.038 16.3039 115.192 12.9142C115.205 12.4043 113.75 5.37123 114.497 5.05333C118.856 3.33034 123.967 4.25629 129.309 7.94882C130.172 8.55852 130.387 16.2333 131.008 16.7336C135.383 20.2279 138.917 13.9143 143.576 20.3279C146.678 24.6523 147.316 37.8675 150.149 50.6107C150.547 52.4085 152.093 52.5211 153.03 60.0207C155.384 78.878 157.082 99.6279 159.679 119.718C160.237 124.044 161.473 119.175 161.618 129.769C161.624 130.478 160.755 134.1 160.863 137.689C160.936 140.17 162.212 147.759 162.15 150.953C162.092 154.144 160.856 147.803 160.58 151.582C160.313 155.407 161.684 164.047 160.397 165.248ZM378.862 113.64C377.287 106.348 378 133.23 379.222 126.751C379.28 126.406 378.942 113.998 378.862 113.64ZM455.787 91.0741C467.054 87.0911 449.854 90.1697 441.137 93.1144C432.391 95.9004 452.353 92.2065 455.787 91.0741ZM466.592 104.267C475.714 101.512 437.784 105.452 445.605 106.167C446.047 106.207 466.061 104.418 466.592 104.267ZM144.626 55.0131C144.689 55.3649 145.803 55.5753 145.785 55.2211C145.3 46.6742 143.048 46.2623 144.626 55.0131ZM476.691 119.75C481.855 119.175 475.895 117.48 469.483 118.23C464.327 118.787 470.271 120.41 476.691 119.75ZM310.153 86.8756C310.124 86.4755 309.367 86.1324 309.436 88.3965C309.658 95.6887 310.651 93.6057 310.153 86.8756ZM475.01 148.063C476.971 144.201 508.589 144.899 504.441 149.583C503.691 150.399 494.716 146.396 491.756 147.189C486.374 148.535 505.79 152.56 494.991 153.231C493.023 153.304 474.836 148.243 474.968 148.05C474.982 148.054 474.996 148.058 475.01 148.063ZM377.001 81.3858C376.963 81.0314 375.892 80.7303 375.878 81.0834C375.591 89.6351 377.753 90.2465 377.001 81.3858ZM265.947 71.191C265.875 70.4346 263.445 69.7727 263.38 70.4721C262.386 84.4542 267.305 85.8338 265.947 71.191ZM445.875 58.5924C446.506 49.9488 447.777 48.8549 449.369 59.5592C448.214 59.0602 447.065 59.0482 445.875 58.5924ZM572.376 164.39C574.688 164.767 572.201 164.472 568.791 164.031C567.734 163.894 563.017 163.215 562.074 163.09C560.237 162.847 562.548 163.194 560.361 162.901C559.612 162.801 552.14 161.727 551.527 161.646C548.219 161.21 550.118 161.514 548.524 161.323C540.661 160.379 537.835 160.127 534.402 159.833C533.278 159.733 526.485 158.838 529.443 159.319C529.795 159.377 536.355 160.307 536.896 160.386C545.17 161.585 531.928 159.692 530.166 159.454C523.211 158.518 522.599 158.49 525.124 158.899C526.217 159.076 539.25 160.911 531.933 159.891C531.439 159.822 524.473 158.824 523.73 158.724C522.057 158.499 523.298 158.701 522.745 158.632C521.643 158.495 521.713 158.506 521.631 158.517C521.457 158.521 517.99 158.061 519.564 158.315C519.921 158.373 527.063 159.381 528.277 159.564C529.489 159.747 528.88 159.687 527.195 159.456C525.509 159.226 519.897 158.423 518.61 158.241C507.749 156.708 522.785 158.88 523.156 158.936C529.483 159.909 520.908 158.748 520.923 158.815C520.953 158.868 523.774 159.32 523.38 159.309C522.883 159.293 519.005 158.797 519.663 158.947C519.724 158.962 528.121 160.149 528.213 160.169C529.179 160.384 528.254 160.327 522.575 159.592C521.998 159.517 514.627 158.46 513.61 158.323C507.545 157.507 492.982 155.501 525.076 160.093C523.818 159.948 522.517 159.803 516.043 158.913C511.876 158.34 503.847 157.182 507.271 157.691C508.033 157.804 515.068 158.796 515.68 158.891C518.25 159.287 515.959 158.997 519.589 159.542C520.344 159.655 526.647 160.548 527.781 160.71C536.971 162.028 521.774 159.896 520.669 159.745C512.431 158.616 515.667 159.101 515.461 159.109C515.409 159.112 523.876 160.301 524.131 160.346C525.337 160.566 524.603 160.51 520.841 160.02C519.983 159.909 512.773 158.879 511.994 158.773C508.649 158.32 522.269 160.253 519.323 159.855C518.72 159.773 512.547 158.897 511.868 158.802C501.224 157.306 516.303 159.451 516.636 159.501C521.18 160.18 505.433 157.975 507.658 158.323C507.94 158.366 515.753 159.463 516.068 159.518C518.211 159.913 516.054 159.692 509.796 158.879C508.833 158.755 502.966 157.92 502.242 157.819C490.937 156.237 506.081 158.383 506.651 158.467C510.752 159.079 498.046 157.323 516.083 159.878C512.946 159.491 513.903 159.7 513.629 159.691C513.493 159.674 513.04 159.683 511.639 159.329C511.469 159.245 511.283 159.178 511.107 158.867C511.063 158.782 511.021 158.679 510.984 158.501C510.948 158.308 510.916 158.112 510.905 157.45C510.896 157.076 510.909 156.693 510.875 155.406C510.864 155.069 510.849 154.66 510.808 154.08C510.756 153.46 510.738 152.899 510.466 151.223C510.004 149.502 510.301 147.469 506.544 141.076C504.55 138.045 500.466 132.644 491.81 129.832C483.084 126.899 473.603 129.85 469.488 132.66C461.059 138.576 461.033 141.394 459.769 143.146C458.877 144.895 458.579 145.787 458.321 146.497C457.854 147.86 457.745 148.4 457.634 148.865C457.445 149.724 457.423 150.018 457.397 150.287C457.362 150.775 457.4 150.932 457.438 151.082C457.479 151.221 457.531 151.305 457.586 151.374C457.699 151.509 457.826 151.58 457.96 151.642C458.227 151.772 458.529 151.798 458.847 151.863C460.121 152.095 461.729 152.335 463.748 152.627C463.935 152.654 471.386 153.759 471.728 153.806C475.916 154.397 464.333 152.692 450.168 150.6C446.611 150.077 463.718 152.565 464.973 152.745C469.594 153.414 480.682 155.042 481.577 155.171C488.607 156.175 451.933 150.825 451.924 150.806C451.985 150.814 458.735 151.801 459.407 151.897C461.515 152.199 458.833 151.803 461.157 152.136C466.536 152.908 484.358 155.495 473.989 153.964C472.644 153.765 451.839 150.745 452.825 150.867C453.235 150.917 452.884 150.83 454.233 151.017C455.582 151.202 462.285 152.181 462.576 152.222C471.445 153.48 475.118 154.023 488.246 155.909C501.325 157.787 470.136 153.275 466.655 152.765C463.185 152.257 470.503 153.294 473.047 153.656C475.592 154.018 479.851 154.642 481.292 154.845C490.703 156.171 465.813 152.591 460.864 151.865C449.147 150.143 472.279 153.472 474.549 153.776C475.162 153.858 469.893 153.102 469.401 153.026C467.523 152.734 474.742 153.762 468.128 152.783C467.05 152.623 453.146 150.598 463.354 152.056C464.826 152.266 470.589 153.103 471.882 153.279C473.821 153.545 475.085 153.699 473.16 153.408C471.736 153.192 462.236 151.836 465.189 152.248C466.507 152.432 472.062 153.243 474.076 153.521C476.088 153.8 475.848 153.736 475.658 153.697C475.464 153.658 468.258 152.627 467.772 152.556C464.993 152.15 461.521 151.629 461.53 151.629C460.665 151.405 472.822 153.067 468.816 152.394C468.512 152.343 460.913 151.258 460.788 151.238C457.608 150.757 477.807 153.675 484.572 154.626C469.152 152.417 471.946 152.807 470.257 152.547C469.431 152.419 463.46 151.568 462.849 151.48C453.782 150.167 465.497 151.838 467.893 152.179C476.709 153.435 466.295 151.933 472.187 152.772C478.036 153.604 486.703 154.86 486.594 154.827C481.075 154.031 466.649 151.976 464.313 151.628C455.477 150.314 466.808 151.845 467.989 151.973C469.169 152.102 468.153 151.944 470.151 152.207C473.764 152.682 463.059 151.167 458.164 150.441C453.269 149.716 479.601 153.492 485.262 154.297C490.921 155.103 485.097 154.266 488.208 154.706C491.319 155.146 495.166 155.706 496.336 155.862C497.504 156.018 487.441 154.55 481.523 153.7C468.983 151.901 455.82 150.034 460.448 150.667C460.723 150.704 467.647 151.699 468.347 151.792C473.685 152.504 474.023 152.502 478.745 153.125C479.405 153.212 487.107 154.317 487.578 154.38C492.512 155.042 479.521 153.204 465.095 151.125C484.296 153.867 496.046 155.53 496.164 155.514C496.241 155.505 487.854 154.314 481.945 153.459C480.164 153.202 485.924 154.009 481.98 153.444C469.089 151.6 454.655 149.556 460.406 150.344C460.679 150.381 467.736 151.391 468.164 151.447C470.966 151.814 457.481 149.89 455.852 149.625C454.574 149.417 462.805 150.541 464.146 150.701C485.736 153.772 480.796 153.04 465.912 150.913C466.524 150.98 465.686 150.84 467.746 151.113C468.448 151.207 474.699 152.099 475.374 152.194C485.971 153.686 471.49 151.62 470.923 151.536C465.41 150.707 476.392 152.227 465.67 150.663C465.284 150.606 450.287 148.477 461.239 150.019C461.994 150.125 468.816 151.107 469.346 151.161C469.878 151.216 477.923 152.318 470.978 151.304C469.306 151.06 457.132 149.319 466.647 150.652C467.939 150.833 472.241 151.444 474.635 151.78C482.263 152.851 467.104 150.701 479.984 152.513C492.864 154.325 502.512 155.666 493.631 154.38C493.373 154.343 481.358 152.637 481.549 152.655C481.865 152.685 484.371 153.018 484.295 152.992C484.254 152.979 476.792 151.93 476.656 151.91C472.481 151.273 479.138 152.175 482.033 152.529C482.578 152.596 472.407 151.136 480.454 152.25C489.263 153.47 525.893 158.647 517.172 157.369C513.684 156.856 467.211 150.301 491.296 153.648C485.338 152.742 497.672 154.408 489.16 153.148C488.783 153.092 475.812 151.27 475.99 151.288C476.278 151.318 482.342 152.158 482.743 152.206C484.574 152.429 479.39 151.678 480.201 151.762C480.495 151.792 486.765 152.667 487.117 152.702C487.464 152.737 479.208 151.582 483.198 152.118C486.24 152.525 503.119 154.848 505.089 155.097C488.442 152.793 488.787 152.827 484.395 152.197C483.543 152.075 477.748 151.279 477.046 151.18C474.061 150.761 478.864 151.416 475.614 150.96C474.833 150.851 469.148 150.067 468.189 149.934C459.817 148.769 472.609 150.513 474.836 150.815C483.296 151.964 475.901 150.944 479.233 151.389C482.565 151.834 486.725 152.422 488.748 152.685C492.933 153.226 492.02 153.059 492.285 153.065C492.356 153.062 484.763 152.042 484.597 152.018C482.674 151.738 490.754 152.8 475.631 150.756C514.741 155.98 471.839 150.233 479.672 151.257C480.305 151.34 498.804 153.782 501.518 154.159C504.228 154.536 498.444 153.789 502.673 154.378C503.666 154.513 520.99 156.882 522.039 157.027C530.238 158.169 502.604 154.438 501.087 154.234C484.706 152.031 503.369 154.585 504.658 154.771C510.562 155.612 506.672 155.114 510.886 155.724C513.609 156.119 531.704 158.602 531.148 158.543C529.309 158.349 504.066 154.881 525.945 157.95C530.611 158.606 550.388 161.329 534.832 159.219C533.852 159.087 519.623 157.144 528.618 158.408C529.752 158.567 535.515 159.366 535.999 159.436C539.128 159.889 534.535 159.262 536.732 159.586C538.928 159.909 542.203 160.388 540.245 160.137C539.075 159.987 528.336 158.508 525.707 158.148C518.133 157.109 530.545 158.857 521.375 157.588C512.158 156.313 498.167 154.342 492.209 153.535C507.18 155.625 522.545 157.772 537.6 159.875C537.064 159.867 532.216 159.24 532.869 159.39C532.965 159.411 541.014 160.531 541.324 160.583C542.598 160.795 536.857 160.018 539.137 160.372C540.933 160.651 549.449 161.878 551.592 162.206C534.461 159.813 540.271 160.668 538.701 160.476C538.159 160.41 533.585 159.765 532.092 159.561C526.569 158.81 541.706 160.93 544.087 161.273C554.248 162.737 519.99 157.911 520.831 158.065C520.864 158.071 539.121 160.671 540.258 160.835C547.67 161.903 533.902 159.942 532.551 159.764C530.082 159.439 525.719 158.838 531.064 159.62C532.647 159.851 544.025 161.479 535.22 160.25C534.067 160.089 528.032 159.234 527.678 159.186C521.782 158.381 540.746 161.064 547.166 161.989C553.585 162.915 540.49 161.089 536.717 160.56C526.954 159.192 532.547 159.959 531.589 159.823C520.192 158.201 522.152 158.497 521.186 158.375C502.592 155.745 503.705 155.922 520.261 158.259C522.069 158.514 520.337 158.258 521.186 158.375C539.428 160.969 541.761 161.324 524.71 158.933C516.718 157.812 507.403 156.483 510.807 156.998C512.343 157.231 525.147 159.039 528.635 159.547C536.595 160.707 524.647 159.054 526.524 159.352C527.205 159.46 534.215 160.444 534.922 160.552C536.821 160.843 531.56 160.115 534.251 160.519C534.503 160.557 541.84 161.593 541.932 161.613C542.777 161.785 538.072 161.161 537.935 161.194C537.872 161.21 541.911 161.831 541.094 161.741C539.721 161.592 529.046 160.128 531.632 160.535C533.287 160.796 540.625 161.836 545.622 162.559C555.309 163.961 537.947 161.524 535.259 161.145C535.17 161.132 533.444 160.865 529.676 160.339C521.827 159.227 535.225 161.14 535.259 161.145C533.522 160.901 531.851 160.706 533.252 160.914C534.018 161.028 540.969 162.017 541.237 162.058C547.45 163.002 549.208 163.313 545.95 162.907C545.809 162.888 538.034 161.776 537.801 161.745C534.339 161.285 543.847 162.665 549.49 163.501C555.13 164.335 553.237 164.088 539.887 162.195C541.565 162.456 535.66 161.641 532.077 161.146C528.494 160.651 543.628 162.82 543.927 162.864C553.496 164.283 544.83 163.071 543.474 162.927C542.804 162.855 544.993 163.215 546.644 163.478C547.974 163.688 544.426 163.193 546.691 163.537C546.993 163.583 553.732 164.547 553.991 164.585C562.05 165.763 545.579 163.389 542.636 162.972C531.936 161.453 526.237 160.645 531.266 161.393C532.417 161.565 556.132 164.987 557.518 165.198C559.276 165.465 550.775 164.239 552.832 164.55C553 164.576 558.245 165.328 558.012 165.305C557.002 165.205 553.943 164.812 554.462 164.937C554.513 164.951 562.832 166.138 563.043 166.178C564.022 166.365 563.708 166.369 559.808 165.85C558.822 165.719 552.998 164.873 551.269 164.627C540.803 163.133 556.004 165.342 556.293 165.387C563.588 166.52 549.82 164.6 556.359 165.625C556.743 165.683 573.035 168.075 559.055 166.072C558.125 165.939 543.823 163.887 553.598 165.316C554.209 165.405 561.573 166.46 560.82 166.37C560.068 166.279 564.98 167.021 556.888 165.873C554.339 165.512 540.073 163.461 551.44 165.132C552.234 165.246 577.937 169.017 560.197 166.458C557.277 166.036 538.506 163.307 548.126 164.736C549.991 165.014 554.179 165.611 556.791 166.007C560.817 166.619 555.785 165.919 564.141 167.169C565.621 167.39 578.357 169.272 568.684 167.884C567.169 167.667 560.905 166.744 560.201 166.655C556.829 166.225 561.01 166.909 556.663 166.351C555.134 166.168 545.01 164.649 542.29 164.291C539.57 163.937 536.947 163.644 541.554 164.463C546.074 165.819 562.527 166.347 563.293 169.694C563.262 170.327 563.327 170.668 562.782 173.527C562.621 174.322 562.422 175.299 561.93 177.18C561.246 179.342 561.225 181.072 557.256 190.039C553.961 194.957 555.036 201.564 532.365 220.682C521.655 229.56 491.675 243.256 460.632 233.519C430.443 223.957 418.601 204.939 413.1 195.77C402.958 176.103 404.324 171.052 403.168 166.214C402.636 162.017 402.604 160.47 402.51 158.728C402.316 152.724 402.501 151.769 402.516 150.378C402.559 149.196 402.582 148.587 402.594 148.09C402.617 147.139 402.601 146.735 402.578 146.392C402.531 145.75 402.455 145.509 402.387 145.292C402.318 145.088 402.253 144.961 402.196 144.856C402.168 144.804 402.142 144.759 402.118 144.719C402.092 144.696 402.067 144.686 402.046 144.67C402.003 144.642 401.972 144.617 401.95 144.594C401.907 144.549 401.906 144.514 401.94 144.488C402.077 144.386 402.791 144.392 403.719 144.467C405.572 144.639 408.298 144.948 409.002 144.973C409.211 144.983 403.428 144.184 403.321 144.146C402.902 144.011 397.506 143.076 409.797 144.756C419.642 146.095 427.124 147.211 431.133 147.74C433.045 147.993 414.266 145.323 413.675 145.235C407.675 144.344 415.999 145.487 413.452 145.086C412.924 145.002 405.31 143.935 404.944 143.876C403.628 143.664 407.03 144.115 406.411 144.006C406.116 143.955 400.302 143.134 400.752 143.189C401.762 143.312 404.208 143.639 409.66 144.391C410.157 144.459 417.387 145.495 417.659 145.518C418.077 145.552 423.457 146.283 417.909 145.468C416.241 145.223 402.953 143.341 412.132 144.621C414.05 144.889 430.004 147.154 416.221 145.179C413.931 144.851 395.341 142.178 407.33 143.858C410.485 144.3 423.543 146.137 421.493 145.835C421.166 145.787 414.028 144.782 413.333 144.674C411.009 144.31 411.775 144.387 409.543 144.042C408.933 143.948 401.546 142.912 400.873 142.805C399.011 142.508 400.897 142.735 403.213 143.03C404.081 143.141 410.198 144.018 410.864 144.111C421.694 145.634 407.079 143.552 406.227 143.426C401.128 142.673 407.997 143.625 406.184 143.339C405.703 143.263 398.733 142.279 398.111 142.189C392.042 141.312 404.556 143.1 405.937 143.286C409.847 143.813 409.292 143.701 408.405 143.546C408.069 143.487 399.987 142.352 399.779 142.312C398.395 142.052 399.175 142.118 403.637 142.7C404.492 142.812 410.713 143.702 412.135 143.902C422.08 145.302 408.52 143.355 407.229 143.166C401.333 142.307 406.836 143.081 405.812 142.917C400.711 142.099 404.373 142.499 406.637 142.725C409.55 143.032 415.481 143.791 413.959 143.465C413.871 143.445 405.592 142.274 405.409 142.242C403.425 141.882 406.67 142.265 404.291 141.844C404.11 141.812 396.262 140.704 395.708 140.614C394.518 140.423 394.948 140.455 397.456 140.794C398.665 140.956 405.397 141.928 406.475 142.072C409.003 142.409 409.565 142.465 408.311 142.262C407.76 142.174 399.732 141.046 399.641 141.02C398.858 140.819 397.488 140.534 407.894 141.921C408.608 142.017 424.92 144.335 421.794 143.876C417.267 143.23 411.943 142.471 407.104 141.781C404.517 141.277 410.192 141.936 411.084 141.94C411.12 141.94 402.476 140.717 402.501 140.71C402.638 140.668 400.252 140.267 408.851 141.428C409.692 141.542 424.895 143.713 422.598 143.367C422.179 143.303 420.155 142.986 416.856 142.508C416.358 142.436 409.261 141.429 409.056 141.391C407.986 141.184 409.614 141.359 413.957 141.923C414.672 142.016 422.228 143.103 422.802 143.179C426.82 143.707 421.082 142.839 427.95 143.775C432.574 144.405 445.636 146.279 458.496 148.098C460.311 148.355 460.601 148.378 468.082 149.444C486.895 152.126 507.493 155.073 527.545 157.93C531.865 158.546 527.216 157.858 537.651 159.361C538.35 159.462 541.811 159.973 545.351 160.483C547.799 160.835 555.408 161.915 558.541 162.368C561.671 162.821 555.292 161.917 558.972 162.452C562.698 162.994 571.354 164.225 572.376 164.39ZM516.063 158.933C508.793 157.908 535.412 161.722 529.046 160.793C528.706 160.743 516.42 158.983 516.063 158.933ZM512.128 156.429C500.379 154.805 517.649 157.239 526.722 158.494C535.787 159.747 515.69 156.921 512.128 156.429ZM503.584 155.007C494.318 153.742 532.086 159.003 524.455 157.911C524.023 157.849 504.122 155.08 503.584 155.007ZM462.148 148.691C462.501 148.741 462.847 148.778 462.497 148.727C454.043 147.515 453.356 147.443 462.148 148.691ZM494.276 153.492C489.165 152.797 495.061 153.63 501.417 154.495C506.53 155.191 500.634 154.356 494.276 153.492ZM487.54 155.651C487.144 155.594 486.785 155.551 489.027 155.875C496.248 156.917 494.212 156.611 487.54 155.651ZM493.904 152.958C492.458 152.95 461.235 148.788 464.753 149.301C465.39 149.385 474.717 150.57 477.533 150.936C482.67 151.558 463.04 149.141 473.553 150.484C475.483 150.684 494.059 152.941 493.948 152.963C493.933 152.961 493.919 152.959 493.904 152.958ZM484.089 154.363C483.737 154.313 483.401 154.278 483.75 154.328C492.2 155.545 492.881 155.617 484.089 154.363ZM471.02 153.717C470.27 153.608 469.571 153.489 470.263 153.581C484.06 155.711 485.526 155.879 471.02 153.717ZM464.722 150.783C456.221 149.561 455.222 149.404 465.901 150.911C465.332 150.843 465.247 150.844 464.722 150.783ZM397.878 127.985C396.412 122.324 399.596 117.431 403.223 115.159C404.35 114.468 409.069 115.231 410.057 114.768C411.978 113.877 409.648 113.174 411.853 113.352C412.608 113.402 420.157 113.3 420.775 113.296C422.407 113.323 422.704 113.776 423.281 116.505C424.443 119.393 422.943 124.166 434.587 139.52C434.965 139.928 435.357 140.336 435.766 140.741C444.447 150.773 465.388 158.043 474.832 156.218C484.805 155.153 487.172 152.436 488.038 151.366C488.768 150.146 487.686 149.76 486.214 149.899C484.671 150.064 482.792 150.61 480.178 151.867C474.297 154.564 468.338 158.134 462.197 162.25C456.863 165.793 446.161 167.072 443.546 174.496C443.25 175.361 448.524 179.404 448.825 179.886C453.434 187.282 443.983 177.78 441.554 177.847C434.247 178.067 429.349 181.319 426.464 185.833C426.572 186.014 426.159 187.257 425.754 188.85C424.853 191.949 437.405 197.1 429.356 195.566C428.8 195.476 423.713 190.526 422.505 190.891C419.888 191.62 417.357 196.875 414.625 198.91C410.881 201.631 409.098 203.034 405.454 205.688C401.974 208.006 398.724 210.652 389.244 212.586C381.11 214.633 366.672 211.21 360.601 206.219C347.623 195.886 348.005 190.647 346.232 187.363C343.62 179.284 344.267 177.703 344.202 175.135C344.316 172.877 344.65 171.204 344.955 169.634C345.264 168.082 345.56 166.683 345.696 165.361C345.764 164.691 345.793 164.055 345.766 163.426C345.752 163.102 345.724 162.788 345.679 162.508C345.658 162.346 345.63 162.229 345.599 162.099C345.583 162.041 345.565 162.002 345.546 161.992C345.536 161.993 345.525 162.012 345.513 162.073C345.507 162.09 345.499 162.17 345.491 162.36C345.485 162.591 345.464 162.743 345.483 163.864C345.46 163.78 345.436 163.697 345.411 163.615C345.025 162.42 337.841 164.103 336.584 162.279C335.335 160.366 335.938 157.382 337.617 156.505C339.302 155.578 344.976 155.84 346.273 155.651C357.218 153.878 341.887 151.712 341.494 151.73C338.964 150.107 338.364 149.296 339.447 150.887C340.056 151.72 341.017 153.275 343.623 156.255C346.1 159.057 351.39 164.156 359.277 166.699C364.531 168.048 368.204 167.48 370.025 167.376C372.944 167.108 372.722 167.565 372.011 168.637C371.218 169.673 369.668 171.107 367.514 172.058C364.221 173.479 360.585 173.97 354.142 176.217C351.262 176.951 348.519 177.844 346.015 179.408C345.342 179.819 349.993 186.97 349.178 187.487C340.492 192.983 332.038 196.208 321.824 195.489C320.787 195.415 318.033 188.406 316.756 187.96C311.733 186.237 303.325 182.412 302.474 188.094C303.535 187.535 304.928 186.699 306.641 185.049C307.821 184.007 311.834 179.496 312.72 172.536C313.741 165.454 310.881 158.831 308.375 155.478C306.965 153.564 306.291 152.86 305.553 152.044C304.833 151.269 304.191 150.645 303.623 150.111C303.056 149.577 302.562 149.132 302.129 148.739C301.886 148.53 301.775 148.395 301.64 148.248C301.509 148.103 301.385 147.963 301.268 147.828C300.8 147.286 300.436 146.807 300.142 146.352C299.495 145.424 299.418 144.679 299.267 143.828C298.864 140.518 299.745 136.453 300.538 130.88C300.169 132.16 304.697 133.869 307.326 140.44C309.21 144.691 307.094 152.766 309.717 149.343C310.305 148.578 309.633 141.468 310.477 140.855C313.939 138.281 317.905 140.481 320.799 136.603C321.369 135.798 320.729 129.461 320.806 128.306C321.37 118.964 324.536 134.043 325.152 135.081C326.407 137.671 327.359 138.979 327.361 139.761C327.318 140.174 327.115 140.403 325.991 140.929C324.904 141.668 323.101 141.437 317.06 146.955C308.014 156.499 308.003 165.689 307.992 169.817C308.036 171.149 308.074 171.418 308.124 172C308.174 172.521 308.233 172.999 308.296 173.443C308.424 174.329 308.568 175.077 308.712 175.73C309.001 177.032 309.286 177.97 309.532 178.723C309.698 179.233 309.85 179.657 309.987 180.025C310.258 180.749 310.493 181.296 310.644 181.646C310.776 181.956 310.883 182.198 310.971 182.397C311.155 182.81 311.218 182.97 311.267 183.11C311.315 183.245 311.321 183.303 311.311 183.331C311.255 183.417 310.972 183.094 310.711 182.651C310.352 182.037 303.773 187.559 303.193 187.175C300.134 184.923 297.249 180.129 297.906 175.29C298.088 174.223 303.797 169.66 304.13 168.87C304.792 167.118 302.66 168.676 300.829 170.586C299.918 171.545 299.072 172.586 298.781 173.412C298.539 174.258 298.617 174.795 300.777 175.334C302.871 175.919 305.074 169.941 305.727 169.539C307.354 168.583 308.555 168.094 310.572 168.244C312.304 168.228 315.247 169.219 320.285 169.126C319.575 170.048 319.62 177.534 319.451 177.783C316.441 182.663 311.688 167.282 307.681 170.3C307.239 170.674 309.784 178.221 308.495 178.791C300.005 182.616 288.777 183.582 275.945 180.488C273.965 180.011 273.679 173.954 273.381 173.278C268.707 162.709 271.462 177.796 271.018 178.506C267.436 183.72 260.278 172.245 260.89 190.754C246.651 189.709 231.713 194.634 215.326 191.308C202.485 189.806 192.954 180.919 190.008 175.39C186.654 169.546 186.472 165.229 187.508 161.946C187.566 161.717 193.613 157.215 193.671 156.739C194.053 153.861 192.261 154.939 189.982 158.456C188.067 161.987 183.649 168.018 188.041 176.903C189.277 179.154 194.026 176.314 195.943 172.069C198.02 167.872 197.491 163.073 197.422 162.464C196.659 157.826 193.099 147.188 192.889 146.308C188.026 141.062 201.709 169.5 205.776 172.447C205.982 172.757 206.095 172.926 206.083 172.935C206.026 172.9 202.126 167.303 201.678 166.789C200.195 165.233 201.597 167.573 199.823 165.996C195.779 162.296 182.534 149.954 188.098 159.281C188.87 160.453 204.378 174.609 202.495 175.233C201.731 175.429 199.506 178.763 197.599 179.062C195.729 179.282 190.849 174.502 190.562 174.394C181.115 172.08 178.958 168.768 167.036 162.6C155.113 156.533 180.97 174.559 183.324 177.305C185.679 180.034 177.856 178.228 175.326 177.326C172.8 176.421 169.9 173.1 168.33 172.777C158.085 170.616 179.655 183.754 182.647 188.086C182.762 188.257 182.87 188.423 182.97 188.582C189.601 197.217 170.081 185.545 166.466 186.761C165.495 187.068 170.23 189.587 170.235 190.448C170.238 193.777 163.201 191.169 167.077 197.489C167.68 198.561 178.283 208.072 168.682 204.012C167.292 203.436 162.678 199.815 160.937 200.164C158.328 200.676 155.546 202.896 156.279 205.56C156.827 207.518 165.984 210.814 162.526 210.886C160.979 210.927 156.796 206.898 154.284 207.235C151.766 207.57 150.131 211.144 149.628 212.553C149.123 213.962 155.969 216.569 156.349 216.902C157.914 218.282 159.336 220.748 159.98 222.088C160.112 222.842 160.163 223.331 160.112 223.425C159.561 224.61 159.025 225.562 158.667 226.11C158.492 226.375 158.36 226.546 158.344 226.463C158.33 226.35 158.429 226.112 158.812 224.772C158.987 224.095 159.293 223.08 159.508 221.103C159.647 219.115 160.052 215.617 157.776 210.257C155.551 204.764 149.794 200.476 146.714 199.415C143.414 198.108 141.638 198.08 140.396 198.004C138.033 197.974 137.475 198.279 137.05 198.442C136.668 198.627 136.635 198.782 136.696 198.912C136.043 199.799 135.455 201.198 135.821 202.099C136.144 203.017 137.238 203.276 138.367 202.788C140.686 201.811 142.796 198.408 142.538 194.16C142.501 193.226 134.983 191.562 134.902 191.396C132.631 187.738 151.557 195.73 158.768 195.364C143.686 191.449 146.764 190.952 145.72 188.25C145.206 186.939 139.219 185.978 138.649 185.718C130.224 181.757 141.974 183.609 144.394 183.93C153.294 185.11 143.462 181.151 149.422 181.921C155.329 182.716 163.305 186.741 163.805 184.502C158.613 182.36 144.082 180.221 142.315 177.765C135.382 168.649 152.095 155.305 160.316 149.979C163.711 147.357 166.46 145.695 168.849 144.548C171.762 143.186 174.162 142.551 177.183 142.95C186.4 145.026 181.811 134.904 188.098 129.817C194.322 125.166 189.294 151.573 189.562 157.303C189.507 163.035 190.593 157.231 190.803 160.421C190.922 163.601 189.423 167.33 190.353 168.639C191.085 169.891 196.324 160.559 198.35 154.906C202.323 142.834 203.353 129.371 206.805 135.057C206.983 135.39 204.421 141.95 205.178 142.879C211.028 150.008 217.298 152.602 222.069 159.23C222.717 160.151 219.457 167.263 219.809 167.884C223.499 174.369 225.845 161.317 233.036 148.326C226.496 166.589 224.393 178.422 228.734 179.827C231.315 180.651 233.209 172.375 236.301 167.026C237.199 165.406 237.499 171.481 238.767 167.686C242.746 155.237 244.776 140.781 246.593 147.1C246.685 147.399 244.811 154.294 245.246 154.821C248.116 158.23 250.753 144.811 252.604 143.27C253.895 142.052 255.728 150.18 257.298 151.054C265.253 171.49 267.965 164.403 259.024 152.11C259.922 152.205 259.835 151.144 262.159 151.482C262.977 151.559 267.97 155.43 268.552 155.788C278.239 160.612 266.414 151.858 265.986 151.441C263.895 147.397 268.377 146.703 268.759 143.373C270.34 138.511 271.876 137.662 272.67 136.61C273.537 135.687 274.101 135.172 274.554 134.71C275.452 133.813 275.957 133.188 276.35 132.505C277.099 131.173 277.359 129.708 276.995 127.93C276.897 127.547 269.522 114.261 274.587 124.189C275.105 124.776 279.777 129.82 278.85 131.267C278.501 131.836 277.676 132.328 276.404 136.193C276.149 137.029 275.836 138.106 275.733 139.876C275.631 141.718 275.872 144.581 277.525 147.478C279.123 150.323 281.605 152.074 283.142 152.801C284.765 153.582 285.83 153.767 286.617 153.887C288.148 154.072 288.739 153.91 289.182 153.803C289.602 153.68 289.786 153.542 289.891 153.415C290.085 153.157 289.955 152.93 289.68 152.745C289.349 152.56 289.1 152.412 287.818 152.352C285.842 151.076 283.076 150.797 281.604 154.853C280.917 156.655 280.362 169.152 277.157 159.91C276.721 158.655 276.363 154.317 275.661 151.977C274.591 148.428 274.356 150.025 274.125 151.299C273.828 152.709 273.454 153.738 271.72 147.105C268.412 134.45 264.098 125.248 261.576 134.705C261.491 134.982 262.391 147.119 261.15 147.112C259.166 147.092 256.037 145.01 254.027 145.395C253.065 145.584 254.818 152.94 254.67 153.102C248.803 158.266 243.166 152.333 235.748 150.532C234.383 150.187 232.301 160.91 228.576 153.271C224.482 144.912 221.545 107.924 216.622 117.623C214.617 121.51 218.831 168.361 210.461 145.079C202.651 152.44 192.489 141.501 185.108 151.481C184.774 151.925 185.725 165.05 184.772 165.032C183.351 164.981 181.56 159.077 180.508 158.849C176.071 157.742 173.204 163.56 169.102 163.461C167.546 163.437 166.963 157.111 165.1 157.084C163.237 157.064 163.52 165.482 160.372 161.962C157.992 159.275 153.08 142.852 150.249 141.355C153.207 157.9 151.463 157.868 149.302 162.786C148.889 163.739 150.579 169.374 150.439 170.121C149.9 173.29 147.988 168.717 147.557 172.138C147.45 172.961 148.506 178.602 148.48 179.592C148.309 188.227 143.011 176.097 142.082 173.987C138.559 165.972 139.082 173.475 136.978 170.46C134.871 167.446 136.258 162.894 134.152 161.227C129.781 157.782 125.374 159.605 121.707 160.081C120.25 160.306 122.762 167.613 122.589 167.82C120.016 170.326 115.347 162.971 116.822 178.253C106.69 140.061 115.819 182.369 109.983 175.533C109.52 174.979 105.195 156.822 105.922 153.866C106.653 150.913 109.82 156.205 110.743 151.65C110.957 150.581 109.857 132.951 109.987 131.843C110.967 123.188 116.942 150.429 117.385 151.901C122.253 167.774 121.463 148.715 122.007 147.278C124.44 140.705 128.276 143.945 130.479 139.177C131.928 136.091 128.649 118.122 130.328 118.367C135.926 119.172 142.424 143.875 143.252 121.244C143.439 116.417 138.753 96.981 145.399 111.716C145.823 112.644 151.208 126.255 151.192 117.026C151.19 115.862 150.142 110.139 150.324 109.609C151.563 106.171 153.589 110.515 155.158 107.978C156.728 105.441 158.515 101.761 161.102 103.309C162.661 104.232 166.262 114.606 167.359 117.109C170.484 124.323 170.286 111.637 172.986 120.565C175.694 129.54 175.905 143.841 179.859 149.261C177.408 134.345 175.033 119.011 172.64 103.998C179.277 103.399 186.505 107.144 192.929 105.411C193.724 105.181 191.577 97.2986 192.397 96.8454C195.866 94.9682 199.999 100.166 203.432 97.2771C206.084 95.0104 207.959 85.9987 210.704 83.3697C215.289 100.155 218.923 93.6388 222.476 94.6848C223.719 95.0438 224.352 99.6204 225.406 100.982C229.363 106.007 225.565 91.1294 226.048 88.6202C228.136 77.9084 233.732 112.05 237.884 110.547C238.104 110.479 238.089 91.8245 238.3 90.6305C239.604 82.8556 239.674 96.9137 241.402 98.0279C244.558 100.065 247.147 104.125 249.592 98.291C250.3 96.5653 250.858 84.8552 254.031 93.3672C254.448 94.4817 255.225 100.529 255.473 100.852C259.89 106.203 257.124 87.251 258.176 80.5325C259.035 75.0455 262.585 82.4521 264.508 87.3513C265.04 88.4345 265.41 89.4044 265.64 90.0758C267.793 96.3347 266.823 96.2271 265.769 95.7361C265.326 95.4684 264.902 95.0914 264.921 95.4213C265.305 102.159 266.138 104.179 267.138 104.834C268 105.278 268.795 105.054 269.622 105.343C272.58 123.89 274.882 122.421 271.621 105.998C271.255 104.206 270.109 106.139 269.622 105.343C268.561 86.8797 271.089 84.1312 276.612 100.758C279.309 108.547 278.631 118.088 283.456 114.041C283.594 113.952 283.723 113.839 283.845 113.704C282.561 113.539 282.533 113.113 282.353 112.561C282.228 112.007 282.208 111.321 282.19 110.556C282.166 109.023 282.144 107.177 282.201 105.293C282.281 103.406 282.39 101.48 283.247 99.7312C283.691 98.8579 284.328 98.0214 285.589 97.2744C286.991 96.5673 288.446 95.7381 293.652 95.7541C297.845 96.6909 304.665 93.5772 322.042 108.174C330.637 115.857 336.105 130.719 336.001 139.609C336.218 149.017 334.556 153.623 333.363 157.435C329.477 168.485 325.244 172.697 322.541 175.874C319.723 178.909 317.716 180.466 316.041 181.65C312.738 183.916 310.694 184.498 309.114 184.708C307.593 184.861 306.527 184.576 306.686 183.672C306.814 183.174 307.192 182.61 308.804 181.071C309.679 180.219 310.779 179.268 312.961 176.932C314.954 174.248 318.943 171.955 323.232 158.616C322.654 159.679 322.278 160.756 322.236 161.899C322.119 164.516 329.624 164.321 329.733 166.281C330.001 171.498 323.246 174.15 322.987 180.496C322.935 181.139 330.195 183.273 329.278 185.19C322.579 199.515 305.731 211.889 286.167 219.767C276.823 224.088 261.074 230.481 253.523 229.383C239.451 227.953 230.998 214.763 224.136 215.722C219.569 216.239 218.485 223.602 215.301 227.948C208.922 236.305 208.756 217.825 209.061 215.062C209.06 214.97 212.591 214.275 212.164 210.14C213.699 202.305 209.112 215.043 209.061 215.062C209.095 213.237 204.095 209.785 202.687 210.799C201.883 211.344 199.938 218.098 199.563 218.257C190.724 221.866 184.844 221.889 183.855 218.354C183.853 218.208 185.6 210.55 185.553 210.299C184.963 206.561 182.999 216.25 186.15 222.049C189.142 227.954 197.357 224.762 196.878 210.505C198.668 210.475 200.621 209.409 202.314 207.707C206.04 204.06 206.924 198.454 206.375 195.472C205.367 191.278 217.293 200.663 217.799 200.542C230.425 199.49 222.24 194.176 220.241 196.229C219.257 196.994 220.245 201.705 221.015 205.37C221.66 208.187 217.755 208.951 219.15 212.457C219.332 212.938 225.997 214.386 226.214 214.579C233.039 220.333 217.528 214.038 214.474 213.902C203.292 213.53 197.515 212.985 200.458 219.814C201.203 221.195 221.862 234.228 221.392 238.555C220.763 243.968 214.096 238.197 213.17 244.248C213.042 244.792 217.822 247.233 215.457 250.656C207.656 263.025 184.224 284.231 157.086 288.926C154.751 289.371 152.141 289.927 147.182 290.467C144.566 290.72 141.502 291.009 136.333 290.859C131.317 290.485 123.875 290.749 109.509 284.836C99.2702 280.408 92.1692 274.875 89.8168 273.886C87.1506 272.568 87.4744 274.28 87.1504 275.431C86.8281 276.484 85.7854 277.415 79.8166 272.314C74.5282 268.048 61.4467 252.08 58.4487 230.774C55.8418 209.948 59.3085 201.88 60.5661 195.95C62.1619 190.29 63.4708 187.207 64.4253 184.883C66.3756 180.323 67.3066 178.632 67.9484 177.331C69.1604 174.977 69.0876 175.113 68.5953 176.388C70.6504 173.05 73.4234 170.042 77.0969 167.856C78.748 166.902 83.4262 170.617 85.1271 171.147C95.3866 174.408 83.428 164.346 83.4512 163.718C83.2012 149.332 99.9875 148.833 101.991 134.83C102.044 134.223 95.6185 124.841 99.8565 124.605C100.584 124.931 101.972 125.732 104.276 127.242C105.03 127.805 117.275 135.564 110.074 128.676C109.622 128.245 103.103 124.56 104.618 123.772C106.137 122.976 103.943 117.513 112.503 119.668C115.232 120.311 128.112 127.104 121.238 117.229C120.528 116.801 104.505 95.2272 120.095 104.645C122.679 106.198 136.422 119.165 133 108.517C132.42 106.384 127.823 105.076 128.121 100.935C128.825 94.3766 137.35 93.0813 139.925 80.829C140.05 80.2585 140.026 78.8389 140.18 77.1092C141.179 71.8115 145.713 62.8014 157.372 65.6871C159.767 66.368 158.851 73.4957 164.986 71.8886C178.801 67.6642 208.424 65.0873 229.048 75.369C249.284 84.9415 256.388 94.9997 259.142 101.19C260.705 105.511 251.511 110.437 251.193 114.496C250.829 118.565 250.105 122.003 253.238 118.4C256.095 114.557 270.091 105.701 268.306 101.795C266.235 96.4172 248.36 81.0341 225.607 79.9048C225.418 80.9509 227.04 85.9339 230.382 86.4737C231.087 86.5896 229.737 80.8851 230.682 80.6357C233.939 79.8252 242.842 72.0346 253.414 81.967C261.681 90.0182 256.495 99.2651 261.934 101.977C264.563 103.261 262.043 84.2929 262.457 83.5639C266.358 76.2382 272.63 83.2795 277.755 79.4236C278.84 78.6212 275.903 71.4111 276.871 70.8064C280.2 68.6683 284.949 71.1641 288.661 69.8307C290.338 69.2147 288.97 63.4954 290.718 63.6469C294.891 63.9521 299.039 65.8265 303.816 70.7973C304.227 71.2537 302.662 78.7945 305.706 78.7091C308.253 78.635 311.292 79.8953 314.376 80.374C329.109 79.6747 337.351 83.0493 341.884 84.6591C347.182 86.7593 349.469 88.1334 351.906 89.5172C356.322 92.1378 358.555 93.8347 360.454 95.1005C364.253 97.7144 366.549 98.9368 369.224 99.6001C372.247 100.195 382.268 91.1923 378.69 100.935C377.87 102.917 365.295 112.981 378.63 107.042C380.816 105.979 400.026 99.6284 392.604 109.826C390.674 112.524 381.54 122.256 384.292 122.471C384.713 122.481 389.844 117.308 391.366 118.167C393.611 119.523 395.445 121.295 397.542 123.769C398.646 125.099 399.701 126.4 401.362 128.778C401.766 129.357 402.208 130.006 402.768 130.884C403.329 131.769 403.839 132.562 404.724 134.147C405.559 135.685 406.454 137.19 408.192 141.327C408.604 142.326 409.045 143.453 409.514 144.777C410.106 146.464 410.926 149 411.674 152.168C412.432 155.675 413.195 158.524 413.594 166.225C413.654 176.076 414.073 198.09 392.198 221.308C379.706 233.606 373.127 235.911 368.031 238.849C360.953 242.404 374.497 245.146 364.037 249.792C352.062 254.673 346.82 255.066 341.396 255.385C336.228 255.542 332.188 254.807 328.757 253.875C326.259 253.161 327.562 246.884 327.333 246.226C323.994 235.477 323.29 250.276 322.401 251.176C317.079 256.545 312.977 249.65 308.117 251.432C306.758 251.901 307.611 258.952 307.331 259.576C304.324 265.656 306.711 253.058 304.943 251.625C299.934 247.536 294.591 247.903 287.094 247.952C284.134 247.929 286.552 256.463 283.627 256.296C280.591 256.091 277.134 255.887 269.871 254.152C265.267 252.655 262.047 253.17 246.036 244.354C241.157 241.394 235.15 237.465 227.71 229.801C217.614 219.638 203.128 197.505 203.714 168.801C203.55 140.614 220.798 117.665 224.966 113.485C231.663 105.883 237.35 101.649 241.933 98.5129C247.752 94.7977 254.049 92.5158 260.573 92.1376C262.448 92.046 264.688 98.013 265.705 99.0827C272.705 106.631 268.793 93.124 268.864 91.595C269.026 84.698 272.86 88.948 274.937 86.6643C282.404 78.4185 292.54 74.4968 300.488 72.2674C299.877 72.9406 301.059 72.6865 302.389 72.3035C303.771 71.897 305.523 71.2706 307.388 70.5712C314.203 68.0209 322.522 65.0456 334.617 62.1257C346.738 60.3425 364.127 52.2219 399.913 65.1653C419.539 73.191 431.621 87.8054 437.423 97.4563C443.446 107.476 445.754 114.733 447.684 120.724C448.535 123.569 455.856 118.516 456.696 121.05C460.436 133.395 460.759 141.036 460.992 147.705C461.066 150.982 461 153.898 460.943 156.346C460.882 158.675 460.85 161.174 460.919 160.738C460.959 162.338 460.948 162.937 460.947 163.46C460.944 163.953 460.939 164.244 460.935 164.478C460.925 164.987 460.925 164.996 460.922 165.132C460.918 165.352 460.915 165.48 460.913 165.585C460.912 165.73 460.912 165.813 460.913 165.889C460.916 166.003 460.921 166.088 460.927 166.149C460.939 166.283 460.956 166.376 460.976 166.467C461.016 166.646 461.072 166.787 461.144 166.874C461.285 167.034 461.502 167.037 461.752 166.286C461.9 165.596 469.887 166.433 470.356 164.86C470.585 163.554 470.881 162.3 469.854 156.318C468.971 152.803 469.28 149.789 463.125 136.045C458.137 128.685 457.907 116.571 424.834 96.0604C408.923 86.6233 381.175 83.0165 364.233 87.4385C344.691 92.1125 337.875 97.4646 330.127 102.743C325.553 106.582 323.718 109.449 322.976 111.649C322.317 114.106 329.137 116.797 328.658 118.896C328.162 123.294 329.592 122.69 330.535 119.17C331.045 117.534 323.006 114.781 324.273 112.902C325.387 111.248 326.852 109.059 329.534 105.658C336.55 96.1107 344.783 86.5688 360.533 83.387C361.765 83.1342 374.293 93.8633 373.461 90.172C370.28 86.8842 366.403 83.1557 362.936 79.7109C372.413 67.1626 386.244 57.5727 401.237 48.4403C406.79 45.0983 413.921 40.6602 422.545 36.0153C423.901 35.2891 417.209 29.0361 419.948 27.5296C428.121 23.2298 437.302 17.7039 454.129 14.4136C469.256 11.1337 503.596 11.5136 528.399 35.5895C532.655 40.1389 521.754 49.9827 532.675 58.3543C533.078 58.6841 534.079 59.5954 535.386 60.885C544.868 71.3588 550.267 83.8449 553.525 86.0528C554.15 86.51 560.337 81.6086 561.883 87.0161C568.149 114.798 563.509 122.668 558.65 132.786C557.771 134.25 550.352 131.822 549.662 132.829C544.84 139.781 549.468 147.801 541.732 152.321C536.551 155.196 523.735 151.755 510.616 151.581C508.759 151.584 508.186 153.452 500.693 152.493C481.824 150.211 461.403 146.02 441.277 143.675C436.957 142.905 440.936 148.964 430.883 144.364C430.235 143.798 427.211 140.227 423.776 139.064C421.4 138.24 413.677 137.902 410.692 136.486C407.714 135.045 414.228 135.093 410.761 133.215C407.245 131.351 398.533 130.473 397.878 127.985ZM195.425 183.637C188.391 181.36 213.127 191.93 207.272 189.261C206.958 189.125 195.761 183.767 195.425 183.637ZM189.797 127.165C194.356 138.43 193.298 120.929 189.95 112.198C186.592 103.48 188.405 123.752 189.797 127.165ZM164.149 140.364C168.824 149.032 162.684 111.394 160.724 119.571C160.608 120.034 163.875 139.861 164.149 140.364ZM508.367 142.06C508.011 142.028 507.407 143.664 507.752 143.747C516.052 145.962 517.257 142.673 508.367 142.06ZM139.069 154.584C140.985 159.468 142.593 153.1 140.216 147.023C138.296 142.136 136.674 148.51 139.069 154.584ZM155.681 179.279C156.027 179.482 157.003 178.727 155.145 177.433C149.152 173.268 149.846 175.858 155.681 179.279ZM93.8567 164.377C100.889 164.285 111.498 194.225 103.627 192.305C102.193 191.961 104.264 181.881 102.006 179.469C97.846 175.085 100.146 194.834 94.7542 185.186C93.7574 183.421 93.4295 164.315 93.8591 164.331C93.8583 164.346 93.8575 164.362 93.8567 164.377ZM165.762 170.838C165.415 170.728 164.469 172.089 164.785 172.26C172.396 176.177 174.097 173.92 165.762 170.838ZM195.579 160.429C194.932 160.861 197.125 164.864 197.884 164.622C209.769 157.175 206.299 150.35 195.579 160.429ZM257.538 151.584C254.505 143.485 252.371 143.544 259.016 152.102C258.38 151.856 258.066 151.931 257.538 151.584Z" fill="#21565E" fill-opacity="0.09"/>
</svg>
