<svg width="417" height="177" viewBox="0 0 417 177" fill="none" xmlns="http://www.w3.org/2000/svg">
<path d="M361.382 175.772C359.934 176.705 358.478 175.184 357.45 173.246C357.125 172.644 357.801 170.373 357.602 169.854C357.213 168.84 356.422 169.857 356.021 168.651C355.893 168.24 356.949 164.647 356.803 164.301C355.987 162.426 354.663 163.107 352.957 161.793C351.988 161.044 351.038 160.406 348.461 158.916C347.883 158.565 346.863 158 345.746 157.284C345.153 156.908 344.269 156.344 343.33 155.659C342.839 155.302 342.374 154.949 341.736 154.433C340.998 153.838 340.181 153.133 339.275 152.243C338.365 151.344 337.392 150.297 336.298 148.87C334.878 147.015 333.307 144.581 332.014 141.293C329.059 135.898 329.444 121.247 333.914 115.099C337.179 109.35 341.793 106.043 343.261 105.097C345.231 103.802 346.821 103.051 348.149 102.494C356.758 101.345 360.725 102.244 364.208 102.846C365.622 103.154 367.562 106.249 368.031 104.632C368.082 104.441 367.347 101.244 367.307 100.976C366.647 96.8855 367.973 103.373 368.314 104.198C368.676 105.104 368.984 105.77 369.222 106.235C366.408 106.942 362.223 108.72 358.789 112.614C355.301 116.449 353.713 121.736 353.611 125.31C353.553 132.631 355.515 134.813 356.28 136.501C356.51 136.9 356.72 137.234 356.913 137.525C357.009 137.67 357.101 137.805 357.189 137.93C357.276 138.054 357.263 138.031 357.299 138.08C357.408 138.221 357.512 138.349 357.609 138.468C357.805 138.705 357.98 138.903 358.139 139.074C358.771 139.752 359.164 140.064 359.466 140.295C359.616 140.407 359.74 140.49 359.847 140.555C359.939 140.607 359.986 140.615 360.046 140.638C360.16 140.676 360.251 140.698 360.324 140.71C360.618 140.758 360.635 140.656 360.606 140.614C360.507 140.493 360.141 140.519 359.606 140.676C358.982 140.877 355.189 146.186 357.204 143.115C357.338 142.906 359.582 140.241 359.734 139.887C360.078 139.093 359.285 139.261 359.314 138.934C359.352 138.266 359.276 138.251 358.987 137.977C358.658 137.614 359.169 135.824 358.25 136.115C358.045 136.183 356.005 139.118 355.484 139.484C354.965 139.851 354.732 139.294 355.094 138.512C355.458 137.731 357.219 135.544 357.582 135.012C360.663 130.535 355.635 136.16 355.461 136.261C352.403 137.923 353.995 133.764 352.877 132.946C352.041 132.345 350.291 132.808 349.616 132.067C348.802 131.16 349.151 129.014 348.02 128.595C347.904 128.548 345.532 132.014 345.385 131.964C343.826 131.423 342.838 130.133 343.234 126.913C343.276 126.588 345.613 123.731 345.785 123.227C346.793 120.213 349.82 113.417 339.922 126.061C339.753 125.164 339.513 124.19 340.921 121.216C341.834 119.307 344.487 116.271 343.104 117.385C342.795 117.633 340.845 120.561 340.538 120.718C339.258 121.38 339.328 120.021 337.741 121.117C337.414 121.347 335.601 123.924 335.239 124.363C332.307 127.913 336.313 121.438 336.54 120.922C338.234 117.071 336.77 118.013 336.171 117.462C336.035 117.334 333.751 120.903 333.533 120.904C332.419 120.854 331.856 120.006 332.206 117.953C332.295 117.492 334.522 114.652 334.671 114.281C335.31 112.686 331.272 118.17 331.804 116.745C331.91 116.451 333.723 113.953 333.905 113.667C336.767 109.176 332.285 115.24 332.129 115.334C330.193 116.756 334.277 110.01 333.126 110.579C333.002 110.666 330.923 113.973 330.73 114.034C330.659 114.072 330.575 114.092 330.616 114.18C330.636 114.224 330.682 114.281 330.787 114.369C330.917 114.458 331.1 114.584 331.593 114.851C331.852 114.988 332.179 115.162 332.822 115.433C333.541 115.687 334.232 116.143 337.114 116.558C337.57 116.638 338.171 116.714 339.034 116.714C339.466 116.713 339.965 116.692 340.553 116.626C340.699 116.61 340.852 116.591 341.01 116.568C341.178 116.543 341.29 116.528 341.621 116.466C342.194 116.358 342.836 116.204 343.552 115.972C346.34 115.047 350.81 112.801 353.41 106.915C354.546 104.249 354.779 101.667 354.671 99.7628C354.645 99.2821 354.598 98.8301 354.541 98.4211C354.501 98.1463 354.456 97.8857 354.408 97.6381C354.31 97.143 354.199 96.7004 354.082 96.3018C353.609 94.7184 353.088 93.7727 352.714 93.1486C352.428 92.6992 352.179 92.387 351.965 92.1536C351.753 91.9234 351.565 91.7607 351.423 91.674C351.294 91.6039 351.178 91.5661 351.074 91.5529C350.286 91.526 349.976 92.6395 349.414 93.9613C349.231 94.449 347.123 96.4927 346.882 96.7625C343.188 101.045 348.458 95.6054 348.692 95.4339C350.475 94.2849 346.703 99.4228 352.961 92.9163C352.853 96.9697 358.373 94.9344 355.54 103.049C355.51 103.145 353.101 105.992 353.052 106.171C352.431 108.367 355.958 103.765 360.906 98.656C362.15 97.374 357.099 104.296 356.733 104.807C355.387 106.692 351.758 110.89 351.513 111.268C349.607 114.249 361.161 100.001 361.606 100.357C361.6 100.392 359.404 102.958 359.228 103.248C358.674 104.157 359.638 103.211 359.013 104.202C357.564 106.492 351.994 113.452 355.671 109.759C356.148 109.279 362.681 101.18 362.77 101.89C362.799 102.179 363.615 102.623 363.379 103.304C363.149 103.989 360.866 106.451 360.787 106.575C358.479 110.423 357.1 111.666 353.141 116.913C349.187 122.132 359.143 110.124 360.37 108.881C361.593 107.641 359.621 110.763 358.893 111.814C358.164 112.864 356.67 114.391 356.287 115.01C353.777 119.05 361.542 109.316 363.334 107.59C367.586 103.513 360.414 112.603 360.042 113.783C359.945 114.105 361.594 112.046 361.851 111.944C362.846 111.565 360.688 114.475 363.334 112.404C363.76 112.062 368.812 107.255 365.624 111.26C365.158 111.831 363.105 113.858 362.833 114.487C362.433 115.438 362.385 116.261 363.352 115.861C364.057 115.555 367.155 111.939 366.393 113.261C366.045 113.845 363.869 115.598 363.364 116.516C362.831 117.403 363.472 117.9 363.734 118.056C364 118.21 366.612 115.725 366.808 115.58C367.954 114.769 369.946 114.459 370.014 114.565C370.301 114.868 370.717 115.464 371.076 116.206C371.343 116.843 372.06 118.125 372.36 120.612C372.519 121.766 372.587 124.855 371.059 127.511C369.548 130.249 367.174 131.718 365.413 132.325C364.967 132.482 364.55 132.594 364.163 132.676C363.847 132.736 363.657 132.753 363.422 132.775C362.973 132.814 362.573 132.815 362.211 132.795C361.487 132.754 360.914 132.633 360.421 132.492C359.92 132.282 359.392 132.043 358.803 131.746C358.334 131.465 357.285 131.081 356.038 130.227C355.167 129.715 352.256 127.126 351.935 124.078C351.521 121.337 352.579 119.365 352.96 118.812C354.066 117.16 354.614 116.968 355.14 116.378C355.551 115.966 355.888 115.493 356.023 114.968C356.097 114.7 353.491 111.933 353.476 111.862C353.136 110.059 359.16 118.197 361.645 120.527C356.699 114.612 357.825 115.491 357.66 114.547C357.586 114.081 355.66 111.797 355.489 111.543C353.028 107.714 356.8 112.206 357.557 113.136C360.359 116.544 357.434 112.23 359.294 114.519C361.123 116.805 363.448 120.473 363.707 120.217C362.182 117.914 357.696 112.257 357.282 111.114C355.777 106.742 360.811 110.182 361.827 110.222C362.892 110.226 362.837 109.656 363.808 110.215C365.547 111.238 362.365 106.924 361.515 104.558C360.668 102.191 367.554 113.416 369.152 115.753C370.748 118.091 369.246 115.595 370.167 116.851C371.089 118.107 371.953 119.839 372.459 120.208C372.964 120.578 370.77 116.005 369.24 113.47C365.997 108.101 362.208 102.714 363.962 104.336C364.065 104.433 365.841 107.406 366.141 107.629C368.465 109.305 369.456 108.863 371.618 110.265C371.919 110.462 373.921 113.754 374.121 113.905C376.216 115.476 372.381 110.225 368.781 103.957C374.001 112.015 377.477 116.759 378.092 116.414C378.457 116.213 376.053 112.777 374.605 110.187C374.167 109.408 376.028 111.623 374.954 109.968C371.43 104.569 367.144 98.7604 369.248 100.797C369.347 100.894 371.299 103.834 371.497 103.957C372.812 104.742 368.957 99.2109 368.885 98.2511C368.814 97.5095 371.811 100.387 372.488 100.683C379.498 108.897 378.487 106.478 373.261 101.17C373.518 101.365 373.056 101.125 373.372 102.578C373.476 103.114 376.376 104.327 376.645 104.538C378.922 105.916 378.57 105.475 377.343 105.441C376.137 105.337 374.188 105.757 374.062 106.208C373.64 107.355 374.144 109.492 375.103 110.614C375.98 111.71 376.633 112.016 377.21 112.24C377.35 112.289 377.479 112.324 377.597 112.348C377.71 112.369 377.769 112.367 377.847 112.368C377.995 112.367 378.121 112.345 378.228 112.314C378.442 112.251 378.576 112.152 378.651 112.086C379.891 112.192 380.358 112.034 380.725 111.965C381.062 111.886 381.29 111.803 381.347 111.778C381.494 111.718 381.572 111.685 381.627 111.677C381.735 111.659 381.738 111.742 381.788 111.898C381.856 112.224 382.045 112.863 382.447 114.014C382.503 114.202 385.885 120.892 383.251 116.091C383.06 115.765 381.737 112.609 381.289 112.543C380.876 112.458 378.229 109.318 379.405 112.638C379.678 113.443 382.345 118.924 379.779 114.91C379.43 114.366 378.415 112.47 377.78 111.454C375.751 108.221 379.378 114.875 376.03 109.372C372.682 103.87 369.85 99.9337 371.515 104.1C371.561 104.222 374.43 109.501 374.213 109.517C373.872 109.533 372.86 108.674 372.597 108.873C372.474 108.969 374.443 112.138 374.454 112.211C374.627 114.532 372.314 112.038 370.609 111.38C370.288 111.255 372.433 115.902 370.006 112.673C367.337 109.146 358.179 93.2815 359.532 97.5715C360.043 99.3063 371.912 119.28 364.901 109.472C365.31 112.742 360.771 108.338 361.919 112.732C361.965 112.931 365.566 118.324 365.41 118.329C365.169 118.325 363.293 115.944 363.048 115.878C362.773 115.799 362.64 115.891 362.597 116.063C362.539 116.248 362.562 116.523 362.64 116.777C362.697 117.048 362.795 117.328 362.976 117.38C363.027 117.383 363.082 117.377 363.16 117.302C363.251 117.179 363.466 116.928 363.443 116.265C363.448 115.982 363.219 115.344 362.88 115.041C362.545 114.71 362.207 114.595 362.011 114.546C361.79 114.495 361.663 114.51 361.585 114.535C361.519 114.557 361.502 114.639 361.506 114.761C361.747 115.485 361.985 117.809 362.248 117.931C362.549 118.072 362.289 113.95 362.915 115.894C363.373 117.379 364.253 125.771 364.443 126.747C364.04 118.44 364.258 118.593 364.699 116.399C364.791 115.974 364.724 113.077 364.777 112.727C365.103 111.24 365.219 113.645 365.628 112.05C365.745 111.669 366.029 108.843 366.182 108.377C367.317 104.169 369.623 111.423 369.202 113.053C368.997 115.707 368.684 116.474 368.878 117.126C369.022 117.703 369.322 118.313 368.441 118.253C366.77 117.891 365.061 116.646 364.104 116.306C363.161 115.866 362.665 115.853 362.211 116.33C361.808 116.793 361.244 117.814 361.384 119.634C361.485 120.356 362.454 120.156 363.345 119.841C364.245 119.522 365.168 119.225 365.214 119.236C365.487 119.307 365.454 119.389 365.452 119.586C365.429 119.755 365.453 120.011 365.57 120.056C365.818 120.162 366.505 119.493 367.892 115.979C361.361 134.381 368.685 114.26 367.684 118.002C367.622 118.311 365.954 127.4 365.239 128.633C364.5 129.852 364.605 126.918 363.09 128.601C362.89 128.789 361.673 130.779 360.098 132.569C358.646 134.431 356.376 135.788 356.011 135.86C353.09 136.516 352.494 132.687 354.205 130.006C355.772 127.217 358.539 124.793 358.781 124.492C361.34 121.043 360.893 120.72 359.371 119.373C357.888 118.15 355.799 116.297 355.628 115.749C354.893 113.186 355.336 112.152 355.459 111.627C355.531 111.368 355.561 111.233 355.406 111.177C355.251 111.129 354.909 111.14 354.173 111.439C353.204 111.898 350.274 112.049 347.53 113.74C345.013 115.173 341.581 119.288 345.171 127.039C348.561 133.427 352.929 135.516 355.026 136.287C357.286 137.067 359.031 137.036 359.891 136.699C361.947 136.088 362.734 134.804 363.325 133.93C364.461 132.136 364.408 131.687 364.753 137.159C364.831 139.49 365.25 149.365 365.186 141.59C365.231 141.097 364.698 134.008 364.947 138.499C364.984 139.064 365.225 141.934 365.238 142.176C365.321 143.739 365.04 141.461 365.021 142.568C365.012 143.163 365.007 143.914 364.95 144.336C363.801 144.553 362.355 144.759 360.16 144.71C359.058 144.679 357.76 144.58 356.167 144.291C355.354 144.125 350.852 143.405 345.888 140.14C340.864 137.077 335.345 129.996 333.901 123.007C332.584 117.185 333.217 113.013 333.957 109.854C334.744 106.72 335.744 104.683 336.597 103.138C336.809 102.76 337.036 102.379 337.216 102.095C337.336 101.911 337.455 101.737 337.571 101.571C337.805 101.238 338.031 100.937 338.25 100.662C339.395 99.23 340.592 98.5171 341.707 98.1828C342.792 97.8914 343.586 98.1916 344.47 98.4264C346.17 98.9733 347.678 99.8781 348.22 100.275C351.475 102.455 348.118 97.2256 351.229 100.612C354.257 104.095 358.105 109.951 360.351 111.987C355.914 105.963 351.403 99.7486 346.993 93.6521C348.793 92.6661 351.17 94.0074 352.08 93.016C352.186 92.889 349.858 89.6055 349.919 89.38C350.208 88.4313 352.255 90.5272 352.245 89.1837C352.229 88.1308 350.487 84.1985 350.418 82.98C355.217 90.0778 354.383 87.1797 355.301 87.5379C355.619 87.6613 356.792 89.6239 357.303 90.1867C359.198 92.2649 355.069 85.9207 354.585 84.8219C352.538 80.1237 361.393 94.7802 361.804 94.0425C361.826 94.0101 357.588 85.9112 357.361 85.3851C355.85 81.9729 359.039 88.0842 359.615 88.5273C360.671 89.3354 362.046 91.0557 361.206 88.4512C360.952 87.6825 358.449 82.5572 360.946 86.1972C361.272 86.6742 362.758 89.2999 362.877 89.4355C364.892 91.6737 360.173 83.4524 358.923 80.4688C357.677 77.4842 361.409 82.8922 362.443 84.4747C365.109 88.5732 363.255 86.4106 363.477 86.8352C366.113 91.8906 365.99 90.8326 366.502 91.0979C371.088 99.183 371.169 98.499 367.009 91.3433C366.554 90.5624 366.765 91.4375 366.502 91.0979C362.27 83.0152 362.22 81.7059 366.805 88.9116C368.951 92.2908 370.974 96.4904 370.839 94.6271C370.789 93.7811 367.658 88.1976 367.168 86.4827C366.603 84.5302 367.326 84.7123 368.363 85.179C368.9 85.4046 369.455 85.7267 370.203 85.7927C370.382 85.813 370.565 85.8213 370.756 85.8125C370.934 85.8084 371.271 85.7249 371.586 85.639C371.915 85.5476 372.289 85.4246 372.776 85.2569C372.837 85.2359 372.9 85.2142 372.965 85.1918C373.034 85.1681 373.076 85.1525 373.233 85.1023C373.5 85.0166 373.803 84.9236 374.163 84.8237C374.893 84.6276 375.806 84.3832 377.375 84.1943C378.587 84.0563 380.095 83.9671 381.95 84.1346C383.153 83.6006 382.205 80.3674 383.402 80.2024C384.296 80.098 385.244 80.2653 386.257 80.6196C387.35 81.0134 388.051 81.3765 390.067 82.4149C391.846 83.3853 393.906 84.6779 396.186 86.6144C398.395 88.3888 402.216 92.6033 404.173 97.2985C404.873 99.1528 406.999 93.0653 408.935 100.032C410.267 106.232 409.368 111.337 408.285 114.811C407.377 117.638 406.405 119.408 405.465 120.915C404.465 122.484 403.795 123.222 403.13 123.931C402.466 124.625 401.841 125.177 401.254 125.648C399.152 127.215 397.623 127.744 396.629 128.576C395.623 129.416 395.531 132.049 394.614 132.224C392.937 132.627 388.72 129.06 388.679 130.657C388.627 131.695 390.801 134.652 391.977 136.874C394.243 141.19 388.674 134.471 387.856 133.4C387.826 133.367 387.769 132.367 386.505 130.947C384.209 127.762 387.853 133.382 387.856 133.4C387.314 132.719 386.052 132.552 386.277 133.241C386.4 133.619 388.348 136.498 388.375 136.64C389 139.946 388.435 141.358 386.577 140.62C386.521 140.572 384.448 137.283 384.344 137.211C382.844 136.12 385.061 140.348 386.146 143.007C387.234 145.663 386.403 145.075 382.521 139.638C382.659 140.55 380.622 138.356 379.382 137.029C378.146 135.7 382.286 142.034 382.349 142.172C384.379 146.57 381.667 143.175 380.783 142.968C380.365 142.851 380.655 143.997 381.156 144.658C381.556 145.191 380.474 143.789 381.332 144.552C381.451 144.65 383.566 147.273 383.656 147.367C386.529 150.221 381.1 144.022 380.195 142.862C376.952 138.586 374.889 136.646 377.364 137.732C377.729 138.179 387.683 145.01 389.853 143.212C391.251 142.018 391.155 140.508 390.841 139.392C390.573 138.091 390.306 137.319 392.257 133.591C392.405 133.288 393.155 133.226 394.098 132.357C394.985 131.386 396.47 129.728 396.751 123.597C397.367 116.131 393.253 103.436 386.204 96.9625C384.634 95.3577 382.536 93.6919 381.502 92.9917C380.325 92.1689 379.183 91.4777 378.098 90.8919C375.925 89.721 373.987 88.9651 372.307 88.4308C368.576 87.3008 367.53 87.3639 366.003 87.2083C364.612 87.116 363.529 87.1481 362.647 87.2108C361.287 87.2345 359.596 87.2963 357.336 87.6103C354.817 88.1062 353.251 87.8844 346.448 90.8645C340.463 93.629 332.701 99.9319 328.922 109.64C325.225 118.742 326.692 127.455 327.189 129.71C328.143 133.617 322.742 129.839 324.294 135.265C326.476 141.37 327.291 142.105 328.288 143.825C328.519 144.182 328.737 144.499 328.942 144.782C329.128 145.037 329.262 145.209 329.413 145.393C329.708 145.751 329.98 146.036 330.236 146.263C330.491 146.488 330.735 146.661 330.959 146.774C331.161 146.861 331.361 146.91 331.563 146.924C331.965 146.951 332.374 146.836 332.813 146.59C333.238 146.321 335.28 144.243 335.913 143.654C339.695 140.038 334.297 145.39 334.216 145.514C331.706 148.163 335.754 142.535 332.792 144.307C332.609 144.402 326.984 150.315 331.355 144.857C331.649 144.496 336.108 138.9 332.791 142.499C332.584 142.724 330.313 145.625 330.369 145.181C330.424 144.738 328.551 146.375 330.87 143.042C331.604 141.995 335.947 136.327 332.049 140.482C331.774 140.77 323.172 150.341 328.67 143.376C329.576 142.23 335.577 135.011 332.177 138.446C331.52 139.114 330.304 140.825 329.307 141.698C327.773 143.045 329.022 140.818 326.045 143.786C325.518 144.311 321.244 149.047 324.109 145.143C324.558 144.531 326.6 142.152 326.718 141.795C327.286 140.087 325.427 141.276 326.271 139.166C326.566 138.424 329.864 134.575 330.527 133.363C331.19 132.153 331.619 130.818 329.946 132.441C328.272 134.064 323.393 140.506 322.668 140.749C319.509 141.791 321.083 136.956 319.962 135.105C319.797 134.831 318.127 137.203 317.745 136.951C316.352 136.058 311.93 135.82 314.198 129.444C316.19 124.495 320.651 123.651 320.984 121.155C321.164 119.985 313.606 125.642 313.138 125.562C310.852 125.219 310.139 124.111 308.363 120.514C308.16 120.081 307.951 119.617 307.732 119.114C307.623 118.863 307.511 118.601 307.397 118.329C307.34 118.193 307.282 118.054 307.223 117.912C307.133 117.712 307.039 117.5 306.945 117.284C306.197 115.545 305.316 113.393 304.493 110.209C304.289 109.411 304.094 108.545 303.918 107.598C303.83 107.124 303.748 106.629 303.672 106.113C303.635 105.854 303.599 105.591 303.565 105.321C303.516 104.937 303.467 104.501 303.426 104.07C303.107 100.622 303.165 96.1608 304.573 91.0721C305.872 86.0827 309.107 80.2754 312.619 76.5565C315.981 72.8627 319.84 70.2339 323.248 68.5313C328.741 65.9869 328.178 65.508 327.826 64.4705C327.338 63.6046 326.96 62.4945 331.027 61.5323C337.774 60.0939 340.882 60.6763 343.657 61.116C351.737 62.345 353.027 63.5594 354.819 64.2063C356.34 64.9007 357.09 65.3325 357.703 65.6827C358.845 66.3505 359.452 66.7898 359.514 66.8801C359.888 67.2185 360.129 67.4842 360.339 67.7131C360.535 67.9334 360.756 68.1543 360.854 68.2574C360.96 68.3658 361.075 68.4421 361.211 68.4752C361.605 68.5605 363.171 66.1112 363.327 66.4877C363.576 67.2648 363.365 68.6048 362.17 71.0914C362.063 71.3196 359.76 74.1217 359.979 74.4379C360.373 74.9645 359.36 77.5371 361.505 75.6538C362.152 75.0893 365.98 69.6603 363.653 73.6336C363.168 74.4643 358.468 80.9088 362.832 75.5546C363.557 74.6651 369.591 67.5488 366.413 72.6423C365.58 73.9846 361.997 79.4458 362.773 78.7397C362.893 78.6242 364.866 75.6491 365.219 75.4737C366.426 74.904 366.717 75.5803 367.919 75.0673C368.236 74.919 370.182 71.7711 370.584 71.6443C371.686 71.2861 371.895 72.5948 371.758 73.9208C371.711 74.4201 369.78 76.7988 369.601 77.0796C366.674 81.6434 371.091 75.8201 371.422 75.5331C373.425 73.8325 371.78 76.8787 372.771 76.4744C373.039 76.3703 374.991 73.4829 375.199 73.2494C377.241 70.9802 373.377 75.9075 373.138 76.5862C372.465 78.5098 373.129 78.6448 373.859 78.6247C374.129 78.6128 376.31 75.2035 376.526 75.2308C377.852 75.3333 378.567 76.3325 378.139 78.7771C378.054 79.2432 376.116 81.6796 375.732 82.2788C373.039 86.4676 377.387 81.2471 377.85 80.7852C379.958 78.6731 378.477 80.9983 379.103 80.8204C382.195 79.9146 383.082 82.8279 383.909 84.8392C384.996 87.4453 384.753 90.9522 387.101 91.754C387.248 91.8082 389.613 88.4087 389.772 88.4132C391.722 88.6316 392.078 90.9281 394.255 91.0952C394.429 91.1148 396.651 87.8741 397.013 87.8024C397.754 87.6202 398.175 88.2161 397.825 89.5332C397.658 90.1688 395.311 92.6068 395.182 93.1899C394.859 94.5397 395.271 95.2207 396.217 95.1751C396.661 95.1789 398.766 91.721 399.156 91.977C399.734 92.3377 400.306 92.6764 401.173 93.349C401.276 93.4294 401.382 93.5131 401.491 93.6012C401.602 93.6907 401.702 93.7722 401.879 93.9245C402.203 94.2026 402.559 94.5182 402.984 94.9179C403.457 95.3743 403.703 95.5693 405.153 97.1067C405.823 97.8349 406.642 98.73 407.876 100.332C408.186 100.736 408.524 101.191 408.898 101.72C408.991 101.853 409.087 101.99 409.185 102.132C409.234 102.203 409.283 102.276 409.333 102.349C409.346 102.368 409.359 102.386 409.371 102.405C409.398 102.444 409.45 102.521 409.49 102.58C409.574 102.706 409.66 102.835 409.748 102.968C410.451 104.041 411.271 105.363 412.227 107.254C413.787 111.132 417.885 116.826 416.382 132.186C415.505 139.663 411.329 149.58 404.48 156.278C397.709 163.107 390.082 166.212 384.727 167.553C382.199 167.914 380.18 167.244 378.191 164.573C377.953 164.255 376.302 156.268 376.267 157.865C376.657 160.095 377.145 162.712 377.576 165.092C374.621 166.929 372.49 164.572 373.501 163.838C373.559 163.801 374.753 167.956 374.9 167.896C375.349 167.714 376.165 167.744 377.105 167.027C378.412 166.42 379.947 165.637 381.792 164.471C382.713 163.886 383.712 163.202 384.791 162.373C386.052 161.413 387.959 159.806 389.735 157.903C393.23 153.943 397.795 148.725 400.104 137.238C401.074 131.996 400.838 126.225 399.842 121.73C398.946 117.537 397.486 113.981 395.953 111.13C394.465 108.333 392.627 105.86 391.485 104.514C390.374 103.189 389.325 102.112 388.358 101.202C386.481 99.4293 384.596 98.0692 383.715 97.5034C381.606 96.1178 379.905 95.3271 378.994 94.9882C374.94 93.5185 374.152 94.2246 373.073 94.9323C372.717 95.259 370.437 102.509 370.507 101.331C370.482 101.104 370.586 100.083 371.009 98.4881C371.067 98.246 371.964 94.8131 371.959 94.7051C371.975 94.1571 372.43 95.0921 372.704 97.3497C372.751 97.7218 371.919 101.409 371.95 101.707C372.205 103.798 373.449 101.101 373.525 104.591C373.583 106.941 372.376 113.361 371.611 119.75C371.513 120.653 371.782 120.84 371.225 124.538C369.864 133.845 368.111 143.996 366.672 153.918C366.517 154.986 366.699 154.972 366.845 155.338C366.933 155.523 367.194 155.828 367.241 156.387C367.266 156.945 366.674 157.708 366.299 158.97C366.146 159.302 365.334 160.929 364.964 162.662C364.687 163.858 364.255 167.641 363.826 169.159C363.414 170.678 363.715 167.497 363.17 169.273C362.599 171.068 362.016 175.358 361.382 175.772ZM373.846 131.102C371.582 128.245 379.025 139.28 377.46 136.494C377.376 136.346 373.957 131.242 373.846 131.102ZM356.728 102.372C360.368 107 355.902 99.6067 353.106 96.0195C350.286 92.4541 355.61 100.978 356.728 102.372ZM362.874 126.142C362.842 125.991 362.813 125.866 362.788 125.765C362.174 125.455 361.542 125.439 360.647 125.535C360.182 125.576 359.745 125.666 359.033 125.684C357.918 125.59 356.422 125.245 354.89 124.338C351.638 122.602 349.866 118.397 349.111 117.271C348.208 115.665 347.501 114.737 346.638 114.439C345.801 114.171 344.789 114.473 343.95 116.231C343.55 117.13 343.191 118.383 343.236 120.305C343.361 122.626 344.233 125.869 346.317 128.833C348.36 131.817 351.434 134.114 354.073 135.313C354.737 135.623 355.378 135.879 355.991 136.091C356.142 136.143 356.301 136.196 356.439 136.24C356.515 136.269 356.59 136.297 356.666 136.325C356.816 136.379 356.966 136.431 357.115 136.48C357.711 136.675 358.29 136.823 358.843 136.929C361.067 137.35 362.806 137.127 364.043 136.543C364.043 136.531 364.042 136.519 364.042 136.506C364.035 136.29 362.929 126.406 362.874 126.142ZM370.052 121.346C370.022 121.521 370.234 121.732 370.266 121.559C371.095 117.413 370.7 116.999 370.052 121.346ZM363.508 120.868C364.529 119.982 364.649 120.096 364.589 120.926C364.51 121.746 364.424 123.287 363.861 124.793C363.371 125.989 362.773 125.776 362.153 124.594C361.59 123.409 362.135 121.865 363.508 120.868ZM355.778 118.684C355.905 118.532 355.884 118.277 355.151 119.125C352.79 121.857 353.642 121.248 355.778 118.684ZM368.955 125.305C367.448 124.465 369.415 108.968 369.688 110.775C369.805 111.106 368.881 115.689 368.916 117.106C369.185 119.706 370.081 109.956 370.184 115.215C370.253 116.182 369.065 125.39 368.951 125.327C368.952 125.319 368.954 125.312 368.955 125.305ZM364.759 117.947C364.655 117.805 364.351 117.81 364.445 117.957C366.713 121.524 367.307 121.531 364.759 117.947ZM352.71 105.437C352.937 105.138 352.697 104.49 352.464 104.746C347.852 109.9 348.327 111.23 352.71 105.437ZM372.68 100.897C370.004 97.5888 369.505 97.3662 373.257 101.166C373.037 100.984 372.948 101.011 372.68 100.897ZM87.7939 95.0957C85.5018 96.0762 82.6593 94.6248 80.4957 92.7687C79.8188 92.1926 80.3439 89.8646 79.8815 89.3609C78.9749 88.3789 77.9883 89.4713 77.0942 88.316C76.7982 87.9216 77.4491 84.2205 77.1323 83.8923C75.393 82.1204 73.5653 82.9537 71.7136 82.0356C62.5869 77.505 53.1403 75.4836 43.2712 72.7893C40.0041 71.9039 36.3673 68.0845 32.7353 69.1064C32.3089 69.2289 32.1257 72.5123 32.0137 72.7704C30.2514 76.7125 31.523 70.2017 30.8545 69.2241C28.1905 65.3594 24.8265 64.5412 21.5849 65.2663C20.2034 65.5829 20.3795 72.2266 19.6969 68.394C19.6499 68.1347 20.5855 64.7636 20.2975 64.3352C19.646 63.372 18.0216 63.704 17.451 63.3127C16.7433 62.8141 16.4109 62.6357 15.9579 62.5006C15.7298 62.4518 15.5979 62.4349 14.8581 62.2519C14.6531 62.1991 14.4033 62.1363 13.928 61.9913C13.3808 61.7913 12.9452 61.7845 10.6742 60.6484C9.48131 59.7324 7.56658 59.9078 3.26333 53.6057C1.1842 50.5648 -0.718155 42.9355 2.05968 36.8047C4.70073 30.7597 8.53139 28.5801 10.5651 27.4165C14.8447 25.3227 16.0671 25.5633 17.1801 25.3278C18.2011 25.2088 18.7298 25.2034 19.1559 25.1935C19.9715 25.1848 20.3097 25.2115 20.5993 25.2267C20.8756 25.2439 21.0493 25.2592 21.1926 25.2723C21.4723 25.2984 21.6259 25.3168 21.7615 25.3329C22.013 25.3632 22.2362 25.3944 22.1794 25.3873C22.2113 25.394 22.2431 25.4005 22.2752 25.4069C22.3395 25.4196 22.4051 25.432 22.4752 25.4447C22.6154 25.4702 22.7725 25.4972 22.9731 25.5334C23.3459 25.6088 23.873 25.8131 24.3417 26.0478C24.6274 26.2548 24.9429 26.5048 25.2955 26.7332C25.9811 27.1869 26.9175 27.5698 27.8189 27.3104C28.1309 27.1778 28.2983 23.5909 28.8512 23.0619C29.3933 22.5321 30.6756 23.0382 31.0383 23.9466C31.3894 24.8536 30.7529 27.5944 30.739 28.2432C30.611 33.7178 33.5247 26.5632 33.658 26.3959C35.6232 25.1001 37.3463 25.6525 39.1063 26.6103C40.67 27.5373 42.0474 28.8346 43.8539 29.1123C46.736 29.5466 49.5194 28.5527 52.0799 29.1514C55.1879 29.8876 57.3262 32.1819 60.2897 32.3105C60.6036 32.3284 60.8922 28.1246 61.2773 28.1381C65.5014 28.3068 69.2273 29.3543 72.8404 32.7885C73.202 33.1366 72.1081 36.6958 72.4356 37.2613C74.5331 40.6556 77.1561 48.4305 81.0903 32.8037C82.638 33.6799 84.5687 34.6367 85.5866 38.0694C86.2441 40.2791 84.6728 44.0975 86.1428 42.5929C86.4742 42.2583 86.6617 38.7288 87.1179 38.4897C88.9799 37.4774 90.5731 38.8826 92.5046 37.3449C92.8975 37.0237 93.2911 33.8964 93.4733 33.3505C94.977 28.9346 95.1463 36.6479 95.3549 37.2389C96.9331 41.6498 98.9114 40.3183 100.901 40.7292C101.368 40.8271 101.461 36.5588 101.934 36.5028C104.377 36.2685 106.786 37.0104 108.855 39.2313C109.314 39.7354 108.28 43.2231 108.471 43.6462C109.321 45.4689 110.61 38.7785 111.451 40.3974C111.63 40.7301 111.031 43.7602 111.02 44.1016C110.849 49.4589 112.564 42.0958 112.754 41.9567C115.128 40.0228 115.23 48.0021 117.383 47.207C117.642 47.104 117.702 43.1623 118.394 43.1088C123.013 42.7313 127.612 44.5248 131.512 48.2836C132.125 48.8636 131.19 51.6879 131.179 52.0519C131.024 57.7445 132.629 50.3317 132.896 50.0843C134.974 48.3268 135.671 54.8564 138.245 46.1285C145.22 50.3623 153.466 46.4966 159.645 55.6022C159.725 55.709 158.998 59.3698 159.161 59.567C161.113 61.9798 161.546 56.1845 164.104 49.4037C164.747 47.7011 164.618 56.3351 164.627 56.9706C164.652 59.3119 163.44 64.7386 163.497 65.1999C164.001 68.8305 166.57 50.6667 167.956 50.8695C167.994 50.9063 167.309 54.2176 167.375 54.5671C167.579 55.6637 168.137 54.391 168.317 55.5935C168.725 58.3746 167.687 67.2323 169.694 62.2884C169.951 61.6461 171.26 51.3206 172.422 51.9924C172.885 52.269 175.091 52.42 175.601 53.1784C176.111 53.9359 175.195 57.1891 175.217 57.3393C176.203 61.9707 175.308 63.6946 175.159 70.31C175.014 76.901 177.096 61.441 177.689 59.7695C178.282 58.1029 178.945 61.9011 179.052 63.2031C179.16 64.5056 178.476 66.5577 178.633 67.3091C179.682 72.2221 180.54 59.766 181.483 57.4038C183.711 51.8096 183.063 63.4084 184.142 64.7151C184.434 65.0681 184.548 62.4214 184.884 62.2223C186.21 61.4685 186.393 65.1448 188.228 62.0716C188.528 61.571 190.637 54.8534 190.592 60.0062C190.584 60.749 189.877 63.5584 190.287 64.2718C190.898 65.3421 192.161 66.166 193.108 65.3322C193.808 64.7151 193.821 59.9155 194.354 61.4859C194.591 62.1869 193.567 64.8444 194.046 65.9321C194.522 67.0191 196.16 67.1375 196.785 67.1327C197.411 67.1259 197.602 63.5121 197.687 63.2792C198.189 61.9478 199.613 60.4016 199.716 60.421C204.998 60.7538 208.853 67.4551 214.265 66.2089C214.685 66.1157 214.965 62.3172 215.035 62.2642C216.624 60.8861 214.102 70.7278 214.569 74.2118C215.536 66.5614 215.898 68.0245 216.974 67.3257C217.493 66.9827 217.67 63.9918 217.755 63.6954C219.085 59.306 218.721 65.1709 218.672 66.3744C218.493 70.8015 219.725 65.7178 219.611 68.6776C219.499 71.6156 218.178 75.8047 219.096 75.8808C219.744 73.1857 220.098 65.9499 220.954 64.8921C224.184 60.8906 228.397 67.2092 230.397 68.0866C232.414 68.9663 233.155 68.5566 234.226 69.7153C236.19 71.8137 236.145 66.4032 237.881 64.174C239.626 61.946 237.112 74.8885 236.921 77.7198C236.726 80.5493 237.347 77.6956 237.377 79.2703C237.407 80.8446 236.608 82.6759 237.104 83.335C237.603 83.9939 239.868 79.2285 240.478 76.3253C241.771 70.175 241.981 63.5602 243.164 66.0595C243.231 66.2074 242.474 69.5974 242.756 69.9899C245.011 72.9947 247.66 73.5276 250.065 76.2361C250.388 76.613 249.537 80.3838 249.719 80.6463C251.611 83.3912 251.694 76.8482 253.873 69.8643C252.307 79.3399 252.189 85.2518 253.839 85.5323C254.827 85.7037 255.217 81.5253 256.249 78.6825C256.559 77.8255 256.869 80.7722 257.257 78.8347C258.536 72.5028 258.812 65.2598 260.149 68.3378C260.209 68.4836 259.493 71.9474 259.734 72.1953C261.287 73.8139 262.385 67.1586 264.329 66.5924C265.853 66.1479 267.827 70.5533 269.309 71.4193C267.888 82.119 269.685 79.8595 271.315 72.5657C272.37 73.0086 273.587 72.7397 274.484 73.8901C274.793 74.2827 274.169 77.3536 274.171 77.6942C274.191 83.0359 275.554 75.9101 275.815 75.6568C278.615 73.2275 279.789 78.9018 282.944 73.881C283.053 73.6996 284.088 66.2728 284.071 71.7843C284.068 72.164 282.874 75.4565 283.964 75.8528C285.053 76.2495 286.65 80.4845 288.496 77.1989C288.907 76.4043 290.606 70.4723 290.857 75.2855C290.89 75.939 290.536 78.063 290.554 79.2692C290.622 83.1133 291.723 75.6109 291.58 82.0722C291.435 88.5327 292.116 93.4579 294.093 89.1994C294.155 89.076 295.136 83.1397 295.585 83.2816C296.225 83.5057 297.396 84.8818 298.234 84.9237C298.644 84.9426 298.742 81.205 298.82 81.1439C301.733 79.3221 302.959 82.7769 305.911 84.4343C306.487 84.7466 307.925 79.7447 308.842 83.8107C309.883 88.2503 307.902 106.538 311.26 102.228C311.804 101.42 312.611 95.9975 313.382 91.5512C313.72 89.33 313.923 87.3592 314.063 86.3483C314.1 86.0954 314.136 85.9024 314.178 85.7791C314.199 85.7175 314.221 85.6733 314.247 85.6475C314.294 85.617 314.41 85.5841 314.488 85.5758C314.66 85.5445 314.827 85.6347 315.166 85.541C315.518 85.4666 315.904 84.8838 315.989 84.2544C315.864 83.8036 315.751 83.5815 315.716 83.3646C315.712 83.1776 315.712 82.9885 315.713 82.7908C315.693 82.3846 315.793 82.0004 315.836 81.5375C310.797 82.9117 309.225 76.1873 304.104 80.2318C303.783 80.4133 303.728 86.9982 304.398 86.7657C304.633 86.6316 304.998 85.8506 304.927 84.8448C304.876 84.3697 304.658 83.919 304.371 83.679C304.085 83.4433 303.775 83.3952 303.573 83.4194C303.429 83.5161 303.334 83.6024 303.316 83.6753C302.759 85.4899 305.552 86.6547 305.312 88.4267C305.222 89.0837 302.083 89.1158 301.957 89.834C301.828 90.523 305.977 90.8783 304.002 91.9484C302.492 92.7725 294.052 93.3322 293.039 94.0035C301.346 94.3817 301.16 95.0012 303.247 96.3808C303.651 96.6525 306.558 96.6497 306.897 96.7954C308.34 97.4229 305.907 97.6273 307.469 98.2636C307.843 98.4205 310.664 98.7587 311.128 98.9145C315.179 100.307 308.635 100.832 307.506 100.818C303.202 100.945 306.771 101.95 305.013 102.271C303.26 102.545 301.399 101.255 300.274 101.723C297.954 102.649 297.984 104.389 297.46 105.692C297.269 106.21 301.008 106.942 301.065 107.041C301.623 108.527 297.43 108.331 304.322 111.495C285.643 105.723 305.866 112.84 301.531 113.217C301.181 113.243 292.537 109.989 291.442 109.065C290.344 108.153 293.301 108.493 291.528 107.169C291.124 106.83 283.201 103.258 282.723 103.031C279.058 101.069 292.24 105.141 292.984 105.305C300.975 107.172 292.363 103.396 291.79 103.035C289.255 101.123 291.356 100.651 289.481 99.2999C288.265 98.429 279.378 96.7572 279.707 96.4858C280.767 95.7276 293.393 96.341 282.591 94.2402C280.279 93.8289 270.407 93.491 278.195 93.2579C278.685 93.292 285.809 92.8093 281.31 92.447C280.743 92.4092 277.863 92.4281 277.621 92.3871C276.054 92.1287 278.341 91.8775 277.227 91.611C276.113 91.353 274.457 91.2106 275.394 90.8077C275.956 90.584 281.232 89.5655 282.507 89.2138C286.182 88.2152 280 88.8919 284.453 87.7975C288.623 86.6651 295.026 85.9938 298.045 84.5916C298.174 84.1345 298.321 83.6155 298.563 83.0552C291.088 82.3417 283.918 77.2778 279.404 70.0491C283.949 62.3794 289.394 59.8906 292.203 58.5884C295.311 57.2847 297.062 56.9972 298.671 56.7219C301.49 56.317 303.106 56.4349 304.352 56.5461C306.859 56.8131 308.244 57.3062 309.542 57.7604C312.048 58.6884 313.778 59.5836 315.735 59.8631C316.22 59.9274 316.652 55.8962 317.216 55.8707C318.421 55.8328 319.332 56.6467 320.376 57.4647C320.926 57.8832 321.459 58.2854 322.278 58.6628C322.669 58.8464 323.171 59.0359 323.857 59.264C324.266 59.4051 324.621 59.5127 325.294 59.7594C326.087 60.0889 326.551 60.125 329.061 61.5359C329.823 62.3848 332.41 62.0198 338.542 71.0706C341.078 75.0422 343.905 83.2475 341.782 91.8477C339.743 100.458 334.34 105.752 330.929 108.277C323.836 113.211 320.574 113.197 320.466 113.703C318.724 114.648 317.47 115.436 316.349 116.183C314.19 117.661 312.223 118.913 311.524 119.432C310.401 110.887 307.414 113.692 306.008 112.819C305.507 112.52 305.678 110.239 305.36 109.472C304.156 106.63 304.299 114.22 303.824 115.381C301.743 120.328 302.707 103.228 300.873 103.499C300.794 103.51 298.875 112.505 298.651 113.055C297.292 116.654 298.768 109.876 298.189 109.146C297.121 107.81 296.507 105.562 294.769 108.075C294.234 108.818 292.695 114.38 292.431 109.928C292.394 109.344 292.76 106.349 292.701 106.165C291.602 103.089 290.555 112.51 289.367 115.611C288.175 118.711 287.544 112.058 287.48 110.152C287.305 105.223 288.259 108.141 288.348 107.669C289.423 102.055 288.354 102.924 287.655 102.361C288.585 93.1122 287.475 93.5481 286.924 101.814C286.866 102.717 287.552 101.922 287.655 102.361C285.968 111.349 284.66 112.376 284.512 103.779C284.424 99.7479 285.489 95.1841 283.62 96.6805C282.766 97.3544 282.313 103.745 281.421 105.397C279.397 109.166 277.926 102.975 276.205 103.71C275.603 103.98 275.721 107.525 275.293 107.829C274.154 108.646 273.564 105.924 272.342 107.128C272.23 107.241 272.009 110.909 271.673 110.914C269.153 111.027 267.05 108.39 264.522 107.997C263.305 107.809 260.813 109.523 259.548 108.946C257.387 107.972 255.113 102.288 253.137 103.329C251.793 103.984 251.571 107.656 250.704 110.06C249.027 114.722 248.35 105.873 248.283 104.507C248.282 104.462 249.482 103.753 249.158 101.809C249.351 97.8755 248.297 104.492 248.283 104.507C248.239 103.626 246.171 102.503 245.636 103.137C245.346 103.484 245.007 106.945 244.865 107.061C241.404 109.725 238.587 110.227 235.845 108.203C235.803 108.127 236.419 104.287 236.313 104.155C234.856 102.206 233.1 106.762 231.285 109.358C229.461 111.951 228.481 110.858 228.61 104.137C227.456 104.822 226.373 101.689 225.76 99.7936C225.148 97.8985 223.96 105.373 223.863 105.51C220.803 109.91 220.024 105.424 217.609 104.396C216.436 103.891 214.022 104.653 212.627 105.287C211.531 105.803 211.181 103.96 210.093 104.948C209.946 105.08 209.59 108.433 209.533 108.556C207.92 112.395 209.598 104.316 209.596 102.829C209.588 97.4225 209.52 94.5338 207.827 96.8309C207.438 97.3567 204.835 108.963 204.172 109.567C203.313 110.331 204.202 106.165 203.287 107.072C203.209 107.146 202.845 109.743 202.387 109.559C200.296 108.747 198.175 106.894 195.879 106.823C195.567 106.803 195.358 110.977 194.897 111.016C192.736 111.197 190.456 110.705 188.689 108.476C188.256 107.915 188.998 105.08 189.015 104.208C189.106 98.9326 187.061 106.316 186.883 106.436C182.64 109.501 180.801 102.272 176.513 104.945C176.278 105.104 173.476 112.926 173.799 105.907C173.819 105.44 174.177 98.2624 172.835 103.006C172.751 103.303 172.643 107.009 171.937 106.524C171.231 106.04 169.64 108.288 169.191 104.13C169.048 102.82 169.323 95.6477 167.489 101.123C167.366 101.506 163.927 113.992 164.699 105.137C164.828 103.679 166.316 94.4094 164.419 98.9916C164.054 99.8804 164.153 102.013 163.363 103.216C162.152 105.072 161.318 102.404 159.574 106.37C159.268 107.073 157.485 113.248 157.538 108.365C157.547 107.6 158.213 104.531 157.913 104.131C156.487 102.214 154.419 104.022 153.043 101.62C152.555 100.776 153.621 95.8127 153.198 94.3753C152.774 92.9382 151.707 91.4559 150.705 93.6458C149.702 95.8366 149.207 103.929 148.127 104.419C143.449 106.548 139.871 101.211 135.727 99.8774C135.112 99.6787 135.199 102.615 134.261 102.527C130.844 102.223 124.387 103.974 122.37 97.4519C120.738 92.2255 124.3 88.9848 122.787 86.7276C122.057 85.6494 119.685 94.7834 119.429 95.0431C116.924 97.6955 116.053 93.3532 113.987 94.3258C113.558 94.5276 113.359 98.3471 113 98.4773C111.771 98.9554 110.848 97.0944 109.731 97.2362C109.228 97.3085 108.873 100.194 108.466 99.9046C107.488 99.2443 106.745 97.8933 106.141 95.0435C106.086 94.7838 107.265 91.3079 106.512 91.0553C105.314 90.6602 104.097 87.7527 102.202 90.2673C101.636 91.0244 100.601 97.5857 100.366 92.9072C100.316 91.93 101.787 84.0868 99.6426 90.7282C99.2834 91.8315 96.0343 100.734 96.0653 94.6755C96.0725 93.0808 96.4757 86.5384 95.8032 87.472C95.7082 87.6229 95.4408 91.1919 94.9604 91.4695C93.2693 92.3853 91.8033 91.7723 90.0068 92.6239C89.5349 92.8597 89.6004 96.6062 88.9154 96.8411C87.0306 97.4924 85.0267 96.2291 83.5431 94.8284C82.9971 94.3051 83.8914 91.3492 83.898 91.0134C84.0151 85.5529 82.4693 92.7071 82.1671 93.0912C80.2895 95.3805 79.7762 91.8266 78.209 92.5014C77.7828 92.6792 77.5215 96.1646 77.3961 96.4595C76.1262 99.3334 77.688 93.2446 77.2876 92.4841C76.1702 90.3332 74.5641 90.3657 73.0952 90.5868C72.5551 90.6731 72.509 94.7547 72.0318 94.7861C69.1877 95.0462 66.5405 94.2408 64.0906 91.6029C63.6456 91.1013 64.4484 88.0784 64.4519 87.3598C64.4869 82.3338 62.3751 88.866 62.0322 89.466C60.4697 92.2062 60.4705 89.4219 59.4303 89.7785C54.3693 91.5729 48.7104 88.8401 44.3079 87.0089C38.6703 84.6566 34.5647 81.015 28.8458 80.8954C28.47 80.8819 28.1998 85.0284 27.869 85.0695C23.8134 85.4439 20.3341 83.2591 16.1466 83.8267C15.8719 83.8766 15.6492 87.811 15.2024 88.0238C15.0029 88.1892 14.4008 88.2076 14.0997 88.1788C13.9407 88.163 13.8248 88.1304 13.7827 88.0842C13.762 88.0611 13.76 88.0346 13.7866 88.0058C13.8 87.9914 13.8206 87.9764 13.851 87.9611C13.8586 87.9573 13.8668 87.9534 13.8757 87.9496C13.8801 87.9476 13.8847 87.9457 13.8895 87.9438C13.9136 87.9443 13.8252 87.9305 14.0484 87.9566C14.2547 87.9785 14.4803 88.0109 15.3912 88.0956C15.905 88.1359 16.4427 88.2055 18.2519 88.2627C19.2527 88.27 20.3565 88.3605 23.6247 88.0792C25.3675 87.8722 27.5182 87.7692 32.4014 86.3368C34.8861 85.5375 38.1665 84.4858 43.1072 81.4191C47.815 78.3671 55.4519 72.6304 60.4455 60.6937C65.6863 48.8125 63.7252 33.4639 59.6981 25.5836C55.7571 17.2715 51.6985 13.569 48.9139 10.9692C43.2375 6.10384 40.6737 5.20054 38.688 4.13629C34.9508 2.38884 33.7821 2.13994 32.6893 1.76491C30.7361 1.16738 30.1874 1.06851 29.6471 0.934309C28.6972 0.716173 28.4685 0.681013 28.2554 0.639548C28.5452 0.894406 28.8074 1.26325 29.0229 1.75273C29.3263 2.42552 28.1282 5.62355 28.4544 6.23447C29.219 7.66535 30.2735 8.14063 31.4359 7.7025C31.93 7.50707 31.9384 3.43772 32.5195 3.49015C36.5033 3.7633 40.4929 3.62198 44.1954 9.28398C44.4472 9.67238 43.7829 17.8048 44.6086 16.324C44.9098 14.0805 45.2037 11.4346 45.494 9.0331C51.8667 8.43629 58.0679 11.7871 64.8545 12.7123C65.1399 12.7503 64.9541 8.40522 65.5068 8.45665C68.7089 8.74922 71.9523 7.76577 75.0671 12.2753C75.3769 12.7166 74.7026 20.2899 75.7748 19.2085C75.9634 19.0107 77.5364 18.0985 78.0364 16.4779C78.1059 16.233 78.0639 12.6746 78.558 12.6036C81.4261 12.2533 84.3881 13.2633 87.1366 15.6316C87.5793 16.0206 86.8134 19.754 87.1256 20.0638C89.3345 22.2315 92.1416 19.5613 94.1611 23.1651C95.504 25.5909 94.4082 32.0549 94.6763 38.5276C94.7138 39.4406 95.6284 39.6618 95.358 43.3929C94.6789 52.7746 93.3758 63.0001 92.7057 73.0046C92.5606 75.1592 93.9153 72.9413 92.7847 78.0816C92.7071 78.4253 91.7261 80.0801 91.3742 81.8272C91.1302 83.035 91.0681 86.8471 90.6499 88.3843C90.2336 89.9203 90.1777 86.716 89.5495 88.5118C88.9205 90.3305 88.7832 94.6605 87.7939 95.0957ZM222.979 91.3149C222.685 87.602 220.68 100.761 222.007 97.7334C222.074 97.5714 222.995 91.4974 222.979 91.3149ZM309.968 69.2698C310.293 75.2821 312.884 67.0211 312.761 62.3668C312.461 57.6909 309.766 67.4328 309.968 69.2698ZM293.699 89.749C298.211 88.2633 279.443 90.3022 283.301 90.5617C283.518 90.5749 293.436 89.8244 293.699 89.749ZM90.8542 40.0579C90.852 40.235 91.4995 40.4581 91.5294 40.2848C92.2137 36.0982 90.9092 35.654 90.8542 40.0579ZM297.962 98.9973C300.544 99.0315 297.763 97.6106 294.559 97.6096C291.992 97.5557 294.763 98.8905 297.962 98.9973ZM183.219 71.1461C183.236 70.948 182.797 70.7021 182.641 71.8124C182.141 75.3886 182.938 74.477 183.219 71.1461ZM292.925 115.292C294.596 113.368 309.702 117.64 306.758 120.004C306.234 120.401 302.718 116.847 301.135 116.952C298.29 117.055 306.792 121.992 301.46 120.977C300.505 120.75 292.813 115.364 292.907 115.279C292.913 115.284 292.919 115.288 292.925 115.292ZM224.776 75.4226C224.785 75.2461 224.16 74.9882 224.12 75.1587C223.17 79.2913 224.429 79.8134 224.776 75.4226ZM157.385 58.9409C157.406 58.5647 155.972 57.9926 155.872 58.3269C154.06 65.0408 156.957 66.2181 157.385 58.9409ZM269.296 71.7081C270.51 67.5791 271.402 67.1895 271.312 72.5599C270.612 72.1842 269.933 72.0544 269.296 71.7081ZM336.28 137.863C337.314 138.386 336.186 137.872 334.645 137.15C334.167 136.926 332.045 135.898 331.619 135.697C330.789 135.306 331.828 135.816 330.84 135.349C330.503 135.189 327.139 133.561 326.862 133.43C325.368 132.727 326.219 133.154 325.497 132.823C321.933 131.191 320.64 130.643 319.069 129.982C318.554 129.764 315.486 128.319 316.81 128.989C316.967 129.068 319.922 130.492 320.165 130.61C323.887 132.418 317.926 129.537 317.131 129.16C313.993 127.672 313.709 127.565 314.839 128.135C315.329 128.382 321.199 131.205 317.902 129.625C317.68 129.518 314.544 128.002 314.208 127.843C313.453 127.485 314.009 127.766 313.759 127.65C313.26 127.419 313.291 127.435 313.251 127.427C313.169 127.402 311.603 126.663 312.308 127.018C312.468 127.099 315.685 128.647 316.23 128.915C316.774 129.183 316.497 129.062 315.737 128.7C314.977 128.338 312.45 127.117 311.871 126.838C306.978 124.484 313.744 127.764 313.911 127.847C316.75 129.253 312.881 127.416 312.879 127.447C312.886 127.475 314.15 128.11 313.967 128.044C313.735 127.96 311.982 127.142 312.27 127.31C312.297 127.325 316.079 129.146 316.12 129.169C316.544 129.413 316.118 129.244 313.551 128.043C313.29 127.921 309.972 126.316 309.513 126.099C306.776 124.802 300.209 121.668 314.658 128.649C314.087 128.391 313.496 128.126 310.576 126.733C308.697 125.837 305.083 124.087 306.622 124.84C306.965 125.007 310.134 126.531 310.409 126.667C311.562 127.239 310.526 126.757 312.157 127.557C312.496 127.724 315.335 129.091 315.846 129.338C319.982 131.337 313.135 128.051 312.636 127.813C308.921 126.043 310.375 126.757 310.277 126.728C310.252 126.721 314.068 128.553 314.181 128.612C314.718 128.895 314.381 128.756 312.681 127.959C312.293 127.778 309.047 126.211 308.695 126.044C307.186 125.328 313.32 128.282 311.991 127.652C311.718 127.523 308.938 126.183 308.632 126.037C303.836 123.734 310.627 127.007 310.777 127.081C312.819 128.081 305.723 124.678 306.72 125.175C306.847 125.238 310.368 126.927 310.508 127C311.462 127.503 310.479 127.072 307.651 125.747C307.216 125.544 304.573 124.271 304.247 124.115C299.151 121.674 305.973 124.955 306.23 125.08C308.073 125.981 302.343 123.248 310.47 127.154C309.049 126.499 309.472 126.736 309.347 126.683C309.288 126.65 309.072 126.588 308.479 126.181C308.416 126.104 308.342 126.037 308.327 125.814C308.325 125.754 308.327 125.682 308.348 125.561C308.373 125.43 308.402 125.301 308.534 124.855C308.604 124.6 308.698 124.352 308.91 123.442C308.963 123.203 309.025 122.91 309.091 122.487C309.152 122.039 309.244 121.604 309.258 120.352C309.149 119.138 309.518 117.263 307.225 113.23C306.068 111.286 303.594 108.848 300.514 107.753C297.441 106.605 294.533 106.836 292.702 107.291C289.003 108.319 288.028 109.487 287.162 110.127C286.378 110.809 286.017 111.234 285.728 111.568C285.18 112.221 284.994 112.523 284.828 112.772C284.529 113.241 284.448 113.42 284.371 113.577C284.237 113.868 284.218 113.972 284.201 114.069C284.188 114.161 284.193 114.22 284.204 114.271C284.227 114.37 284.271 114.432 284.321 114.488C284.419 114.606 284.559 114.662 284.697 114.744C285.258 115.055 285.977 115.416 286.883 115.861C286.967 115.903 290.313 117.548 290.466 117.623C292.35 118.537 287.148 115.984 280.785 112.864C279.186 112.081 286.874 115.837 287.439 116.111C289.516 117.123 294.498 119.562 294.901 119.758C298.063 121.291 281.58 113.241 281.578 113.232C281.605 113.245 284.639 114.728 284.941 114.874C285.889 115.335 284.684 114.744 285.73 115.252C288.149 116.427 296.162 120.332 291.503 118.049C290.899 117.753 281.545 113.195 281.99 113.402C282.176 113.489 282.023 113.397 282.631 113.689C283.238 113.98 286.252 115.45 286.382 115.513C290.374 117.443 292.025 118.251 297.93 121.118C303.814 123.973 289.787 117.15 288.223 116.386C286.663 115.624 289.957 117.215 291.102 117.769C292.247 118.323 294.162 119.258 294.81 119.571C299.048 121.614 287.851 116.179 285.627 115.092C280.36 112.518 290.766 117.57 291.79 118.055C292.067 118.187 289.696 117.037 289.476 116.927C288.634 116.508 291.883 118.079 288.911 116.623C288.427 116.386 282.174 113.34 286.768 115.564C287.431 115.885 290.023 117.146 290.605 117.424C291.48 117.842 292.052 118.105 291.188 117.679C290.549 117.363 286.273 115.295 287.603 115.933C288.197 116.219 290.695 117.436 291.602 117.871C292.509 118.305 292.405 118.24 292.321 118.194C292.235 118.146 288.992 116.576 288.774 116.47C287.524 115.861 285.965 115.094 285.969 115.095C285.593 114.863 291.075 117.478 289.285 116.562C289.149 116.492 285.729 114.838 285.673 114.81C284.245 114.106 293.332 118.518 296.379 119.984C289.44 116.624 290.698 117.228 289.941 116.852C289.57 116.668 286.882 115.369 286.607 115.236C282.529 113.255 287.802 115.804 288.881 116.325C292.849 118.242 288.164 115.969 290.816 117.25C293.449 118.522 297.348 120.416 297.301 120.385C294.818 119.181 288.324 116.043 287.274 115.528C283.304 113.582 288.416 116.011 288.953 116.25C289.489 116.49 289.033 116.263 289.936 116.688C291.568 117.456 286.747 115.133 284.547 114.056C282.347 112.98 294.199 118.716 296.747 119.946C299.295 121.176 296.674 119.907 298.075 120.582C299.476 121.256 301.207 122.098 301.735 122.348C302.262 122.597 297.736 120.394 295.073 119.105C289.429 116.373 283.502 113.515 285.589 114.51C285.713 114.569 288.829 116.077 289.145 116.227C291.555 117.366 291.713 117.417 293.846 118.422C294.144 118.563 297.611 120.24 297.824 120.341C300.05 121.395 294.2 118.577 287.708 115.431C296.352 119.607 301.644 122.156 301.701 122.167C301.739 122.176 297.962 120.354 295.303 119.064C294.502 118.676 297.097 119.922 295.322 119.063C289.519 116.258 283.018 113.127 285.612 114.363C285.735 114.421 288.912 115.957 289.105 116.048C290.371 116.643 284.299 113.711 283.571 113.343C282.999 113.054 286.711 114.821 287.319 115.1C297.041 119.788 294.82 118.702 288.119 115.466C288.397 115.59 288.023 115.399 288.953 115.838C289.27 115.987 292.084 117.346 292.389 117.492C297.163 119.787 290.642 116.64 290.387 116.515C287.911 115.298 292.862 117.665 288.039 115.32C287.865 115.235 281.111 111.981 286.045 114.352C286.385 114.515 289.456 116.001 289.697 116.107C289.94 116.214 293.568 117.942 290.444 116.423C289.692 116.057 284.211 113.411 288.498 115.467C289.081 115.746 291.018 116.679 292.097 117.197C295.534 118.847 288.706 115.559 294.51 118.346C300.313 121.133 304.663 123.213 300.666 121.275C300.549 121.219 295.138 118.613 295.225 118.65C295.369 118.712 296.501 119.246 296.469 119.223C296.452 119.211 293.089 117.597 293.028 117.567C291.154 116.642 294.158 118.067 295.469 118.67C295.716 118.783 291.137 116.571 294.765 118.304C298.738 120.2 315.241 128.13 311.319 126.221C309.75 125.457 288.809 115.403 299.668 120.592C296.993 119.274 302.561 121.908 298.733 120.042C298.564 119.959 292.716 117.158 292.797 117.193C292.929 117.251 295.664 118.555 295.846 118.638C296.676 119.018 294.342 117.889 294.711 118.051C294.846 118.11 297.673 119.46 297.834 119.53C297.992 119.599 294.269 117.82 296.071 118.67C297.445 119.317 305.062 122.937 305.955 123.349C298.444 119.774 298.601 119.841 296.623 118.889C296.239 118.704 293.623 117.463 293.307 117.311C291.961 116.667 294.129 117.695 292.664 116.994C292.312 116.826 289.746 115.607 289.313 115.401C285.536 113.602 291.311 116.337 292.317 116.812C296.138 118.617 292.8 117.032 294.306 117.74C295.812 118.448 297.688 119.346 298.603 119.772C300.497 120.652 300.09 120.438 300.215 120.48C300.249 120.49 296.817 118.877 296.742 118.841C295.875 118.423 299.531 120.127 292.696 116.914C310.382 125.196 290.984 116.103 294.528 117.754C294.814 117.887 303.187 121.785 304.412 122.367C305.635 122.949 303.014 121.738 304.923 122.645C305.372 122.856 313.197 126.554 313.67 126.779C317.369 128.541 304.881 122.665 304.195 122.343C296.791 118.864 305.22 122.849 305.8 123.129C308.461 124.407 306.699 123.593 308.597 124.509C309.823 125.102 317.991 128.975 317.737 128.865C316.898 128.501 305.504 123.094 315.369 127.811C317.473 128.818 326.398 133.058 319.373 129.739C318.93 129.53 312.507 126.487 316.562 128.428C317.073 128.673 319.673 129.911 319.891 130.017C321.299 130.698 319.226 129.716 320.214 130.197C321.201 130.679 322.675 131.395 321.788 130.984C321.258 130.738 316.413 128.434 315.227 127.871C311.809 126.247 317.403 128.929 313.266 126.958C309.109 124.977 302.803 121.954 300.113 120.681C306.863 123.908 313.791 127.22 320.579 130.466C320.327 130.382 318.134 129.36 318.42 129.528C318.462 129.552 322.091 131.286 322.23 131.357C322.799 131.648 320.208 130.422 321.23 130.93C322.035 131.33 325.869 133.185 326.831 133.661C319.108 129.965 321.721 131.239 321.009 130.913C320.764 130.8 318.703 129.81 318.029 129.49C315.536 128.308 322.359 131.577 323.43 132.095C328.004 134.309 312.568 126.897 312.942 127.095C312.957 127.103 321.179 131.066 321.691 131.314C325.027 132.928 318.826 129.939 318.216 129.653C317.1 129.129 315.132 128.191 317.536 129.361C318.248 129.707 323.372 132.181 319.403 130.281C318.883 130.032 316.164 128.724 316.005 128.648C313.345 127.384 321.888 131.493 324.777 132.892C327.666 134.291 321.764 131.466 320.063 130.65C315.663 128.54 318.186 129.741 317.755 129.533C312.622 127.059 313.502 127.493 313.065 127.29C304.689 123.26 305.188 123.51 312.646 127.096C313.461 127.487 312.682 127.107 313.065 127.29C321.281 131.249 322.328 131.766 314.644 128.08C311.043 126.353 306.849 124.328 308.377 125.081C309.067 125.421 314.835 128.195 316.404 128.958C319.985 130.698 314.597 128.125 315.438 128.547C315.744 128.7 318.902 130.216 319.22 130.373C320.072 130.795 317.7 129.662 318.909 130.255C319.022 130.311 322.327 131.901 322.367 131.924C322.74 132.131 320.616 131.13 320.546 131.124C320.514 131.121 322.327 132.02 321.955 131.854C321.33 131.577 316.516 129.282 317.675 129.862C318.417 130.233 321.721 131.825 323.969 132.916C328.328 135.032 320.506 131.275 319.295 130.692C319.255 130.673 318.48 130.288 316.782 129.474C313.248 127.771 319.279 130.685 319.295 130.692C318.512 130.316 317.754 129.972 318.384 130.281C318.728 130.449 321.858 131.96 321.978 132.019C324.766 133.396 325.55 133.806 324.074 133.124C324.011 133.094 320.511 131.402 320.406 131.352C318.843 130.614 323.12 132.693 325.656 133.934C328.191 135.175 327.335 134.773 321.324 131.874C322.076 132.249 319.414 130.977 317.799 130.205C316.184 129.433 322.995 132.729 323.129 132.795C327.429 134.901 323.524 133.027 322.908 132.754C322.603 132.619 323.581 133.117 324.32 133.489C324.916 133.788 323.318 133.02 324.334 133.523C324.47 133.59 327.503 135.057 327.619 135.114C331.243 136.88 323.832 133.286 322.507 132.646C317.689 130.321 315.123 129.083 317.383 130.192C317.9 130.446 328.569 135.624 329.191 135.932C329.98 136.322 326.155 134.466 327.079 134.921C327.154 134.959 329.515 136.102 329.408 136.056C328.947 135.856 327.564 135.21 327.79 135.346C327.812 135.361 331.557 137.172 331.65 137.222C332.084 137.457 331.935 137.411 330.175 136.579C329.73 136.369 327.111 135.095 326.332 134.718C321.622 132.44 328.458 135.767 328.587 135.832C331.857 137.463 325.654 134.486 328.583 135.952C328.755 136.038 336.077 139.618 329.787 136.569C329.369 136.367 322.934 133.246 327.328 135.391C327.603 135.525 330.916 137.131 330.574 136.975C330.234 136.819 332.438 137.909 328.795 136.15C327.648 135.596 321.23 132.48 326.338 134.98C326.695 135.154 338.246 140.803 330.266 136.925C328.953 136.287 320.514 132.173 324.834 134.296C325.672 134.708 327.556 135.62 328.728 136.201C330.534 137.096 328.266 136.009 332.017 137.859C332.681 138.186 338.401 140.994 334.05 138.883C333.368 138.553 330.554 137.173 330.236 137.025C328.709 136.318 330.574 137.276 328.606 136.364C327.91 136.052 323.369 133.804 322.139 133.229C320.908 132.656 319.71 132.132 321.748 133.235C322.764 133.793 325.055 135.019 327.189 136.094C328.252 136.639 329.267 137.162 330.024 137.625C330.401 137.859 330.715 138.075 330.92 138.305C331.115 138.552 331.25 138.728 331.039 139.292C330.873 139.674 330.828 139.916 329.875 141.546C329.606 141.992 329.272 142.548 328.579 143.545C327.747 144.626 327.226 145.792 323.34 149.598C320.996 151.452 318.831 154.763 307.853 158.661C302.436 160.387 292.905 161.959 282.244 158.133C271.523 154.475 263.538 145.55 260.399 139.278C254.183 126.216 255.897 121.521 255.689 118.107C255.892 114.905 256.146 113.829 256.369 112.561C257.271 108.263 257.636 107.704 257.911 106.755C258.175 105.967 258.318 105.568 258.43 105.243C258.646 104.621 258.728 104.359 258.793 104.134C258.912 103.714 258.929 103.551 258.945 103.404C258.957 103.266 258.954 103.177 258.95 103.104C258.908 102.869 258.854 102.885 258.906 102.844C258.994 102.8 259.334 102.9 259.763 103.069C260.616 103.42 261.857 103.97 262.186 104.085C262.284 104.12 259.675 102.878 259.631 102.843C259.455 102.714 257.05 101.462 262.596 104.097C267.039 106.205 270.402 107.853 272.213 108.703C273.077 109.109 264.619 105.035 264.353 104.905C261.657 103.585 265.412 105.373 264.27 104.802C264.033 104.684 260.602 103.039 260.439 102.956C259.849 102.659 261.386 103.382 261.111 103.238C260.979 103.17 258.359 101.911 258.563 102.005C259.021 102.214 260.126 102.736 262.585 103.908C262.809 104.015 266.064 105.588 266.188 105.639C266.38 105.719 268.808 106.871 266.313 105.655C265.563 105.289 259.578 102.409 263.715 104.39C264.579 104.804 271.765 108.265 265.56 105.267C264.529 104.768 256.161 100.72 261.564 103.311C262.986 103.993 268.869 106.819 267.947 106.369C267.8 106.297 264.584 104.752 264.272 104.597C263.23 104.077 263.58 104.229 262.579 103.733C262.305 103.597 258.976 102 258.675 101.848C257.841 101.43 258.696 101.82 259.744 102.308C260.136 102.491 262.89 103.822 263.19 103.966C268.07 106.31 261.488 103.135 261.106 102.948C258.813 101.828 261.91 103.308 261.097 102.902C260.881 102.794 257.742 101.284 257.462 101.149C254.731 99.8244 260.365 102.545 260.988 102.841C262.753 103.676 262.508 103.541 262.113 103.336C261.963 103.258 258.321 101.509 258.229 101.46C257.615 101.131 257.972 101.28 259.988 102.225C260.375 102.407 263.176 103.76 263.816 104.068C268.296 106.221 262.193 103.268 261.612 102.986C258.96 101.696 261.439 102.887 260.981 102.656C258.697 101.508 260.362 102.249 261.395 102.698C262.721 103.283 265.403 104.534 264.733 104.155C264.694 104.132 260.965 102.337 260.884 102.295C260.001 101.829 261.473 102.499 260.413 101.946C260.332 101.904 256.797 100.203 256.549 100.078C256.016 99.8089 256.214 99.8897 257.346 100.426C257.892 100.685 260.921 102.153 261.408 102.383C262.549 102.923 262.806 103.034 262.244 102.751C261.997 102.627 258.381 100.889 258.342 100.864C258.001 100.654 257.396 100.316 262.094 102.536C262.417 102.688 269.762 106.231 268.356 105.545C266.318 104.561 263.921 103.404 261.743 102.352C260.596 101.729 263.172 102.897 263.59 103.037C263.607 103.042 259.714 101.167 259.727 101.168C259.796 101.17 258.731 100.625 262.611 102.466C262.99 102.646 269.835 105.953 268.803 105.445C268.615 105.352 267.708 104.9 266.223 104.179C265.999 104.07 262.803 102.53 262.712 102.481C262.238 102.224 262.978 102.553 264.942 103.473C265.264 103.624 268.665 105.272 268.924 105.394C270.739 106.247 268.163 104.978 271.261 106.452C273.346 107.444 279.225 110.289 285.017 113.079C285.834 113.473 285.967 113.528 289.335 115.154C297.805 119.244 307.077 123.727 316.105 128.086C318.05 129.025 315.961 128.004 320.657 130.279C320.971 130.432 322.527 131.192 324.12 131.964C325.222 132.497 328.648 134.15 330.057 134.833C331.466 135.517 328.593 134.133 330.249 134.937C331.925 135.752 335.822 137.632 336.28 137.863ZM310.58 126.753C307.306 125.177 319.286 130.976 316.423 129.581C316.27 129.507 310.741 126.83 310.58 126.753ZM309.078 125.026C303.779 122.501 311.562 126.234 315.654 128.185C319.743 130.134 310.685 125.791 309.078 125.026ZM305.258 123.08C301.076 121.097 318.108 129.228 314.671 127.571C314.477 127.478 305.501 123.195 305.258 123.08ZM286.651 113.905C286.81 113.982 286.968 114.051 286.81 113.975C283.005 112.134 282.693 111.996 286.651 113.905ZM301.091 120.977C298.783 119.886 301.441 121.159 304.311 122.516C306.62 123.608 303.963 122.334 301.091 120.977ZM297.634 120.895C297.456 120.808 297.293 120.733 298.302 121.223C301.549 122.801 300.635 122.351 297.634 120.895ZM301 120.659C300.31 120.461 286.19 113.849 287.765 114.634C288.053 114.771 292.288 116.699 293.563 117.291C295.897 118.343 286.972 114.322 291.739 116.512C292.624 116.885 301.078 120.668 301.02 120.668C301.013 120.665 301.007 120.662 301 120.659ZM296.188 119.793C296.029 119.717 295.877 119.649 296.034 119.725C299.836 121.569 300.146 121.706 296.188 119.793ZM290.149 117.469C289.812 117.304 289.504 117.136 289.817 117.281C295.992 120.382 296.657 120.684 290.149 117.469ZM287.578 115.224C283.752 113.373 283.304 113.149 288.114 115.463C287.856 115.346 287.816 115.333 287.578 115.224ZM259.885 93.6625C260.039 90.9073 261.912 89.0738 262.808 91.924C263.087 92.9877 265.506 93.0062 265.796 93.9062C266.661 95.9292 263.637 98.4021 267.938 109.525C269.734 113.23 271.371 107.227 273.232 110.889C274.163 112.585 275.405 114.503 276.88 116.277C284.253 123.878 290.851 125.248 292.744 124.878C294.176 124.58 294.4 124.061 294.223 123.683C294.028 123.293 293.388 122.992 292.573 122.797C290.886 122.411 288.677 122.38 285.918 122.706C280.023 123.359 274.017 124.829 267.767 126.681C263.849 127.833 257.727 127.065 254.454 130.453C254.076 130.849 255.87 133.612 255.908 133.897C256.477 138.272 253.848 132.175 252.537 131.874C251.31 131.596 250.137 131.495 249.023 131.542C247.208 130.595 243.612 133.636 237.134 137.148C236.079 137.687 235.656 138.431 235.596 139.199C234.133 140.106 233.744 140.666 233.782 141.154C233.791 141.637 234.13 142.019 233.369 142.446C232.554 142.686 230.993 143.965 223.488 142.491C219.679 141.691 213.755 138.681 210.234 134.156C206.557 129.546 205.678 125.561 205.363 122.788C205.281 121.795 206.436 122.825 207.539 123.263C208.707 123.819 209.228 122.675 209.033 119.975C208.961 114.585 209.694 113.221 209.93 111.476C210.239 109.911 210.467 108.806 210.784 108.194C210.917 107.945 211.038 107.724 211.145 107.532C211.197 107.44 211.25 107.343 211.289 107.284C211.311 107.248 211.329 107.222 211.338 107.225C211.343 107.227 211.343 107.242 211.333 107.292C211.325 107.325 211.328 107.323 211.288 107.472C211.269 107.541 211.244 107.632 211.203 107.79C211.161 107.959 211.106 108.155 210.992 108.687C211.604 107.106 211.683 106.822 211.95 105.832C212.181 105.05 212.756 104.508 213.159 104.153C213.566 103.816 213.772 103.623 213.39 104.135C213.229 104.433 209.623 104.1 209.079 104.907C208.824 105.351 208.832 106.366 209.455 107.965C210.033 109.529 211.503 111.58 212.627 112.329C214.902 113.833 216.285 111.02 217.018 110.905C219.524 110.238 220.605 111.088 221.524 112.395C221.719 113.696 221.484 116.256 221.573 116.392C223.51 119.744 218.738 115.339 214.461 116.316C212.294 116.73 210.213 117.783 206.89 118.744C205.385 119.226 203.911 119.628 202.482 119.789C197.976 120.281 193.988 118.959 189.947 120.011C189.522 120.118 190.757 124.162 190.245 124.3C185.298 125.634 180.597 126.239 175.618 125.277C176.248 125.08 177.055 124.817 178.2 124.299C178.773 124.036 179.433 123.706 180.204 123.245C180.634 122.979 182.687 121.781 184.616 119.694C186.575 117.63 188.832 114.107 189.597 109.766C190.413 105.446 189.524 101.174 188.266 98.3942C187.004 95.5595 185.553 93.8722 184.485 92.7525C183.823 92.0797 183.241 91.5832 182.731 91.1834C181.71 90.3907 180.97 89.965 180.387 89.6529C179.911 89.4089 179.647 89.3079 179.364 89.1986C178.833 89.001 178.452 88.9125 178.283 88.9129C177.608 88.9565 176.835 92.6101 176.385 92.9824C176.186 96.2064 181.789 104.779 186.134 89.2013C188.186 90.1928 190.707 91.224 192.242 94.6755C193.239 96.8957 191.542 100.737 193.314 99.219C193.705 98.8787 193.646 95.3343 194.197 95.0867C195.328 94.5629 196.432 94.6292 197.397 94.5901C198.332 94.5549 199.342 94.3975 199.361 93.4799C199.317 93.1037 199.069 89.9624 198.953 89.4022C198.687 88.5145 198.419 88.092 197.627 88.1121C197.225 88.1278 196.858 88.2203 196.117 88.5008C195.335 88.7981 194.33 89.2505 192.981 90.0632C184.007 93.6613 179.809 104.183 179.756 107.721C179.414 110.58 179.644 112.421 179.858 113.803C179.972 114.492 180.102 115.061 180.232 115.552C180.346 115.966 180.424 116.179 180.519 116.45C180.701 116.959 180.878 117.365 181.043 117.708C181.209 118.049 181.365 118.326 181.51 118.561C181.635 118.742 181.748 118.878 181.859 119.006C182.08 119.258 182.283 119.437 182.471 119.573C183.176 120.007 183.701 119.923 184.158 119.799C185.065 119.527 185.699 119.002 185.83 118.899C188.468 115.37 185.489 114.08 184.245 112.487C183.947 112.105 181.107 115.289 180.741 115.063C180.284 114.778 179.885 114.503 179.884 114.53C179.902 114.554 179.989 114.647 180.565 115.054C180.894 115.279 181.28 115.557 182.249 116.089C183.267 116.531 184.458 117.586 189.288 118.277C187.939 117.854 186.578 117.172 185.215 116.166C184.583 115.692 185.446 112.139 185.148 111.728C183.785 109.964 183.09 116.746 181.797 115.215C181.519 114.902 181.811 111.825 181.772 111.484C181.114 106.132 180.081 113.643 179.872 113.803C177.072 116.001 175.314 108.121 172.437 109.247C172.098 109.39 172.882 113.29 171.934 113.454C165.641 114.572 158.484 113.743 151.576 110.593C150.506 110.108 151.288 107.178 151.221 106.817C150.181 101.161 149.418 108.722 149.052 109.002C146.2 111.015 143.9 104.578 141.483 113.476C135.265 111.534 128.739 111.348 122.147 109.657C115.355 108.385 109.102 101.838 107.959 98.6255C107.193 96.9478 107.03 95.918 107.53 95.5564C107.965 95.1705 109.604 95.4276 110.635 94.631C110.708 94.5543 111.684 90.9556 111.719 90.7883C111.15 88.59 110.633 94.5574 112.351 101.456C112.42 101.758 112.415 101.755 112.339 101.547C111.913 100.571 109.412 95.1535 109.107 94.7144C107.956 92.6703 106.505 87.2995 106.215 86.9274C103.505 84.1851 110.493 101.149 109.492 101.609C109.438 101.6 108.182 98.4601 107.933 98.2056C107.133 97.4152 107.365 98.7947 106.485 97.9383C104.472 95.9489 99.7345 88.3652 100.775 93.7484C100.924 94.4429 106.414 103.275 104.825 103.651C104.205 103.776 101.68 105.556 100.475 105.51C99.3106 105.438 98.1063 102.24 97.9716 102.153C93.4693 99.7137 93.3162 97.6499 88.9201 92.6295C88.4492 92.0851 88.1284 91.7531 87.9289 91.5978C86.2193 90.3592 92.8061 101.07 93.2443 102.615C93.7422 104.335 90.4279 102.074 89.3828 101.232C88.3475 100.379 87.6654 98.2916 86.9565 97.8869C82.2407 95.314 90.1985 105.003 90.8849 107.506C92.6345 113.367 85.0023 104.578 82.8373 104.736C82.269 104.769 84.1271 106.676 83.9326 107.121C83.1693 108.843 80.1622 106.588 80.7095 110.365C80.7761 110.998 84.0191 117.307 80.0498 113.971C79.4729 113.494 77.943 111.017 76.9806 110.978C75.7975 110.926 74.3037 111.456 73.6862 112.481C73.4892 112.758 73.3449 113.038 73.2629 113.33C72.9663 114.496 76.7621 117.527 74.9925 117.066C74.2786 116.801 73.0595 114.201 71.8661 113.887C71.6172 113.788 71.3336 113.831 71.3712 113.606C71.3871 113.538 71.4302 113.448 71.5329 113.24C71.6275 113.016 71.8416 112.708 71.9729 111.83C72.1672 110.996 71.6566 109.301 70.9914 108.715C70.3556 108.06 69.9804 107.96 69.7533 107.86C69.3274 107.716 69.3253 107.769 69.3303 107.773C69.3497 107.786 69.441 107.801 69.5404 107.808C69.7522 107.823 70 107.811 70.2154 107.792C70.2754 107.786 70.3297 107.779 70.3779 107.771C71.028 107.66 70.5065 104.066 70.5647 103.823C70.7859 102.425 70.7752 100.658 70.7269 100.669C70.8161 100.522 70.9637 100.842 71.7973 100.813C72.5976 100.801 73.8971 100.42 75.2633 99.6613C78.0588 98.1052 80.8363 95.4469 82.7738 91.388C83.0977 90.7432 79.8548 88.7124 79.8737 88.5894C80.3669 85.5197 86.7887 93.5653 90.2872 94.7078C84.4357 89.6978 86.0719 89.8955 86.8535 88.0097C87.2491 87.0906 84.9061 85.1882 84.7592 84.9078C83.0195 80.3862 87.7525 84.1852 88.5797 85.0696C91.8441 88.1429 89.9178 83.2269 92.0044 85.4408C93.868 87.7617 94.9956 92.0565 96.0899 91.4364C95.3638 88.7275 90.8523 82.8773 91.886 81.1065C92.941 79.4414 94.8703 78.2742 97.0999 77.7879C104.298 76.3043 109.654 81.2927 112.034 82.3501C115.342 83.8914 116.478 83.8076 118.013 85.4108C120.642 88.3193 121.345 82.8732 124.303 81.4058C127.258 79.9563 121.299 91.7512 120.519 94.4884C119.716 97.2165 121.11 94.6401 120.852 96.216C120.59 97.7897 119.145 99.2757 119.695 100.134C120.234 100.986 124.306 97.2342 125.728 94.6212C128.732 89.0814 130.321 82.6138 131.477 85.6027C131.542 85.7785 129.826 88.8139 130.142 89.3251C132.706 93.2809 136.25 94.907 139.081 98.3351C139.473 98.8125 137.817 102.321 138.042 102.643C140.494 106.007 141.363 99.4585 144.769 92.9251C141.913 102.084 141.268 108.061 144.092 108.719C145.738 109.081 146.245 104.899 147.625 102.127C148.012 101.289 148.68 104.274 149.098 102.332C150.292 95.9648 150.278 88.7522 151.561 91.6968C151.632 91.8357 151.269 95.3544 151.537 95.5764C153.368 96.9931 153.309 90.1864 153.763 89.2638C153.966 88.8883 154.429 89.6651 155.247 90.4227C156.038 91.196 157.231 91.8609 157.885 91.7518C164.562 100.284 165 96.5307 159.673 91.238C160.071 91.0125 160.36 90.6137 160.715 90.216C161.26 89.461 161.807 88.937 162.249 88.564C162.633 88.2425 162.972 88.0073 163.273 87.8172C163.807 87.483 164.23 87.2859 164.507 87.1645C165.124 86.8984 165.478 86.7996 165.78 86.7163C166.381 86.5579 166.75 86.5139 167.089 86.4895C167.741 86.4514 168.214 86.5335 168.653 86.7139C169.224 86.9588 169.5 90.0897 169.629 90.4084C171.666 95.4096 170.715 88.1805 170.556 87.9222C170.549 87.7583 170.495 87.6266 170.241 87.6172C169.966 87.677 169.566 87.5148 168.155 88.8708C167.744 89.4684 166.469 90.3037 166.357 93.7487C166.36 95.4049 167.182 97.1589 167.886 97.9971C168.632 98.9289 169.239 99.3281 169.64 99.5977C170.509 100.139 170.876 100.233 171.183 100.353C171.469 100.452 171.639 100.497 171.766 100.531C172.234 100.649 172.205 100.636 172.182 100.641C172.141 100.639 172.021 100.622 171.848 100.595C171.656 100.566 171.491 100.54 170.954 100.461C169.018 99.8837 166.882 98.4838 164.363 101.906C164.226 102.09 163.543 109.559 162.976 104.037C162.94 103.656 164.299 100.325 162.692 99.9579C162.528 99.9204 162.353 99.8429 162.174 99.7381C160.505 98.8131 157.977 95.7343 155.742 98.7233C155.139 99.5247 153.377 105.516 152.544 100.701C152.434 100.048 152.727 97.9113 152.583 96.704C152.116 92.8562 151.281 100.398 150.848 93.9222C150.416 87.447 148.997 82.5319 146.431 86.8291C146.35 86.9536 145.449 92.9171 144.732 92.7795C143.586 92.5547 142.02 91.2092 140.812 91.1778C140.233 91.1649 140.385 94.9098 140.281 94.9721C136.28 96.8324 133.713 93.3543 129.634 91.6803C128.885 91.3659 126.416 96.3224 125.161 92.2268C123.78 87.7434 126.447 69.5502 122.465 73.704C120.855 75.3649 117.731 98.4612 115.657 86.3023C110.265 89.01 105.71 82.6193 100.246 86.632C100.001 86.8096 98.9592 93.2522 98.4093 93.1392C97.5927 92.9587 97.2752 89.9115 96.695 89.686C94.2668 88.6652 91.8987 91.1594 89.539 90.6596C88.6424 90.4765 89.0848 87.3586 88.0132 87.1404C86.9412 86.9254 86.0628 91.0197 84.681 88.9727C83.6384 87.413 82.8478 78.9443 81.4098 77.9086C81.0524 86.2194 80.0513 86.0111 78.1882 88.1437C77.8301 88.5576 78.0982 91.4638 77.9238 91.8089C77.2132 93.2774 76.6842 90.8586 76.0033 92.4611C75.8379 92.8459 75.7361 95.6848 75.5959 96.1597C74.4027 100.306 72.8711 93.8636 72.6041 92.7422C71.587 88.483 70.9353 92.1597 70.1045 90.4701C69.2729 88.781 70.653 86.7412 69.652 85.7015C67.575 83.5509 64.8094 83.9345 62.6392 83.7503C61.7726 83.6943 62.2712 87.4998 62.145 87.5798C60.3352 88.4971 58.611 84.4241 57.458 91.9545C56.631 72.4029 56.3397 93.8243 53.8707 89.8665C53.6764 89.5466 53.5896 80.3076 54.3939 78.9667C55.1992 77.6272 56.3205 80.537 57.4441 78.4469C57.7081 77.9562 59.3677 69.3361 59.5829 68.8168C61.2556 64.7567 61.1523 78.5602 61.2161 79.3198C61.9561 87.5199 63.9684 78.2443 64.4607 77.6129C66.6968 74.7181 68.4786 76.7101 70.346 74.6574C71.5672 73.3315 71.9595 64.299 72.8851 64.6044C75.9672 65.6162 76.6087 78.2562 79.9001 67.4293C80.6066 65.1207 80.3381 55.2233 82.3061 63.0691C82.4314 63.5636 83.8302 70.7276 84.9594 66.2715C85.1016 65.7097 85.207 62.8319 85.3757 62.5963C86.5049 61.0734 87.129 63.3934 88.336 62.3415C89.543 61.2897 91.0112 59.7097 92.3004 60.7408C93.0781 61.3576 93.878 66.7614 94.2034 68.09C95.1192 71.9163 96.5438 65.7684 97.0114 70.3755C97.48 75.0058 95.864 81.9349 97.4861 84.9851C97.8831 77.5138 98.3743 69.849 98.815 62.3372C102.685 62.7736 106.382 65.3699 110.279 65.2314C110.762 65.2068 110.469 61.1652 110.993 61.0354C113.205 60.5054 114.962 63.4654 117.277 62.442C119.07 61.6345 121.211 57.4829 123.098 56.5097C123.756 65.118 126.617 62.3625 128.54 63.2526C129.214 63.5606 129.041 65.841 129.489 66.613C131.18 69.4702 130.737 61.8686 131.31 60.7082C133.769 55.757 132.99 72.8637 135.565 72.5867C135.701 72.5777 137.878 63.56 138.139 63.0058C139.802 59.389 138.196 66.1913 139.064 66.9169C140.647 68.243 141.668 70.4859 143.763 67.9308C144.375 67.1734 146.067 61.5741 146.906 66.032C147.016 66.6158 146.758 69.6228 146.864 69.806C148.792 72.8708 149.41 63.4112 150.804 60.2781C152.2 57.1458 153.665 63.7897 153.929 65.6951C154.623 70.6249 153.047 67.731 152.964 68.2057C151.994 73.8558 153.406 72.9578 154.41 73.5007C154 82.7879 155.477 82.3181 155.453 74.0262C155.448 73.1203 154.592 73.937 154.41 73.5007C155.865 64.4521 157.527 63.3824 158.764 71.9955C159.343 76.0322 158.285 80.6335 160.879 79.0846C162.056 78.3858 162.009 71.9709 163.113 70.2901C163.418 69.8256 163.725 69.5074 164.032 69.3056C166.428 67.8546 168.628 72.5224 170.878 71.8563C171.816 71.5827 171.18 68.0229 171.839 67.7168C172.533 67.4096 173.083 67.601 173.986 67.9394C173.387 67.9283 173.267 67.9738 173.196 68.015C173.138 68.0584 173.189 68.1081 173.29 68.1589C173.501 68.2616 173.899 68.3655 174.557 68.4843C175.286 68.6274 175.984 68.6663 178.377 69.1598C179.006 69.2998 179.79 69.4795 180.953 69.8497C182.204 70.2934 183.638 70.6493 186.785 72.5708C188.247 73.532 190.387 74.9253 193.007 78.1766C195.469 81.0895 198.313 87.1506 198.338 92.8703C197.994 104.763 193.595 107.842 192.089 110.094C187.392 115.111 185.269 115.647 183.66 116.733C182.586 117.335 186.767 119.577 183.008 121.166C180.169 122.251 179.046 122.451 177.998 122.688C177.012 122.89 176.354 122.962 175.901 122.976C175.469 122.983 175.191 122.946 175.526 122.756C175.727 122.649 176.026 122.535 177.077 122.143C177.629 121.927 178.297 121.701 179.852 120.975C180.541 120.642 181.663 120.097 183.163 119.131C184.02 118.576 185.012 117.878 186.158 116.904C187.458 115.795 189.14 114.178 190.823 111.824C188.081 114.671 184.957 117.304 181.163 120.369C177.918 123.274 170.783 129.368 165.799 130.155C156.889 131.994 148.925 126.124 144.454 126.768C141.353 127.135 141.374 130.824 139.581 133.034C135.862 137.26 133.922 127.733 133.975 126.332C133.964 126.289 136.353 126.053 135.704 123.921C136.119 119.964 134.015 126.326 133.975 126.332C133.843 125.414 130.12 123.361 129.183 123.755C128.648 123.974 127.733 127.336 127.471 127.386C121.258 128.5 116.347 127.373 113.044 124.232C113.002 124.139 114.607 120.596 114.489 120.421C112.882 117.874 109.688 121.698 107.062 123.689C104.448 125.687 103.866 124.465 105.29 117.89C104.006 118.324 103.723 115.146 103.54 113.248C103.335 111.344 101.558 118.708 101.504 118.847C100.53 121.081 100.719 121.263 101.215 120.729C101.751 120.185 102.522 119.031 104.319 118.387C104.321 118.387 104.323 118.386 104.324 118.386C106.039 117.917 110.453 117.056 111.96 116.747C113.299 116.536 112.29 114.985 113.238 115.637C113.366 115.721 115.846 118.003 115.948 118.083C119.182 120.51 112.827 115.263 111.707 114.311C107.485 111.024 104.923 109.641 106.174 112.211C106.439 112.828 115.593 120.43 115.711 121.479C115.821 122.867 112.582 120.08 112.677 121.745C112.674 121.895 114.858 123.352 114.227 124.044C111.212 127.182 106.057 132.748 96.2286 139.582C94.8422 140.482 98.9335 142.853 96.7825 144.279C89.4763 149.235 78.089 152.126 69.753 151.107C68.4004 150.928 67.0754 150.787 63.7625 150.17C61.9871 149.761 60.043 149.622 54.5164 147.504C51.8576 146.254 47.3429 144.964 40.2984 137.859C32.4376 131.442 27.5029 111.033 30.7908 102.746C32.731 95.3046 34.6387 93.1005 35.801 91.238C36.9235 89.6666 37.7476 88.8444 38.2982 88.4043C39.4003 87.5487 39.8936 87.6684 40.2275 87.9625C40.8766 88.5828 40.7718 90.2218 41.9971 89.3916C45.5721 87.1944 46.864 86.9269 47.6896 86.1874C48.4636 85.5449 48.5615 84.8745 48.4168 84.1749C48.1183 82.788 46.7577 81.3961 46.6806 81.3672C46.5612 81.3215 46.4013 81.3234 46.2015 81.3762C49.4316 74.6405 57.559 76.3252 61.4463 69.7586C61.6158 69.3992 59.7284 60.8374 64.7242 65.9426C65.0741 66.2699 70.0159 71.5924 68.4141 66.832C68.3194 66.5313 65.6443 63.8568 67.111 63.3901C68.0707 63.0873 68.7438 61.5385 70.1897 61.2138C70.5503 61.2742 71.1684 61.6302 72.2154 62.6179C73.1627 63.5346 77.7032 69.1183 75.9599 63.5047C75.775 63.1519 71.1577 50.8817 76.733 57.8812C77.6559 59.0335 82.2613 67.2025 81.7965 61.8911C81.7278 60.852 79.9259 59.4746 80.3629 57.7123C81.0958 54.9699 84.7182 55.8364 85.8363 50.7067C85.9513 49.8306 85.862 42.8735 89.8341 46.535C90.432 47.1181 90.946 50.2726 92.1394 50.1989C94.1259 50.0859 96.087 49.5754 98.1924 49.0176C102.826 47.874 109.827 45.7764 120.04 49.1147C125.464 51.2129 121.42 55.2724 125.858 58.429C130.788 61.7584 136.184 68.6443 139.303 69.0722C142.728 69.632 147.496 62.5978 150.153 65.0407C152.746 67.4768 152.612 66.3353 149.434 63.3021C146.35 60.2147 139.289 56.7342 134.437 56.3646C135.585 57.5576 136.995 59.0101 138.769 59.5553C139.341 59.7294 139.206 56.8049 140.053 56.8462C143.137 57.0236 149.718 54.5159 153.776 60.6065C157.007 65.5031 152.97 69.2764 155.484 71.2582C156.723 72.2016 157.938 62.7937 158.228 62.4936C161.106 59.4459 163.322 63.5569 166.174 62.2328C166.766 61.9582 166.117 58.1631 166.625 57.9715C168.366 57.2833 170.284 58.9574 172.054 58.6372C172.849 58.4851 172.691 55.5794 173.44 55.802C175.232 56.3027 176.863 57.5341 178.629 60.2879C178.786 60.5389 177.63 64.1349 178.981 64.2929C181.189 64.5408 183.83 67.3133 186.652 64.699C187.488 63.9136 187.965 57.2819 189.426 61.9856C189.74 62.9719 188.618 70.8763 191.229 64.1792C191.558 63.2869 194.492 57.4044 196.37 58.2724C200.102 58.7622 202.875 59.6278 205.065 60.4849C206.914 61.234 208.281 61.9787 209.429 62.71C211.671 64.1683 212.553 65.2723 213.343 66.4884C215.492 69.7542 213.825 77.0178 215.722 77.4436C216.024 77.5107 217.747 74.2021 219.145 75.0872C223.732 78.0785 225.344 80.7992 228.409 82.9476C229.221 83.5182 231.313 80.1536 232.451 81.1118C233.6 82.0906 234.609 83.3283 235.669 85.0505C236.22 85.9498 236.736 86.8766 237.533 88.4383C237.938 89.2451 238.376 90.1034 239.187 91.8821C239.288 92.1065 239.371 92.2979 239.502 92.5927C239.635 92.8943 239.775 93.2184 239.923 93.5728C240.071 93.9273 240.227 94.3119 240.393 94.7382C240.569 95.1924 240.698 95.5306 240.986 96.3352C241.244 97.0633 241.522 97.9005 241.817 98.9249C241.965 99.4376 242.116 99.9979 242.269 100.622C242.345 100.934 242.422 101.262 242.499 101.609C242.573 101.945 242.721 102.645 242.828 103.239C243.254 105.753 243.787 109.05 243.347 114.477C243.95 117.49 238.002 141.244 218.896 148.646C211.093 151.709 208.781 151.382 206.325 151.687C204.419 151.784 202.826 151.72 201.841 151.605C199.043 151.26 200.908 148.142 200.674 147.818C197.907 142.456 196.942 149.687 196.152 150.093C192.001 152.457 190.135 148.795 187.373 149.404C186.622 149.56 186.731 153.08 186.551 153.372C184.665 156.204 186.535 150.127 185.687 149.328C183.337 147.068 180.601 146.951 178.039 146.982C177.097 146.998 177.472 151.155 176.624 151.12C174.09 151.049 171.551 150.666 168.899 149.821C165.984 148.871 164.205 147.982 158.638 145.018C155.907 143.593 158.782 141.312 158.42 140.425C158.233 140.006 158.008 139.624 157.74 139.267C157.606 139.088 157.462 138.916 157.305 138.749C157.152 138.583 156.874 138.373 156.629 138.184C156.119 137.797 155.527 137.403 154.811 136.954C154.067 136.479 153.398 136.119 151.606 134.955C149.859 133.724 148.197 132.817 144.629 129.023C142.211 126.276 138.876 122.009 136.905 114.667C134.806 107.507 135.835 97.0405 139.682 90.1171C143.411 83.0557 147.957 79.4448 151.128 77.2262C153.262 75.763 154.492 75.0993 155.834 74.397C158.394 73.0908 160.169 72.4242 161.605 71.8739C161.965 70.5816 162.095 68.789 162.232 68.4364C163.544 65.0657 164.984 67.553 166.599 66.6548C174.618 62.1917 184.52 62.4498 191.196 62.497C193.417 62.5046 195.462 62.6372 197.388 62.7912C198.414 63.3381 202.239 63.2468 205.833 63.0862C209.645 62.9142 213.758 62.4113 220.056 61.9255C221.164 61.8579 219.941 57.7407 220.958 57.6339C226.32 57.393 233.044 56.9057 244.999 62.2134C252.014 65.3723 259.562 71.9727 263.67 78.8985C267.908 85.8299 269.318 91.9446 270.019 96.5101C271.211 105.644 270.297 110.459 270.044 114.53C269.94 115.603 274.085 114.776 274.033 116.548C273.996 118.136 273.756 119.657 273.403 120.789C273.229 121.347 273.027 121.813 272.83 122.066C272.633 122.309 272.435 122.393 272.325 121.821C271.946 123.524 271.82 123.881 271.707 124.299C271.603 124.661 271.539 124.869 271.5 124.988C271.449 125.136 271.414 125.229 271.385 125.302C271.325 125.451 271.3 125.485 271.273 125.521C271.221 125.591 271.188 125.599 271.153 125.607C271.086 125.618 271.026 125.593 270.964 125.568C270.418 125.283 267.144 124.485 266.655 124.239C266.16 123.906 265.9 123.717 266.026 121.84C266.041 120.704 266.405 119.755 266.148 114.66C265.544 111.821 266.884 108.324 259.906 96.7678C256.429 91.1073 247.17 83.4168 237.742 81.4971C233.092 80.4161 229.455 80.349 226.056 80.608C223.205 80.843 220.805 81.3575 218.777 81.9399C218.264 82.0385 217.811 82.1203 217.409 82.1793C216.093 82.3723 216.563 77.9052 214.909 78.4911C212.63 79.3446 212.42 79.5062 213.02 79.0617C213.727 78.6021 215.116 77.6373 218.838 75.7357C222.751 73.9856 227.164 72.8865 232.482 73.4416C233.149 73.5094 237.19 80.6069 237.551 78.6908C236.639 76.6177 235.469 74.2264 234.445 72.0344C243.748 66.1769 255.209 63.7823 266.706 60.9684C267.687 60.7327 268.822 60.443 269.964 60.1514C270.548 60.0015 268.339 56.1397 269.486 55.8243C276.328 54.0942 283.55 50.6806 296.578 55.2C297.929 55.7042 296.703 63.1488 300.624 62.4156C301.152 62.1635 308.128 62.4585 311.201 61.9823C311.632 61.8846 311.064 57.8581 314.201 58.9536C320.166 61.0979 328.023 65.9574 333.532 73.569C344.558 90.2206 341.219 99.6018 340.747 104.754C339.641 110.052 338.069 113.03 336.521 115.491C335.762 116.627 332.626 114.107 332.066 114.86C328.204 119.831 328.692 125.171 323.984 126.924C320.869 127.956 315.455 124.188 309.213 122.281C308.329 122.016 307.678 122.996 304.307 121.383C295.754 117.463 286.824 112.279 277.689 108.138C276.707 107.689 276.455 108.293 275.866 108.757C275.274 109.233 274.414 109.383 272.555 107.166C272.363 106.729 271.688 104.174 270.249 103.106C269.281 102.308 265.663 101.032 264.515 99.8318C263.363 98.6426 266.455 99.5986 265.134 98.1375C263.783 96.6828 259.819 94.9359 259.885 93.6625ZM102.59 104.922C102.357 101.258 101.771 114.562 101.976 111.384C101.99 111.215 102.594 105.101 102.59 104.922ZM105.878 75.3995C107.154 81.3379 108.639 72.7684 107.758 68.1863C106.872 63.6091 105.487 73.5993 105.878 75.3995ZM89.5214 78.9648C91.1509 83.6636 92.221 64.8181 90.1018 68.5501C89.9787 68.7609 89.4257 78.6919 89.5214 78.9648ZM310.063 116.508C309.896 116.449 309.283 117.31 309.43 117.406C312.97 119.789 314.22 118.011 310.063 116.508ZM73.3254 83.0475C73.8114 85.617 75.5405 82.7246 74.9385 79.5286C74.4515 76.9571 72.717 79.8508 73.3254 83.0475ZM79.001 99.4926C79.1326 99.6416 79.8023 99.3818 79.1417 98.4764C77.0094 95.5608 76.7861 96.9762 79.001 99.4926ZM46.0878 82.6473C50.1181 83.4117 52.2626 99.0429 47.9588 97.2161C47.1764 96.8862 49.7282 92.2702 48.7477 90.8498C46.9427 88.2619 45.5993 98.0339 43.7933 92.7674C43.4614 91.8032 45.8549 82.5685 46.0952 82.6256C46.0927 82.6328 46.0902 82.6401 46.0878 82.6473ZM103.405 88.9512C103.397 88.7694 102.45 88.5615 102.416 88.7405C101.917 92.9486 103.443 93.3484 103.405 88.9512ZM111.676 91.1667C111.566 91.3196 111.501 91.4927 111.576 91.7009C111.644 91.8996 111.859 92.1653 112.008 92.0767C118.216 88.5915 115.476 84.72 111.676 91.1667ZM158.082 91.9628C155.764 88.3524 155.322 88.0794 159.667 91.2364C159.05 91.5052 158.641 91.84 158.082 91.9628Z" fill="#E3D6CD"/>
</svg>
