<svg width="418" height="146" viewBox="0 0 418 146" fill="none" xmlns="http://www.w3.org/2000/svg">
<path opacity="0.1" d="M49.8418 10.7083C51.1692 9.61234 52.7903 10.9537 54.0415 12.76C54.4359 13.3208 54.0257 15.6544 54.2848 16.1477C54.7903 17.11 55.4618 16.0087 56.0052 17.1611C56.1808 17.5544 55.5433 21.2454 55.7292 21.5721C56.7641 23.3428 58.0153 22.514 59.9252 23.6401C61.0054 24.2744 62.0046 24.7825 64.8559 26.0214C65.5754 26.343 66.6121 26.7843 67.8839 27.4192C69.5869 28.3353 70.9385 28.7032 75.3381 32.1937C77.0283 33.6892 80.7826 36.7535 83.8308 43.3702C87.2734 49.2953 87.0282 63.0501 83.7794 68.4479C77.3472 80.2036 74.12 79.8191 71.6692 81.8109C63.1694 84.069 59.1084 83.6388 55.6092 83.4567C54.1925 83.3174 51.9153 80.4783 51.6988 82.1257C51.6778 82.3198 52.8067 85.3995 52.8815 85.6597C54.0722 89.6276 51.9297 83.3626 51.4988 82.5828C51.0915 81.8277 50.7514 81.2511 50.4845 80.8256C53.3351 79.7248 57.4977 77.224 60.4064 72.698C63.3791 68.2174 64.0707 62.7639 63.6654 59.3066C62.6787 52.2507 60.5801 50.4623 59.6349 48.9288C59.1176 48.2423 58.5829 47.6533 58.5733 47.6585C58.4457 47.5286 58.3257 47.411 58.2122 47.3031C57.9854 47.0874 57.7848 46.91 57.6038 46.7573C56.8845 46.156 56.4536 45.8992 56.1232 45.7141C55.963 45.6272 55.8152 45.5529 55.7219 45.5212C55.6462 45.5031 55.5783 45.4901 55.517 45.4806C55.3944 45.4619 55.2979 45.4573 55.2205 45.4605C54.9119 45.4756 54.9056 45.604 54.9384 45.6589C55.0613 45.8092 55.4219 45.7407 55.9711 45.5239C56.5497 45.2423 59.7486 39.5571 58.0843 42.831C57.9744 43.0538 56.0358 45.9486 55.9244 46.3175C55.6783 47.1504 56.4268 46.8833 56.4399 47.2158C56.4733 47.8825 56.5624 47.8961 56.8626 48.1267C57.225 48.448 56.9163 50.2861 57.7843 49.888C57.9796 49.797 59.6877 46.6579 60.1647 46.2361C60.6391 45.814 60.9314 46.3428 60.6525 47.1567C60.3643 47.9657 58.861 50.3362 58.5562 50.9034C55.9809 55.6892 60.3612 49.5473 60.5228 49.427C63.363 47.4313 62.2233 51.7326 63.414 52.4181C64.2964 52.9152 65.9754 52.259 66.719 52.9168C67.6135 53.7215 67.4939 55.8891 68.6503 56.1744C68.7699 56.2078 70.7511 52.5043 70.901 52.5376C72.4949 52.8957 73.6027 54.0622 73.5438 57.2959C73.5357 57.6232 71.5266 60.7196 71.409 61.2379C70.7296 64.3404 68.4401 71.4132 76.8977 57.7638C77.1544 58.632 77.4976 59.5727 76.4134 62.6773C75.7102 64.6725 73.4092 67.9828 74.6561 66.721C74.9346 66.4402 76.5554 63.3169 76.8413 63.1268C78.0314 62.3226 78.1102 63.6814 79.5567 62.4125C79.8554 62.1474 81.3762 59.3879 81.6874 58.9121C84.2068 55.0584 80.9375 61.9352 80.7631 62.4705C79.4839 66.4745 80.8428 65.3809 81.481 65.8544C81.6269 65.9649 83.5112 62.1695 83.7249 62.1428C84.8347 62.0699 85.4812 62.8474 85.334 64.9128C85.2914 65.3784 83.3929 68.4478 83.2834 68.8317C82.8444 70.4986 86.2329 64.5919 85.8541 66.0627C85.7786 66.3651 84.2522 69.0477 84.1017 69.3517C81.7338 74.1215 85.5552 67.619 85.687 67.5014C87.4179 65.8555 84.1131 73.0166 85.1436 72.2964C85.2433 72.1887 86.9649 68.6833 87.1096 68.5795C87.1562 68.5399 87.1659 68.4872 87.0836 68.3981C87.0626 68.3757 87.0352 68.3508 86.9991 68.3225C86.9811 68.3084 86.9608 68.2934 86.9379 68.2773C86.8844 68.2473 86.812 68.2092 86.7189 68.1634C86.5242 68.0699 86.2765 67.9477 85.684 67.7279C85.3773 67.6174 84.9898 67.4788 84.2995 67.2982C83.5654 67.1356 82.7046 66.8341 80.3047 66.7912C79.8131 66.7581 79.1648 66.7485 78.237 66.8612C77.1757 67.0784 76.6207 66.8537 73.263 68.4402C70.3838 69.8088 65.8572 73.9153 64.8468 79.8633C64.3516 82.5799 64.6291 84.8762 65.028 86.5281C65.3398 87.7801 65.647 88.5312 65.9702 89.2518C67.3739 92.0791 67.9182 92.2547 68.3777 92.7392C68.8527 93.1453 69.0571 93.1678 69.2664 93.1755C70.0023 93.077 70.1933 91.9226 70.604 90.492C70.7449 89.9973 72.6055 87.726 72.815 87.4311C76.013 82.7674 71.3755 88.7546 71.1609 88.9508C69.5063 90.2828 72.7096 84.7749 67.1987 91.9255C66.8866 87.9015 61.6457 90.5415 63.6056 82.1836C63.6252 82.0848 65.7098 78.9928 65.7402 78.8092C66.1267 76.5648 63.1195 81.5211 58.7597 87.1404C57.6637 88.5506 61.9379 81.1239 62.2464 80.5764C63.382 78.5581 66.5326 73.9902 66.7352 73.5881C68.3109 70.4202 58.3694 85.8369 57.8922 85.5333C57.8942 85.4981 59.799 82.7093 59.9428 82.4023C60.396 81.4396 59.542 82.4845 60.0576 81.4331C61.2525 79.0014 66.0377 71.4806 62.7865 75.5525C62.3642 76.0806 56.7436 84.8384 56.5839 84.1454C56.5242 83.8615 55.6782 83.5172 55.8345 82.8113C55.9914 82.1072 57.9938 79.4117 58.0584 79.2803C59.9448 75.2102 61.1785 73.8235 64.5517 68.1826C67.9233 62.5701 59.3203 75.5811 58.2362 76.9503C57.1577 78.3175 58.7778 74.9979 59.3919 73.8777C60.0044 72.7559 61.3233 71.0757 61.6389 70.4199C63.7077 66.1389 57.0317 76.6499 55.4385 78.5602C51.6581 83.077 57.8031 73.2632 58.0568 72.0573C58.1199 71.7278 56.7006 73.9502 56.457 74.0803C55.5177 74.5701 57.341 71.4387 54.9417 73.7872C54.5618 74.1782 50.0328 79.4829 52.7859 75.1687C53.1893 74.5514 55.0142 72.3168 55.2203 71.6645C55.5282 70.6849 55.4717 69.8482 54.5637 70.3562C53.8979 70.7367 51.1911 74.6547 51.8143 73.2622C52.1007 72.6461 54.0788 70.6732 54.4893 69.7103C54.9371 68.7818 54.2292 68.3371 53.9638 68.2172C53.67 68.0784 51.3209 70.8133 51.1419 70.9785C50.059 71.879 48.1115 72.3845 48.0266 72.2769C47.6916 71.9785 47.1926 71.3886 46.7708 70.6885C46.4603 70.1179 45.4816 68.6439 45.0361 66.1546C44.6826 64.4054 44.6678 61.5855 46.0182 58.9558C47.2913 56.421 49.3949 54.8595 50.9715 54.1531C51.353 53.9764 51.8167 53.7997 52.0477 53.7356C52.2815 53.6686 52.5047 53.6146 52.718 53.5707C53.1446 53.4832 53.5311 53.4356 53.8841 53.412C54.59 53.3662 55.1644 53.4117 55.6641 53.4883C56.8998 53.8864 57.4681 53.8593 60.6514 55.3928C61.6888 55.7803 65.1238 58.8652 65.3395 61.6254C65.5742 62.9233 65.4629 64.0339 65.2683 64.8804C65.22 65.0896 65.1611 65.3063 65.1081 65.4668C65.0608 65.6021 65.0117 65.7304 64.9617 65.8526C64.8615 66.0969 64.7574 66.3164 64.6529 66.5168C62.9241 69.2852 62.2895 69.2121 62.0974 70.5127C62.0589 70.7848 64.9871 73.2098 65.0104 73.2774C65.5813 75.0136 58.5862 67.6954 55.8306 65.6925C61.4714 70.9482 60.2646 70.196 60.5449 71.1142C60.6789 71.5662 62.8767 73.5898 63.0791 73.8196C66.0089 77.3027 61.6928 73.3294 60.8358 72.4916C57.6275 69.4638 61.0754 73.3716 58.9406 71.3361C56.8367 69.3014 54.0627 65.9593 53.8405 66.2451C55.6467 68.3349 60.814 73.3767 61.3719 74.4561C63.4368 78.586 58.0254 75.8001 57.0173 75.887C55.9709 76.0109 56.0985 76.5693 55.0677 76.1359C53.2214 75.3358 56.9271 79.2097 58.0785 81.4431C59.2276 83.6774 50.9546 73.4311 49.07 71.3178C47.188 69.204 48.9999 71.4855 47.9251 70.3574C46.851 69.2291 45.7693 67.6241 45.2222 67.3214C44.6762 67.0187 47.4438 71.2676 49.2877 73.5839C53.195 78.4904 57.6422 83.3485 55.7005 81.9605C55.5861 81.8774 53.4413 79.1575 53.1161 78.9739C50.6055 77.6036 49.6904 78.1598 47.374 77.0408C47.0518 76.883 44.6407 73.877 44.4238 73.753C42.1528 72.4571 46.6265 77.175 51.0098 82.9223C44.7943 75.6054 40.7385 71.3464 40.1789 71.7629C39.8472 72.0055 42.6705 75.1064 44.4433 77.4844C44.9796 78.1994 42.8505 76.2413 44.1302 77.7426C48.3236 82.6407 53.3208 87.8489 50.9781 86.0952C50.8663 86.0124 48.5529 83.3469 48.3392 83.2526C46.94 82.6382 51.4813 87.6218 51.6824 88.5587C51.8563 89.2776 48.523 86.8018 47.8196 86.5894C39.7995 79.3589 41.1169 81.6264 47.0008 86.1948C46.7257 86.0274 47.2206 86.2001 46.722 84.7839C46.5465 84.2663 43.5112 83.4516 43.2164 83.2782C40.7758 82.2143 41.1828 82.6107 42.404 82.4737C43.6131 82.4177 45.4898 81.7596 45.5588 81.3079C45.8302 80.1583 45.106 78.1468 44.0485 77.1508C43.0729 76.1715 42.3713 75.9218 41.7634 75.761C41.6163 75.7265 41.4812 75.7054 41.3579 75.6939C41.2407 75.6842 41.1802 75.6925 41.1 75.6995C40.9491 75.7159 40.8215 75.7506 40.7147 75.7929C40.5012 75.878 40.3716 75.9921 40.2976 76.0674C39.0095 76.1113 38.5582 76.3354 38.1951 76.4514C37.8665 76.5745 37.6418 76.6917 37.5972 76.7196C37.4569 76.8004 37.3829 76.8447 37.3291 76.8617C37.224 76.8959 37.2119 76.8157 37.1422 76.6687C37.0317 76.3579 36.7634 75.7472 36.2104 74.6514C36.1302 74.4723 31.9188 68.2702 35.1439 72.6962C35.3754 72.9949 37.094 75.9535 37.5437 75.9637C37.9591 75.999 40.9803 78.7785 39.3819 75.641C39.0073 74.8786 35.6554 69.7881 38.7119 73.4411C39.1276 73.9366 40.3778 75.6866 41.1371 76.6131C43.5631 79.5602 39.1101 73.4276 43.1343 78.457C47.1587 83.4858 50.4679 87.03 48.2769 83.1155C48.2155 82.9999 44.692 78.1335 44.9032 78.0917C45.2361 78.0346 46.3472 78.7588 46.5793 78.53C46.6874 78.4201 44.329 75.5291 44.3082 75.4589C43.8302 73.186 46.4368 75.3684 48.2025 75.81C48.5348 75.8935 45.8063 71.5645 48.6241 74.4584C51.7199 77.6169 62.8426 92.171 60.9425 88.0967C60.2088 86.4448 45.8691 68.1645 54.0756 76.9953C53.2373 73.8159 58.2935 77.6085 56.5785 73.4096C56.5077 73.2186 52.2404 68.3346 52.3939 68.3114C52.6313 68.2853 54.7978 70.4058 55.0475 70.4415C55.6038 70.5369 55.5399 69.9999 55.3303 69.5037C55.2381 69.2437 55.1039 68.984 54.9269 68.9396C54.8792 68.9356 54.8247 68.9531 54.7651 69.0115C54.7043 69.0957 54.5436 69.3176 54.5658 69.87C54.5763 70.0117 54.5963 70.151 54.6616 70.3451C54.7352 70.5613 54.8621 70.7893 55.026 70.978C55.359 71.3658 55.7773 71.5369 56.0409 71.5951C56.107 71.6105 56.1768 71.6216 56.2203 71.6265C56.2493 71.6297 56.2768 71.6317 56.3027 71.6329C56.3544 71.6353 56.4001 71.6343 56.4405 71.6312C56.5213 71.6248 56.5813 71.6104 56.6264 71.5927C56.718 71.5568 56.7232 71.4402 56.6941 71.2764C56.3671 70.5126 55.87 68.3813 55.6061 68.2943C55.2925 68.1909 56.0587 72.2492 55.2022 70.3953C54.5692 68.9771 52.6773 60.7539 52.3809 59.8067C53.7878 68.0034 53.5583 67.8774 53.3897 70.1076C53.3503 70.5405 53.7615 73.408 53.7515 73.7621C53.6003 75.2779 53.2068 72.9036 52.9789 74.535C52.906 74.9272 52.9524 77.7676 52.8524 78.2481C52.2179 82.5712 48.9332 75.5836 49.1955 73.8556C49.132 71.1338 49.4592 70.4308 49.1842 69.8238C48.9826 69.3028 48.6034 68.75 49.4841 68.7103C51.183 68.8734 53.0345 69.8916 54.0276 70.1085C55.0202 70.4228 55.5117 70.3745 55.8967 69.8591C56.2383 69.3597 56.6374 68.3338 56.3501 66.6227C56.1913 65.9364 55.2466 66.2186 54.3838 66.606C53.5133 66.9982 52.6185 67.3728 52.5716 67.3654C52.2956 67.321 52.3205 67.2347 52.3091 67.041C52.312 66.8651 52.2795 66.6227 52.1479 66.5819C51.8965 66.5023 51.2712 67.2362 50.2736 70.8801C52.8631 61.4617 52.1774 61.7822 51.6127 64.1488C50.9253 66.4895 50.2768 70.8177 50.2958 68.8553C50.3251 68.5409 50.943 59.3206 51.5176 58.0158C52.1207 56.7222 52.3463 59.6455 53.7109 57.8209C53.8927 57.6134 54.8999 55.507 56.2993 53.57C57.6045 51.5857 59.7634 50.0275 60.127 49.9242C60.8669 49.7148 61.4826 49.7838 61.9404 50.0383C62.4789 50.3397 62.8776 50.8473 63.0917 51.4462C63.5323 52.653 63.2598 54.2256 62.6122 55.687C61.3864 58.6929 58.7572 61.2726 58.557 61.6059C56.2876 65.247 56.7463 65.544 58.3743 66.677C59.9534 67.6846 62.2464 69.2295 62.483 69.7277C63.5307 72.081 63.2442 73.1404 63.1928 73.6617C63.1566 73.9209 63.1455 74.0564 63.3049 74.0942C63.4646 74.1242 63.7984 74.0759 64.4835 73.7119C65.3772 73.1703 68.2402 72.7449 70.7744 70.8866C73.11 69.3339 76.1014 65.2634 72.0626 58.0542C68.2007 51.9472 63.5997 50.1034 61.1463 49.4145C58.7531 48.8176 56.8213 48.9863 55.9984 49.4168C54.9931 49.8191 54.2676 50.3742 53.7362 50.9328C53.3044 51.4989 52.9875 52.0609 52.7366 52.5358C51.7579 54.4501 51.8613 54.893 50.836 49.5051C50.4709 47.2012 48.8638 37.4486 49.8409 45.1631C49.8528 45.6587 51.2292 52.6327 50.4292 48.2074C50.322 47.6507 49.7328 44.8319 49.6893 44.5939C49.4082 43.054 49.9597 45.2818 49.8369 44.1824C49.7711 43.6058 49.6828 42.8816 49.679 42.4526C50.8496 42.0787 52.3395 41.6716 54.7006 41.4583C55.8863 41.3585 57.3021 41.3114 59.0738 41.4544C59.2955 41.4726 59.5223 41.4939 59.7553 41.519C59.8715 41.5315 59.9896 41.5449 60.1088 41.5593C60.2403 41.5756 60.3003 41.5818 60.5875 41.6224C61.5387 41.758 62.5804 41.955 63.7177 42.2512C65.983 42.8434 68.6836 43.8408 71.5312 45.6121C77.3054 48.7934 82.9273 57.134 83.9707 62.5669C85.2412 67.5938 84.9214 71.5647 84.4401 74.3861C83.9268 77.2348 83.1972 79.1303 82.5549 80.5955C82.0766 81.6299 81.7629 82.1451 81.3891 82.7467C80.4739 84.1846 79.4119 84.9788 78.3733 85.4075C77.4209 85.7054 76.5537 85.5692 75.665 85.4221C73.9188 85.0819 72.3291 84.3524 71.7381 84.0313C68.2392 82.276 72.2469 87.0246 68.7279 84.065C65.2794 80.9971 60.7068 75.6878 58.2236 73.952C63.3977 79.3559 68.6705 84.9388 73.8275 90.4178C72.1798 91.6173 69.6571 90.5869 68.8904 91.6799C68.8022 91.8186 71.5325 94.7765 71.5015 95.0071C71.3415 95.9811 69.0467 94.1622 69.2336 95.4895C69.3883 96.5285 71.6249 100.201 71.8536 101.398C66.1851 94.9731 67.3906 97.7351 66.4381 97.4945C66.1087 97.4117 64.6932 95.616 64.1155 95.1225C61.9736 93.3015 66.8806 99.0647 67.5022 100.092C70.1402 104.484 59.4785 91.0852 59.1707 91.865C59.1536 91.8997 64.3993 99.385 64.6922 99.8773C66.6319 103.065 62.683 97.4154 62.0571 97.0481C60.9097 96.3793 59.3274 94.8479 60.4995 97.3194C60.8509 98.0482 63.9929 102.808 61.0531 99.5163C60.6687 99.0848 58.858 96.6714 58.7233 96.552C56.4425 94.5871 62.1759 102.136 63.8013 104.932C65.4221 107.731 61.0329 102.842 59.805 101.405C56.6374 97.6803 58.7509 99.5895 58.4748 99.1979C55.2109 94.5233 55.4718 95.5539 54.9322 95.355C49.3482 87.9242 49.3588 88.6105 54.3998 95.175C54.9516 95.8911 54.6286 95.0515 54.9322 95.355C60.1665 102.828 60.3891 104.116 54.9214 97.5552C52.3634 94.4762 49.8167 90.5724 50.1942 92.3994C50.3565 93.2286 54.1747 98.3669 54.8829 100.003C55.6947 101.866 54.9559 101.777 53.8752 101.442C53.3114 101.288 52.7334 101.031 51.9831 101.062C51.6071 101.075 51.3274 101.086 50.6621 101.376C50.3528 101.506 50.0053 101.673 49.557 101.898C49.302 102.005 48.2041 102.683 45.634 103.434C44.3018 103.804 42.5567 104.186 40.3114 104.261C39.2692 105.012 40.5545 107.996 39.3878 108.296C38.4982 108.506 37.5211 108.451 36.4557 108.216C35.2901 107.947 34.5895 107.677 32.429 106.87C30.5279 106.107 28.3098 105.048 25.8128 103.374C23.4589 101.89 19.2243 98.1786 16.7617 93.8546C15.8549 92.1357 14.4554 98.3414 11.7297 91.8004C9.67448 85.9109 9.88818 80.8992 10.4839 77.3456C11.0339 74.2873 11.7331 72.5414 12.4637 70.9042C12.8206 70.1277 13.2156 69.3826 13.5332 68.8559C13.8225 68.3848 14.1094 67.9609 14.3917 67.5735C14.9565 66.7995 15.5022 66.1699 16.0224 65.6263C17.9228 63.7577 19.3684 63.04 20.2437 62.0863C21.1403 61.1128 20.8863 58.4941 21.7707 58.2036C23.3826 57.5862 28.0178 60.5845 27.8461 59.0014C27.7587 57.9691 25.2264 55.3131 23.7714 53.2636C20.9655 49.2781 27.3469 55.2294 28.2982 56.1836C28.3324 56.2126 28.5188 57.1957 29.9546 58.4428C32.6401 61.3071 28.3045 56.2007 28.2982 56.1836C28.9235 56.7897 30.19 56.7984 29.8762 56.145C29.7049 55.7873 27.4036 53.1825 27.3575 53.0455C26.3063 49.8531 26.6767 48.387 28.606 48.8874C28.6668 48.9281 31.1457 51.9226 31.2573 51.981C32.8806 52.8742 30.1355 48.9692 28.7142 46.4746C27.2915 43.9828 28.1866 44.4633 32.7326 49.358C32.4771 48.4728 34.7718 50.393 36.1703 51.5513C37.565 52.713 32.6471 46.9615 32.5673 46.8329C29.9813 42.7386 33.1095 45.7558 34.0074 45.853C34.4373 45.9147 34.0028 44.8156 33.4292 44.2169C32.9733 43.7308 34.2224 44.9869 33.2944 44.3174C33.1658 44.2329 30.7382 41.8964 30.6379 41.8137C27.4521 39.3184 33.6012 44.8026 34.6476 45.8373C38.4098 49.6613 40.7066 51.3265 38.1759 50.4714C37.7308 50.1118 27.2545 44.2286 25.4177 46.0007C24.4087 46.8742 24.7082 48.1804 25.1623 49.1593C25.5866 50.2832 26.0033 50.9792 24.4738 54.134C24.346 54.4227 23.6616 54.3395 22.86 54.8213C22.46 55.0668 22.0288 55.4573 21.638 56.1789C21.1976 57.1709 20.7485 58.656 20.5958 61.1159C20.0783 67.5151 21.8303 78.6845 29.5895 87.3724C37.8948 96.1771 43.3205 97.0104 47.3681 98.2826C49.3715 98.781 51.3035 99.0346 52.4603 99.1102C53.4661 99.1706 54.3506 99.1729 55.1375 99.1457C56.7103 99.0888 57.8984 98.9206 58.8509 98.747C60.1325 98.5777 61.6999 98.3361 63.7195 97.8309C64.7294 97.5762 65.8536 97.2521 67.1102 96.808C67.7384 96.5858 68.3994 96.3331 69.0938 96.0415C69.831 95.7375 71.2132 95.115 72.3869 94.4737C77.2112 91.9327 83.7116 86.6421 87.486 78.5418C91.5174 70.1284 91.2444 61.4108 90.0772 56.233C88.8032 51.3079 94.6068 56.0908 92.5828 49.6664C91.3499 46.3033 90.0378 44.0076 89.0602 42.4246C88.3126 41.2086 87.6473 40.2786 87.0601 39.5225C86.4856 38.7823 85.9182 38.1422 85.5498 37.7686C85.1932 37.4071 84.8681 37.1214 84.567 36.8957C83.3166 35.9621 82.6629 36.13 81.7725 36.6438C81.3492 36.9314 79.5517 39.225 78.9785 39.873C75.5772 43.8498 80.37 37.9492 80.4336 37.8143C82.576 34.8575 79.1419 40.8805 81.8626 38.777C82.0305 38.6595 86.9821 32.1732 83.2164 38.0653C82.9626 38.4551 79.1276 44.4955 82.0336 40.5579C82.2145 40.3109 84.1633 37.1844 84.15 37.6282C84.1446 38.0762 85.8168 36.2374 83.8662 39.7984C83.2468 40.917 79.538 47.0179 82.9608 42.4637C83.203 42.1481 90.7104 31.6965 85.9945 39.2131C85.2183 40.4504 80.0335 48.2773 83.0358 44.4901C83.6161 43.7547 84.6404 41.9223 85.5366 40.9462C86.9107 39.4372 85.904 41.783 88.536 38.5063C89.0013 37.9258 92.7348 32.7529 90.3057 36.9425C89.9257 37.5988 88.1547 40.1859 88.0746 40.5522C87.6868 42.3068 89.3973 40.9173 88.7801 43.1016C88.565 43.8703 85.7062 48.0554 85.1758 49.3298C84.6459 50.6039 84.3568 51.9728 85.842 50.1765C87.3271 48.3788 91.4795 41.4466 92.1697 41.1243C95.1741 39.73 94.1227 44.6991 95.4132 46.3988C95.605 46.6522 97.0081 44.1134 97.4116 44.319C98.8712 45.0396 103.257 44.7705 101.63 51.2928C100.14 56.3818 95.9184 57.8146 95.7699 60.2529C95.7093 61.4244 102.547 54.919 102.989 54.9155C103.943 54.7517 104.851 55.1652 105.521 55.7437C105.866 56.0422 106.178 56.4061 106.478 56.8244C106.79 57.2544 107.261 57.9245 107.681 58.6023C108.117 59.2966 108.582 60.0788 109.112 60.996C109.244 61.2254 109.381 61.4636 109.522 61.7119C109.592 61.836 109.664 61.9626 109.737 62.092C109.799 62.2059 109.908 62.3885 110.025 62.5857C110.485 63.3622 110.983 64.2396 111.521 65.2772C112.587 67.3848 113.867 69.969 114.987 74.3019C116.681 80.184 117.024 92.4071 110.368 102.397C105.532 109.262 105.795 109.329 106.729 110.068C107.584 110.514 108.698 111.426 103.466 115.422C99.1664 118.494 95.2443 120.071 92.2023 121.013C90.3027 121.603 88.6404 121.947 87.1755 122.164C84.2467 122.588 82.0872 122.532 80.3318 122.393C73.3283 122.211 71.4886 121.29 69.6592 120.86C68.0041 120.367 67.127 120.014 66.4189 119.729C65.0595 119.167 64.4738 118.849 63.9681 118.581C63.5322 118.299 63.2929 118.105 63.0527 117.927C62.6153 117.591 62.2058 117.322 62.0233 117.318C61.6034 117.268 60.3278 119.88 60.1209 119.519C59.64 118.697 59.845 117.418 60.6773 114.771C60.7588 114.532 62.7344 111.491 62.4877 111.204C62.0613 110.737 62.7525 108.05 60.8513 110.17C60.2819 110.809 57.0381 116.606 58.9306 112.41C59.3228 111.532 63.2877 104.611 59.5439 110.415C58.9286 111.383 53.6955 119.109 56.3085 113.705C56.9918 112.28 59.9595 106.462 59.2683 107.251C59.1624 107.379 57.5246 110.551 57.1953 110.765C56.0471 111.457 55.7066 110.829 54.5734 111.474C54.2695 111.653 52.6878 115 52.2925 115.164C51.2463 115.646 50.9032 114.373 50.898 113.042C50.8941 112.542 52.551 109.966 52.6991 109.667C55.113 104.813 51.3604 111.085 51.0645 111.407C49.2692 113.322 50.5663 110.111 49.6346 110.627C49.3814 110.76 47.7544 113.843 47.5742 114.098C45.7958 116.579 49.0958 111.257 49.261 110.558C49.7285 108.577 49.0534 108.515 48.338 108.619C48.0725 108.662 46.275 112.287 46.0594 112.285C44.7361 112.331 43.9332 111.426 44.0985 108.953C44.1342 108.482 45.7939 105.848 46.1108 105.21C48.3329 100.754 44.5849 106.421 44.1765 106.931C42.3163 109.263 43.5346 106.79 42.9356 107.038C39.9796 108.286 38.8018 105.5 37.779 103.601C36.4367 101.143 36.3103 97.639 33.9125 97.1121C33.7615 97.0749 31.7809 100.711 31.6233 100.725C29.683 100.734 29.0814 98.4915 26.9247 98.5788C26.75 98.5787 24.8948 102.042 24.5442 102.154C23.822 102.412 23.3679 101.884 23.5659 100.534C23.6634 99.8842 25.7283 97.2032 25.7936 96.61C25.9913 95.248 25.4843 94.6015 24.5907 94.7773C24.1633 94.8322 22.4407 98.4929 22.0295 98.285C21.3742 97.9685 20.8092 97.7285 19.8349 97.127C19.6003 96.9821 19.3835 96.844 19.0933 96.6462C18.7357 96.4007 18.3437 96.1211 17.8715 95.7638C17.635 95.5846 17.3778 95.3854 17.0883 95.1541C16.8899 94.9933 16.2649 94.4984 15.5419 93.8741C14.7979 93.2263 13.8878 92.4318 12.4718 90.9688C12.1159 90.5987 11.7256 90.1808 11.2898 89.6906C11.0678 89.4405 10.856 89.1976 10.5876 88.8809C9.79807 87.949 8.86937 86.7994 7.73865 85.1363C5.78338 81.6372 1.29104 76.9949 0.419093 62.0916C0.139222 54.8071 2.55101 44.3149 8.51976 36.3396C14.3814 28.256 21.9835 23.8596 27.3863 21.7765C29.7965 21.1718 31.8527 21.6256 34.0932 23.9354C34.3711 24.2207 37.0067 31.9389 36.843 30.3497C36.1796 28.1859 35.3703 25.6497 34.6468 23.3415C37.3841 21.1423 39.7533 23.23 38.7954 24.1027C38.7413 24.1471 37.0471 20.1699 36.9052 20.249C36.4593 20.4965 35.5989 20.5712 34.7255 21.4702C33.5295 22.2255 32.143 23.1747 30.52 24.5117C29.7091 25.1815 28.8395 25.9509 27.9147 26.859C27.0768 27.6697 25.3222 29.5157 23.9142 31.4005C20.9603 35.641 17.7919 39.7743 16.0416 50.5488C14.5272 60.5719 17.9216 70.9886 21.2325 76.2624C22.9465 79.1701 24.7578 81.4314 26.4335 83.2284C27.3522 84.2074 27.8893 84.711 28.4917 85.2684C29.0822 85.8101 29.652 86.2992 30.1998 86.7456C32.3674 88.5099 34.305 89.6979 35.6692 90.4451C38.0106 91.7081 39.909 92.3932 40.9954 92.6992C45.5056 93.8788 46.2084 93.0708 47.2921 92.3078C47.6365 91.9492 49.1108 84.4942 49.2175 85.681C49.2789 85.9054 49.3451 86.9408 49.112 88.5736C49.0833 88.8209 48.5744 92.3323 48.6053 92.4408C48.7247 92.9967 48.1925 92.1212 47.6853 89.913C47.5995 89.5491 47.9943 85.7896 47.9314 85.4975C47.4555 83.4522 46.5509 86.2761 46.0831 82.82C45.7614 80.4929 46.2077 73.9755 46.2253 67.5418C46.2189 66.6336 45.9352 66.4791 46.0554 62.7408C46.319 53.3388 46.8725 43.0528 47.1415 33.0307C47.1701 31.9514 46.993 31.9865 46.8024 31.6404C46.6939 31.4665 46.3925 31.1948 46.2764 30.6449C46.1834 30.094 46.6961 29.2667 46.9195 27.9692C47.0357 27.6223 47.65 25.9111 47.8158 24.1464C47.9512 22.9269 47.9382 19.1194 48.1868 17.5613C48.4169 16.0041 48.4914 19.1986 48.8243 17.371C49.1829 15.522 49.2585 11.1928 49.8418 10.7083ZM42.4104 56.7296C45.0196 59.274 36.2263 49.2825 38.1359 51.8442C38.2385 51.98 42.2823 56.6048 42.4104 56.7296ZM63.0705 83.0064C58.8689 78.8812 64.25 85.6373 67.4819 88.8374C70.7342 92.0128 64.3573 84.2451 63.0705 83.0064ZM53.9736 60.2229C54.0089 60.3261 54.0411 60.4167 54.0702 60.4953C54.7666 60.7758 55.444 60.7476 56.4057 60.5876C56.6463 60.5488 56.9049 60.5033 57.1855 60.4572C57.4967 60.4197 57.6417 60.3321 58.4091 60.3837C59.6935 60.4483 61.4561 60.859 63.1239 61.9144C64.8 62.9471 66.1605 64.5282 67.0142 65.8955C67.8133 67.0986 68.2987 67.8807 68.7809 68.6234C69.7089 70.054 70.4805 70.8618 71.3634 71.1367C72.2257 71.3842 73.2053 71.146 74.027 69.6599C74.4241 68.9066 74.7797 67.808 74.8261 66.1654C74.8291 65.2977 74.8388 64.546 74.5125 63.1532C74.1733 61.7539 73.5795 60.163 72.6395 58.5584C70.8087 55.3108 67.3549 52.3161 64.0939 50.8713C62.4675 50.118 60.9175 49.664 59.5526 49.3948C59.4674 49.378 59.3825 49.3618 59.2982 49.3463C59.2366 49.334 59.2059 49.3262 59.1599 49.3164C59.0738 49.2978 58.9881 49.2799 58.9025 49.2629C58.7316 49.2288 58.5629 49.1982 58.3955 49.1706C58.0613 49.1157 57.7345 49.0735 57.4169 49.0431C54.8618 48.8073 52.9746 49.2725 51.7152 50.0393C51.6601 50.0724 51.6231 50.1845 51.6037 50.3606C51.9792 51.9788 53.8944 59.9908 53.9736 60.2229ZM47.5679 65.773C47.5775 65.5964 47.3467 65.4118 47.3341 65.5866C46.9969 69.8019 47.4287 70.1666 47.5679 65.773ZM54.1712 65.572C53.2219 66.5417 53.0556 66.4345 53.0167 65.6024C52.9937 64.7766 52.8941 63.2354 53.3027 61.6772C53.6607 60.4342 54.3584 60.59 55.1357 61.7226C55.4751 62.276 55.5684 62.9775 55.4656 63.6961C55.3468 64.4107 54.7469 64.9628 54.1712 65.572ZM61.7711 66.7269C61.661 66.892 61.7059 67.1413 62.3442 66.2195C64.3991 63.2503 63.6206 63.9495 61.7711 66.7269ZM48.203 61.7515C49.8027 62.4077 49.631 78.03 49.1841 76.267C49.0332 75.9512 49.3967 71.2916 49.2012 69.8886C48.6356 67.3382 48.9048 77.1253 48.1881 71.9153C48.0045 70.9641 48.0829 61.6801 48.2042 61.7297C48.2038 61.7369 48.2034 61.7442 48.203 61.7515ZM53.1047 68.6137C53.2261 68.7415 53.5254 68.6994 53.4138 68.5651C50.7068 65.3182 50.1199 65.3854 53.1047 68.6137ZM66.1531 79.4978C65.9597 79.8194 66.2627 80.4342 66.4666 80.1546C70.4878 74.527 69.8839 73.2652 66.1531 79.4978ZM47.6012 86.4018C50.6899 89.3285 51.2195 89.4767 47.0051 86.1981C47.2416 86.3553 47.3249 86.3191 47.6012 86.4018ZM325.995 58.7839C328.113 57.5403 331.055 58.6465 333.385 60.2346C334.113 60.7269 333.874 63.1005 334.385 63.5461C335.386 64.4144 336.22 63.2133 337.229 64.255C337.565 64.6118 337.365 68.3636 337.713 68.6522C339.62 70.2066 341.308 69.1635 343.226 69.8567C352.68 73.2791 362.163 74.1715 372.147 75.6865C375.451 76.1816 379.458 79.5475 382.901 78.1069C383.304 77.9352 383.105 74.653 383.185 74.3836C384.459 70.2621 383.963 76.8771 384.731 77.7695C387.789 81.2956 391.179 81.7148 394.277 80.6165C395.597 80.141 394.667 73.5634 395.774 77.2902C395.85 77.5422 395.315 80.9992 395.646 81.3912C396.395 82.2718 397.951 81.7528 398.556 82.0751C399.223 82.442 399.571 82.5924 399.963 82.6784C400.085 82.6888 400.217 82.7003 400.422 82.721C400.647 82.7466 400.849 82.7579 401.608 82.8758C402.055 82.9632 402.44 82.9653 404.188 83.4773C405.187 83.8939 406.259 83.7919 410.159 86.574C411.939 88.082 415.799 90.9701 417.229 98.4407C418.686 106.18 413.991 113.276 411.347 115.371C408.522 117.856 406.832 118.425 405.636 118.954C404.445 119.424 403.708 119.612 403.122 119.76C401.979 120.032 401.436 120.092 400.993 120.153C400.154 120.254 399.831 120.262 399.546 120.278C397.926 120.328 398.139 120.286 398.101 120.293C398.064 120.288 398.028 120.284 397.991 120.281C397.916 120.273 397.841 120.267 397.76 120.261C397.596 120.25 397.411 120.24 397.158 120.225C396.954 120.208 396.729 120.165 396.478 120.103C396.238 120.042 395.903 119.959 395.801 119.875C395.491 119.703 395.147 119.491 394.768 119.306C394.05 118.936 392.993 118.662 392.248 119.029C391.956 119.197 392.206 122.779 391.722 123.369C391.248 123.959 389.924 123.606 389.461 122.747C389.01 121.887 389.32 119.091 389.259 118.445C388.729 112.992 386.77 120.442 386.637 120.623C384.854 122.14 383.097 121.794 381.257 121.049C379.681 120.314 378.136 119.186 376.342 119.122C373.449 119.029 370.89 120.345 368.297 120.05C365.153 119.683 362.842 117.658 359.912 117.878C359.602 117.897 359.802 122.105 359.423 122.137C355.255 122.465 351.527 121.864 347.585 118.877C347.191 118.574 347.853 114.911 347.468 114.388C345.015 111.263 341.591 103.852 339.523 119.832C337.907 119.144 335.908 118.42 334.518 115.131C333.62 113.014 334.721 109.037 333.454 110.704C333.168 111.075 333.389 114.602 332.97 114.893C331.295 116.118 329.553 114.909 327.844 116.663C327.497 117.029 327.47 120.18 327.354 120.744C326.389 125.306 325.339 117.666 325.067 117.103C323.021 112.909 321.219 114.463 319.252 114.289C318.784 114.247 319.182 118.497 318.726 118.608C316.363 119.127 313.92 118.674 311.641 116.711C311.135 116.265 311.746 112.68 311.511 112.282C310.47 110.572 309.977 117.367 308.968 115.858C308.754 115.549 308.993 112.469 308.964 112.129C308.517 106.789 307.684 114.302 307.525 114.463C305.424 116.663 304.41 108.751 302.394 109.793C302.153 109.926 302.546 113.847 301.875 113.982C297.395 114.899 292.709 113.659 288.458 110.385C287.793 109.881 288.383 106.966 288.352 106.603C287.85 100.932 287.131 108.482 286.898 108.759C285.068 110.749 283.637 104.346 282.121 113.316C274.824 109.932 267.202 114.74 260.118 106.424C260.027 106.327 260.318 102.606 260.136 102.429C257.951 100.263 258.193 106.069 256.47 113.103C256.036 114.869 255.172 106.28 255.09 105.65C254.797 103.328 255.36 97.7967 255.251 97.3453C254.342 93.7992 253.913 112.139 252.536 112.1C252.494 112.068 252.784 108.699 252.679 108.36C252.354 107.295 251.955 108.625 251.641 107.452C250.923 104.738 250.922 95.8195 249.527 100.965C249.35 101.633 249.254 112.041 248.041 111.51C247.558 111.29 245.384 111.399 244.798 110.706C244.213 110.014 244.735 106.676 244.696 106.529C243.201 102.046 243.879 100.229 243.265 93.6417C242.65 87.0795 242.389 102.677 242.001 104.406C241.613 106.131 240.53 102.437 240.275 101.157C240.02 99.8762 240.453 97.7579 240.214 97.0302C238.624 92.2746 239.211 104.745 238.562 107.202C237.026 113.019 236.328 101.425 235.124 100.254C234.798 99.9377 234.991 102.579 234.685 102.816C233.476 103.721 232.875 100.092 231.435 103.359C231.199 103.892 229.909 110.811 229.362 105.688C229.285 104.95 229.652 102.077 229.171 101.417C228.451 100.426 227.122 99.7559 226.292 100.695C225.679 101.39 226.218 106.158 225.516 104.661C225.204 103.993 225.903 101.234 225.305 100.21C224.705 99.1861 223.097 99.2613 222.486 99.3396C221.875 99.42 222.104 103.031 222.047 103.272C221.71 104.653 220.495 106.357 220.393 106.349C215.201 106.64 210.642 100.438 205.507 102.313C205.108 102.455 205.27 106.26 205.208 106.321C203.814 107.876 205.147 97.8062 204.291 94.4013C204.225 102.112 203.704 100.702 202.734 101.523C202.266 101.924 202.437 104.915 202.388 105.219C201.593 109.735 201.276 103.868 201.185 102.667C200.852 98.2496 200.232 103.443 200.004 100.49C199.776 97.5595 200.585 93.2442 199.679 93.2766C199.356 96.0292 199.842 103.256 199.127 104.407C196.398 108.76 191.585 102.982 189.526 102.346C187.457 101.71 186.781 102.204 185.603 101.179C183.397 99.3257 184.096 104.694 182.651 107.112C181.205 109.53 182.17 96.3815 182.031 93.5474C181.896 90.7146 181.618 93.6216 181.408 92.0614C181.198 90.5016 181.767 88.589 181.207 87.9929C180.645 87.3972 178.983 92.3963 178.722 95.351C178.167 101.611 178.722 108.204 177.282 105.862C177.199 105.723 177.549 102.267 177.228 101.91C174.701 99.1925 171.992 98.9741 169.354 96.5681C168.995 96.232 169.391 92.3872 169.184 92.148C167.024 89.6451 167.695 96.1523 166.375 103.344C166.811 93.7502 166.246 87.8655 164.607 87.7814C163.624 87.7277 163.725 91.9228 163.046 94.8674C162.842 95.755 162.201 92.8654 162.046 94.8351C161.519 101.273 162.124 108.499 160.397 105.599C160.322 105.461 160.621 101.937 160.358 101.72C158.66 100.295 158.356 107.034 156.529 107.825C155.097 108.446 152.67 104.304 151.129 103.619C151.307 92.8269 149.712 95.2815 148.995 102.717C147.918 102.402 146.767 102.812 145.763 101.776C145.417 101.422 145.67 98.2993 145.629 97.9613C144.994 92.6595 144.49 99.8963 144.266 100.179C141.862 102.922 139.931 97.4252 137.488 102.784C137.403 102.977 137.257 110.474 136.637 104.999C136.597 104.622 137.374 101.211 136.272 100.947C135.17 100.681 133.139 96.6649 131.724 100.146C131.328 100.984 130.383 107.075 129.585 102.326C129.477 101.681 129.574 99.5299 129.417 98.3344C128.906 94.5255 128.711 102.105 128.101 95.6728C127.494 89.2406 126.263 84.4309 124.849 88.8939C124.804 89.0237 124.547 95.0344 124.098 94.9468C123.314 94.8026 122.068 93.5751 121.253 93.6332C120.857 93.6633 121.198 97.386 121.131 97.4558C119.844 98.5315 118.791 98.2535 117.743 97.5387C116.594 96.8275 115.196 95.691 113.849 95.0419C113.288 94.8004 112.477 99.9393 110.983 96.0296C109.463 91.7557 109.019 73.3608 106.3 78.0785C104.827 79.839 105.559 94.272 105.722 95.5643C106.073 95.8292 106.089 96.7795 106.02 99.2969C110.353 97.02 112.831 103.859 117.73 98.7594C117.823 98.6382 117.676 96.912 117.004 95.4113C116.666 94.6705 116.176 93.9905 115.557 93.7384C114.977 93.4428 114.203 93.7484 114.003 94.3712C113.833 94.8649 113.849 95.428 113.983 95.7826C114.113 96.1374 114.332 96.3771 114.562 96.5068C115.344 95.8773 116.829 95.144 116.881 94.8249C117.265 92.9897 114.377 92.1335 114.441 90.3762C114.465 89.7251 117.584 89.3649 117.637 88.6505C117.697 87.9602 113.535 88.0479 115.389 86.7935C116.805 85.8293 125.138 84.3836 126.073 83.6105C117.773 84.1284 117.893 83.5008 115.668 82.376C115.237 82.1541 112.348 82.4714 111.994 82.3659C110.492 81.91 112.888 81.4461 111.265 80.9952C110.875 80.8829 108.035 80.8602 107.556 80.7589C103.375 79.8451 109.817 78.6204 110.94 78.5072C115.201 77.9082 111.54 77.3216 113.249 76.8131C114.958 76.3494 116.956 77.4029 118.019 76.8189C120.216 75.6507 119.978 73.9466 120.341 72.6104C120.467 72.0811 116.669 71.7944 116.6 71.7041C115.865 70.3155 120.048 70.0209 112.821 67.7255C132.059 71.2029 111.124 66.5901 115.371 65.7188C115.715 65.6529 124.692 67.824 125.893 68.6013C127.096 69.3673 124.123 69.3805 126.044 70.472C126.487 70.7559 134.785 73.3376 135.287 73.5063C139.162 75.011 125.587 72.5468 124.829 72.4718C116.674 71.5662 125.677 74.2735 126.287 74.5646C129.032 76.1539 127.001 76.862 129.02 77.9817C130.327 78.7035 139.347 79.3506 139.051 79.6622C138.084 80.5577 125.467 81.333 136.435 82.2435C138.777 82.4021 148.628 81.6666 140.912 82.7564C140.421 82.7786 133.39 84.0226 137.902 83.9101C138.47 83.8884 141.331 83.5661 141.577 83.5824C143.164 83.6819 140.915 84.1764 142.052 84.333C143.188 84.4815 144.852 84.4648 143.963 84.9698C143.427 85.2535 138.281 86.8011 137.047 87.2761C133.489 88.6361 139.574 87.3494 135.25 88.878C130.94 90.5252 124.032 91.8698 121.505 93.7529C128.64 91.5012 135.966 89.1994 143.125 86.8831C143.127 86.9162 143.127 86.9501 143.125 86.9847C143.966 89.566 144.586 92.6358 144.48 96.3512C144.392 100.299 143.231 104.635 141.457 107.986C137.626 115.067 133.192 117.588 130.778 119.037C125.467 121.818 123.474 121.748 121.627 122.081C118.231 122.44 116.703 122.106 115.203 121.872C112.37 121.334 110.567 120.696 108.625 120.673C108.132 120.672 108.229 124.726 107.667 124.823C106.475 125.016 105.482 124.326 104.429 123.665C103.283 122.977 102.536 122.459 99.9532 122.433C99.7339 122.43 99.4252 122.414 99.0878 122.394C98.9185 122.383 98.7394 122.372 98.5471 122.357C98.4495 122.349 98.3564 122.343 98.2438 122.331C98.1146 122.313 97.9793 122.294 97.8368 122.272C97.5516 122.228 97.2379 122.174 96.8796 122.1C96.7004 122.062 96.5099 122.02 96.3051 121.971C96.1156 121.927 95.7478 121.815 95.4178 121.708C94.7266 121.481 93.8967 121.185 92.7406 120.643C91.3803 119.777 88.3254 119.128 82.9208 112.461C80.3988 109.265 77.3534 103.685 76.9668 96.4963C76.4728 89.3141 79.2464 82.2032 82.181 78.1167C88.3552 69.885 92.4978 68.7785 95.0131 67.2321C96.767 65.995 97.7906 65.1703 98.8262 64.3769C100.812 62.837 102.234 61.7046 103.623 61.0814C106.186 69.3558 108.241 66.234 110.317 66.882C110.838 67.118 110.953 69.4022 111.353 70.1245C112.858 72.7983 111.799 65.2836 112.118 64.0728C113.578 58.9086 114.512 76.0062 116.507 75.5067C116.648 75.4844 117.391 66.3265 117.554 65.7532C118.443 62.0177 117.816 68.9233 118.46 69.5789C119.648 70.7779 120.503 72.9368 121.885 70.2344C122.25 69.4346 123.333 63.7247 124.044 68.115C124.148 68.6897 124.143 71.7072 124.221 71.8826C125.642 74.8069 125.56 65.3283 126.35 62.1079C127.145 58.8883 128.53 65.4204 128.812 67.3045C129.554 72.178 128.291 69.3939 128.26 69.8732C127.871 75.575 128.804 74.5853 129.547 75.0617C129.718 84.3556 130.741 83.7913 130.318 75.5184C130.269 74.6147 129.697 75.4852 129.547 75.0617C130.09 65.9377 131.422 64.762 132.514 73.2808C133.066 77.2735 132.561 81.9313 134.2 80.2243C134.951 79.4541 134.651 73.0544 135.326 71.309C136.873 67.3268 138.942 73.301 140.638 72.3676C141.222 72.0285 140.677 68.5228 141.063 68.1703C142.077 67.2241 142.964 69.8577 144.014 68.5179C144.109 68.3921 143.902 64.7233 144.227 64.6787C146.683 64.2693 148.959 66.6387 151.574 66.7323C152.781 66.7751 155.011 64.7793 156.31 65.2034C158.52 65.9155 161.416 71.2923 163.243 70.0263C164.478 69.2169 164.272 65.5451 164.84 63.0549C165.939 58.2278 167.617 66.9359 167.84 68.2839C167.846 68.3284 166.758 69.1742 167.297 71.0669C167.561 74.9955 167.827 68.3007 167.84 68.2839C167.984 69.1544 170.13 70.026 170.579 69.3332C170.821 68.9544 170.754 65.4773 170.879 65.3455C173.93 62.2918 176.686 61.4634 179.577 63.1495C179.627 63.2207 179.468 67.1056 179.586 67.2246C181.232 68.9882 182.422 64.2575 183.895 61.4659C185.364 58.6756 186.496 59.6468 187.13 66.3365C188.177 65.5199 189.594 68.504 190.41 70.314C191.225 72.1239 191.526 64.562 191.606 64.4142C194.087 59.6842 195.364 64.0478 197.839 64.7839C199.045 65.1475 201.336 64.1079 202.62 63.3135C203.63 62.6729 204.184 64.4613 205.133 63.3519C205.262 63.2038 205.225 59.8324 205.266 59.7038C206.401 55.7012 205.689 63.9219 205.863 65.398C206.491 70.766 206.889 73.6266 208.278 71.1464C208.598 70.5784 209.808 58.7472 210.387 58.0691C211.138 57.2092 210.748 61.4511 211.538 60.4425C211.605 60.3601 211.663 57.7382 212.131 57.8666C214.292 58.4283 216.561 60.0181 218.815 59.8191C219.122 59.8019 218.848 55.6327 219.293 55.5395C221.385 55.1056 223.668 55.3255 225.652 57.3314C226.14 57.8382 225.74 60.7403 225.823 61.6079C226.344 66.8579 227.498 59.2858 227.658 59.1456C231.452 55.6026 234.08 62.5652 237.965 59.4069C238.176 59.221 240.015 51.1235 240.509 58.1321C240.545 58.5985 241.018 65.7681 241.786 60.9C241.833 60.5954 241.514 56.902 242.26 57.3006C243.005 57.6984 244.303 55.2792 245.218 59.3551C245.508 60.6392 246.063 67.794 247.227 62.1414C247.303 61.7466 249.233 48.943 249.494 57.8274C249.536 59.2899 249.144 68.6703 250.473 63.8968C250.728 62.9713 250.387 60.8653 251.021 59.5773C251.992 57.5921 253.113 60.1439 254.363 56C254.582 55.2662 255.617 48.9243 256.125 53.7798C256.204 54.5402 255.905 57.6664 256.244 58.0284C257.858 59.7642 259.673 57.726 261.294 59.9491C261.868 60.7304 261.395 65.7844 261.974 67.1621C262.553 68.5393 263.767 69.886 264.496 67.5935C265.225 65.3 264.781 57.2054 265.78 56.5921C270.103 53.928 274.22 58.8073 278.424 59.6448C279.049 59.7698 278.628 56.864 279.555 56.841C282.935 56.7418 289.038 54.2435 291.762 60.4837C293.958 65.4821 290.846 69.1187 292.584 71.1825C293.422 72.1674 294.695 62.8181 294.915 62.5301C297.046 59.6014 298.406 63.8114 300.314 62.6028C300.71 62.352 300.467 58.5356 300.802 58.3642C301.95 57.745 303.067 59.4846 304.144 59.2125C304.627 59.0817 304.644 56.1741 305.075 56.4141C306.108 56.9549 306.99 58.2092 307.908 60.9682C307.991 61.2197 307.236 64.81 308.002 64.9723C309.226 65.2241 310.727 67.9677 312.299 65.2481C312.765 64.4298 313.026 57.7925 313.793 62.4109C313.953 63.3755 313.413 71.337 314.75 64.4897C314.975 63.3519 317.134 54.1293 317.798 60.1496C317.974 61.7341 318.33 68.2784 318.881 67.2723C318.956 67.1113 318.809 63.5356 319.247 63.2035C320.804 62.0957 322.282 62.5312 323.95 61.4748C324.385 61.1853 323.891 57.4724 324.534 57.1587C326.304 56.2905 328.41 57.3096 330.023 58.5263C330.618 58.9819 330.081 62.0223 330.113 62.3566C330.625 67.7929 331.318 60.5068 331.569 60.0899C333.14 57.5957 334.071 61.0655 335.496 60.2101C335.893 59.9835 335.749 56.4916 335.838 56.1841C336.752 53.1809 335.921 59.4109 336.4 60.1191C337.741 62.1239 339.31 61.9029 340.722 61.5108C341.241 61.3617 340.818 57.303 341.282 57.2158C344.046 56.6239 346.694 57.1114 349.405 59.4436C349.899 59.8895 349.459 62.9857 349.538 63.6997C350.081 68.6949 351.399 61.9601 351.666 61.324C352.882 58.4193 353.201 61.1844 354.178 60.7081C358.88 58.33 364.798 60.3817 369.27 61.6814C375.07 63.3557 379.504 66.4898 385.084 65.9358C385.455 65.9051 385.243 61.7556 385.563 61.676C389.513 60.8289 393.161 62.5894 397.189 61.5343C397.458 61.4527 397.216 57.5191 397.639 57.2558C397.793 57.1584 397.901 57.0834 398.087 57.0359C398.34 56.9906 398.563 56.9691 398.74 56.9722C398.916 56.9752 399.047 57.0027 399.101 57.0554C399.128 57.0817 399.134 57.1144 399.11 57.1534C399.098 57.1729 399.078 57.1941 399.047 57.2169C399.016 57.2281 399.067 57.2408 398.945 57.2517C398.784 57.254 398.586 57.2508 397.86 57.2643C397.464 57.275 397.003 57.2764 395.762 57.3546C395.104 57.4028 394.303 57.447 392.567 57.682C391.672 57.811 390.555 57.9713 388.647 58.4085C386.653 58.9502 384.195 59.2824 378.209 62.2716C375.205 63.9249 370.952 66.1567 365.377 72.3608C359.958 78.14 353.185 91.2243 354.592 105.141C355.829 119 362.602 127.768 366.863 132.197C371.388 136.785 374.622 138.628 377.028 140.031C381.791 142.619 383.92 143.14 385.63 143.716C387.277 144.219 388.28 144.447 389.085 144.628C392.072 145.255 392.606 145.242 393.308 145.344C394.464 145.476 394.69 145.48 394.932 145.498C394.66 145.281 394.401 144.97 394.167 144.559C393.799 143.927 394.605 140.611 394.222 140.042C393.322 138.711 392.247 138.363 391.169 138.934C390.712 139.186 391.159 143.228 390.59 143.244C386.7 143.441 382.851 144.049 378.601 138.861C378.312 138.504 378.022 130.35 377.389 131.918C377.354 134.181 377.373 136.843 377.368 139.262C371.241 140.603 364.811 138.004 358.081 137.885C357.798 137.881 358.489 142.174 357.944 142.188C354.786 142.274 351.736 143.633 348.162 139.523C347.808 139.121 347.575 131.521 346.655 132.722C346.494 132.94 345.064 134.032 344.766 135.7C344.727 135.951 345.187 139.48 344.712 139.608C341.95 140.294 338.935 139.641 335.967 137.614C335.488 137.28 335.798 133.482 335.456 133.211C333.04 131.319 330.606 134.302 328.206 130.962C326.607 128.711 326.921 122.163 325.9 115.767C325.757 114.865 324.836 114.753 324.664 111.017C324.229 101.62 324.306 91.3128 323.79 81.2991C323.679 79.1425 322.617 81.5045 323.119 76.2669C323.155 75.9165 323.918 74.1577 324.057 72.3813C324.153 71.1532 323.768 67.3605 323.996 65.7847C324.222 64.2104 324.652 67.3857 325.054 65.5286C325.454 63.6484 325.081 59.3325 325.995 58.7839ZM194.099 78.4063C194.813 82.0588 195.258 68.756 194.311 71.9182C194.264 72.0868 194.062 78.2271 194.099 78.4063ZM113.206 110.593C112.012 104.681 110.537 113.207 111.302 117.807C112.278 122.405 113.694 112.386 113.206 110.593ZM125.859 87.8799C121.519 89.8032 139.985 85.8809 136.12 86.0094C135.902 86.0179 126.114 87.7782 125.859 87.8799ZM329.459 113.797C329.44 113.621 328.781 113.476 328.772 113.652C328.594 117.89 329.922 118.177 329.459 113.797ZM120.629 79.2328C118.06 79.4854 120.983 80.572 124.167 80.2197C126.724 79.9876 123.819 78.981 120.629 79.2328ZM235.288 93.759C235.295 93.9577 235.752 94.1503 235.777 93.0294C235.856 89.4192 235.181 90.4182 235.288 93.759ZM123.632 62.6738C122.224 64.7597 106.715 62.3516 109.327 59.6989C109.795 59.2492 113.734 62.3087 115.288 62.0203C118.092 61.5835 109.036 57.761 114.446 58.123C115.421 58.231 123.734 62.59 123.651 62.6847C123.645 62.6811 123.638 62.6774 123.632 62.6738ZM194.17 94.3995C194.182 94.5759 194.821 94.7585 194.841 94.5844C195.293 90.3688 194.005 89.9984 194.17 94.3995ZM261.944 102.842C261.967 103.218 263.435 103.618 263.494 103.274C264.496 96.394 261.528 95.5655 261.944 102.842ZM151.107 103.331C150.429 107.575 149.502 108.066 148.999 102.722C149.694 103.013 150.476 103.062 151.107 103.331ZM77.7854 45.7309C76.6933 45.3414 77.8769 45.7107 79.4962 46.2336C79.9984 46.3957 82.2332 47.1506 82.6806 47.2963C83.5527 47.5804 82.4587 47.2041 83.497 47.5443C83.852 47.6607 87.3925 48.8548 87.6837 48.9496C89.254 49.4605 88.3568 49.1429 89.1148 49.3807C92.8548 50.5532 94.2061 50.9353 95.8479 51.3941C96.3857 51.5459 99.6105 52.595 98.2135 52.0968C98.0472 52.0376 94.9377 50.9948 94.6817 50.9081C90.7621 49.5811 97.0372 51.6929 97.873 51.9672C101.173 53.0503 101.468 53.121 100.276 52.6964C99.7591 52.5127 93.5809 50.4474 97.05 51.6026C97.2844 51.6807 100.585 52.7921 100.938 52.9078C101.732 53.1682 101.145 52.9593 101.408 53.0428C101.932 53.2092 101.899 53.1976 101.94 53.2008C102.024 53.2154 103.67 53.752 102.926 53.4877C102.758 53.428 99.3723 52.295 98.7978 52.0971C98.2243 51.8996 98.5152 51.9844 99.3143 52.2485C100.114 52.5127 102.773 53.4077 103.383 53.6118C108.532 55.3345 101.408 52.9275 101.233 52.8666C98.2395 51.8271 102.309 53.1649 102.306 53.1335C102.296 53.1067 100.963 52.6349 101.153 52.6776C101.393 52.7321 103.235 53.3236 102.928 53.1937C102.899 53.1813 98.9186 51.8488 98.8758 51.8309C98.4238 51.6422 98.8683 51.7561 101.565 52.6267C101.839 52.7152 105.332 53.8913 105.815 54.0497C108.693 54.9936 115.601 57.2801 100.391 52.1635C100.99 52.3484 101.61 52.5373 104.681 53.5532C106.657 54.207 110.462 55.4909 108.84 54.9366C108.479 54.8131 105.144 53.6983 104.855 53.5976C103.639 53.1748 104.728 53.5235 103.009 52.9333C102.652 52.8106 99.6645 51.8102 99.1268 51.6291C94.7722 50.163 101.977 52.5663 102.501 52.7394C106.41 54.0301 104.878 53.5042 104.978 53.5204C105.003 53.5241 100.989 52.1849 100.869 52.1403C100.301 51.927 100.652 52.0222 102.439 52.5999C102.846 52.7316 106.264 53.8798 106.633 54.0013C108.221 54.5229 101.765 52.3599 103.162 52.8188C103.449 52.9127 106.375 53.8931 106.696 54.0004C111.744 55.6841 104.596 53.2874 104.438 53.2334C102.287 52.4965 109.754 54.9839 108.701 54.6162C108.568 54.5697 104.864 53.3348 104.715 53.28C103.706 52.8994 104.735 53.2045 107.707 54.1644C108.164 54.312 110.946 55.2438 111.289 55.358C116.65 57.1418 109.47 54.7404 109.2 54.6487C107.258 53.985 113.286 55.9793 104.734 53.1211C106.225 53.5939 105.776 53.4112 105.907 53.4473C105.969 53.4731 106.192 53.5074 106.832 53.8355C106.904 53.9032 106.986 53.9596 107.03 54.1761C107.04 54.2347 107.047 54.3054 107.041 54.4255C107.034 54.5569 107.022 54.6864 106.948 55.1369C106.91 55.3927 106.85 55.6475 106.752 56.5562C106.729 56.7952 106.703 57.0867 106.689 57.5044C106.682 57.9478 106.645 58.3819 106.773 59.5937C107.02 60.7641 106.855 62.5985 109.541 66.3341C110.894 68.1274 113.573 70.2971 116.845 71.0765C120.089 71.8948 123.021 71.3081 124.828 70.6112C128.432 69.1054 129.244 67.8048 130.019 67.0641C130.711 66.2849 131.012 65.8197 131.255 65.454C131.711 64.7414 131.856 64.4205 131.987 64.1556C132.222 63.6578 132.279 63.4727 132.334 63.3086C132.429 63.0075 132.433 62.9037 132.437 62.8058C132.438 62.7143 132.425 62.6571 132.408 62.6088C132.373 62.5147 132.321 62.4595 132.264 62.4099C132.151 62.3066 132.006 62.268 131.859 62.2043C131.263 61.9665 130.504 61.6993 129.549 61.3708C129.461 61.3405 125.935 60.1269 125.774 60.0722C123.791 59.4016 129.271 61.2828 135.975 63.5807C137.659 64.1566 129.561 61.3946 128.967 61.1935C126.779 60.4492 121.53 58.6539 121.107 58.5102C117.777 57.3849 135.139 63.3068 135.142 63.3149C135.113 63.3052 131.918 62.2148 131.6 62.107C130.601 61.769 131.871 62.2039 130.77 61.8311C128.222 60.9685 119.784 58.0983 124.691 59.7796C125.328 59.9977 135.179 63.3482 134.711 63.198C134.516 63.1357 134.68 63.2075 134.04 62.9943C133.401 62.7817 130.227 61.7005 130.09 61.6541C125.887 60.2398 124.149 59.6445 117.931 57.5407C111.736 55.4454 126.506 60.4572 128.154 61.0193C129.797 61.5796 126.33 60.4134 125.124 60.0074C123.919 59.6011 121.902 58.9135 121.219 58.6844C116.76 57.1885 128.549 61.1777 130.892 61.9774C136.44 63.8709 125.483 60.1632 124.406 59.8097C124.115 59.714 126.611 60.5574 126.843 60.6388C127.731 60.9496 124.311 59.7974 127.442 60.8696C127.952 61.0445 134.536 63.2831 129.7 61.6522C129.003 61.417 126.273 60.4904 125.66 60.2875C124.74 59.9829 124.14 59.7931 125.05 60.1077C125.724 60.3407 130.225 61.8577 128.825 61.3905C128.2 61.1819 125.57 60.2867 124.615 59.9692C123.661 59.6518 123.772 59.7036 123.862 59.7392C123.953 59.7755 127.367 60.9269 127.597 61.0051C128.913 61.4528 130.556 62.0184 130.551 62.0178C130.954 62.2004 125.188 60.2934 127.078 60.978C127.222 61.03 130.822 62.2427 130.881 62.2632C132.386 62.7831 122.818 59.5446 119.611 58.4715C126.917 60.9353 125.593 60.4937 126.391 60.7719C126.782 60.9079 129.611 61.8601 129.901 61.9581C134.196 63.4128 128.645 61.5444 127.509 61.1625C123.332 59.7574 128.265 61.4257 125.473 60.4867C122.701 59.5547 118.596 58.1637 118.646 58.1889C121.261 59.073 128.097 61.3724 129.202 61.7515C133.385 63.1847 128.01 61.416 127.447 61.246C126.884 61.0754 127.365 61.2432 126.417 60.9347C124.701 60.3769 129.775 62.0782 132.093 62.8707C134.41 63.663 121.934 59.4567 119.251 58.5552C116.569 57.6542 119.328 58.5851 117.854 58.0909C116.379 57.5969 114.557 56.9785 114.002 56.797C113.447 56.6158 118.213 58.2345 121.018 59.1801C126.959 61.1835 133.198 63.2769 131.002 62.5514C130.872 62.5083 127.591 61.4019 127.259 61.293C124.726 60.4645 124.562 60.4336 122.32 59.7038C122.007 59.6018 118.357 58.3717 118.133 58.2984C115.792 57.5315 121.95 59.5946 128.785 61.9029C119.685 58.8417 114.116 56.9758 114.058 56.9719C114.019 56.9684 117.994 58.3026 120.794 59.2492C121.638 59.5345 118.907 58.6234 120.776 59.2525C126.884 61.3089 133.726 63.6016 130.998 62.7001C130.868 62.6572 127.524 61.5317 127.321 61.4658C125.991 61.0339 132.381 63.1823 133.151 63.4563C133.754 63.6713 129.85 62.3828 129.212 62.183C118.979 58.7487 121.318 59.5478 128.372 61.9198C128.08 61.8313 128.476 61.974 127.498 61.6552C127.165 61.5465 124.203 60.551 123.882 60.444C118.859 58.7654 125.722 61.0711 125.99 61.1631C128.6 62.0599 123.391 60.3324 128.47 62.0548C128.653 62.1168 135.762 64.4995 130.569 62.7654C130.211 62.6459 126.979 61.5562 126.726 61.4812C126.472 61.4059 122.655 60.1462 125.946 61.2618C126.738 61.5304 132.507 63.4695 127.995 61.9663C127.383 61.7622 125.344 61.0789 124.209 60.7004C120.592 59.4944 127.778 61.901 121.671 59.8628C115.564 57.8246 110.989 56.3054 115.197 57.7273C115.319 57.7687 121.014 59.6765 120.923 59.6503C120.772 59.6069 119.582 59.2192 119.617 59.2382C119.636 59.248 123.174 60.4281 123.239 60.4503C125.214 61.1329 122.055 60.0954 120.679 59.6616C120.419 59.5799 125.24 61.2013 121.423 59.9369C117.244 58.5532 99.8775 52.7511 104.008 54.1539C105.66 54.7158 127.696 62.0688 116.272 58.2809C119.091 59.2531 113.237 57.337 117.268 58.7094C117.447 58.7704 123.599 60.8171 123.514 60.7923C123.376 60.7515 120.499 59.7999 120.309 59.7404C119.438 59.4672 121.895 60.2952 121.508 60.1807C121.367 60.1394 118.393 59.1533 118.225 59.1043C118.059 59.0563 121.975 60.3552 120.081 59.7373C118.637 59.2669 110.627 56.6294 109.69 56.3321C117.589 58.9391 117.424 58.8918 119.506 59.5893C119.91 59.7245 122.661 60.6286 122.994 60.7393C124.41 61.2096 122.13 60.462 123.672 60.9731C124.042 61.0958 126.74 61.9841 127.195 62.1345C131.168 63.4466 125.096 61.4566 124.038 61.1112C120.022 59.7978 123.531 60.9529 121.949 60.4387C120.366 59.9252 118.393 59.2689 117.431 58.9607C115.443 58.3242 115.872 58.4861 115.744 58.4595C115.709 58.4544 119.316 59.6251 119.394 59.6517C120.306 59.9576 116.466 58.7242 123.65 61.0577C105.066 55.052 125.45 61.6476 121.727 60.4533C121.426 60.3565 112.632 57.536 111.344 57.1121C110.057 56.6877 112.809 57.5619 110.801 56.9005C110.33 56.747 102.104 54.057 101.606 53.8933C97.7155 52.6082 110.841 56.8752 111.562 57.1096C119.342 59.6352 110.481 56.7357 109.871 56.5301C107.071 55.5955 108.921 56.1829 106.923 55.5109C105.633 55.0759 97.0436 52.2559 97.3094 52.3335C98.188 52.5896 110.168 56.5288 99.7906 53.0829C97.5774 52.3476 88.1921 49.2576 95.5771 51.6718C96.0428 51.8236 102.797 54.0387 98.5303 52.6207C97.9924 52.4418 95.2581 51.5384 95.0289 51.4611C93.5462 50.961 95.726 51.6762 94.6858 51.3222C93.6455 50.9683 92.0942 50.4425 93.0248 50.7392C93.5814 50.9164 98.6769 52.596 99.9246 53.0066C103.519 54.1894 97.6328 52.2288 101.984 53.6663C106.356 55.1115 112.992 57.3212 115.819 58.2474C108.718 55.8913 101.43 53.4723 94.2894 51.1023C94.5498 51.1539 96.8534 51.8931 96.5487 51.762C96.5038 51.7434 92.6862 50.4774 92.5397 50.4246C91.9386 50.2074 94.6635 51.0996 93.5854 50.7232C92.7363 50.4268 88.7006 49.0671 87.6869 48.7155C95.8111 51.4152 93.0598 50.4787 93.8063 50.7131C94.0643 50.7941 96.2331 51.5181 96.9417 51.751C99.5626 52.6123 92.3845 50.2232 91.2563 49.8429C86.4414 48.2195 102.684 53.6401 102.288 53.4903C102.273 53.4844 93.6189 50.5822 93.0803 50.4004C89.568 49.2164 96.0941 51.4054 96.7358 51.6131C97.9082 51.9931 99.9779 52.6773 97.4463 51.8177C96.6964 51.5632 91.3038 49.7507 95.4795 51.1391C96.0263 51.321 98.8874 52.2782 99.0552 52.3335C101.853 53.2546 92.8624 50.2476 89.8203 49.2213C86.7788 48.1951 92.9888 50.2592 94.7782 50.8555C99.4073 52.3975 96.754 51.5219 97.2079 51.6742C102.61 53.486 101.683 53.1664 102.141 53.3129C110.956 56.2618 110.43 56.0762 102.582 53.4529C101.724 53.1663 102.545 53.4464 102.141 53.3129C93.495 50.4132 92.391 50.0316 100.476 52.7263C104.265 53.9893 108.68 55.4725 107.069 54.9171C106.342 54.6662 100.273 52.6364 98.62 52.0762C94.8497 50.7977 100.517 52.6761 99.6296 52.363C99.3075 52.2493 95.9841 51.1411 95.6495 51.0249C94.7513 50.7132 97.2464 51.5403 95.9729 51.1027C95.8533 51.0616 92.3755 49.8979 92.3322 49.88C91.9362 49.7215 94.1698 50.4488 94.2393 50.4462C94.2714 50.4444 92.3607 49.7804 92.7502 49.898C93.4047 50.0949 98.4683 51.7683 97.246 51.3387C96.4636 51.0634 92.9858 49.8974 90.6184 49.0964C86.0296 47.5435 94.2606 50.2915 95.5349 50.7176C95.5771 50.7317 96.3935 51.0168 98.18 51.6117C101.9 52.8589 95.551 50.7231 95.5349 50.7176C96.3582 50.9927 97.1539 51.239 96.4905 51.0117C96.128 50.8875 92.8336 49.781 92.7068 49.7371C89.7677 48.72 88.9394 48.4119 90.4884 48.9035C90.5551 48.9254 94.2392 50.1661 94.35 50.2022C95.9932 50.7384 91.4895 49.2117 88.818 48.298C86.1477 47.3848 87.047 47.6762 93.3738 49.7989C92.5807 49.5213 95.3811 50.45 97.0802 51.0137C98.7793 51.5775 91.6088 49.1602 91.4673 49.1117C86.9373 47.5608 91.046 48.9312 91.6923 49.1244C92.0118 49.2204 90.9788 48.8488 90.1986 48.573C89.5699 48.351 91.2522 48.9121 90.1807 48.541C90.0376 48.4914 86.8448 47.4154 86.722 47.3735C82.9058 46.0749 90.7085 48.7131 92.103 49.1814C97.1741 50.8847 99.8749 51.7916 97.4946 50.9749C96.9494 50.7879 85.7156 46.9866 85.0603 46.7595C84.2288 46.4712 88.2555 47.8336 87.2823 47.4972C87.2027 47.4697 84.7179 46.6308 84.829 46.6635C85.3117 46.8038 86.7644 47.2714 86.5231 47.1647C86.4996 47.1534 82.5575 45.8255 82.4588 45.7872C81.9986 45.6088 82.152 45.6357 84.003 46.2402C84.4709 46.3932 87.2289 47.3294 88.0484 47.6055C93.0071 49.276 85.8083 46.831 85.6716 46.783C82.2236 45.5744 88.7506 47.7512 85.6605 46.6632C85.4789 46.6001 77.7661 43.9657 84.3887 46.2021C84.8293 46.3508 91.6044 48.6403 86.9763 47.0627C86.6867 46.964 83.1985 45.7861 83.5568 45.898C83.9143 46.0098 81.5909 45.2054 85.4253 46.4944C86.6332 46.9002 93.3907 49.1867 88.0099 47.3468C87.6339 47.2195 75.4663 43.0617 83.8685 45.9094C85.2515 46.3783 94.1392 49.4026 89.5873 47.8374C88.7049 47.5338 86.7206 46.8647 85.4854 46.4355C83.5819 45.7736 85.9676 46.5682 82.0146 45.2028C81.3147 44.9611 75.2877 42.8926 79.8694 44.4414C80.587 44.684 83.5519 45.7003 83.8862 45.8067C85.4896 46.3178 83.5189 45.6015 85.5858 46.2594C86.3148 46.4828 91.1018 48.1435 92.3945 48.5597C93.6873 48.9746 94.9409 49.3446 92.7807 48.5077C91.7025 48.0822 89.2753 47.1537 87.0234 46.3556C85.9006 45.9476 84.8271 45.5565 84.0181 45.193C83.6143 45.0094 83.2757 44.8349 83.0429 44.6344C82.8178 44.4152 82.6616 44.2593 82.7967 43.6813C82.9105 43.2865 82.924 43.046 83.6528 41.3301C83.861 40.858 84.1182 40.2729 84.6727 39.2052C85.3556 38.0367 85.7104 36.8369 89.0691 32.5695C91.1723 30.4256 92.8369 26.8593 103.404 21.5269C108.676 19.0807 118.196 16.3056 129.438 18.9857C140.73 21.5109 149.545 29.5838 153.321 35.4398C160.786 47.5825 159.641 52.2457 160.238 55.5636C160.408 58.6834 160.29 59.7654 160.223 61.0203C159.855 65.3028 159.571 65.8929 159.418 66.8501C159.256 67.6495 159.166 68.0552 159.096 68.3864C158.962 69.0187 158.915 69.2847 158.88 69.5126C158.816 69.9376 158.82 70.0987 158.823 70.244C158.829 70.3812 158.844 70.4675 158.857 70.5385C158.929 70.7637 158.981 70.7416 158.934 70.7883C158.853 70.8417 158.503 70.7847 158.056 70.6698C157.167 70.4282 155.866 70.0375 155.525 69.9647C155.424 69.9421 158.168 70.8479 158.216 70.8766C158.407 70.9827 160.95 71.9233 155.118 70.0029C150.445 68.4679 146.903 67.2544 144.999 66.6372C144.091 66.3426 152.993 69.3257 153.273 69.4215C156.114 70.3929 152.165 69.0894 153.368 69.5128C153.618 69.6008 157.228 70.8033 157.401 70.8649C158.023 71.0855 156.408 70.5607 156.699 70.6689C156.838 70.72 159.595 71.6411 159.381 71.5738C158.9 71.4234 157.739 71.044 155.153 70.1888C154.917 70.1108 151.491 68.9582 151.361 68.9223C151.16 68.8676 148.608 68.0285 151.235 68.9224C152.025 69.1913 158.324 71.3 153.971 69.8524C153.062 69.5501 145.499 67.0157 152.031 69.2135C153.116 69.5786 161.925 72.5473 156.24 70.6534C154.744 70.1549 148.553 68.088 149.524 68.4187C149.679 68.4714 153.063 69.6017 153.392 69.7164C154.491 70.1015 154.125 69.9945 155.181 70.362C155.469 70.4625 158.972 71.6302 159.29 71.7426C160.17 72.0533 159.273 71.7729 158.172 71.4202C157.76 71.2879 154.861 70.3124 154.545 70.207C149.41 68.493 156.337 70.8186 156.741 70.9561C159.155 71.78 155.897 70.6992 156.754 71.0002C156.982 71.0804 160.286 72.1853 160.581 72.2848C163.456 73.2567 157.526 71.2626 156.87 71.0479C155.014 70.4397 155.275 70.5428 155.693 70.6975C155.851 70.7559 159.683 72.0348 159.781 72.0725C160.431 72.3219 160.059 72.2182 157.939 71.5329C157.533 71.4014 154.585 70.4095 153.911 70.1844C149.196 68.6094 155.622 70.7746 156.233 70.9821C159.026 71.9293 156.417 71.058 156.901 71.2296C159.311 72.0833 157.566 71.5563 156.485 71.2398C155.096 70.8257 152.278 69.9209 152.991 70.213C153.032 70.2303 156.956 71.5446 157.042 71.5765C157.977 71.9278 156.432 71.4472 157.553 71.8634C157.638 71.8952 161.359 73.1402 161.62 73.2332C162.183 73.433 161.976 73.3776 160.786 72.9868C160.213 72.7988 157.023 71.7212 156.511 71.5539C155.312 71.1618 155.043 71.0834 155.636 71.294C155.896 71.3863 159.702 72.6574 159.744 72.6779C160.108 72.8433 160.75 73.1026 155.811 71.4888C155.472 71.378 147.741 68.783 149.221 69.2871C151.367 70.0084 153.89 70.8564 156.183 71.6271C157.398 72.1012 154.697 71.2654 154.265 71.1793C154.247 71.1761 158.344 72.5487 158.331 72.5495C158.262 72.5558 159.388 72.9636 155.307 71.6232C154.908 71.4921 147.704 69.0684 148.791 69.443C148.989 69.5113 149.946 69.8467 151.509 70.3758C151.745 70.4556 155.108 71.5839 155.205 71.6209C155.708 71.816 154.932 71.5827 152.869 70.9158C152.53 70.806 148.95 69.5977 148.677 69.509C146.769 68.8893 149.485 69.8262 146.227 68.7518C144.033 68.0283 137.844 65.9419 131.748 63.8995C130.888 63.6114 130.749 63.5735 127.204 62.3816C118.289 59.3847 108.528 56.0982 99.0252 52.9042C96.9783 52.2163 99.1793 52.968 94.2353 51.2985C93.9044 51.1868 92.2653 50.6272 90.5881 50.0611C89.4284 49.6697 85.8221 48.4596 84.338 47.9576C82.8553 47.456 85.8786 48.4695 84.1353 47.8785C82.3705 47.2802 78.2681 45.9028 77.7854 45.7309ZM104.674 53.5343C108.12 54.688 95.5083 50.4356 98.5232 51.4605C98.6839 51.5151 104.505 53.4777 104.674 53.5343ZM106.381 55.0592C111.954 56.9015 103.766 54.1714 99.4609 52.7481C95.1607 51.327 104.691 54.501 106.381 55.0592ZM110.414 56.512C114.812 57.9558 96.8957 52.0204 100.513 53.2339C100.717 53.3025 110.159 56.4282 110.414 56.512ZM130.024 63.2849C129.856 63.2287 129.691 63.1794 129.857 63.2353C133.863 64.5856 134.19 64.6833 130.024 63.2849ZM114.812 58.0764C117.238 58.8705 114.442 57.9399 111.424 56.9521C108.997 56.158 111.793 57.0894 114.812 58.0764ZM118.252 57.7249C118.44 57.7885 118.611 57.8421 117.549 57.4823C114.129 56.3237 115.092 56.6561 118.252 57.7249ZM114.942 58.3796C115.652 58.4908 130.488 63.2852 128.826 62.7045C128.524 62.6047 124.081 61.2204 122.742 60.7921C120.294 60.0401 129.652 62.9157 124.648 61.3384C123.724 61.079 114.864 58.3798 114.922 58.373C114.929 58.3752 114.935 58.3774 114.942 58.3796ZM119.825 58.6366C119.992 58.6926 120.152 58.7406 119.986 58.6848C115.983 57.3321 115.659 57.2348 119.825 58.6366ZM126.108 60.1853C126.463 60.3065 126.79 60.4343 126.461 60.329C119.945 58.0278 119.248 57.8116 126.108 60.1853ZM128.939 62.0916C132.967 63.4495 133.439 63.615 128.377 61.9215C128.648 62.0062 128.689 62.0139 128.939 62.0916ZM159.138 79.95C159.334 82.7234 157.668 84.7228 156.373 82.4352C155.955 81.5866 153.562 81.7205 153.161 81.0153C152.154 79.3746 154.459 77.1893 150.331 68.1978C148.686 65.1779 146.882 70.4558 145.215 67.4721C143.906 65.2455 142.106 62.7001 139.639 60.2739C132.21 53.8009 125.151 52.6944 122.991 53.2768C121.294 53.7123 120.979 54.2956 121.097 54.6719C121.235 55.0619 121.854 55.3061 122.649 55.4176C124.296 55.6282 126.466 55.404 129.151 54.742C134.729 53.4116 140.325 51.2828 146.114 48.7531C149.795 47.1547 155.896 47.1875 158.656 43.4518C158.974 43.015 156.847 40.4994 156.772 40.2224C155.631 35.97 159.02 41.6794 160.346 41.8204C161.717 41.9627 162.997 41.8985 164.18 41.6666C165.909 42.2989 168.957 39.0274 174.353 34.9115C177.352 32.8633 173.099 29.776 175.188 29.5552C177.083 28.8934 179.123 27.9133 184.627 27.7741C189.665 27.3178 199.594 31.0816 203.369 36.3631C205.065 38.5179 202.09 36.368 200.13 35.9924C199.167 35.7926 198.669 35.9921 199.358 37.0904C200.001 38.1489 201.829 40.4034 203.138 43.0177C205.738 48.6671 205.2 50.5293 205.402 52.2575C205.44 53.8633 205.383 54.898 205.344 55.7969C205.254 57.5485 205.169 58.6833 204.937 59.3457C204.774 59.7891 204.636 60.1472 204.519 60.4534C204.461 60.6043 204.408 60.7454 204.361 60.8659C204.338 60.9245 204.316 60.9779 204.3 61.0066C204.293 61.0168 204.285 61.0295 204.286 60.9944C204.286 60.9765 204.289 60.9476 204.295 60.8932C204.303 60.8384 204.314 60.7632 204.335 60.6093C204.357 60.435 204.389 60.2753 204.455 59.565C204.203 60.7515 204.137 61.2443 204.008 62.1282C203.86 63.0131 203.341 63.6714 202.971 64.1627C202.597 64.6376 202.396 64.9729 202.767 64.6926C202.923 64.509 206.514 64.3984 207.041 63.8106C207.29 63.4803 207.268 62.7739 206.747 61.5918C206.262 60.4467 205.064 58.8165 204.065 58.167C202.032 56.8544 200.462 59.4786 199.753 59.6082C196.509 60.5347 195.545 58.4032 194.063 56.2663C193.844 54.9482 193.697 53.4642 193.602 53.3632C191.635 51.4898 192.382 52.0501 193.718 52.4111C195.098 52.8309 197.207 53.3675 199.279 52.701C201.472 52.0029 203.459 50.5772 206.852 49.152C208.082 48.5976 209.298 48.1228 210.502 47.8338C214.87 46.8005 218.947 47.6345 222.78 46.1116C223.184 45.9552 221.47 42.0907 221.955 41.8929C226.788 39.9233 231.449 38.7625 236.633 39.2464C235.794 39.6414 234.643 40.1502 232.813 41.487C232.584 41.657 232.345 41.8422 232.096 42.0462C231.971 42.1482 231.843 42.2548 231.713 42.3667C231.663 42.4097 231.546 42.5097 231.422 42.6192C231.301 42.7264 231.177 42.8382 231.051 42.955C230.05 43.8891 228.888 45.1418 227.76 46.9464C225.403 50.3477 223.907 57.1928 225.468 62.2535C226.9 67.4005 229.563 70.1143 231.254 71.6538C231.773 72.1098 231.913 72.2076 232.171 72.4088C232.406 72.5893 232.631 72.7522 232.846 72.901C233.275 73.1983 233.663 73.4396 234.015 73.6439C235.397 74.4398 236.371 74.7715 236.725 74.8716C238.073 75.2331 237.999 74.1213 238.265 73.1426C238.429 72.1176 238.865 71.1684 239.375 71.0578C240.411 70.5407 239.568 69.2868 238.971 68.3578C238.289 67.3987 237.335 66.5984 236.408 66.416C234.492 66.0439 232.464 68.1161 231.085 76.0747C228.981 75.3259 226.4 74.5919 224.507 71.3393C223.276 69.248 224.521 65.2376 222.941 66.9486C222.595 67.3314 223.05 70.8458 222.548 71.1547C220.534 72.4404 217.864 71.4396 217.461 73.3496C217.465 73.7312 218.023 76.833 218.149 77.3868C218.441 78.4628 218.793 78.8126 219.432 78.602C219.797 78.4829 220.255 78.2147 220.851 77.7772C221.55 77.2975 222.63 76.5652 224.015 75.3503C230.561 71.6043 234.085 63.6258 234.373 59.333C234.651 56.7177 234.517 56.2401 234.466 55.1808C234.39 54.2485 234.266 53.4643 234.128 52.7854C233.848 51.4304 233.523 50.4832 233.229 49.73C233.154 49.5385 233.083 49.3709 233.039 49.28C232.988 49.1723 232.938 49.0695 232.889 48.9711C232.79 48.7744 232.694 48.5955 232.601 48.4308C232.23 47.7742 231.907 47.3355 231.625 46.9972C231.353 46.6844 231.171 46.5652 230.972 46.4167C230.184 45.8565 229.741 45.9604 229.316 45.9953C228.523 46.1647 228.045 46.5559 227.925 46.631C226.443 48.0951 226.934 49.6329 227.52 50.4357C228.164 51.31 229.198 51.8255 229.955 52.6166C230.294 52.9722 232.794 49.5129 233.194 49.7133C233.741 49.9922 234.224 50.2782 234.287 50.3178C234.295 50.3263 234.247 50.2889 233.661 49.9707C233.519 49.8955 233.319 49.7891 233.051 49.6576C232.787 49.5294 232.456 49.3706 231.94 49.1552C230.906 48.858 229.714 47.8297 224.307 47.6737C225.536 47.9608 226.801 48.4622 228.101 49.2272C228.767 49.6256 228.333 53.2539 228.668 53.6278C230.197 55.2248 230.094 48.4081 231.526 49.781C231.833 50.0605 231.904 53.1498 231.981 53.4839C233.241 58.7249 233.378 51.1455 233.562 50.9622C236.026 48.4577 238.669 56.0781 241.346 54.6241C241.66 54.4423 240.43 50.6615 241.335 50.3877C247.339 48.5427 254.436 48.5159 261.587 50.814C262.694 51.1675 262.283 54.1693 262.393 54.5204C264.098 60.0095 263.928 52.4134 264.253 52.0913C266.804 49.7506 269.837 55.8634 271.136 46.7404C277.554 47.9347 284.082 47.3015 290.863 48.246C297.733 48.7484 304.552 54.4606 306.057 57.5259C307.006 59.1086 307.303 60.1631 306.92 60.6416C306.602 61.1488 305.089 61.0495 304.007 61.8665C303.928 61.9458 303.228 65.6085 303.19 65.7746C303.722 67.9089 303.76 61.911 301.103 55.2946C300.936 54.8534 301.011 55.0977 301.284 55.6781C302.13 57.2558 304.67 61.3057 304.965 61.6723C306.337 63.5721 308.424 68.7287 308.752 69.0658C311.75 71.4765 302.794 55.4634 303.678 54.9192C303.731 54.9224 305.364 57.8827 305.638 58.1074C306.517 58.8017 306.109 57.4672 307.078 58.2162C309.295 59.9597 314.935 66.8996 313.209 61.705C312.971 61.0371 306.426 52.9558 307.921 52.4094C308.506 52.2192 310.728 50.1777 311.91 50.082C313.058 50.0156 314.677 53.0216 314.821 53.0917C319.563 54.9571 319.996 56.9723 325.001 61.3827C326.184 62.4364 326.514 62.5614 326.337 62.1056C325.798 60.6264 319.97 53.296 319.429 52.037C318.713 50.3972 322.266 52.2393 323.405 52.9467C324.534 53.6658 325.48 55.6462 326.229 55.962C331.205 57.9428 322.105 49.3208 321.101 46.931C318.606 41.3547 327.269 49.1269 329.379 48.7146C329.933 48.6154 327.854 46.9532 327.986 46.4909C328.51 44.7032 331.767 46.5716 330.729 42.912C330.581 42.2961 326.555 36.4599 330.903 39.2804C331.534 39.6829 333.367 41.9439 334.32 41.869C335.634 41.7707 337.237 40.9004 337.496 39.591C337.542 39.4527 337.575 39.3156 337.597 39.1777C337.783 37.9221 333.51 35.5412 335.462 35.619C336.274 35.7205 337.689 38.2672 339.016 38.3279C339.331 38.3602 339.656 38.2727 339.817 38.2765C339.891 38.2975 339.928 38.2819 339.777 38.6513C339.716 38.8519 339.525 39.158 339.479 40.0578C339.346 40.933 340.152 42.6758 340.896 43.125C341.594 43.6533 341.964 43.6953 342.157 43.7542C342.367 43.8014 342.436 43.7996 342.48 43.8027C342.556 43.8033 342.487 43.7974 342.412 43.8045C342.249 43.8163 341.999 43.8621 341.841 43.9021C341.779 43.9173 341.726 43.962 341.683 44.0303C341.344 44.6984 342.017 47.6283 341.99 47.8533C341.888 49.2671 342.083 51.0206 342.134 51.0032C342.093 51.1489 341.999 50.7957 341.231 50.8488C340.497 50.8821 339.286 51.3401 338.047 52.2039C335.515 53.9696 333.109 56.8829 331.837 61.0519C331.621 61.7155 335.113 63.2761 335.113 63.3974C335.124 66.4167 327.567 59.4463 323.948 58.8152C330.48 62.9006 328.841 62.9252 328.404 64.8623C328.175 65.8116 330.783 67.3271 330.974 67.5792C333.459 71.7079 328.207 68.7027 327.244 67.9691C323.525 65.4696 326.281 69.9702 323.854 68.1416C321.624 66.1725 319.757 62.147 318.803 62.9361C319.996 65.4723 325.441 70.4589 324.749 72.371C323.913 74.4921 321.681 76.1829 319.055 76.9395C312.281 78.836 306.881 74.97 304.495 74.2721C301.01 73.1612 299.908 73.3781 298.209 71.9752C295.281 69.4055 295.198 74.8886 292.452 76.6961C289.689 78.4783 294.247 66.0741 294.71 63.2664C295.199 60.4657 294.116 63.1864 294.197 61.5931C294.284 60.0016 295.535 58.3561 294.907 57.5708C294.282 56.7883 290.708 60.9902 289.584 63.7447C287.227 69.5884 286.364 76.1914 284.901 73.3561C284.819 73.189 286.181 69.9799 285.814 69.5086C282.864 65.8745 279.215 64.6602 276.077 61.565C275.64 61.1335 276.906 57.4666 276.65 57.171C273.91 54.1 273.706 60.696 271.046 67.5595C272.92 58.1493 272.918 52.1392 270.096 51.7864C268.428 51.599 268.387 55.8122 267.3 58.7121C267.004 59.5861 266.038 56.6855 265.837 58.6608C265.31 65.1162 266.047 72.2906 264.493 69.4909C264.41 69.3598 264.407 65.8229 264.125 65.6287C262.173 64.4033 262.927 71.1684 262.591 72.1242C262.437 72.5142 261.916 71.7813 261.051 71.0938C260.21 70.3896 258.976 69.8326 258.36 69.9839C250.855 62.1697 250.812 65.9408 256.678 70.6286C256.218 70.9592 255.982 71.4851 255.559 71.9925C254.043 74.5003 253.183 74.7333 252.641 75.1838C252.075 75.556 251.723 75.7209 251.432 75.8539C250.853 76.1098 250.498 76.2041 250.185 76.2733C249.569 76.4021 249.143 76.3883 248.736 76.3101C248.066 76.1645 247.449 73.0756 247.271 72.7793C244.621 68.0733 246.367 75.1338 246.376 75.4391C246.31 75.7109 246.279 75.9213 246.447 75.9793C246.538 76.0015 246.67 75.9968 246.966 75.8434C247.261 75.6584 247.719 75.4787 248.579 74.3201C248.918 73.6663 249.984 72.7079 249.771 69.4372C249.624 67.8584 248.686 66.1629 247.878 65.3511C247.004 64.4329 246.351 64.0918 245.872 63.8354C244.884 63.354 244.488 63.3082 244.142 63.2226C243.829 63.158 243.641 63.1374 243.501 63.123C242.986 63.0812 243.012 63.1152 243.026 63.1278C243.062 63.1449 243.18 63.1647 243.353 63.1846C243.545 63.2051 243.71 63.2225 244.253 63.2458C246.033 63.6566 248.113 64.3507 250.012 60.9502C250.125 60.7507 249.919 53.2541 251.121 58.6712C251.199 59.0449 250.259 62.5124 251.879 62.6882C252.176 62.7205 252.53 62.8767 252.906 63.0879C254.657 64.02 257.156 66.0334 258.826 63.0951C259.322 62.2282 260.34 56.0714 261.724 60.7534C261.91 61.3893 261.875 63.5454 262.158 64.7273C263.07 68.4929 262.998 60.9058 264.186 67.2847C265.374 73.6633 267.344 78.3763 269.35 73.8064C269.415 73.6732 269.593 67.6454 270.312 67.6973C271.46 67.7853 273.153 68.9365 274.341 68.825C274.909 68.7695 274.318 65.0689 274.412 64.9948C278.111 62.6753 281.037 65.8258 285.23 67.0066C286 67.2303 287.834 62.0173 289.547 65.9358C291.429 70.2247 290.967 88.6045 294.377 84.0099C295.759 82.1704 296.087 58.8683 299.556 70.6966C304.518 67.3713 309.736 73.179 314.613 68.5493C314.832 68.3439 315.089 61.8239 315.641 61.8712C316.462 61.9539 317.134 64.9421 317.729 65.0974C320.229 65.8242 322.252 63.0678 324.623 63.2853C325.523 63.3612 325.459 66.5093 326.535 66.5993C327.611 66.6861 327.985 62.517 329.581 64.3862C330.788 65.8117 332.568 74.1268 334.1 74.9852C333.463 66.6911 334.468 66.7796 336.039 64.4419C336.341 63.9886 335.733 61.1348 335.862 60.7716C336.384 59.2294 337.19 61.5685 337.666 59.8969C337.782 59.4953 337.544 56.6646 337.625 56.1765C338.3 51.9191 340.566 58.1342 340.961 59.2159C342.464 63.3246 342.665 59.597 343.68 61.1763C344.695 62.755 343.587 64.9435 344.691 65.8574C346.981 67.747 349.645 67.039 351.793 66.9651C352.648 66.9181 351.706 63.1989 351.82 63.1045C353.483 61.9796 355.658 65.8195 355.888 58.2065C359.033 77.5202 356.76 56.2177 359.651 59.855C359.879 60.1496 361.069 69.312 360.441 70.7385C359.812 72.1638 358.366 69.4076 357.515 71.6157C357.315 72.1342 356.718 80.889 356.569 81.4301C355.414 85.6592 353.868 71.9422 353.715 71.1956C352.012 63.1416 351.147 72.589 350.74 73.2742C348.894 76.4129 346.911 74.6459 345.326 76.9048C344.288 78.3658 344.979 87.3804 344.035 87.1866C340.894 86.5467 338.763 74.0724 336.825 85.2115C336.407 87.5872 337.847 97.3826 334.985 89.8252C334.804 89.349 332.582 82.4013 332.005 86.9592C331.932 87.5339 332.171 90.4036 332.033 90.6576C331.108 92.3031 330.221 90.0733 329.163 91.2605C328.105 92.4475 326.853 94.1898 325.468 93.3184C324.632 92.7979 323.207 87.5269 322.731 86.2461C321.38 82.5552 320.713 88.8279 319.709 84.3086C318.701 79.7665 319.462 72.6956 317.512 69.8586C318.008 77.3238 318.436 84.9924 318.894 92.5031C315.05 92.5271 311.12 90.3858 307.319 90.9836C306.848 91.0651 307.614 95.0435 307.116 95.2343C305.01 96.0219 302.939 93.2902 300.792 94.5798C299.13 95.5933 297.524 99.9684 295.79 101.158C294.127 92.6877 291.65 95.7615 289.661 95.1048C288.964 94.8785 288.864 92.5937 288.334 91.8801C286.34 89.2426 287.672 96.7384 287.248 97.9583C285.424 103.165 284.165 86.0868 281.676 86.6658C281.544 86.6907 280.477 95.9019 280.286 96.4831C279.084 100.271 279.854 93.3268 278.918 92.7087C277.21 91.5788 275.946 89.4722 274.194 92.2567C273.685 93.0809 272.688 98.8407 271.34 94.5131C271.163 93.9465 271.061 90.9302 270.936 90.7607C268.685 87.9452 269.197 97.4111 268.2 100.687C267.204 103.962 264.984 97.5376 264.5 95.6767C263.238 90.8636 265.124 93.5511 265.149 93.07C265.432 87.3452 264.155 88.4035 263.108 87.983C262.413 78.7128 261.022 79.3535 262.024 87.5843C262.136 88.4832 262.878 87.5711 263.108 87.983C262.75 97.1396 261.248 98.398 259.02 89.9916C257.977 86.0516 258.47 81.3578 256.112 83.2022C255.041 84.035 255.845 90.3991 254.962 92.1985C254.856 92.4135 254.747 92.6013 254.635 92.7644C252.427 95.723 249.454 90.5583 247.124 91.5558C246.213 91.9373 247.276 95.3982 246.637 95.7797C246.187 96.0427 245.746 96.0689 245.09 95.9859C245.718 95.9429 245.836 95.8967 245.907 95.8577C245.962 95.8181 245.906 95.7818 245.796 95.747C245.568 95.6774 245.148 95.6153 244.452 95.5542C243.68 95.4753 242.962 95.4917 240.4 95.207C239.716 95.1206 238.867 95.0079 237.612 94.7346C236.218 94.3794 234.703 94.1739 231.124 92.3841C229.366 91.4242 227.046 90.1419 224.086 86.9143C221.291 83.9847 218.288 78.2012 217.868 72.8903C217.302 61.9827 220.818 58.6794 222.066 56.3074C225.971 50.9775 228.073 50.151 229.56 48.9727C231.019 47.9775 231.934 47.42 232.684 46.882C233.213 46.502 230.248 43.8094 232.235 42.8739C235.027 41.6135 236.039 41.411 236.709 41.2927C236.986 41.2641 237.14 41.2825 236.667 41.5556C236.398 41.7118 236.036 41.8821 234.915 42.4741C234.329 42.7939 233.552 43.1925 232.122 44.1419C231.306 44.6991 230.48 45.2541 228.972 46.5785C228.212 47.2598 227.436 48 226.421 49.1615C225.31 50.4443 224.056 52.0938 222.845 54.3464C225.391 50.8978 228.438 47.7184 232.283 43.8912C235.25 40.6383 241.7 33.9004 246.57 32.6246C255.206 29.9344 263.592 34.9851 267.911 33.8755C270.94 33.1889 270.498 29.5182 272.049 27.1339C275.273 22.5405 278.116 31.7948 278.214 33.1922C278.219 33.2328 275.933 33.7311 276.767 35.7769C276.755 39.7522 278.177 33.2033 278.214 33.1922C278.444 34.0928 282.289 35.7213 283.168 35.2253C283.665 34.9464 284.219 31.5077 284.468 31.4279C290.431 29.6287 295.331 30.1777 298.855 32.894C298.905 32.9819 297.711 36.6829 297.844 36.8432C299.661 39.1727 302.361 34.9989 304.668 32.6969C306.966 30.3917 307.602 31.5138 306.919 38.1989C308.075 37.5988 308.629 40.6939 308.962 42.5407C309.345 44.3941 310.112 36.8581 310.138 36.712C310.625 34.5012 310.285 34.2175 309.735 34.6995C309.152 35.1925 308.383 36.3707 306.813 37.3732C306.598 37.5101 306.373 37.6441 306.139 37.7734C304.305 38.6176 300.21 40.2431 298.951 40.5884C297.781 40.8883 299.085 42.1682 298.13 41.5474C298.002 41.466 295.199 39.5971 295.089 39.5273C291.633 37.4481 298.638 41.7836 299.902 42.5361C304.61 45.0883 307.343 46.0861 305.805 43.6222C305.466 43.0347 295.432 36.6255 295.212 35.5403C294.96 34.1158 298.514 36.491 298.241 34.7977C298.227 34.6448 295.881 33.4658 296.443 32.664C299.148 29.0183 303.727 22.6462 313.105 14.6744C314.431 13.6193 310.084 11.6875 312.141 10.0221C318.696 4.64842 328.892 0.835137 336.918 0.71144C338.593 0.730069 339.906 0.571378 345.228 1.04192C346.717 1.20894 348.486 1.38505 351.637 2.1388C354.691 3.17874 359.71 3.37043 369.274 11.4795C373.846 15.434 379.202 23.4026 380.851 31.1852C382.663 39.0562 381.708 45.0735 380.837 48.832C378.835 56.4596 376.807 58.854 375.632 60.7979C373.785 63.4458 373.108 63.7101 372.459 63.994C371.86 64.1778 371.466 63.9654 371.121 63.6789C370.441 63.0925 370.029 62.0983 369.35 62.2515C365.344 62.9742 365.386 63.6461 366.06 64.8053C366.776 65.891 368.467 66.917 368.596 66.8767C368.63 66.8684 368.664 66.8584 368.7 66.8466C366.689 74.4592 358.07 73.5698 355.027 80.6987C354.907 81.0739 357.88 89.3096 352.292 84.8649C351.905 84.5837 346.342 79.9172 348.54 84.4307C348.672 84.7165 351.656 87.0384 350.271 87.6767C349.448 88.0537 348.993 89.4148 347.881 90.0362C347.551 90.1302 346.873 89.9356 345.49 88.9502C344.422 88.1721 339.193 83.2273 341.634 88.5775C341.866 88.9011 347.986 100.503 341.561 94.271C340.498 93.2454 334.902 85.7219 336.022 90.9383C336.219 91.9622 338.183 93.1 337.963 94.908C337.566 97.7297 333.852 97.3289 333.335 102.575C333.324 103.461 334.219 110.377 329.806 107.231C329.139 106.726 328.262 103.65 327.071 103.872C325.278 104.198 323.542 104.841 321.701 105.56C317.019 107.292 309.622 110.695 297.982 107.95C292.26 106.23 296.016 101.891 291.292 99.0192C286.102 95.9618 280.694 89.8041 277.684 89.8669C274.405 89.8206 270.125 97.0501 267.541 95.2112C265.085 93.4619 265.457 94.7411 269.017 97.4244C272.482 100.167 279.843 102.815 284.8 102.661C283.569 101.606 282.028 100.278 280.212 99.9423C279.642 99.8381 280.112 102.725 279.293 102.786C276.312 102.98 270.216 106.255 265.497 100.695C261.738 96.2209 265.235 91.9928 262.532 90.3262C261.204 89.5378 261.152 99.0215 260.903 99.354C258.446 102.723 255.77 98.9068 253.12 100.561C252.569 100.904 253.665 104.594 253.187 104.845C251.553 105.735 249.457 104.301 247.748 104.829C246.98 105.074 247.481 107.94 246.714 107.808C244.882 107.523 243.12 106.492 241.047 103.965C240.862 103.734 241.582 100.027 240.227 100.029C238.011 100.042 235.077 97.5956 232.58 100.518C231.842 101.394 232.129 108.037 230.138 103.532C229.713 102.589 229.922 94.6081 228.096 101.56C227.887 102.376 226.138 107.305 224.336 107.981C212.294 107.645 209.537 105.154 207.08 104.018C204.604 102.55 203.787 101.389 203.211 100.029C202.016 97.4757 203.597 90.5314 201.784 90.3633C201.498 90.3409 199.983 93.7129 198.645 93.0656C194.186 90.8322 192.266 88.3005 189.046 86.5158C188.18 86.031 186.439 89.588 185.214 88.7564C184.048 87.9514 182.985 86.9148 181.78 85.3826C181.16 84.5898 180.535 83.7255 179.603 82.3112C179.088 81.527 178.538 80.6936 177.573 79.0557C177.345 78.6645 176.981 78.0391 176.627 77.3877C176.238 76.6623 175.953 76.146 175.228 74.6212C174.901 73.9213 174.544 73.1166 174.155 72.1347C173.753 71.0763 173.411 70.3166 172.64 67.6164C171.988 65.142 171.188 61.8983 171.131 56.6361C170.357 52.0836 174.339 30.2367 191.124 20.9803C199.874 16.2555 202.074 16.691 204.439 16.1109C206.587 15.7879 207.94 15.7624 209.127 15.7717C211.641 15.8689 210.324 19.1326 210.575 19.4333C213.656 24.505 213.816 17.2009 214.524 16.7149C218.17 13.9159 220.475 17.3329 223.097 16.4134C223.821 16.1724 223.312 12.6881 223.458 12.3776C224.99 9.34786 223.835 15.5994 224.758 16.2956C227.321 18.271 230.029 18.0731 232.555 17.7482C233.48 17.6246 232.641 13.5384 233.483 13.4757C235.996 13.2567 238.556 13.3478 241.34 13.8961C242.699 14.1684 244.21 14.5632 245.858 15.1226C247.748 15.7521 249.01 16.2421 253.582 17.9495C255.35 18.6347 256.417 19.9543 255.933 20.7579C255.586 21.6107 254.622 22.2988 255.175 22.8558C255.919 23.6071 256.799 24.3096 258.113 25.1888C259.077 25.7685 260.223 26.444 261.691 27.4157C262.425 27.9039 263.242 28.4695 264.162 29.169C264.621 29.519 265.107 29.9031 265.62 30.3318C265.877 30.5462 266.14 30.7718 266.411 31.0102C266.786 31.3363 267.324 31.8197 267.81 32.2885C271.493 35.8242 278.294 43.9423 278.509 56.9357C278.658 70.1833 271.169 79.3344 267.045 82.8947C261.471 87.6474 259.067 88.3307 256.822 89.5069C256.283 90.6468 256.485 93.5235 256.365 93.999C255.495 97.4951 253.773 95.1976 252.299 96.278C244.983 101.645 235.263 102.557 228.758 103.298C226.805 103.528 224.98 103.64 223.254 103.715C222.188 103.273 218.238 103.86 214.54 104.465C210.604 105.105 206.447 106.145 199.654 107.357C198.496 107.541 200.193 111.509 199.121 111.724C194.015 112.474 187.441 113.441 175.984 109.781C168.042 107.263 159.33 100.79 154.658 94.0668C149.827 87.3523 148.055 81.5033 147.001 77.1652C145.109 68.4391 145.513 63.7401 145.314 59.7748C145.296 58.7947 141.274 59.9141 141.123 58.3074C140.991 57.0117 141.02 55.7423 141.17 54.792C141.245 54.3194 141.349 53.9239 141.469 53.7104C141.588 53.5056 141.723 53.4394 141.851 53.9307C142.003 52.3503 142.083 51.9492 142.141 51.5314C142.199 51.1558 142.234 50.956 142.262 50.798C142.301 50.594 142.316 50.5347 142.336 50.4494C142.373 50.2967 142.395 50.234 142.412 50.1993C142.448 50.1208 142.476 50.0968 142.502 50.0829C142.554 50.0542 142.601 50.0655 142.651 50.0761C142.751 50.1012 142.856 50.1491 142.971 50.2032C143.536 50.5045 146.905 50.7363 147.411 50.999C147.897 51.333 148.15 51.57 148.292 53.6476C148.451 54.9003 148.189 55.9559 149.32 61.3922C150.427 64.2987 149.749 68.6442 159.219 79.1399C163.86 84.178 174.147 89.6057 183.003 89.8869C187.04 90.1617 190.763 89.7127 193.614 89.0671C196.209 88.4844 198.39 87.7111 200.224 86.9199C200.985 86.6459 201.604 86.4308 202.129 86.2836C203.272 85.9673 203.673 90.3425 205.048 89.6154C206.864 88.6225 206.985 88.5157 206.411 89.0603C205.745 89.6326 204.504 90.7591 201.186 93.0507C197.492 95.3564 193.201 97.0735 187.74 97.1743C187.074 97.1887 182.172 90.6563 182.067 92.5961C183.234 94.5368 184.697 96.7611 185.99 98.8059C177.679 105.661 166.829 109.426 155.963 113.552C154.918 113.944 153.704 114.419 152.468 114.903C151.905 115.124 154.585 118.68 153.461 119.143C146.852 121.684 140.094 126.041 126.123 122.977C124.654 122.616 125.173 115.096 121.159 116.208C120.619 116.524 113.288 116.831 110.08 117.47C109.64 117.594 110.607 121.596 107.237 120.693C101.259 119.019 93.7038 115.028 88.0196 108.765C74.9935 92.9638 77.5791 83.6265 77.4214 78.5042C77.9387 73.1682 79.1606 70.0786 80.4425 67.4563C81.0532 66.2865 84.4731 68.3725 84.9341 67.5901C88.1323 62.4199 86.9478 57.2382 91.378 54.9813C94.3238 53.6086 100.173 56.6508 106.599 57.7748C107.51 57.9279 108.026 56.8918 111.574 58.0676C120.551 60.8846 130.063 64.8975 139.645 67.862C140.675 68.1861 140.847 67.5623 141.369 67.0394C141.893 66.5064 142.724 66.2614 144.854 68.2019C145.101 68.6043 146.1 71.031 147.663 71.9046C148.725 72.572 152.473 73.3848 153.764 74.4303C155.059 75.458 151.873 74.8937 153.368 76.1744C154.891 77.4479 159.045 78.6781 159.138 79.95ZM310.614 50.6405C311.291 54.2362 309.851 40.9962 310.271 44.1582C310.29 44.3271 310.59 50.4632 310.614 50.6405ZM310.426 80.3675C308.474 74.6218 308.033 83.3062 309.439 87.7518C310.849 92.1921 311.023 82.1089 310.426 80.3675ZM326.028 74.8952C323.874 70.4222 325.062 89.2606 326.695 85.3046C326.791 85.0808 326.154 75.1548 326.028 74.8952ZM106.508 63.5271C106.683 63.5605 107.175 62.6541 107.019 62.5723C103.206 60.6585 102.199 62.5435 106.508 63.5271ZM341.409 68.9269C340.627 66.4332 339.277 69.5095 340.247 72.6116C341.03 75.1071 342.385 72.0289 341.409 68.9269ZM333.844 53.4337C333.695 53.3021 333.07 53.6381 333.839 54.4532C336.321 57.0775 336.355 55.6541 333.844 53.4337ZM368.137 66.1007C364.097 65.8192 360.129 50.554 364.561 51.8582C365.367 52.0931 363.421 56.9781 364.551 58.2722C366.628 60.6277 366.774 50.7669 369.173 55.7816C369.614 56.6996 368.375 66.1513 368.133 66.1231C368.134 66.1156 368.136 66.1082 368.137 66.1007ZM312.115 66.5601C312.153 66.7391 313.127 66.8007 313.123 66.6193C312.957 62.387 311.439 62.2168 312.115 66.5601ZM303.235 65.396C303.334 65.2354 303.366 65.0439 303.252 64.8235C303.146 64.6113 302.889 64.3476 302.748 64.4499C296.918 68.5059 299.915 72.0847 303.235 65.396ZM258.144 69.7934C260.832 73.1356 261.327 73.3283 256.684 70.6296C257.257 70.3147 257.614 69.9585 258.144 69.7934Z" fill="#53535A"/>
</svg>
