<svg width="162" height="73" viewBox="0 0 162 73" fill="none" xmlns="http://www.w3.org/2000/svg">
<path d="M14 42L38 3.5C45.5 5 61.4 7.8 65 7C68.6 6.2 74.8333 3.33333 77.5 2L158.5 22C150.333 26 133.723 33.6575 133 34C123.5 38.5 112.5 48.5 111 50C109.8 51.2 105.5 51.5 103.5 51.5C95.1667 58.1667 78.3 71.5 77.5 71.5H48L35.5 68L2 54L14 42Z" fill="#142A1D" fill-opacity="0.6" stroke="#EF813A" stroke-width="2"/>
<path d="M79.8402 39.8223C79.8863 39.8223 79.9327 39.8295 79.9711 39.8447L101.935 48.7549C102.027 48.7853 102.104 48.8464 102.134 48.9375L102.687 50.6016V50.6172C102.702 50.6399 102.703 50.655 102.703 50.6777C102.71 50.7233 102.703 50.7767 102.68 50.8223C102.642 50.9211 102.549 51.0128 102.434 51.0508C102.382 51.073 102.329 51.0797 102.277 51.0801C102.278 51.0801 102.279 51.0811 102.281 51.0811C102.334 51.081 102.388 51.0735 102.442 51.0508C102.528 51.0166 102.601 50.9608 102.649 50.8936L102.641 50.9082C102.622 50.9347 102.598 50.9597 102.572 50.9824L93.5453 58.3193C93.5365 58.3268 93.5284 58.335 93.519 58.3418L78.8402 70.2754C78.7858 70.3543 78.6996 70.4186 78.5961 70.4502H78.5727L76.2309 71.082H76.0922C75.9463 71.0668 75.8232 70.9827 75.8002 70.8535C75.7619 70.6787 75.9082 70.4887 76.1078 70.4355L76.1693 70.4199L78.3734 69.8271L78.4652 69.8047C78.4883 69.7971 78.5095 69.7929 78.5297 69.791L78.5961 69.8047C78.7495 69.8047 78.8728 69.8956 78.8959 70.0322C78.899 70.0464 78.899 70.061 78.8998 70.0752C78.9008 70.0535 78.8997 70.0315 78.8959 70.0098C78.8805 69.873 78.7496 69.7813 78.5961 69.7812C78.5577 69.7812 78.5115 69.7893 78.4731 69.7969L78.3813 69.8193L83.1586 65.9326L65.9779 60.8184L65.8012 60.7656C65.6094 60.7123 65.5333 60.5216 65.6254 60.3545C65.6927 60.2283 65.8301 60.1424 65.9662 60.123L66.0316 60.127C66.053 60.127 66.0933 60.1342 66.1156 60.1387L66.101 60.1348C66.0704 60.1197 66.0396 60.1201 66.0014 60.1201C65.9428 60.1201 65.884 60.132 65.8295 60.1543L68.559 58.4551L69.0883 58.6758C69.1344 58.691 69.1809 58.6982 69.227 58.6982C69.2858 58.6982 69.3445 58.6829 69.4008 58.6602C69.349 58.6782 69.2952 58.6904 69.2416 58.6904C69.1957 58.6904 69.1498 58.6831 69.1039 58.668L55.0229 52.8115L55.019 52.8145L45.0346 58.7012L58.9057 64.4648L65.6977 60.2354C65.659 60.2692 65.6263 60.3097 65.602 60.3555C65.5098 60.5227 65.5867 60.7134 65.7787 60.7666L65.9555 60.8193L59.2357 65.002V65.0078L58.7357 70.1396L58.7055 70.4434C58.6827 70.6234 58.5027 70.7806 58.3061 70.792C58.5134 70.7844 58.6902 70.6248 58.7133 70.4424L58.7445 70.1387L76.1615 70.4199L76.1 70.4346C75.9004 70.4954 75.7627 70.6787 75.7934 70.8535C75.8166 70.9901 75.9396 71.0735 76.0854 71.0811L58.3031 70.792C58.3015 70.7921 58.2999 70.7929 58.2982 70.793H58.2523C58.25 70.7928 58.2478 70.7913 58.2455 70.791L47.6547 70.6172C47.6495 70.617 47.6442 70.6156 47.6391 70.6152C47.6162 70.6139 47.5945 70.6117 47.5736 70.6064C47.5763 70.607 47.5794 70.6068 47.5824 70.6074C47.5394 70.5976 47.5003 70.5815 47.4672 70.5586L47.4691 70.5605C47.4993 70.5818 47.5347 70.5967 47.5736 70.6064C47.5622 70.6042 47.5541 70.6035 47.5541 70.6035L35.3744 66.9082C35.3973 66.9158 35.4201 66.916 35.4506 66.916C35.4967 66.916 35.5511 66.9088 35.6049 66.8936C35.7047 66.8555 35.7835 66.7889 35.8315 66.7109L35.8393 66.6953C35.7913 66.7733 35.7126 66.8398 35.6127 66.8779C35.5589 66.9007 35.5045 66.9014 35.4584 66.9014C35.4355 66.9013 35.4051 66.8936 35.3822 66.8936C35.2978 66.8707 35.2204 66.8172 35.182 66.7412C35.1771 66.7316 35.1696 66.7189 35.1645 66.7109L35.1742 66.7568C35.1742 66.7417 35.1672 66.7337 35.1596 66.7188V66.6729L34.4682 64.4834V64.4756C34.4635 64.4637 34.4572 64.4529 34.4555 64.4404L34.4525 64.3799V64.332C34.4679 64.2484 34.5222 64.1643 34.599 64.1035C34.6057 64.097 34.6121 64.0958 34.6137 64.0957H34.6215C34.6368 64.0805 34.66 64.0652 34.683 64.0576C34.6983 64.0501 34.7137 64.0354 34.7289 64.0352C34.7317 64.034 34.7349 64.0333 34.7377 64.0322L44.016 58.5684C44.0303 58.5549 44.0452 58.542 44.06 58.5303C44.0829 58.5151 44.1064 58.5083 44.1293 58.4932C44.1408 58.4881 44.153 58.4847 44.1645 58.4805L54.8275 52.1992L54.9037 52.1533L65.8549 45.6992L65.9477 45.6455L75.2856 40.1416L75.3246 40.1191C75.3765 40.0849 75.437 40.0632 75.4965 40.0547L75.5697 40.0664C75.6477 40.0664 75.7215 40.0906 75.7768 40.1357C75.7201 40.0763 75.6372 40.043 75.5473 40.043C75.4705 40.043 75.3936 40.0657 75.3168 40.1113L75.2787 40.1338C75.3477 40.0808 75.4319 40.043 75.5238 40.043L79.7709 39.8301C79.6483 39.8453 79.5334 39.9134 79.4643 40.0195C79.5334 39.921 79.6483 39.8529 79.7709 39.8301L79.8402 39.8223ZM57.9701 70.5586C57.988 70.686 58.0924 70.7749 58.2309 70.7891C58.0931 70.7695 57.9889 70.6807 57.9701 70.5586ZM47.6615 70.6182H47.6537C47.6494 70.6181 47.6446 70.6158 47.6391 70.6152C47.6465 70.6157 47.6539 70.6182 47.6615 70.6182ZM43.9711 59.001C43.9982 59.0327 44.0333 59.0591 44.0756 59.0781L44.2602 59.1543L35.265 64.457L35.8432 66.3076L35.8471 66.3242L47.8422 69.9561L58.0063 70.1221L58.4984 65.0684L44.2523 59.1465L44.0678 59.0703C44.0291 59.0529 43.9972 59.0288 43.9711 59.001ZM75.6303 40.6777L75.5854 40.7041L66.8393 45.8604L75.5473 49.4844L80.1859 51.415C80.1962 51.4201 80.2086 51.4273 80.2211 51.4346C80.2026 51.4225 80.1799 51.4091 80.1781 51.4082L79.9936 51.332L90.3842 44.8477L91.1137 45.1445L80.2582 51.9014C80.2058 51.9587 80.1396 51.9973 80.0678 52.0205L78.1352 53.2246L77.4975 53.0352C77.4668 53.02 77.4362 53.0195 77.3979 53.0195C77.3431 53.0195 77.2883 53.0336 77.2357 53.0547L79.2484 51.8037L79.7787 52.0244C79.817 52.032 79.8478 52.0469 79.8861 52.0469H79.9242C79.9597 52.0469 79.9965 52.0421 80.0326 52.0332C79.9972 52.0416 79.9606 52.0459 79.9242 52.0459C79.8844 52.0458 79.8449 52.0334 79.8051 52.0205C79.79 52.0163 79.7787 52.0156 79.7787 52.0156L70.9857 48.3594L78.8842 51.6406L66.0639 46.3135L66.0629 46.3145L55.7914 52.3633L69.3168 57.9824L77.0805 53.1514C77.051 53.1798 77.0261 53.2128 77.0063 53.248C76.9142 53.4228 76.9911 53.605 77.183 53.6582L77.3598 53.7119L69.5678 58.5605C69.5266 58.6004 69.4778 58.6298 69.4252 58.6514L66.7406 60.3232L66.769 60.332L83.8178 65.4102L84.0258 65.4707C84.1408 65.4992 84.2136 65.5843 84.2299 65.6865C84.2153 65.5836 84.1427 65.4977 84.0258 65.4639L83.8178 65.4033L92.6107 58.2549L77.39 53.7188L77.2133 53.666C77.0216 53.6203 76.9456 53.4305 77.0375 53.2559C77.098 53.1362 77.2344 53.0506 77.3705 53.0312L77.4213 53.0273C77.4521 53.0274 77.5209 53.043 77.5209 53.043L78.1586 53.2324L93.2563 57.7334L93.4643 57.7939C93.5841 57.8225 93.6558 57.9074 93.6723 58.0098C93.6577 57.9064 93.5864 57.8201 93.4643 57.7861L93.2563 57.7246L101.913 50.6982L101.912 50.6934L101.466 49.3252L101.428 49.2109C101.374 49.0437 101.489 48.8534 101.689 48.7773C101.716 48.7659 101.743 48.7587 101.77 48.7539L101.834 48.7393C101.781 48.7393 101.727 48.7468 101.673 48.7695C101.474 48.8456 101.359 49.0359 101.413 49.2031L101.451 49.3174L91.1371 45.1357L90.4076 44.8398L79.6479 40.4756L75.6303 40.6777ZM58.9281 64.5215C58.7467 64.5282 58.5886 64.6508 58.5365 64.8037C58.59 64.6509 58.7535 64.5281 58.9281 64.5215L58.9359 64.5293C58.9936 64.5293 59.0452 64.5413 59.0922 64.5625C59.0827 64.5572 59.0736 64.5518 59.0736 64.5518L59.018 64.5283C58.9966 64.5249 58.9747 64.5215 58.9516 64.5215H58.9281ZM48.1693 35.2607L65.0473 42.2773H65.0492C65.1343 42.2924 65.2058 42.3351 65.2484 42.4072C65.2715 42.4452 65.2865 42.4835 65.2865 42.5215V42.5439C65.2865 42.6656 65.2179 42.7951 65.0873 42.8711L42.3773 56.2461C42.3624 56.2579 42.3488 56.271 42.3324 56.2803H42.3246C42.2566 56.3177 42.1738 56.3401 42.0981 56.3408C42.0993 56.3408 42.1007 56.3418 42.102 56.3418C42.1787 56.3418 42.2633 56.3192 42.3324 56.2812L31.1117 62.8945C31.2115 62.8337 31.2809 62.7351 31.2963 62.6211C31.3021 62.4899 31.2348 62.3797 31.1195 62.333L31.1049 62.3291C31.2221 62.3768 31.2931 62.4821 31.2816 62.6133C31.274 62.7272 31.1968 62.8259 31.0971 62.8867C31.0894 62.8943 31.0736 62.9023 31.0736 62.9023C31.0614 62.9099 31.0473 62.9136 31.0346 62.9199C31.031 62.9216 31.0275 62.9233 31.0238 62.9248C30.9756 62.9469 30.9258 62.9629 30.8744 62.9629H30.8363L26.7045 63.1533H26.6498C26.604 63.1532 26.5581 63.1382 26.5199 63.123L3.66446 53.5137C3.5801 53.4756 3.511 53.3919 3.50333 53.3008C3.48802 53.2096 3.52627 53.1031 3.60293 53.0195L13.1801 43.3115C13.2433 43.249 13.3282 43.2082 13.4184 43.1914L13.4799 43.1982H13.518L27.8637 44.7109H27.9633C28.1551 44.7337 28.2785 44.8929 28.225 45.0752C28.2179 45.0975 28.2057 45.118 28.1947 45.1387C28.2202 45.1048 28.2427 45.0691 28.2553 45.0293C28.3088 44.8471 28.1863 44.6877 27.9945 44.6572H27.894L36.3041 41.5557H36.3188C36.3341 41.5481 36.3423 41.5479 36.35 41.5479H36.352L47.8158 35.2842C47.8504 35.2652 47.8868 35.2517 47.9232 35.2432H47.9301L48.0385 35.2383H48.0844C48.1151 35.2459 48.1693 35.2607 48.1693 35.2607ZM27.0893 62.7646C27.0918 62.8241 27.0754 62.8868 27.0385 62.9473C27.0752 62.8896 27.0927 62.828 27.0902 62.7686L27.0893 62.7646ZM36.7904 41.8027C36.7889 41.9443 36.6842 42.0855 36.519 42.1484L36.3656 42.209L28.3012 45.1816L28.099 45.2559C28.0858 45.2671 28.0727 45.2783 28.058 45.2881L28.3012 45.1895L28.9545 50.123L28.8315 50.0693C28.7855 50.0466 28.7316 50.0323 28.6703 50.0322C28.5935 50.0246 28.5088 50.0472 28.432 50.0928L28.2016 50.2217L27.559 45.3281L27.5336 45.3262L13.5482 43.8594L4.45547 53.0801L15.4145 57.6875L16.144 57.9912L26.8422 62.4912H26.8441L30.8432 62.3096L41.4145 56.084L41.4106 56.083L28.5775 50.7539L28.5688 50.75L16.1518 57.9834L15.4223 57.6787L28.1938 50.2363L28.4242 50.1074C28.3671 50.1406 28.3158 50.1831 28.2787 50.2363C28.2378 50.2971 28.2198 50.3638 28.2231 50.4268C28.2223 50.3673 28.2402 50.304 28.2787 50.2441C28.3422 50.153 28.4444 50.0875 28.5531 50.0605L28.6469 50.0547C28.7006 50.0547 28.7472 50.0624 28.7856 50.0928H28.8158L28.9389 50.1455L42.1635 55.6494L42.3481 55.7256C42.4574 55.7681 42.519 55.8575 42.5248 55.959C42.5204 55.8556 42.4587 55.7618 42.3481 55.7188L42.1635 55.6426L53.099 49.1963L53.1029 49.1934L36.3647 42.2393L36.519 42.1787C36.6959 42.1112 36.8053 41.9541 36.7904 41.8027ZM65.6977 60.2354C65.7366 60.2012 65.7815 60.1739 65.8295 60.1543L65.6977 60.2354ZM42.0033 56.3252C42.0276 56.333 42.0513 56.3372 42.0756 56.3389C42.0515 56.3369 42.0274 56.3322 42.0033 56.3252ZM77.0805 53.1514C77.1245 53.1089 77.1789 53.0775 77.2357 53.0547L77.0805 53.1514ZM80.2475 51.4531C80.3259 51.5148 80.3619 51.617 80.3471 51.7197C80.3693 51.6168 80.3333 51.5147 80.2475 51.4531ZM102.71 50.6855C102.71 50.6636 102.696 50.6278 102.695 50.625V50.6094C102.702 50.6322 102.71 50.6627 102.71 50.6855ZM28.6039 50.0508C28.5441 50.0589 28.4819 50.0789 28.4242 50.1074C28.4974 50.0649 28.5806 50.0391 28.6625 50.0391C28.6641 50.0391 28.6658 50.039 28.6674 50.0391L28.6039 50.0508ZM28.7318 50.0459C28.7681 50.0516 28.8016 50.0595 28.8315 50.0693H28.8002C28.7774 50.0581 28.7546 50.0506 28.7318 50.0459ZM28.7211 50.0439C28.7032 50.0409 28.6853 50.0393 28.6674 50.0391H28.6703C28.6879 50.0391 28.7047 50.0418 28.7211 50.0439ZM75.6781 16.499C75.7241 16.4991 75.7776 16.5142 75.8158 16.5293C75.8267 16.5347 75.8372 16.5408 75.8481 16.5469L94.892 22.2471C94.8537 22.232 94.8151 22.2314 94.7768 22.2314C94.7155 22.2315 94.6466 22.2471 94.5854 22.2773C94.5546 22.2849 94.5004 22.3232 94.5004 22.3232L93.9252 22.6875L75.6459 17.2109L62.4838 27.8721L62.3295 27.9961L62.4613 27.8945L75.4857 33.1709C75.5087 33.1785 75.5243 33.1938 75.5473 33.209C75.5549 33.2163 75.5629 33.2158 75.5629 33.2158C75.5746 33.2265 75.5846 33.2387 75.5941 33.251L75.5629 33.209C75.624 33.2621 75.6547 33.3306 75.6547 33.4141L75.6088 36.1885H75.2318C75.1707 36.1961 75.1096 36.2188 75.0561 36.249L75.018 36.2715C74.9331 36.3317 74.8694 36.4175 74.8559 36.5146C74.847 36.5848 74.8622 36.6493 74.894 36.7021C74.8645 36.6514 74.8523 36.59 74.8637 36.5225C74.8869 36.3553 75.0486 36.2191 75.2328 36.1963H75.6088L78.765 36.1807L78.8422 32.3496C78.8422 32.3952 78.8574 32.4407 78.8881 32.4863C78.9495 32.5623 79.0414 32.6084 79.1488 32.6084C79.2256 32.6084 79.3181 32.5856 79.3949 32.54L79.5785 32.4258L79.5023 36.2783L79.5404 36.2949L86.6674 39.1826L106.735 27.0732L107.318 27.2715L107.495 27.3467L87.4047 39.4873L86.852 39.2598C86.8059 39.2446 86.7672 39.2363 86.7211 39.2363C86.6899 39.2347 86.6585 39.2384 86.6273 39.2441L86.5922 39.2646C86.6346 39.2522 86.678 39.2441 86.7211 39.2441C86.7672 39.2441 86.8136 39.2514 86.852 39.2666L87.4047 39.4951L98.3022 43.9121L99.0316 44.208L110.321 48.7852L123.953 37.6328L124.037 37.5723L131.263 33.915L122.985 31.3916L122.966 31.3848L119.76 31.6846L119.744 31.6953L119.237 32C119.275 31.9696 119.314 31.9314 119.345 31.8857C119.434 31.7628 119.417 31.6175 119.328 31.5225C119.408 31.6157 119.417 31.7532 119.337 31.8779C119.307 31.9234 119.276 31.9618 119.23 31.9922C119.207 32.0073 119.191 32.0226 119.168 32.0303C119.107 32.0607 119.029 32.0762 118.96 32.0762C118.914 32.0761 118.869 32.061 118.823 32.0459L118.285 31.8252L107.495 27.3398L107.318 27.2637C107.315 27.2624 107.313 27.2601 107.31 27.2588L106.743 27.0664L94.7231 22.9385L79.5863 32.418L79.4018 32.5322C79.3251 32.5777 79.241 32.6006 79.1566 32.6006C79.0492 32.6006 78.9487 32.5631 78.8949 32.4795C78.8643 32.4416 78.8491 32.3883 78.849 32.3428C78.849 32.32 78.8568 32.2892 78.8568 32.2588V32.2363C78.8645 32.2287 78.8647 32.2129 78.8647 32.2129C78.8877 32.1445 78.949 32.0758 79.0258 32.0303L79.057 32.0156L93.9242 22.7031L94.5004 22.3379L94.5316 22.3154C94.5546 22.3003 94.57 22.2927 94.5854 22.2852C94.616 22.27 94.6485 22.2586 94.6811 22.251L94.7846 22.2549C94.8306 22.2549 94.8615 22.2544 94.8998 22.2695H94.9076C94.9153 22.2771 94.9311 22.2773 94.9311 22.2773C94.9541 22.2888 94.9753 22.3021 94.9945 22.3174L94.9389 22.2773L107.679 26.6484C107.649 26.6333 107.618 26.6328 107.587 26.6328C107.558 26.6328 107.528 26.6384 107.498 26.6445L107.564 26.6406C107.594 26.6406 107.625 26.6477 107.656 26.6553H107.679C107.687 26.6553 107.703 26.6709 107.703 26.6709H107.725L119.038 31.3691L119.049 31.374L119.445 31.1328L119.483 31.1104C119.488 31.1074 119.493 31.1043 119.497 31.1016C119.554 31.0674 119.617 31.048 119.683 31.042L123.1 30.7148C122.954 30.7301 122.816 30.8142 122.746 30.9434C122.723 30.9888 122.711 31.0353 122.708 31.0801C122.712 31.0375 122.724 30.9932 122.746 30.9502C122.816 30.8211 122.954 30.7379 123.1 30.7227L123.123 30.7148C123.162 30.715 123.231 30.7305 123.231 30.7305L132.292 33.4971C132.423 33.535 132.5 33.6414 132.5 33.7705C132.5 33.8997 132.407 34.0214 132.277 34.0898L124.36 38.1035L110.551 49.3857C110.467 49.454 110.359 49.4922 110.259 49.4922C110.206 49.4846 110.167 49.4761 110.121 49.4609L98.102 44.5889L98.0258 44.5576L86.4525 39.8604H86.4369C86.4219 39.8529 86.4142 39.845 86.4066 39.8447C86.3997 39.8378 86.3923 39.837 86.391 39.8369H86.3832C86.3769 39.8319 86.3716 39.8257 86.3656 39.8203L79.0033 36.834L75.309 36.8496H75.2875L66.2318 42.1865C66.1551 42.2321 66.0702 42.2549 65.9857 42.2549C65.9399 42.2548 65.8941 42.2466 65.8559 42.2314L48.9682 35.208C48.853 35.1624 48.7914 35.063 48.7914 34.9414C48.7991 34.8198 48.8835 34.7061 49.0063 34.6377L61.5775 27.7578L61.5629 27.7725C61.5322 27.7953 61.501 27.826 61.4779 27.8564C61.4703 27.8715 61.4554 27.894 61.4477 27.9092C61.44 27.9168 61.4398 27.9326 61.4398 27.9326V27.9473C61.3861 28.0916 61.4474 28.2438 61.5932 28.3047L61.7699 28.373L49.9281 34.8428L66.0629 41.5479L74.8559 36.3633L74.8637 36.3584L74.9096 33.6875L61.7777 28.374L61.601 28.3057C61.4917 28.2601 61.4297 28.163 61.4281 28.0566L61.4301 28.0244C61.424 28.1017 61.4507 28.1804 61.5082 28.2373C61.5696 28.298 61.6467 28.3281 61.7387 28.3281C61.8172 28.3281 61.9 28.3079 61.9731 28.2666C61.9079 28.2969 61.8376 28.3125 61.7699 28.3125C61.6779 28.3125 61.5932 28.2823 61.5395 28.2217C61.4627 28.1457 61.4396 28.0314 61.4779 27.9326V27.917C61.4851 27.9098 61.4857 27.896 61.4857 27.8945C61.4934 27.8717 61.5007 27.856 61.516 27.8408C61.5309 27.8116 61.5814 27.769 61.5854 27.7656L61.601 27.75L61.6156 27.7344L75.3627 16.5977C75.3781 16.5901 75.3863 16.5752 75.394 16.5752C75.4017 16.5676 75.4166 16.5518 75.4242 16.5518H75.432C75.439 16.5452 75.4519 16.545 75.4545 16.5449H75.4857C75.5088 16.5373 75.532 16.5215 75.5551 16.5215L75.6781 16.499ZM47.6029 35.623C47.6035 35.7306 47.6676 35.8277 47.7768 35.877L47.9457 35.9453L37.2094 41.8164L53.8617 48.7451L64.1576 42.6738L64.7338 42.3311C64.7839 42.3062 64.8376 42.2881 64.89 42.2783C64.8377 42.2864 64.7838 42.3013 64.7338 42.3311L64.1576 42.6729L47.9457 35.9297L47.7768 35.8613C47.6729 35.8144 47.6091 35.7244 47.6029 35.623ZM118.83 32.0527C118.876 32.0754 118.922 32.083 118.968 32.083C119.037 32.0906 119.115 32.0685 119.176 32.0381L99.0395 44.2012L98.31 43.9043L118.292 31.833L118.83 32.0527ZM38.7455 3.50781L62.058 8.6084H62.0609L62.1147 8.60059C62.1367 8.60786 62.1803 8.60838 62.184 8.6084L72.8979 10.9727L73.6957 11.1475C73.6992 11.1482 73.703 11.1496 73.7065 11.1504L73.727 11.1553C73.7309 11.1561 73.7348 11.1573 73.7387 11.1582L73.7104 11.1514C73.8925 11.1955 73.9786 11.3726 73.9037 11.543C73.8345 11.6948 73.6731 11.7929 73.5043 11.793C73.4736 11.793 73.4193 11.7861 73.4193 11.7861L61.9115 9.25586C61.918 9.25755 61.9243 9.26136 61.9311 9.2627L73.4506 11.7939C73.4811 11.8015 73.5041 11.8018 73.5346 11.8018C73.6957 11.8018 73.8648 11.7026 73.934 11.5508C74.0092 11.3795 73.9226 11.2012 73.7387 11.1582L75.6928 11.5889H75.6625C75.7316 11.5965 75.8011 11.6265 75.8549 11.6797C75.9777 11.8013 75.9466 12.0067 75.7856 12.1436L60.9477 24.1621L60.894 24.208L57.9115 26.6201C57.8825 26.6617 57.8458 26.7007 57.7992 26.7314C57.7851 26.7384 57.7644 26.7518 57.7611 26.7539L40.4047 36.2412C40.3866 36.2501 40.367 36.2542 40.349 36.2607L30.475 41.6543C30.4136 41.6847 30.3519 41.708 30.2904 41.708L25.7289 42.4453C25.8825 42.4225 26.0285 42.3085 26.0746 42.1641C26.0986 42.0731 26.0782 41.9866 26.0268 41.9199C26.0726 41.9852 26.0896 42.0698 26.0668 42.1562C26.0207 42.3006 25.8746 42.4147 25.7211 42.4375H25.5756L17.934 41.6318H17.8881C17.8049 41.6267 17.7368 41.5921 17.6889 41.543C17.6858 41.5395 17.682 41.5368 17.6791 41.5332C17.6607 41.5122 17.6448 41.4891 17.6342 41.4639C17.6113 41.4108 17.6035 41.3426 17.6264 41.2744C17.634 41.2441 17.6494 41.2061 17.6723 41.1758C17.6832 41.161 17.6975 41.1482 17.7104 41.1348L22.2426 34.1357L22.6879 34.2041H22.7338C22.843 34.2041 22.9521 34.1658 23.0356 34.0986L23.1176 34.0293L18.5815 41.04L25.7514 41.7988H25.7592L30.2123 41.0693H30.2133L39.4906 35.999L40.0824 35.6797C40.0231 35.7129 39.9745 35.7584 39.9389 35.8096C39.9735 35.7645 40.0188 35.7243 40.0746 35.6943L40.2582 35.5957L51.0951 29.6738L51.8627 29.8486C51.8932 29.8562 51.9162 29.8555 51.9467 29.8555C52.1156 29.8631 52.277 29.7643 52.3461 29.6123C52.3581 29.5863 52.3664 29.5605 52.3715 29.5352C52.3671 29.5532 52.3618 29.5718 52.3539 29.5898C52.2847 29.7417 52.1233 29.833 51.9545 29.833C51.9247 29.833 51.8736 29.8256 51.8705 29.8252L51.102 29.6504L27.226 24.1318L26.9525 24.0664C26.9568 24.0676 26.9609 24.0703 26.9652 24.0713L27.2572 24.1396L24.4613 28.457L24.4584 28.4609L40.266 35.5723L40.0815 35.6709L39.4906 35.998L24.0658 29.0693L21.3207 33.3154L22.9252 33.5654H22.9506C22.9314 33.5607 22.912 33.5586 22.8949 33.5586L22.9184 33.5508C22.9219 33.5517 22.9461 33.5601 22.9711 33.5684C22.9942 33.5712 23.0173 33.5775 23.0404 33.5889H23.0561C23.0637 33.5965 23.0718 33.6035 23.0795 33.6035C23.087 33.6039 23.0945 33.6188 23.102 33.6191C23.1089 33.6191 23.1163 33.6314 23.1176 33.6338C23.1236 33.6398 23.1251 33.6413 23.1254 33.6416C23.1331 33.6492 23.1332 33.6572 23.1332 33.6572C23.14 33.6575 23.1465 33.6693 23.1479 33.6719C23.1632 33.7023 23.1791 33.7255 23.1791 33.7559V33.8096C23.1791 33.8474 23.1787 33.8851 23.1635 33.9229C23.1481 33.9533 23.1328 33.9842 23.1098 34.0146C23.0253 34.1285 22.8795 34.1972 22.7338 34.1973H22.6879L22.2426 34.1279L20.6137 33.8779C20.4986 33.8627 20.4147 33.8011 20.3764 33.71C20.3381 33.6189 20.3532 33.513 20.4145 33.4219L23.5707 28.5332L23.6479 28.4189L26.7504 23.6221L38.2856 3.71289C38.3624 3.57617 38.5158 3.5 38.6693 3.5C38.6915 3.50006 38.7411 3.5072 38.7455 3.50781ZM64.9623 42.2715L64.975 42.2705H64.9721C64.9688 42.2705 64.9656 42.2714 64.9623 42.2715ZM25.8354 41.8037C25.8283 41.8022 25.8212 41.8 25.8139 41.7988H25.8051L25.8354 41.8037ZM17.9262 41.6465H17.8949C17.8889 41.6457 17.8833 41.6426 17.8773 41.6416C17.8935 41.6435 17.9097 41.6465 17.9262 41.6465ZM17.6889 41.543C17.7335 41.5931 17.798 41.628 17.8773 41.6416C17.8484 41.6381 17.82 41.6338 17.7953 41.624C17.7497 41.6059 17.716 41.5761 17.6889 41.543ZM75.1557 33.7871L75.225 33.7939C75.1789 33.7939 75.1324 33.7789 75.0863 33.7637C75.1094 33.7751 75.1326 33.7824 75.1557 33.7871ZM79.0229 32.0234C78.9475 32.069 78.895 32.1375 78.8647 32.2051C78.8877 32.1422 78.9326 32.0836 78.9926 32.0391L79.0229 32.0234ZM119.729 31.042C119.709 31.042 119.689 31.0429 119.668 31.0459L119.737 31.0498C119.817 31.0499 119.892 31.0748 119.948 31.1221C119.891 31.0701 119.813 31.042 119.729 31.042ZM35.351 10.1875L67.89 17.7158L67.2221 18.2559L34.9916 10.8105L34.9906 10.8135L31.4887 16.8555L60.6254 23.5918L59.9496 24.1387L31.1273 17.4717L27.6293 23.5156L52.0014 29.1484L52.0248 29.1543L57.3998 26.2148L57.4379 26.1914C57.4762 26.1687 57.5148 26.154 57.5531 26.1445L57.6684 26.1465C57.7834 26.1465 57.8909 26.1991 57.9447 26.29C57.9636 26.3255 57.9732 26.3643 57.976 26.4033C57.977 26.356 57.9688 26.3098 57.9457 26.2686C57.8843 26.1773 57.7836 26.124 57.6684 26.124C57.5919 26.1241 57.5154 26.1468 57.4389 26.1846L57.3998 26.207L59.9496 24.1475L60.6254 23.5996L67.2152 18.2637L67.891 17.7158L74.8178 12.1055L74.8236 12.0996L38.807 4.22266L35.351 10.1875ZM23.5707 28.5332C23.5784 28.5105 23.5935 28.4876 23.6088 28.4648C23.6161 28.4503 23.6443 28.4215 23.6469 28.4189L23.5707 28.5332ZM61.4301 28.0215C61.4327 27.9972 61.4377 27.9725 61.4467 27.9482C61.4375 27.972 61.4323 27.9967 61.4301 28.0215ZM61.5014 27.8496C61.5243 27.8269 61.5468 27.7962 61.5697 27.7734L61.5854 27.7578L61.5014 27.8496ZM107.733 26.6631H107.71C107.703 26.6558 107.688 26.6553 107.687 26.6553C107.702 26.6626 107.731 26.6631 107.733 26.6631ZM95.0912 22.5449C95.0839 22.629 95.0418 22.7152 94.9682 22.7803L95.018 22.7285C95.0622 22.6729 95.0864 22.6087 95.0912 22.5449ZM94.5004 22.3301L94.5316 22.3076C94.5346 22.3055 94.5635 22.2845 94.5854 22.2773L94.5004 22.3301Z" fill="#EF813A"/>
</svg>
