<svg width="1070" height="200" viewBox="0 0 1070 200" fill="none" xmlns="http://www.w3.org/2000/svg">
<path d="M35.0862 20.3591C37.2576 20.0969 39.2815 19.887 40.9873 19.7004C55.6479 18.2287 75.577 18.2049 92.8589 21.127C93.4572 21.2322 94.045 21.3383 94.6229 21.4451C100.024 22.4573 97.0612 24.5599 100.664 25.3721C107.622 26.964 113.765 26.4446 119.578 27.9591C121.501 28.4686 118.808 32.028 120.846 32.4734C126.073 33.5941 130.882 33.9313 135.381 33.862C134.518 34.015 137.945 33.5161 143.13 33.2377C148.253 33.1587 157.44 32.619 169.005 39.1573C178.156 44.5203 182.038 52.0165 183.752 56.1824C185.527 60.6563 185.914 63.4675 186.235 65.7667C186.754 70.2522 186.556 72.6881 186.465 74.6355C186.407 75.5785 186.339 76.3386 186.288 76.8108C186.261 77.0422 186.24 77.1994 186.222 77.2012C186.203 77.1932 186.195 77.062 186.16 76.4587C185.901 85.5162 185.655 92.6662 186.037 96.5681C186.1 97.4556 186.187 98.0268 186.042 97.901C185.87 97.7867 185.532 96.8567 183.84 94.8956C182.264 92.9867 178.465 90.1017 174.563 89.0883C170.654 88.0011 167.958 88.4586 166.884 88.7264C166.561 88.9305 166.175 89.2991 166.294 89.4104C166.391 89.5259 166.937 89.3007 167.661 88.552C169.144 87.079 171.017 83.6374 172.077 79.4675C172.023 79.7533 172.012 79.8394 172.008 79.8755C172.004 79.9131 172.01 79.8999 172.017 79.8722C172.033 79.8139 172.059 79.6921 172.086 79.557C172.141 79.2827 172.206 78.9404 172.272 78.5838C172.406 77.87 172.55 77.0814 172.71 76.2334C172.873 75.3729 173.039 74.4928 173.293 73.2763C173.432 72.63 173.547 72.0343 173.907 70.6303C174.018 70.2116 174.104 69.8809 174.333 69.1282C174.59 68.3869 174.674 67.7557 175.929 65.0259C176.329 64.1996 176.841 63.1905 177.745 61.8014C178.859 60.4324 180.756 56.1771 189.083 51.9528C194.357 48.8199 207.243 48.342 214.049 52.8462C215.795 53.8192 217.304 54.9255 218.469 55.9221C219.187 56.535 219.822 57.1404 220.388 57.7264C221.519 58.8994 222.379 59.9891 223.072 60.9705C225.76 64.8851 226.35 67.2675 226.647 67.9974C227.347 70.0752 227.588 71.5118 227.687 72.027C227.812 72.7234 227.887 73.269 227.944 73.741C227.859 73.5477 227.464 72.6647 227.338 72.6768C227.212 72.6576 227.692 73.6035 229.166 75.4403C229.474 75.9136 229.625 76.1148 229.675 76.2392C229.73 76.3602 229.693 76.4279 229.844 76.5558C230.089 76.8002 231.447 77.2214 233.938 77.0185C238.949 76.6895 246.891 73.8471 254.546 69.7201C260.062 66.7847 266.326 63.2168 272.491 59.1306C275.124 57.868 279.274 53.4061 285.53 46.8652C286.639 45.7538 287.697 44.3924 291.449 42.2182C292.478 41.6517 293.68 41.0888 295.09 40.6056C296.771 40.0285 298.765 39.5694 300.97 39.4238C305.686 38.9926 311.556 40.6948 315.096 43.1986C321.987 48.288 322.458 51.5119 323.514 53.4393C324.287 55.3179 324.557 56.4712 324.772 57.3822C325.465 60.7538 325.346 61.6176 325.415 62.7166C325.439 63.7025 325.422 64.401 325.407 64.9471C325.399 65.214 325.39 65.4418 325.384 65.5473C325.38 65.597 325.378 65.6179 325.375 65.5282C325.374 65.4749 325.372 65.4132 325.367 65.2405C325.361 65.0827 325.357 64.8224 325.313 64.2359C325.17 61.4711 323.477 57.629 321.747 55.7958C320.033 53.8724 318.932 53.4057 318.637 53.2085C318.052 52.9307 319.653 53.4304 321.724 53.5742C323.647 53.7411 323.083 50.306 323.489 50.1038C326.107 48.9277 328.035 49.1461 331.094 50.5929C332.086 51.9341 331.637 54.5993 334.216 55.7556C350.684 63.1035 371.732 65.7754 390.495 66.3595C390.826 66.3642 391.156 66.3658 391.487 66.3641C397.888 66.1701 391.733 59.4225 397.965 63.1952C398.429 63.44 396.754 66.9314 398.587 67.2921C402.739 68.1653 411.152 66.727 414.791 66.4518C421.811 65.998 423.007 65.7163 429.949 64.5292C430.045 64.5128 430.141 64.4966 430.238 64.4804C438.653 63.1967 444.191 62.2634 445.884 58.2127C446.197 57.4482 443.54 56.6426 442.89 55.5562C442.815 55.3297 442.794 55.0873 442.826 54.8582C442.856 54.6494 442.891 54.4519 442.92 54.2866C442.954 54.1129 442.957 54.0107 442.914 54.0588C442.902 54.2991 442.186 54.5828 442.314 59.2095C442.439 61.502 443.389 65.2763 445.692 68.4054C447.991 71.5996 450.778 73.2993 452.521 74.0687C456.051 75.485 456.584 74.9726 456.977 74.8831C457.52 74.4963 457.126 73.5612 457.14 72.6805C457.087 71.7943 457.128 70.9306 457.029 70.6115C454.854 64.9937 445.997 74.8553 445.062 75.4165C443.168 76.2311 441.231 77.0338 439.095 77.8344C437.99 78.2438 436.891 78.6397 435.541 79.0634C434.829 79.2827 434.114 79.4981 433.071 79.7516C432.625 79.861 431.896 80.0246 431.03 80.1679C430.295 80.2607 428.843 80.6147 425.65 80.4325C403.645 79.4251 385.939 73.4608 366.434 71.3473C348.624 69.3599 329.813 69.4579 314.475 70.421C304.334 71.0321 295.529 72.0749 288.198 74.5839C288.047 74.609 287.965 74.6516 288.576 74.2787C288.741 74.1747 288.916 74.0658 289.264 73.8245C289.614 73.5751 289.93 73.3599 290.655 72.7319C290.991 72.436 291.369 72.0803 291.788 71.634C292.312 71.0745 292.929 70.3455 293.565 69.3876C294.747 67.5906 297.242 63.1955 296.27 56.8176C295.797 53.8507 294.611 51.3623 293.353 49.5526C292.159 47.8496 291.13 46.8854 290.173 46.0781C288.476 44.6938 287.338 44.1761 286.658 43.8482C285.164 43.1821 284.718 43.1331 284.345 43.0329C283.7 42.8986 283.804 42.9706 283.97 43.0098C284.37 43.1109 285.277 43.2308 286.278 43.3224C286.787 43.3697 287.33 43.4127 287.949 43.4575C288.271 43.4805 288.602 43.5034 288.993 43.5314C289.215 43.547 289.389 43.56 289.693 43.5835C289.964 43.6058 290.31 43.6311 290.892 43.6966C294.179 44.1292 297.573 44.415 301.101 44.5371C303.067 44.6038 300.984 40.3025 303.354 40.3645C321.606 40.8153 341.254 39.3841 362.34 40.3769C369.808 40.7683 377.306 41.2431 384.841 41.8526C387.591 42.0776 384.138 45.8438 386.894 46.2879C403.763 48.9397 430.799 55.2374 440.337 38.8712C451.851 39.1093 465.908 39.3313 476.336 42.349C483.054 44.2948 476.65 48.4316 484.807 46.5714C486.649 46.1597 484.186 42.6821 486.959 42.3321C498.647 40.8632 511.473 41.9654 523.163 40.3376C525.543 39.9985 524.951 36.8388 525.637 36.2833C528.035 34.4151 531.064 34.6797 533.912 35.6819C534.318 35.7041 534.435 35.7225 534.58 35.74C534.737 35.7588 534.758 35.7707 534.826 35.7852C534.94 35.813 535.071 35.8429 535.16 35.8704C535.315 35.924 535.522 35.9833 535.657 36.039C535.959 36.1527 536.244 36.2711 536.533 36.3945C537.081 36.6389 537.616 36.9008 538.126 37.1705C539.141 37.7095 540.093 38.2833 540.934 38.823C542.634 39.9037 543.958 40.8583 544.648 41.1228C546.679 41.8941 548.666 42.6077 551.226 43.599C552.585 44.1514 553.889 44.5759 556.6 46.0129C558.102 47.0978 559.899 47.0272 564.083 52.8582C566.33 55.8917 567.644 63.0834 565.814 67.5136C564.113 72.0729 562.318 73.4984 560.914 74.871C549.278 83.2173 540.828 85.2242 535.923 88.5046C534.97 89.1122 533.004 90.3668 531.464 91.3422C528.94 92.9538 534.143 94.6063 531.934 96.2151C531.51 96.5271 531.099 96.8364 530.852 97.0385C530.737 97.1318 530.641 97.2201 530.791 97.1163C530.833 97.0867 530.886 97.0483 530.996 96.9611C531.109 96.8702 531.22 96.7836 531.511 96.5259C531.65 96.402 531.811 96.2546 532.024 96.0487C532.304 95.774 532.658 95.4202 533.158 94.8413C533.286 94.6919 533.407 94.5476 533.572 94.342C533.8 94.0572 534.056 93.7236 534.346 93.3088C534.921 92.467 535.666 91.3639 536.503 89.323C536.837 88.4867 538.152 85.1674 537.937 80.8656C538.006 76.6053 535.001 69.9251 531.616 67.0988C525.068 61.3943 520.374 61.817 518.104 61.5972C527.43 61.463 537.772 60.6256 548.777 60.3575C553.247 60.2534 557.754 60.2579 562.253 60.4292C566.013 60.5886 562.841 64.4287 564.643 64.6916C572.548 65.8536 573.987 58.9469 581.858 60.2418C583.512 60.5185 582.622 63.6186 582.926 63.9532C585.379 66.7006 587.591 65.9832 589.405 64.6584C590.673 64.065 591.746 63.3713 593.204 62.9496C594.755 62.6645 596.165 61.9538 600.603 64.2381C601.665 64.8772 602.883 65.564 604.749 67.5796C606.444 69.3519 609.014 73.5781 609.014 78.4545C609.057 83.1325 607.308 86.2838 606.259 87.9103C605.971 88.352 605.641 88.7998 605.403 89.1011C605.174 89.3943 604.948 89.6626 604.729 89.91C604.292 90.4029 603.868 90.8241 603.495 91.1687C600.855 93.4674 600.114 93.6256 599.231 94.1623C597.686 94.9766 596.912 95.2769 596.123 95.6002C581.966 101.383 571.152 95.9473 558.12 98.4313C556.43 98.7425 560.678 102.247 555.881 102.877C549.769 103.666 543.732 104.229 537.881 104.774C511.915 107.17 486.038 106.656 461.919 106.642C457.275 106.65 460.238 103.387 459.914 103.057C458.607 101.807 457.475 101.338 456.5 101.349C453.436 101.385 451.9 105.97 450.785 106.321C439.278 109.71 427.14 105.373 422.017 116.048C413.356 117.655 405.288 120.382 398.238 124.387C396.933 124.934 393.836 128.13 393.795 128.523C393.765 128.522 394.025 128.261 394.233 126.773C394.493 125.431 394.08 121.866 392.211 119.507C390.394 117.147 388.888 116.672 388.453 116.469C387.97 116.295 388.134 116.389 388.543 116.434C395.078 117.324 403.376 116.523 413.163 116.256C436.178 115.77 459.175 116.006 482.218 118.868C482.873 118.94 481.827 122.704 483.133 122.833C484.547 122.975 485.808 123.058 486.94 123.087C498.294 123.327 496.446 117.991 505.368 111.047C507.819 109.128 516.23 117.177 516.981 117.756C519.679 119.9 517.384 125.604 518.267 125.996C525.58 129.055 523.224 110.811 532.862 110.214C533.165 110.226 532.103 113.673 532.932 113.959C535.503 114.86 537.92 113.375 540.45 114.4C546.262 116.788 548.627 125.565 557.013 120.074C558.093 119.377 556.027 108.98 564.876 109.28C568.371 109.347 584.094 109.271 588.52 110.24C592.916 111.123 589.703 114.327 590.017 114.487C601.493 119.608 596.917 121.203 602.002 128.229C606.887 135.309 607.07 119.665 609.694 118.224C610.298 117.896 611.2 117.897 612.249 118.121C615.992 118.84 621.265 122.501 622.587 123.957C624.342 125.805 621.137 127.067 622.733 128.305C632.406 136.923 630.879 123.137 636.315 122.92C650.467 123.954 649.777 140.601 652.518 148.58C652.917 149.625 653.4 149.641 653.936 149.481C654.672 149.395 655.627 149.311 656.211 150.458C657.416 152.847 658.001 154.909 658.505 156.933C658.754 157.94 658.972 158.925 659.197 159.82C659.248 160.031 659.304 160.247 659.345 160.413C659.365 160.496 659.38 160.562 659.378 160.59C659.375 160.598 659.373 160.607 659.341 160.56C659.326 160.538 659.304 160.504 659.271 160.451C659.232 160.391 659.216 160.36 659.076 160.15C659.01 160.053 658.926 159.933 658.797 159.77C658.733 159.688 658.656 159.596 658.561 159.489C658.513 159.435 658.46 159.377 658.401 159.315C658.372 159.285 658.341 159.253 658.308 159.219C658.274 159.185 658.154 159.067 658.056 158.98C657.625 158.619 657.022 158.03 655.497 157.556C654.088 156.99 650.991 157.436 649.633 158.707C647.435 160.63 647.466 161.985 647.269 162.63C647.206 162.979 647.187 163.225 647.177 163.421C647.171 163.531 647.171 163.59 647.17 163.661C647.17 163.797 647.174 163.902 647.179 163.989C647.189 164.162 647.203 164.264 647.213 164.334C647.245 164.506 647.254 164.47 647.256 164.428C647.254 164.312 647.231 164.126 647.188 163.883C646.673 161.052 645.813 158.105 643.902 154.562C643.085 153.196 635.003 145.962 639.705 140.262C640.384 139.482 643.405 141.273 643.781 137.619C644.316 132.15 644.817 122.554 644.136 116.77C643.62 112.481 638.622 117.157 640.398 111.801C641.212 109.446 643.688 114.037 644.997 109.653C646.252 105.3 647.448 94.1356 648.072 89.9015C648.644 85.6736 644.726 87.3948 644.538 87.0181C643.473 84.7121 643.293 76.1835 643.466 75.463C643.745 73.9739 644.043 72.4963 644.358 71.0271C644.542 70.1901 644.642 69.6689 644.979 68.3803C645.004 68.2879 645.031 68.1914 645.062 68.0849C645.107 67.9301 645.172 67.7069 645.276 67.4026C645.33 67.2462 645.395 67.0628 645.496 66.8116C645.608 66.5559 645.776 66.0459 646.411 65.0058C646.768 64.4651 647.196 63.7325 648.464 62.5719C649.641 61.5532 652.474 59.3246 657.241 59.8199C662.024 60.4188 664.607 63.6575 665.471 65.1449C666.435 66.8005 666.611 67.7178 666.79 68.3978C667.075 69.7099 667.052 70.1815 667.078 70.6028C667.089 70.99 667.084 71.1258 667.08 71.3115C667.071 71.6362 667.051 71.8933 667.042 72.0133C667.032 72.1335 667.023 72.2396 667.013 72.3397C666.992 72.5488 666.975 72.6945 666.959 72.8222C666.89 73.379 666.834 73.7478 666.774 74.1485C666.534 75.7036 666.284 77.1036 666.023 78.5224C665.489 81.4049 664.979 83.9011 664.31 87.0442C662.056 96.0345 659.4 102.698 657.516 109.88C655.566 116.586 654.656 124.801 655.816 127.051C656.897 132.448 668.654 130.504 677.785 124.197C679.918 122.811 676.548 120.355 676.854 120.11C683.283 114.348 682.793 126.542 690.076 125.853C687.836 123.245 687.371 121.601 687.942 120.215C688.665 118.466 691.065 117.096 693.681 114.595C695.93 112.422 692.784 111.031 692.832 110.617C693.703 104.314 699.714 106.981 701.136 107.38C706.297 108.894 705.546 102.732 709.025 103.63C712.531 104.469 711.639 110.974 716.425 106.752C715.926 103.517 707.711 101.135 710.46 97.1588C717.195 87.4315 730.956 75.7289 742.479 65.3697C747.733 60.7248 753.147 54.1803 759.303 50.2767C759.442 50.1886 759.581 50.1019 759.721 50.0166C760.402 49.5936 761.126 49.1918 762.384 48.8668C763.731 48.5255 765.493 48.4804 767.212 49.0899C768.948 49.7166 769.954 50.6068 770.701 51.414C771.362 52.1544 771.711 52.745 771.998 53.2852C772.922 55.1948 772.919 55.9091 773.083 56.7109C773.297 58.1453 773.301 59.073 773.314 59.9756C773.319 61.7278 773.228 63.1382 773.135 64.4546C773.039 65.7677 772.929 66.9422 772.815 68.0563C772.759 68.5979 772.7 69.1498 772.641 69.6606C772.612 69.9161 772.582 70.174 772.553 70.419C772.537 70.5501 772.525 70.6554 772.51 70.7811C772.503 70.8368 772.497 70.8851 772.49 70.9387C772.488 70.9616 772.486 70.9781 772.485 70.9835C772.484 70.9727 772.483 71.0457 772.503 70.6966C772.148 75.6901 771.743 78.9478 771.07 83.4117C770.007 90.659 771.335 92.7142 772.889 93.8646C773.688 94.4355 774.605 94.8031 775.548 95.2981C776.472 95.7426 777.542 96.5406 778.248 96.5586C778.724 96.5156 778.306 95.917 777.588 95.8121C776.864 95.6767 776.022 96.0414 775.412 96.7703C774.184 100.004 770.838 105.283 770.658 107.232C770.983 110.48 773.534 108.187 775.069 109.873C776.983 111.554 772.183 113.252 777.327 114.028C783.2 114.872 792.486 106.013 792.327 102.748C792.535 95.7976 785.613 91.8284 795.414 89.7554C795.998 89.6238 795.809 93.568 797.976 92.8993C800.879 91.9841 803.788 90.8992 807.069 89.8015C821.921 85.0694 836.428 79.7336 850.626 74.568C852.978 73.7116 852.793 78.1551 854.198 77.6825C859.223 75.9727 861.575 74.334 862.619 72.6492C862.892 72.3582 863.089 72.044 863.195 71.7098C863.375 71.314 863.402 70.7316 863.186 70.4114C862.99 70.0893 862.667 69.9429 862.453 69.9514C862.229 69.9515 862.014 70.0019 861.802 70.0734C861.013 70.4151 860.307 71.0635 859.627 71.8196C858.185 73.3181 856.69 75.2265 853.904 77.0415C857.831 68.1525 854.429 60.9623 842.408 59.6828C835.272 58.9985 836.167 63.3176 831.558 66.0263C830.202 66.8361 825.381 63.8589 824.465 65.8579C821.952 72.4329 825.303 79.1478 816.264 77.1691C815.9 77.0943 816.428 73.4182 815.158 73.4285C814.855 73.4362 814.604 73.453 814.403 73.4736C814.179 73.5004 814.013 73.5319 813.923 73.5522C813.73 73.5692 813.83 73.7106 814.746 73.0014C817.285 70.5358 817.185 68.3988 817.265 67.5251C817.277 66.9744 817.236 66.6285 817.203 66.3697C817.124 65.8345 817.099 65.7718 817.086 65.6649C817.059 65.4903 817.105 65.5481 817.166 65.6055C817.293 65.7421 817.508 66.0168 817.719 66.2354C818.178 66.7473 818.704 67.2283 819.265 67.6826C820.393 68.5978 821.642 69.3711 822.952 70.2038C825.566 71.8424 828.414 73.7897 831.452 77.634C832.557 79.0225 833.681 80.7139 834.756 82.3847C835.278 83.2013 835.824 84.0459 836.168 84.6247C836.322 84.9005 836.471 85.1366 836.275 85.0751C836.174 85.0486 835.96 84.9103 835.39 84.6089C834.641 84.3428 833.902 83.3806 829.638 83.1483C836.874 84.4065 845.513 85.165 852.001 84.5944C853.292 95.3586 863.498 91.1761 866.235 83.0308C873.363 81.9861 881.065 79.9756 888.352 79.7466C890.858 79.6675 889.779 83.0266 890.146 83.3056C895.673 87.7287 897.715 80.1362 899.33 79.6311C912.824 75.6607 925.273 78.1229 938.276 79.262C943.88 79.8539 948.878 83.2418 952.566 86.1709C953.031 86.469 960.446 83.6799 958.368 90.8146C958.16 91.2069 952.382 88.237 956.236 95.1431C957.458 97.3785 958.741 100.488 959.725 101.824C960.216 102.462 960.23 102.779 961.103 102.92C961.961 103.035 963.447 102.601 964.879 101.727C967.511 100.147 969.788 97.7507 971.168 94.9823C972.395 92.7106 971.749 84.4485 978.595 83.5771C979.524 83.466 980.706 85.4119 982.259 85.4096C987.253 85.3398 982.483 79.1623 989.906 80.2572C992.401 80.6332 995.045 80.5391 997.566 79.9217C1002.64 78.5878 1007.48 74.4974 1009.44 66.8957C1009.55 66.5265 1006.23 60.9244 1008.22 58.2544C1011.44 53.9792 1016.66 48.2603 1019.53 43.4086C1020.9 41.0902 1016.81 40.6514 1016.99 40.2166C1017.77 38.4878 1018.55 36.8327 1019.34 35.2342C1020.38 33.1654 1021.69 31.171 1022.21 30.0678C1022.27 29.9543 1022.3 29.8713 1022.29 29.8974C1022.29 29.9319 1022.22 30.0542 1022.23 30.5915C1022.2 31.0802 1022.57 32.3011 1023.29 32.9322C1023.99 33.5665 1024.44 33.6289 1024.6 33.6761C1024.94 33.7272 1024.66 33.6508 1024.39 33.655C1024.09 33.65 1023.72 33.6667 1023.3 33.7026C1015.94 33.8822 1009.22 42.8085 1004.34 54.0156C1002.85 57.2302 1004.62 68.6437 998.286 73.8415C994.823 76.6156 989.588 74.2836 984.994 73.3679C980.392 72.2839 976.438 73.2645 975.735 77.7436C975.47 79.0993 978.152 82.7971 977.909 87.4203C978.044 94.271 968.44 99.977 963.441 91.0517C939.852 87.8614 922.89 65.668 895.031 69.5629C893.669 69.8086 891.254 76.6808 889.483 77.2738C886.539 78.1521 883.372 76.5793 881.057 78.1268C874.528 82.6422 871.877 90.43 870.011 97.4643C869.481 98.73 868.969 98.8939 868.556 99.27C868.132 99.5902 867.74 99.8361 867.353 100.069C866.581 100.531 865.839 100.92 865.115 101.304C863.721 102.036 862.141 102.875 861.568 103.461C861.502 103.526 861.473 103.551 861.457 103.522C861.461 103.441 861.588 103.2 861.441 102.65C861.364 102.385 861.186 102.127 861.028 101.99C860.864 101.844 860.736 101.792 860.653 101.767C860.338 101.705 860.462 101.856 860.537 101.937C860.732 102.127 861.02 102.331 861.272 102.549C861.782 102.989 862.308 103.467 862.904 103.895C863.599 104.361 864.579 104.696 866.232 104.668C870.268 104.589 873.055 101.791 877.529 101.461C878.646 101.374 879.872 101.441 881.251 101.741C886.48 102.889 892.208 110.933 899.088 111.415C898.741 103.1 903.425 102.933 911.559 100.121C913.122 99.5761 911.195 96.8175 911.923 96.411C914.878 94.6923 917.899 96.869 920.688 95.0255C921.367 94.5821 921.182 91.7471 921.724 91.2246C926.319 86.6764 934.92 92.4022 936.406 93.397C942.086 97.1774 944.281 93.288 948.513 94.6034C952.742 95.9166 946.799 98.5052 951.665 99.1073C961.756 100.351 974.462 98.7467 984.539 97.8949C988.558 97.5376 985.449 94.0309 986.015 93.8922C994.203 92.1268 1003.02 95.2568 1006.8 87.249C1014.65 106.033 1011.58 84.8423 1023.81 87.359C1024.78 87.5637 1027.06 96.5963 1023.62 98.3639C1020.18 100.13 1014.41 97.88 1009.65 100.523C1008.53 101.147 1002.66 110.475 1001.78 111.091C994.92 115.922 992.505 102.284 992.05 101.57C986.905 93.8683 979.557 103.94 977.425 104.784C967.72 108.658 959.065 107.468 950.897 110.272C945.553 112.087 945.759 121.139 941.436 121.215C927.062 121.457 921.146 109.257 908.536 121.166C905.83 123.704 909.415 133.351 898.525 126.358C897.839 125.918 889.672 119.384 885.575 124.185C885.061 124.79 885.284 127.661 884.569 127.955C882.733 128.687 881.097 128.837 879.481 128.827C876.639 128.821 874.155 128.365 870.749 129.247C868.61 129.773 866.832 130.384 863.497 130.877C864.544 130.876 864.73 130.869 864.84 130.89C864.923 130.91 864.819 130.946 864.621 130.992C864.204 131.082 863.463 131.215 862.118 131.32C860.558 131.315 859.382 131.863 853.219 130.57C850.388 129.446 843.116 129.238 835.218 116.945C831.745 110.997 831.192 103.87 831.714 99.9041C832.211 95.6718 833.181 93.2903 833.993 91.3598C838.685 81.8165 842.239 80.4164 844.359 78.4852C846.584 76.8401 848.017 76.0507 849.226 75.3906C851.552 74.159 853.051 73.5949 853.369 73.6478C853.436 73.7029 853.401 73.852 852.573 74.6092C852.149 75.0104 851.5 75.5375 850.189 76.8183C848.998 78.3353 846.348 79.5271 843.072 88.0691C846.201 84.5948 850.722 82.4749 852.49 81.0938C858.456 77.0639 858.62 66.3119 865.831 65.8478C869.304 65.7379 870.291 68.8018 872.036 70.8508C873.79 72.9895 875.866 74.0459 880.635 72.6038C876.853 66.1386 873.77 59.0096 870.993 51.9435C888.506 42.4138 905.71 45.9531 916.497 49.3864C927.784 53.0749 936.475 57.708 944.932 61.3129C947.008 62.2017 946.579 57.5896 948.827 58.4405C958.022 61.939 964.642 67.9993 970.282 68.107C971.605 68.1046 972.608 67.4622 972.38 66.6327C972.213 65.8166 970.444 64.9059 967.845 65.1698C965.363 65.3969 963.387 66.2669 962.649 66.5832C968.099 74.0333 970.43 64.4879 973.546 56.6124C974.766 53.8519 976.874 54.7384 978.303 52.8225C983.76 45.2823 975.305 46.7105 975.024 43.8843C974.588 37.5391 978.891 34.9905 983.887 32.8371C989.189 30.5635 993.886 28.7515 1001.15 20.8648C1001.58 20.47 1002.69 15.9798 1006.21 11.2723C1009.58 6.51121 1015.32 2.56448 1016.74 2.07249C1017.35 1.82935 1017.93 1.6183 1018.48 1.43427C1021.48 0.224638 1025.36 -0.0931051 1028.54 0.502339C1030.15 0.791799 1031.16 1.20281 1031.74 1.58065C1032.28 1.95517 1032.2 2.25586 1031.98 2.54297C1031.53 3.12723 1030.53 3.66768 1032.34 4.79363C1033.27 5.47627 1034.84 5.79245 1039.5 8.87425C1041.67 10.4006 1045.25 13.3101 1047.87 18.2445C1050.56 23.1662 1051.13 28.9136 1050.74 32.5104C1050.21 37.396 1049.19 39.2326 1048.57 40.7555C1047.9 42.2087 1047.37 43.0974 1046.92 43.8017C1046.03 45.1949 1045.42 45.9245 1044.9 46.5387C1043.87 47.714 1043.22 48.2853 1042.76 48.6707C1039.79 52.3393 1037.24 56.0938 1035.31 62.2814C1034.49 65.065 1035.34 74.0937 1028.43 76.1311C1027.53 76.3943 1025.32 74.2995 1024.84 74.6718C1016.2 81.44 1023.46 87.3673 1021.92 94.3601C1021.54 96.0025 1020.61 97.4484 1019.36 98.6829C1016.53 101.265 1009.84 102.995 1007.84 103.154C1001.03 103.777 1008.53 99.0052 1008.24 98.5887C1005.61 92.7844 1002.59 98.1173 998.877 101.827C991.3 96.4532 987.034 102.183 994.957 105.697C995.866 106.05 997.913 102.338 998.877 101.827C1003.07 110.906 997.873 119.439 982.949 120.189C978.71 120.242 977.757 117.6 974.696 117.96C973.567 118.143 972.42 118.527 970.239 119.384C968.091 120.091 965.135 121.75 958.883 121.694C951.524 121.11 948.939 120.571 946.144 121.179C943.489 121.6 940.194 121.757 936.314 118.469C930.436 113.294 928.42 109.128 927.373 107.115C926.929 106.112 926.868 105.772 927.79 106.174C928.638 106.555 930.996 107.548 933.059 107.571C930.593 106.63 928.012 106.014 925.521 106.114C922.402 106.27 925.202 109.935 923.133 110.187C917.757 110.926 912.467 108.588 906.366 110.651C905.824 110.843 907.606 114.321 905.721 114.598C891.309 116.811 876.596 118.239 857.069 121.135C850.378 122.114 839.425 124.394 828.98 124.632C822.955 124.521 818.915 122.763 817.063 121.957C815.961 121.461 815.034 120.97 814.221 120.502C813.452 120.057 812.95 119.738 812.404 119.378C810.199 117.89 809.242 117.038 808.184 116.119C806.389 114.522 805.273 113.326 804.344 112.311C802.499 110.27 801.281 108.678 800.28 107.267C797.083 102.721 794.773 98.2743 792.56 93.5139C791.462 91.1344 790.42 88.71 789.363 86.1002C788.814 84.7536 788.295 83.4321 787.662 81.7784C787.329 80.9117 786.988 80.0164 786.534 78.7369C786.423 78.4227 786.263 77.9782 786.118 77.5437C785.964 77.08 785.834 76.6865 785.579 75.8456C785.464 75.456 785.342 75.0258 785.216 74.528C785.153 74.2789 785.088 74.0127 785.023 73.7239C784.958 73.4405 784.834 72.877 784.741 72.3565C784.549 71.2648 784.337 69.9152 784.303 67.8528C784.558 66.099 783.194 57.8755 792.658 48.5883C799.843 42.8584 802.722 43.0793 805.258 42.2415C807.737 41.6748 809.533 41.4902 811.117 41.3542C814.296 41.1029 816.791 41.126 819.086 41.1435C823.677 41.1999 827.517 41.3225 831.022 41.1438C840.835 40.7753 838.918 37.0881 843.398 34.9375C852.775 31.1818 863.848 40.3435 874.082 47.2175C874.16 47.2526 871.632 45.9774 870.01 45.496C869.556 45.3464 869.059 45.1945 868.632 45.0803C868.242 44.9789 867.85 44.8868 867.463 44.8055C866.697 44.6445 865.909 44.5155 865.357 44.4789C862.984 44.3052 861.584 44.677 864.41 46.3799C865.696 48.7696 867.444 48.6156 869.544 48.2045C871.337 47.6461 873.94 47.1359 874.082 47.2175C874.773 47.8816 875.622 47.7213 880.484 52.4866C881.633 53.6519 890.146 62.8274 887.022 76.3747C885.646 82.6236 881.6 87.3566 880.095 88.7601C878.074 90.7555 876.225 91.998 874.641 92.9196C869.799 95.165 860.326 99.6636 858.339 101.207C856.949 102.319 859.351 105.01 858.589 105.532C846.443 113.755 834.091 119.912 822.521 125.007C819.149 126.49 811.527 130.353 803.167 133.115C802.696 133.227 801.919 129.355 800.851 129.65C789.688 131.588 780.476 140.793 756.361 133.189C743.949 127.534 738.334 118.034 735.288 112.076C725.973 90.0702 730.053 82.9864 736.484 76.4039C736.359 73.8356 736.727 70.74 737.171 68.9749C737.2 68.4366 737.22 68.2342 737.235 68.055C737.25 67.8859 737.261 67.7823 737.27 67.6967C737.291 67.5065 737.295 67.4995 737.303 67.4408C737.318 67.344 737.331 67.2723 737.344 67.2036C737.364 67.1105 737.385 67.0241 737.405 66.9383C737.442 66.8024 737.481 66.6485 737.518 66.5241C737.595 66.2514 737.67 66.0044 737.749 65.7478C737.905 65.2419 738.067 64.7485 738.232 64.27C738.561 63.318 738.899 62.4275 739.221 61.7627C739.551 61.1388 739.822 60.5561 740.184 61.2191C740.433 61.6873 740.412 62.0643 741.543 65.2256C742.564 66.9589 742.073 69.6007 749.688 76.192C753.196 79.2864 761.746 81.9225 766.988 80.973C773.031 80.1158 775.112 78.5497 777.305 77.226C777.422 77.0001 777.456 76.8231 777.444 76.6857C777.365 76.1774 777.119 76.5537 777.215 77.1106C777.287 77.6823 777.606 78.4808 778.041 79.2504C778.902 80.8001 780.202 82.2452 780.156 82.4081C779.21 85.4602 777.432 88.9791 773.284 93.8288C766.681 101.651 758.941 106.403 749.234 115.163C742.87 120.979 730.569 133.461 723.207 140.133C717.949 145.003 713.385 146.543 708.497 150.621C708.094 150.963 707.603 151.384 707.157 151.797C706.395 152.485 709.118 154.721 708.93 155.002C703.745 163.178 702.811 153.928 700.54 153.633C691.735 152.477 688.276 152.073 676.069 158.875C674.543 159.617 672.299 163.575 667.753 167.319C663.39 171.076 655.752 174.271 648.809 172.917C639.851 171.049 637.202 168.098 634.992 165.912C632.883 163.504 630.134 161.272 623.843 154.749C623.05 153.81 621.529 154.948 618.045 150.75C616.932 149.277 615.697 147.25 614.685 144.926C605.891 119.058 611.873 110.952 613.231 100.672C615.394 91.5545 618.484 81.9663 619.05 78.5378C618.974 78.9455 618.991 78.8604 618.988 78.8707C618.989 78.8632 618.992 78.8398 618.997 78.807C619.01 78.7241 619.017 78.6785 619.03 78.5923C619.058 78.4138 619.078 78.2793 619.106 78.0905C619.41 76.1229 614.886 77.9637 615.26 75.0713C615.523 73.0234 615.807 70.9107 616.065 68.9724C616.128 68.4996 616.191 68.0196 616.242 67.6218C616.292 67.2323 616.345 66.784 616.322 66.919C616.318 66.947 616.311 66.9938 616.302 67.0688C616.293 67.1416 616.281 67.2455 616.258 67.4735C616.247 67.5838 616.235 67.7166 616.22 67.8838C616.205 68.0748 616.195 68.1648 616.163 68.6655C616.136 69.1187 616.101 69.6978 616.092 70.723C616.09 70.9817 616.091 71.2716 616.096 71.6066C616.097 71.6904 616.099 71.7771 616.101 71.8669C616.102 71.9118 616.103 71.9575 616.104 72.004C616.104 72.0164 616.11 72.2185 616.114 72.3351C616.133 72.8716 616.163 73.5072 616.233 74.3287C616.436 76.0438 616.444 78.1196 618.078 83.3636C619.018 86.0275 620.227 89.7063 624.334 95.1866C628.185 100.397 637.283 108.595 650.396 110.351C663.52 112.179 673.752 107.074 678.658 103.589C683.845 99.8865 686.009 97.0262 687.65 94.944C690.697 90.7934 691.387 88.9342 692.115 87.4569C692.278 87.0982 692.418 86.7787 692.541 86.4885C692.602 86.3434 692.659 86.2056 692.713 86.0743C692.74 86.0086 692.766 85.9445 692.792 85.8819C692.807 85.8439 692.811 85.8343 692.82 85.8108C692.887 85.6438 692.949 85.4876 693.006 85.3403C693.12 85.0458 693.216 84.7869 693.301 84.5536C693.635 83.6272 693.805 83.0726 693.938 82.6384C694.002 82.4297 694.061 82.2254 694.095 82.1095C694.121 82.0191 694.144 81.9371 694.165 81.8621C694.207 81.7122 694.24 81.5896 694.267 81.4862C694.381 81.0562 694.391 81.0077 694.408 80.9405C694.431 80.848 694.407 80.9543 694.374 81.1071C694.345 81.2434 694.307 81.4187 694.259 81.6455C692.321 90.7238 690.375 99.6188 688.204 107.617C687.434 110.435 684.711 108.368 683.789 108.914C678.188 112.426 685.512 118.432 685.645 119.229C687.542 132.551 686.652 143.103 688.303 154.377C688.434 155.034 688.551 155.586 688.782 156.926C688.827 157.198 688.933 157.828 689.02 158.471C689.066 158.809 689.113 159.179 689.162 159.637C689.24 160.37 689.327 161.262 689.37 162.617C689.389 163.3 689.398 164.103 689.358 165.133C689.353 165.297 689.285 167.058 689.025 168.827C688.739 170.702 688.337 173.117 686.952 176.747C685.515 180.286 683.1 185.601 676.66 191.138C674.03 193.633 666.138 198.195 659.565 199.031C652.717 200.186 646.59 199.108 642.348 197.671C633.804 194.58 630.878 191.268 628.633 189.253C628.298 188.922 628.287 188.908 628.168 188.787C628.068 188.685 627.971 188.584 627.876 188.485C627.688 188.288 627.51 188.097 627.341 187.913C627.005 187.545 626.706 187.204 626.435 186.884C624.343 184.375 623.564 182.989 622.996 182.073C622.614 181.433 622.34 180.932 622.11 180.502C621.888 180.084 621.686 179.683 621.565 179.436C621.451 179.202 621.351 178.992 621.26 178.798C621.085 178.423 620.914 178.039 620.826 177.834C620.623 177.363 620.447 176.933 620.334 176.645C620.077 175.995 619.91 175.54 619.751 175.102C619.145 173.415 618.747 172.205 618.32 170.956C617.903 169.732 617.504 168.572 617.111 167.48C616.918 166.945 616.723 166.416 616.558 165.987C616.48 165.784 616.402 165.587 616.368 165.511C616.353 165.479 616.349 165.477 616.394 165.595C616.419 165.662 616.467 165.784 616.554 165.992C616.633 166.174 616.811 166.628 617.346 167.716C616.722 166.649 615.996 166.119 615.272 166.118C615.128 166.096 613.417 167.345 612.662 168.275C611.861 169.168 611.803 169.441 612.752 166.028C612.817 165.804 613.356 163.949 613.212 162.573C613.1 161.208 612.243 160.336 610.69 162.465C610.516 162.743 610.81 166.588 608.771 165.723C608.054 165.443 607.026 165.432 605.761 165.416C601.935 165.215 597.454 164.98 593.471 161.952C591.664 160.539 587.186 153.085 580.843 158.621C580.347 158.977 570.988 171.732 567.476 162.947C566.899 161.506 567.355 152.061 559.81 157.083C558.378 158.063 561.09 160.067 557.295 161.503C551.5 163.718 543.436 161.613 536.146 166.248C534.878 167.064 529.681 173.773 524.78 169.241C524.013 168.531 525.181 165.316 522.731 165.12C511.78 164.233 500.183 166.725 488.324 165.528C487.614 165.45 486.905 165.358 486.197 165.251C482.024 164.624 483.979 159.491 479.612 158.275C475.242 157.059 466.488 156.038 462.039 158.5C457.588 160.963 462.795 168.873 456.036 169.74C442.341 171.495 428.653 171.611 414.957 171.261C408.045 170.836 396.843 171.701 381.656 169.268C377.176 168.429 371.787 167.821 362.731 162.697C353.929 158.914 340.5 140.446 341.603 126.613C341.798 113.237 345.661 107.339 348.155 102.588C350.886 97.9568 353.429 94.893 355.955 92.11C362.864 85.3688 354.257 88.7163 366.092 79.3543C367.278 78.5211 368.57 77.6649 370.071 76.767C394.1 61.376 430.388 54.5681 451.165 54.6734C457.653 54.5512 463.446 54.9339 468.208 55.8552C485.824 59.4038 464.521 64.8054 477.712 65.8099C484.018 66.3075 490.108 56.5328 491.586 56.146C505.938 52.2685 515.955 55.9216 528.19 53.714C530.701 53.2537 527.928 49.6535 530.055 49.302C531.079 49.1267 532.11 48.9957 533.145 48.8966C540.243 48.2303 546.949 48.964 552.53 48.1278C555.42 47.6791 554.574 44.8479 557.13 44.772C563.189 44.5334 567.966 44.9441 573.277 46.3758C573.794 46.4947 571.726 50.7839 575.427 49.9352C576.825 49.5957 578.284 49.3402 579.748 49.0604C579.608 49.135 579.41 49.2307 579.012 49.4174C578.599 49.6168 578.031 49.8632 576.782 50.5418C576.09 50.9266 575.268 51.3781 573.83 52.3748C572.32 53.6151 570.267 54.3684 565.735 60.5867C563.632 63.763 559.898 70.0664 560.209 79.9732C560.499 90.16 566.279 98.1981 569.36 101.146C576.303 107.641 578.87 107.621 580.738 108.562C584.337 109.824 585.206 109.785 586.13 109.958C586.953 110.069 587.367 110.084 587.681 110.091C588.296 110.098 588.369 110.049 588.686 110.014C583.957 109.456 578.737 109.425 573.712 111.253C571.025 112.242 571.433 118.846 565.168 114.706C563.83 113.853 564.864 105.746 558.266 113.218C557.869 113.661 556.186 115.253 553.848 116.886C549.694 119.832 542.913 122.943 538.17 119.405C536.235 117.965 531.229 111.76 527.132 112.92C526.56 113.101 528.999 116.598 525.478 117.052C522.822 117.37 520.064 117.572 517.215 117.664C513.783 117.478 508.468 117.559 499.972 112.95C495.734 110.391 491.443 107.466 486.843 100.001C482.706 93.086 481.585 85.2808 481.932 79.8899C482.18 74.5757 483.803 70.0717 484.366 68.6741C484.951 67.1854 485.53 65.9844 486.07 64.9629C487.155 62.929 488.08 61.585 488.859 60.5129C489.238 59.9941 489.644 59.4761 489.9 59.159C490.112 58.8966 490.312 58.6559 490.502 58.4322C490.882 57.9851 491.221 57.6055 491.531 57.2697C492.129 56.6207 492.725 56.0303 493.023 55.7415C493.674 55.1104 494.189 54.6496 494.611 54.2803C494.961 53.9739 495.263 53.7182 495.537 53.4901C496.544 52.6565 497.075 52.2529 497.581 51.8624C498.537 51.1309 499.189 50.6527 499.812 50.1971C501.042 49.3014 502.076 48.5751 503.104 47.8625C504.128 47.1543 505.118 46.482 506.128 45.8052C506.631 45.4688 507.142 45.1294 507.682 44.7747C507.951 44.5981 508.234 44.4137 508.542 44.2155C508.901 43.9881 509.088 43.8582 509.886 43.3831C516.769 39.3169 521.083 37.4758 523.479 35.7593C524.831 34.749 521.251 32.4172 522.839 31.2285C523.657 30.5666 523.316 30.3754 521.554 31.9021C518.611 34.8847 514.746 37.8902 510.686 48.3734C506.386 58.179 508.829 75.7289 514.039 83.0416C518.601 90.5075 522.549 93.2429 524.851 95.0585C527.54 97.0057 528.82 97.6433 530.21 98.3754C534.843 100.604 535.472 100.463 536.244 100.728C536.868 100.879 536.935 100.862 536.858 100.828C536.772 100.79 536.503 100.717 536.163 100.636C535.473 100.472 534.492 100.274 533.466 100.081C532.958 99.9843 532.423 99.8867 531.913 99.7936C531.664 99.7475 531.408 99.7014 531.195 99.6594C531.088 99.6383 530.99 99.6182 530.927 99.6008C530.899 99.5923 530.879 99.5845 530.909 99.5799C530.926 99.5777 530.96 99.5766 531.027 99.5772C531.044 99.5765 531.141 99.5806 531.281 99.586C531.438 99.5916 531.609 99.6004 532.152 99.6146C528.692 99.264 525.331 98.8842 522.205 98.5076C518.136 98.015 520.994 94.9981 520.704 94.6607C515.97 89.1822 513.045 96.4783 511.462 96.8963C501.557 99.4102 493.951 96.0527 484.709 97.1152C482.161 97.4015 484.034 100.853 483.531 101.173C478.328 104.307 482.13 97.9757 478.774 97.3533C469.365 95.594 458.843 96.1783 449.254 96.9341C445.731 97.2171 449.828 101.126 446.665 101.334C427.952 102.644 408.159 103 389.305 101.224C385.755 100.882 387.91 97.7191 387.156 97.0261C381.978 92.1781 374.651 99.0868 372.922 99.7552C368.599 101.454 365.707 101.366 362.813 101.048C360.776 100.79 358.702 100.4 355.891 100.695C336.938 102.609 311.824 104.693 284.602 101.206C285.466 101.293 285.682 101.296 285.806 101.302C285.927 101.306 285.907 101.3 285.856 101.293C285.749 101.279 285.489 101.258 285.181 101.235C284.572 101.19 283.796 101.136 282.94 101.069C281.185 100.926 279.27 100.783 276.241 100.349C274.654 100.1 272.951 99.8738 269.605 98.9957C267.82 98.4736 265.946 98.0635 261.623 96.0336C259.705 95.0603 256.692 93.6328 252.353 89.8952C248.312 86.3883 240.333 77.8116 238.823 63.8233C237.493 49.3438 243.289 40.4238 245.864 36.5828C247.341 34.4568 248.945 32.6408 250.07 31.4873C251.117 30.4107 252.093 29.5191 253 28.7489C256.453 25.8774 258.315 24.8975 259.778 24.035C262.801 22.357 264.293 21.7792 265.859 21.1275C278.324 16.2722 289.49 14.4046 299.218 13.3421C350.383 9.62623 381.336 20.9048 418.49 23.8902C420.775 24.0957 418.934 19.7325 420.891 19.8513C424.055 20.0605 427.216 20.2743 430.09 20.433C424.641 20.1139 422.842 20.644 422.057 20.6985C421.111 20.8382 420.604 20.9467 420.396 20.9866C419.901 21.0883 419.968 21.0746 420.123 21.0269C420.477 20.9231 421.278 20.6884 422.181 20.4192C423.977 19.8844 426.148 19.235 428.46 18.5846C433.162 17.2803 438.238 15.911 445.084 14.8095C448.603 14.2869 452.442 13.7361 458.402 13.828C464.257 14.8216 473.468 11.7685 491.338 27.1471C499.857 35.2391 503.938 48.1091 504.047 55.9263C504.354 63.8787 502.997 68.6978 501.935 72.409C499.542 79.873 497.497 83.166 495.411 86.8359C487.653 100.702 472.324 112.277 459.759 117.049C455.769 118.61 462.958 120.242 456.495 122.753C451.242 124.705 445.921 125.979 441.433 126.744C436.371 127.6 430.651 128.212 425.327 128.223C420.971 128.228 426.223 124.096 421.868 124.153C411.706 124.242 399.905 124.949 387.37 124.621C382.609 124.465 388.189 128.143 384.581 128.575C384.259 128.641 383.833 128.657 383.273 128.609C361.584 126.753 338.49 124.799 314.066 117.467C314.834 117.647 315.212 117.705 315.399 117.728C315.596 117.752 315.614 117.738 315.565 117.714C315.464 117.664 315.063 117.565 314.578 117.454C313.582 117.226 312.185 116.932 310.628 116.573C307.477 115.839 303.677 114.905 298.903 113.142C294.136 111.271 288.161 108.975 280.4 102.444C272.687 96.4764 263.78 81.6809 263.653 68.8697C263.575 67.7142 263.57 67.1059 263.565 66.7007C263.561 66.2508 263.566 66.0267 263.571 65.7908C263.581 65.3694 263.596 65.1404 263.61 64.9571C263.637 64.6118 263.664 64.4811 263.689 64.4156C263.741 64.3092 263.781 64.4679 263.856 65.1245C263.895 65.4636 263.941 65.9364 264.045 66.7572C264.167 67.6137 264.262 68.6743 264.86 71.2283C265.196 72.5538 265.608 74.2869 266.878 77.3157C268.623 80.3938 269.36 85.7909 281.155 94.4058C287.201 98.6361 297.252 101.47 305.197 100.698C308.926 100.436 312.308 99.6378 315.098 98.6678C317.463 97.8466 319.469 96.8972 321.174 95.9499C327.373 92.3229 329 90.138 330.7 88.4203C329.86 88.994 328.872 89.7502 327.709 90.7088C326 92.1035 318.768 88.2268 315.339 94.2009C316.616 96.1415 318.551 97.9688 320.123 99.8241C317.609 102.527 314.528 105.522 310.902 108.403C297.118 119.29 282.448 129.2 261.87 136.333C251.513 139.696 239.115 142.667 223.384 140.835C207.734 139.37 189.661 129.395 180.179 117.217C175.439 111.922 165.145 96.8221 163.985 81.5973C164.05 82.1116 164.138 82.7402 164.292 83.587C164.416 84.2094 164.712 85.9955 165.632 88.728C166.028 89.6924 166.784 92.801 170.373 98.058C171.299 99.3738 172.446 100.837 173.959 102.415C174.716 103.203 175.566 104.02 176.527 104.847C177.912 106.048 180.034 107.642 182.339 108.945C191.422 115.054 208.781 114.717 216.231 110.397C227.602 104.695 230.141 98.9572 231.664 97.0928C232.871 95.2397 233.542 93.9126 234.06 92.8419C235.678 89.3085 235.711 88.6733 235.994 87.8632C236.229 87.0736 236.296 86.7908 236.381 86.4534C236.515 85.9004 236.553 85.6895 236.579 85.5476C236.602 85.4219 236.604 85.3847 236.599 85.3885C236.571 85.4336 236.464 85.9466 236.361 86.4822C236.255 87.0354 236.139 87.6792 236.01 88.41C235.945 88.7818 235.876 89.1737 235.793 89.6501C235.75 89.8916 235.705 90.1527 235.643 90.4966C235.611 90.6798 235.58 90.8517 235.529 91.1277C235.483 91.3723 235.418 91.7288 235.302 92.2936C232.741 103.83 228.364 115.809 219.552 127.568C217.033 130.765 224.987 127.768 219.76 134.158C210.769 144.867 195.969 154.972 179.247 157.817C173.006 158.926 164.59 159.489 154.831 156.724C145.077 154.083 135.747 147.496 130.364 141.098C119.589 127.937 118.375 118.704 116.772 111.519C114.431 97.389 115.623 87.7257 116.832 79.8482C116.925 79.299 117.5 78.9739 118.28 78.6726C119.36 76.6505 120.966 75.7198 122.172 74.5663C122.776 74.0242 123.285 73.493 123.58 73.1444C123.729 72.9756 123.822 72.854 123.853 72.8897C123.888 72.936 123.847 73.1054 123.806 73.8202C123.816 74.1153 123.707 74.554 124.121 76.7503C124.377 77.8911 124.696 79.5295 126.119 82.488C127.507 85.2779 130.57 90.3812 137.227 94.3387C140.981 96.8079 144.538 97.5344 145.559 97.9669C146.731 98.3986 146.273 98.8165 145.976 99.3842C145.912 99.5145 146.148 100.447 146.221 101.375C146.239 102.311 146.492 103.193 145.287 103.372C143.97 103.539 141.908 103.908 137.672 104.103C117.718 104.961 100.324 101.718 86.3832 99.131C84.6607 98.7745 82.9048 98.4328 81.1186 98.1033C78.5829 97.6413 81.47 93.9753 79.6254 93.6181C69.4998 91.7122 57.7466 93.6357 45.8482 93.6085C41.513 93.6337 37.898 93.3091 34.7402 92.6986C26.2608 91.035 28.9498 84.2686 23.5495 78.537C22.7158 77.6955 17.9888 78.6499 16.6468 75.2227C12.9566 66.5011 13.4452 55.6381 9.30593 46.3945C8.45732 44.1254 -3.00072 51.0324 2.43371 43.3253C2.84669 42.6421 11.4388 38.3055 13.2155 36.2961C14.51 34.7936 10.946 31.6064 13.8803 29.4523C16.8556 27.323 20.6981 29.9911 25.0254 27.7467C29.1875 25.534 27.4869 21.2851 35.0862 20.3591ZM756.555 88.1757C750.036 89.7756 759.054 99.6014 761.02 92.9026C761.103 92.5673 756.886 88.0851 756.555 88.1757ZM923.078 63.3596C928.336 71.5867 936.286 65.7886 933.049 59.4485C929.505 53.0432 921.274 60.8251 923.078 63.3596ZM860.641 113.19C859.753 112.946 859.046 113.128 856.1 111.875C855.315 111.488 854.328 110.942 853.208 109.81C852.107 108.723 851.042 106.893 850.694 105.159C850.058 101.645 851.012 100.055 851.399 99.068C853.837 94.8517 855.204 94.6467 856.049 93.5516C856.911 92.655 857.384 91.8869 857.669 91.0712C858.226 89.4613 857.988 87.7396 857.322 86.2308C856.63 84.741 855.584 83.4264 853.824 83.1209C852.92 82.9917 851.854 83.0763 850.178 83.9143C849.324 84.3572 848.313 84.9664 846.881 86.2177C845.497 87.5664 843.36 89.1886 841 94.4626C840.302 96.6836 837.548 101.28 840.717 110.498C842.352 114.798 845.682 118.214 848.099 119.819C850.628 121.54 852.446 122.146 853.878 122.588C858.662 123.814 859.951 120.88 860.677 118.425C861.305 115.874 861.263 113.321 860.641 113.19ZM46.7509 74.886C46.7097 74.8045 45.6874 74.7873 44.612 74.8128C43.3466 74.8464 42.051 74.913 41.9992 75.0081C40.8144 77.3377 42.8836 78.3846 44.8323 78.1615C46.3857 77.9766 47.7565 76.8676 46.7509 74.886ZM935.256 103.233C932.423 100.901 925.08 104.432 928.597 107.341C931.432 109.682 938.789 106.136 935.256 103.233ZM646.885 151.826C647.049 151.658 645.656 148.86 644.718 149.52C641.798 151.579 644.537 154.5 646.885 151.826ZM1061.17 89.6967C1042.47 91.584 1029.39 77.4629 1049.64 76.6072C1053.31 76.438 1042.46 82.5764 1047.27 83.3561C1056.12 84.7636 1060.36 74.2873 1069.72 78.2053C1071.44 78.9276 1062.26 89.6299 1061.14 89.7229C1061.15 89.7142 1061.16 89.7054 1061.17 89.6967ZM742.733 79.5213C742.531 79.4834 739.341 82.5667 739.39 82.7612C740.75 87.4441 747.231 81.1872 742.733 79.5213ZM470.475 122.892C470.218 122.525 459.918 122.51 459.594 122.867C454.452 129.948 475.276 129.999 470.475 122.892ZM852.211 84.8544C856.163 79.976 861.451 78.5036 866.212 83.0296C861.495 83.6379 856.841 84.4307 852.211 84.8544Z" fill="#E3D6CD"/>
</svg>
