<svg width="251" height="30" viewBox="0 0 251 30" fill="none" xmlns="http://www.w3.org/2000/svg">
<path d="M57.3915 18.3827C57.3915 21.2979 56.6727 23.5394 55.232 25.1071C53.7912 26.6749 51.7271 27.4572 49.0395 27.4572C46.352 27.4572 44.2878 26.6749 42.8471 25.1071C41.4063 23.5394 40.6875 21.2915 40.6875 18.3604C40.6875 15.4292 41.4095 13.1909 42.8534 11.6423C44.2974 10.0969 46.3679 9.32422 49.065 9.32422C51.762 9.32422 53.823 10.1033 55.2511 11.6615C56.6791 13.2197 57.3947 15.4611 57.3947 18.3859L57.3915 18.3827ZM44.5836 18.3827C44.5836 20.3496 44.9557 21.8343 45.7 22.8273C46.4442 23.8236 47.5574 24.3217 49.0363 24.3217C52.0038 24.3217 53.4891 22.342 53.4891 18.3827C53.4891 14.4234 52.0133 12.431 49.0618 12.431C47.5828 12.431 46.4665 12.9323 45.7127 13.9317C44.9589 14.9311 44.5836 16.4158 44.5836 18.3827Z" fill="#E3D6CD"/>
<path d="M68.2284 13.4917C68.7245 13.4917 69.1348 13.5269 69.4656 13.6003L69.1889 17.0455C68.8931 16.9657 68.5337 16.9242 68.1075 16.9242C66.9403 16.9242 66.0275 17.2243 65.3786 17.8278C64.7266 18.4313 64.3991 19.2742 64.3991 20.3567V27.212H60.7383V13.7408H63.5117L64.0524 16.0046H64.2337C64.6503 15.2511 65.2133 14.6412 65.9193 14.1782C66.6286 13.7152 67.3983 13.4854 68.2284 13.4854V13.4917Z" fill="#E3D6CD"/>
<path d="M75.5612 27.215H71.9004V8.46582H75.5612V27.215Z" fill="#E3D6CD"/>
<path d="M79.2188 12.2625V11.9368C80.5959 10.3307 81.5342 9.12059 82.0399 8.30957H86.1459V8.56181C85.7293 8.98009 85.02 9.59953 84.015 10.4233C83.0099 11.2471 82.2243 11.8602 81.655 12.2593H79.2188V12.2625ZM83.0608 27.2152H79.4V13.744H83.0608V27.2152Z" fill="#E3D6CD"/>
<path d="M90.4188 19.8903L92.0154 17.8404L95.7716 13.7438H99.8999L94.5725 19.587L100.224 27.215H96.0006L92.1362 21.7582L90.5651 23.0226V27.215H86.9043V8.46582H90.5651V16.8282L90.3742 19.8871H90.4219L90.4188 19.8903Z" fill="#E3D6CD"/>
<path d="M108.816 27.2153V9.59961H112.538V24.1309H119.656V27.2153H108.816Z" fill="#E3D6CD"/>
<path d="M130.938 27.2148L130.229 25.382H130.134C129.517 26.1611 128.884 26.7007 128.232 27.0041C127.58 27.3042 126.731 27.4575 125.681 27.4575C124.393 27.4575 123.378 27.0871 122.637 26.3495C121.896 25.6119 121.527 24.5582 121.527 23.1916C121.527 21.8251 122.027 20.7075 123.022 20.0274C124.018 19.3473 125.522 18.9737 127.529 18.9003L129.857 18.8268V18.2361C129.857 16.8695 129.161 16.1862 127.768 16.1862C126.696 16.1862 125.436 16.5119 123.986 17.1633L122.774 14.6823C124.32 13.8713 126.031 13.4658 127.911 13.4658C129.79 13.4658 131.091 13.8586 132.052 14.6472C133.012 15.4359 133.492 16.6301 133.492 18.2393V27.2148H130.935H130.938ZM129.857 20.9725L128.442 21.0204C127.376 21.0523 126.584 21.2439 126.066 21.5983C125.544 21.9528 125.287 22.4892 125.287 23.214C125.287 24.2517 125.878 24.769 127.061 24.769C127.911 24.769 128.588 24.5231 129.097 24.0346C129.606 23.5461 129.86 22.8947 129.86 22.0837V20.9757L129.857 20.9725Z" fill="#E3D6CD"/>
<path d="M140.778 19.8903L142.375 17.8404L146.131 13.7438H150.259L144.932 19.587L150.584 27.215H146.36L142.496 21.7582L140.924 23.0226V27.215H137.264V8.46582H140.924V16.8282L140.734 19.8871H140.781L140.778 19.8903Z" fill="#E3D6CD"/>
<path d="M158.576 27.458C156.417 27.458 154.728 26.8609 153.513 25.6636C152.298 24.4662 151.688 22.7707 151.688 20.5803C151.688 18.39 152.25 16.5795 153.373 15.3439C154.496 14.1114 156.051 13.4951 158.036 13.4951C160.02 13.4951 161.407 14.0379 162.463 15.1203C163.519 16.206 164.047 17.7035 164.047 19.6161V21.3977H155.393C155.434 22.4419 155.739 23.2561 156.318 23.8436C156.894 24.4311 157.702 24.7216 158.742 24.7216C159.55 24.7216 160.313 24.6386 161.035 24.4694C161.754 24.3002 162.508 24.032 163.29 23.6616V26.5065C162.651 26.829 161.967 27.0653 161.239 27.2249C160.51 27.3814 159.623 27.4612 158.573 27.4612L158.576 27.458ZM158.061 16.107C157.285 16.107 156.678 16.3528 156.236 16.8477C155.797 17.3427 155.542 18.0419 155.479 18.9519H160.615C160.599 18.0451 160.364 17.3427 159.906 16.8477C159.451 16.3528 158.834 16.107 158.058 16.107H158.061Z" fill="#E3D6CD"/>
<path d="M177.418 20.4557V27.2153H173.697V9.59961H178.812C181.197 9.59961 182.959 10.0339 184.104 10.9055C185.249 11.7772 185.821 13.0991 185.821 14.8744C185.821 15.9121 185.538 16.8317 184.969 17.6395C184.4 18.4474 183.598 19.0796 182.558 19.5362C185.198 23.4955 186.919 26.0562 187.72 27.2121H183.592L179.403 20.4526H177.422L177.418 20.4557ZM177.418 17.4192H178.618C179.794 17.4192 180.663 17.2213 181.222 16.8285C181.782 16.4358 182.062 15.8163 182.062 14.9734C182.062 14.1305 181.776 13.5429 181.203 13.1917C180.631 12.8373 179.747 12.6617 178.544 12.6617H177.415V17.4224L177.418 17.4192Z" fill="#E3D6CD"/>
<path d="M195.709 27.458C193.55 27.458 191.861 26.8609 190.646 25.6636C189.431 24.4662 188.82 22.7707 188.82 20.5803C188.82 18.39 189.383 16.5795 190.506 15.3439C191.629 14.1114 193.184 13.4951 195.169 13.4951C197.153 13.4951 198.54 14.0379 199.596 15.1203C200.652 16.206 201.18 17.7035 201.18 19.6161V21.3977H192.526C192.567 22.4419 192.872 23.2561 193.451 23.8436C194.027 24.4311 194.835 24.7216 195.875 24.7216C196.683 24.7216 197.446 24.6386 198.168 24.4694C198.887 24.3002 199.64 24.032 200.423 23.6616V26.5065C199.784 26.829 199.1 27.0653 198.371 27.2249C197.643 27.3814 196.756 27.4612 195.706 27.4612L195.709 27.458ZM195.194 16.107C194.418 16.107 193.811 16.3528 193.368 16.8477C192.93 17.3427 192.675 18.0419 192.611 18.9519H197.748C197.732 18.0451 197.497 17.3427 197.039 16.8477C196.584 16.3528 195.967 16.107 195.191 16.107H195.194Z" fill="#E3D6CD"/>
<path d="M213.519 23.2146C213.519 24.5971 213.042 25.6476 212.085 26.3724C211.128 27.094 209.7 27.458 207.795 27.458C206.818 27.458 205.985 27.391 205.298 27.2601C204.611 27.126 203.965 26.9344 203.364 26.6758V23.6392C204.045 23.9617 204.811 24.2299 205.664 24.447C206.516 24.6642 207.267 24.7727 207.915 24.7727C209.245 24.7727 209.906 24.3864 209.906 23.6169C209.906 23.3263 209.817 23.0932 209.642 22.9112C209.467 22.7292 209.162 22.5249 208.73 22.2982C208.297 22.0715 207.721 21.8033 207.003 21.4967C205.969 21.0625 205.212 20.6602 204.728 20.293C204.245 19.9258 203.892 19.5011 203.673 19.0222C203.453 18.5432 203.342 17.9557 203.342 17.2565C203.342 16.0591 203.803 15.1331 204.728 14.4786C205.654 13.824 206.964 13.4951 208.66 13.4951C210.355 13.4951 211.846 13.8495 213.376 14.5552L212.273 17.2054C211.602 16.9148 210.972 16.6785 210.39 16.4933C209.805 16.3081 209.21 16.2155 208.602 16.2155C207.521 16.2155 206.983 16.5093 206.983 17.0936C206.983 17.4225 207.158 17.7067 207.505 17.9493C207.852 18.1888 208.615 18.5496 209.792 19.0222C210.838 19.4468 211.608 19.846 212.098 20.2163C212.588 20.5867 212.947 21.0114 213.179 21.4935C213.411 21.9757 213.526 22.5504 213.526 23.2178L213.519 23.2146Z" fill="#E3D6CD"/>
<path d="M228.571 20.4554C228.571 22.6489 227.995 24.3636 226.844 25.5993C225.692 26.8349 224.086 27.4544 222.032 27.4544C220.744 27.4544 219.608 27.1702 218.622 26.6051C217.639 26.0399 216.882 25.2257 216.354 24.1656C215.826 23.1055 215.562 21.8667 215.562 20.4554C215.562 18.2554 216.135 16.544 217.28 15.3211C218.425 14.0981 220.031 13.4883 222.105 13.4883C223.393 13.4883 224.528 13.7693 225.514 14.3312C226.497 14.8932 227.254 15.701 227.782 16.7547C228.31 17.8084 228.574 19.0409 228.574 20.4522L228.571 20.4554ZM219.293 20.4554C219.293 21.79 219.51 22.7958 219.948 23.4791C220.384 24.1624 221.093 24.5041 222.079 24.5041C223.065 24.5041 223.759 24.1656 224.185 23.4855C224.614 22.8086 224.827 21.7964 224.827 20.4554C224.827 19.1143 224.611 18.1213 224.179 17.454C223.746 16.7866 223.04 16.4546 222.054 16.4546C221.068 16.4546 220.375 16.7866 219.942 17.4476C219.51 18.1117 219.293 19.1111 219.293 20.4554Z" fill="#E3D6CD"/>
<path d="M239.084 13.4917C239.58 13.4917 239.993 13.5269 240.321 13.6003L240.044 17.0455C239.749 16.9657 239.389 16.9242 238.963 16.9242C237.796 16.9242 236.883 17.2243 236.234 17.8278C235.582 18.4313 235.255 19.2742 235.255 20.3567V27.212H231.594V13.7408H234.367L234.908 16.0046H235.089C235.506 15.2511 236.069 14.6412 236.775 14.1782C237.484 13.7152 238.254 13.4854 239.084 13.4854V13.4917Z" fill="#E3D6CD"/>
<path d="M248.41 24.5302C249.05 24.5302 249.819 24.3897 250.716 24.1087V26.8451C249.803 27.2538 248.684 27.4581 247.354 27.4581C245.891 27.4581 244.823 27.0877 244.155 26.3438C243.487 25.5998 243.153 24.4854 243.153 23.0007V16.5062H241.4V14.9512L243.417 13.7219L244.473 10.877H246.814V13.7443H250.57V16.503H246.814V22.9975C246.814 23.5212 246.96 23.9043 247.253 24.1534C247.545 24.4024 247.93 24.527 248.41 24.527V24.5302Z" fill="#E3D6CD"/>
<path d="M28.8462 10.6982L21.2856 5.17287L14.2067 0L0 11.0222V29.3116H29.3116V11.0222L28.8462 10.6982ZM0.902209 28.4164V11.4597L14.2231 1.12612L17.0277 3.17583L4.48247 13.2542V28.4204H0.902209V28.4164ZM5.38468 28.4164V13.6795L17.5216 3.92928L20.3875 5.91822L9.27111 15.1176V28.4164H5.38468ZM10.1733 28.4164V15.5389L21.155 6.44887L28.3196 11.4233L28.3767 11.4678V28.4164H10.1733Z" fill="#E3D6CD"/>
</svg>
