<svg width="228" height="43" viewBox="0 0 228 43" fill="none" xmlns="http://www.w3.org/2000/svg">
<path d="M75.3546 41.8484C63.3815 41.8484 54.2695 32.679 54.2695 20.9242C54.2695 9.16941 63.3815 0 75.3546 0C87.3277 0 96.4913 9.22112 96.4913 20.9242C96.4913 32.6272 87.4311 41.8484 75.3546 41.8484ZM75.3546 39.849C86.1384 39.849 94.3369 31.5988 94.3369 20.9184C94.3369 10.238 86.1384 2.05105 75.3546 2.05105C64.5708 2.05105 56.424 10.2495 56.424 20.9242C56.424 31.5988 64.6225 39.8548 75.3546 39.8548V39.849Z" fill="#E3D6CD"/>
<path d="M104.85 21.3032V41.1473H102.695V13.9665H104.85V18.3904C107.171 15.4258 110.836 13.2656 115.473 13.2656V15.5293C110.566 15.5293 106.683 18.1146 104.85 21.2975V21.3032Z" fill="#E3D6CD"/>
<path d="M120.973 41.1477V0.701172H123.127V41.1477H120.973Z" fill="#E3D6CD"/>
<path d="M130.195 7.27948L135.694 0.701172H138.445L132.729 7.27948H130.195ZM131.224 41.1477V13.9669H133.378V41.1477H131.224Z" fill="#E3D6CD"/>
<path d="M149.822 27.7153H143.295V41.142H141.141V0.701172H143.295V25.7217H149.603L159.204 13.9669H161.846L151.603 26.5318L162.277 41.1477H159.583L149.822 27.7211V27.7153Z" fill="#E3D6CD"/>
<path d="M176.945 28.9104V14.2256H178.474V28.9104H176.945Z" fill="#E3D6CD"/>
<path d="M189.324 27.3478C188.462 28.5026 187.227 29.2093 185.779 29.2093C183.038 29.2093 180.746 26.8997 180.746 23.9007C180.746 20.9017 183.038 18.6553 185.779 18.6553C187.227 18.6553 188.462 19.339 189.324 20.4765V18.931H190.852V28.9163H189.324V27.3478ZM185.779 27.7557C187.324 27.7557 188.617 26.8135 189.324 25.5438V22.2518C188.657 21.0166 187.324 20.0973 185.779 20.0973C183.86 20.0973 182.315 21.683 182.315 23.8949C182.315 26.1069 183.86 27.75 185.779 27.75V27.7557Z" fill="#E3D6CD"/>
<path d="M196.745 24.2913H194.884V28.9104H193.355V14.2256H194.884V22.9181H196.648L199.606 18.9252H201.468L198.003 23.5042L201.663 28.9104H199.761L196.745 24.2913Z" fill="#E3D6CD"/>
<path d="M207.048 29.2034C204.072 29.2034 201.82 26.9513 201.82 23.8374C201.82 20.9188 204.21 18.6494 207.008 18.6494C210.002 18.6494 212.018 21.0797 212.018 24.1304H203.343C203.481 26.3423 204.969 27.7556 207.043 27.7556C208.318 27.7556 209.726 27.0719 210.295 25.7563H211.823C211.139 28.0257 209.082 29.2034 207.043 29.2034H207.048ZM203.463 22.8032H210.277C209.944 21.1601 208.83 20.103 207.008 20.103C205.187 20.103 203.877 21.1428 203.463 22.8032Z" fill="#E3D6CD"/>
<path d="M178.395 35.569V42.6184H176.867V32.6332H178.395V33.7478C179.217 32.9664 180.372 32.3574 181.86 32.3574V34.0006C180.136 34.0006 178.941 34.8049 178.395 35.569Z" fill="#E3D6CD"/>
<path d="M187.564 42.9114C184.588 42.9114 182.336 40.6593 182.336 37.5454C182.336 34.6268 184.726 32.3574 187.524 32.3574C190.517 32.3574 192.534 34.7877 192.534 37.8384H183.858C183.996 40.0503 185.484 41.4636 187.558 41.4636C188.834 41.4636 190.241 40.78 190.81 39.4643H192.338C191.655 41.7337 189.598 42.9114 187.558 42.9114H187.564ZM183.979 36.5112H190.793C190.46 34.8681 189.345 33.811 187.524 33.811C185.703 33.811 184.393 34.8509 183.979 36.5112Z" fill="#E3D6CD"/>
<path d="M194.222 42.618V41.2449H198.198C199.783 41.2449 200.41 40.4004 200.41 39.4065C200.41 38.5619 199.898 37.7806 198.238 37.7806H197.123C195.4 37.7806 194.188 36.7407 194.188 35.2182C194.188 33.6957 195.4 32.6328 197.123 32.6328H201.432V34.0059H197.181C196.164 34.0059 195.693 34.5345 195.693 35.2182C195.693 35.9019 196.181 36.4132 197.181 36.4132H198.318C200.806 36.4132 201.921 37.8035 201.921 39.4294C201.921 41.153 200.806 42.618 198.295 42.618H194.222Z" fill="#E3D6CD"/>
<path d="M208.887 42.9114C205.791 42.9114 203.406 40.5444 203.406 37.6028C203.406 34.6613 205.796 32.3574 208.887 32.3574C211.978 32.3574 214.368 34.7072 214.368 37.6028C214.368 40.4984 212.001 42.9114 208.887 42.9114ZM208.887 41.4636C211.157 41.4636 212.805 39.7803 212.805 37.6086C212.805 35.4369 211.162 33.811 208.887 33.811C206.612 33.811 204.969 35.4771 204.969 37.6086C204.969 39.7401 206.612 41.4636 208.887 41.4636Z" fill="#E3D6CD"/>
<path d="M218.091 35.569V42.6184H216.562V32.6332H218.091V33.7478C218.912 32.9664 220.067 32.3574 221.555 32.3574V34.0006C219.832 34.0006 218.637 34.8049 218.091 35.569Z" fill="#E3D6CD"/>
<path d="M225.883 34.0065V42.6244H224.355V34.0065H222.258V32.6334H224.355V29.8125H225.883V32.6334H227.997V34.0065H225.883Z" fill="#E3D6CD"/>
<path d="M40.5959 15.3802L29.9557 7.54371L19.9935 0.207031L0 15.8398V41.7796H41.2509V15.8398L40.5959 15.3802ZM1.2697 40.5099V16.4603L20.0164 1.80421L23.9634 4.7113L6.30828 19.0055V40.5157H1.2697V40.5099ZM7.57798 40.5099V19.6087L24.6586 5.77992L28.6918 8.60083L13.0475 21.6483V40.5099H7.57798ZM14.3172 40.5099V22.2458L29.7719 9.35346L39.8548 16.4086L39.9352 16.4718V40.5099H14.3172Z" fill="#E3D6CD"/>
</svg>
