<svg width="250" height="99" viewBox="0 0 250 99" fill="none" xmlns="http://www.w3.org/2000/svg">
<path d="M250 0H0V98.0392H250V0Z" fill="#874D1B"/>
<path d="M70.9915 51.8184C70.9915 54.2053 70.403 56.0406 69.2233 57.3242C68.0436 58.6079 66.3535 59.2484 64.153 59.2484C61.9525 59.2484 60.2624 58.6079 59.0827 57.3242C57.903 56.0406 57.3145 54.2001 57.3145 51.8001C57.3145 49.4001 57.9056 47.5674 59.0879 46.2994C60.2702 45.034 61.9655 44.4014 64.1738 44.4014C66.3822 44.4014 68.0697 45.0393 69.2389 46.3151C70.4082 47.5909 70.9941 49.4262 70.9941 51.821L70.9915 51.8184ZM60.5046 51.8184C60.5046 53.4288 60.8092 54.6445 61.4186 55.4576C62.028 56.2733 62.9395 56.6811 64.1504 56.6811C66.5801 56.6811 67.7962 55.0602 67.7962 51.8184C67.7962 48.5765 66.5879 46.9452 64.1712 46.9452C62.9603 46.9452 62.0462 47.3556 61.429 48.1739C60.8119 48.9922 60.5046 50.2079 60.5046 51.8184Z" fill="white"/>
<path d="M79.8633 47.8138C80.2695 47.8138 80.6055 47.8426 80.8763 47.9027L80.6497 50.7236C80.4076 50.6583 80.1133 50.6243 79.7643 50.6243C78.8086 50.6243 78.0612 50.87 77.5299 51.3642C76.9961 51.8583 76.7279 52.5485 76.7279 53.4347V59.0478H73.7305V48.0177H76.0013L76.444 49.8713H76.5924C76.9336 49.2543 77.3945 48.755 77.9727 48.3759C78.5534 47.9968 79.1836 47.8086 79.8633 47.8086V47.8138Z" fill="white"/>
<path d="M85.8685 59.0499H82.8711V43.6982H85.8685V59.0499Z" fill="white"/>
<path d="M88.8633 46.8069V46.5402C89.9909 45.2252 90.7591 44.2344 91.1732 43.5703H94.5352V43.7768C94.194 44.1193 93.6133 44.6265 92.7904 45.301C91.9675 45.9755 91.3242 46.4775 90.8581 46.8043H88.8633V46.8069ZM92.0091 59.05H89.0117V48.02H92.0091V59.05Z" fill="white"/>
<path d="M98.0339 53.0525L99.3411 51.3741L102.417 48.0198H105.797L101.435 52.8041L106.063 59.0499H102.604L99.4401 54.5819L98.1536 55.6172V59.0499H95.1562V43.6982H98.1536V50.5453L97.9974 53.0499H98.0365L98.0339 53.0525Z" fill="white"/>
<path d="M113.098 59.0505V44.627H116.145V56.525H121.973V59.0505H113.098Z" fill="white"/>
<path d="M131.21 59.0505L130.629 57.5498H130.551C130.046 58.1877 129.527 58.6296 128.993 58.8779C128.46 59.1237 127.764 59.2492 126.905 59.2492C125.85 59.2492 125.02 58.9459 124.413 58.342C123.806 57.7381 123.504 56.8753 123.504 55.7564C123.504 54.6374 123.913 53.7224 124.728 53.1655C125.543 52.6087 126.775 52.3028 128.418 52.2426L130.324 52.1825V51.6989C130.324 50.5799 129.754 50.0204 128.613 50.0204C127.736 50.0204 126.704 50.2871 125.517 50.8204L124.525 48.789C125.79 48.125 127.191 47.793 128.73 47.793C130.27 47.793 131.335 48.1145 132.121 48.7603C132.908 49.406 133.301 50.3838 133.301 51.7015V59.0505H131.207H131.21ZM130.324 53.9394L129.165 53.9786C128.293 54.0047 127.645 54.1616 127.22 54.4518C126.793 54.742 126.582 55.1812 126.582 55.7747C126.582 56.6243 127.066 57.0479 128.035 57.0479C128.73 57.0479 129.285 56.8466 129.702 56.4466C130.118 56.0466 130.327 55.5132 130.327 54.8492V53.942L130.324 53.9394Z" fill="white"/>
<path d="M139.268 53.0525L140.576 51.3741L143.651 48.0198H147.031L142.669 52.8041L147.297 59.0499H143.839L140.674 54.5819L139.388 55.6172V59.0499H136.391V43.6982H139.388V50.5453L139.232 53.0499H139.271L139.268 53.0525Z" fill="white"/>
<path d="M153.84 59.2491C152.072 59.2491 150.689 58.7602 149.694 57.7798C148.699 56.7994 148.199 55.4112 148.199 53.6177C148.199 51.8242 148.66 50.3419 149.579 49.3301C150.499 48.321 151.772 47.8164 153.397 47.8164C155.022 47.8164 156.158 48.2609 157.022 49.1471C157.887 50.036 158.319 51.2622 158.319 52.8282V54.287H151.233C151.267 55.1419 151.517 55.8086 151.991 56.2896C152.462 56.7707 153.124 57.0086 153.975 57.0086C154.637 57.0086 155.262 56.9406 155.853 56.802C156.441 56.6635 157.059 56.4439 157.699 56.1406V58.47C157.176 58.7341 156.616 58.9275 156.02 59.0582C155.423 59.1863 154.697 59.2517 153.837 59.2517L153.84 59.2491ZM153.418 49.955C152.783 49.955 152.285 50.1563 151.923 50.5615C151.564 50.9667 151.355 51.5393 151.303 52.2844H155.509C155.496 51.5419 155.303 50.9667 154.928 50.5615C154.556 50.1563 154.051 49.955 153.415 49.955H153.418Z" fill="white"/>
<path d="M169.268 53.5158V59.0505H166.221V44.627H170.408C172.361 44.627 173.804 44.9825 174.742 45.6962C175.679 46.41 176.148 47.4923 176.148 48.9459C176.148 49.7956 175.916 50.5485 175.45 51.21C174.984 51.8714 174.327 52.389 173.476 52.7629C175.637 56.0047 177.046 58.1015 177.702 59.0479H174.322L170.893 53.5132H169.27L169.268 53.5158ZM169.268 51.0296H170.249C171.213 51.0296 171.924 50.8675 172.382 50.5459C172.841 50.2243 173.07 49.7171 173.07 49.027C173.07 48.3368 172.835 47.8557 172.367 47.5681C171.898 47.2779 171.174 47.1341 170.189 47.1341H169.265V51.0322L169.268 51.0296Z" fill="white"/>
<path d="M184.244 59.2491C182.476 59.2491 181.093 58.7602 180.098 57.7798C179.104 56.7994 178.604 55.4112 178.604 53.6177C178.604 51.8242 179.064 50.3419 179.984 49.3301C180.903 48.321 182.176 47.8164 183.801 47.8164C185.426 47.8164 186.562 48.2609 187.426 49.1471C188.291 50.036 188.723 51.2622 188.723 52.8282V54.287H181.637C181.671 55.1419 181.921 55.8086 182.395 56.2896C182.867 56.7707 183.528 57.0086 184.38 57.0086C185.041 57.0086 185.666 56.9406 186.257 56.802C186.846 56.6635 187.463 56.4439 188.104 56.1406V58.47C187.58 58.7341 187.02 58.9275 186.424 59.0582C185.827 59.1863 185.101 59.2517 184.242 59.2517L184.244 59.2491ZM183.822 49.955C183.187 49.955 182.689 50.1563 182.327 50.5615C181.968 50.9667 181.76 51.5393 181.708 52.2844H185.913C185.9 51.5419 185.708 50.9667 185.333 50.5615C184.96 50.1563 184.455 49.955 183.82 49.955H183.822Z" fill="white"/>
<path d="M198.827 55.7746C198.827 56.9066 198.437 57.7667 197.653 58.3602C196.869 58.951 195.7 59.2491 194.14 59.2491C193.34 59.2491 192.658 59.1942 192.096 59.087C191.533 58.9772 191.005 58.8203 190.512 58.6086V56.1223C191.07 56.3863 191.697 56.6059 192.395 56.7837C193.093 56.9615 193.708 57.0504 194.239 57.0504C195.327 57.0504 195.869 56.7341 195.869 56.104C195.869 55.8661 195.796 55.6752 195.653 55.5262C195.51 55.3772 195.26 55.2099 194.906 55.0243C194.551 54.8386 194.08 54.619 193.492 54.368C192.645 54.0125 192.025 53.6831 191.63 53.3824C191.234 53.0818 190.945 52.7341 190.765 52.3419C190.585 51.9497 190.494 51.4687 190.494 50.8961C190.494 49.9158 190.872 49.1576 191.63 48.6216C192.387 48.0857 193.46 47.8164 194.848 47.8164C196.236 47.8164 197.458 48.1066 198.71 48.6844L197.807 50.8543C197.257 50.6164 196.742 50.4229 196.265 50.2713C195.786 50.1197 195.299 50.0439 194.801 50.0439C193.916 50.0439 193.476 50.2844 193.476 50.7628C193.476 51.0321 193.619 51.2648 193.903 51.4635C194.187 51.6595 194.812 51.955 195.775 52.3419C196.632 52.6896 197.262 53.0164 197.663 53.3197C198.064 53.6229 198.359 53.9707 198.549 54.3654C198.739 54.7602 198.833 55.2308 198.833 55.7772L198.827 55.7746Z" fill="white"/>
<path d="M211.151 53.5151C211.151 55.3112 210.68 56.7151 209.737 57.7269C208.794 58.7387 207.479 59.2458 205.797 59.2458C204.742 59.2458 203.812 59.0132 203.005 58.5504C202.201 58.0877 201.581 57.421 201.148 56.553C200.716 55.6851 200.5 54.6707 200.5 53.5151C200.5 51.7138 200.969 50.3125 201.906 49.3112C202.844 48.3099 204.159 47.8105 205.857 47.8105C206.911 47.8105 207.841 48.0406 208.648 48.5007C209.453 48.9609 210.073 49.6223 210.505 50.4851C210.938 51.3478 211.154 52.357 211.154 53.5125L211.151 53.5151ZM203.555 53.5151C203.555 54.6079 203.732 55.4315 204.091 55.9909C204.448 56.5504 205.029 56.8302 205.836 56.8302C206.643 56.8302 207.211 56.553 207.56 55.9962C207.911 55.4419 208.086 54.6132 208.086 53.5151C208.086 52.4171 207.909 51.604 207.555 51.0576C207.201 50.5112 206.622 50.2393 205.815 50.2393C205.008 50.2393 204.44 50.5112 204.086 51.0524C203.732 51.5962 203.555 52.4145 203.555 53.5151Z" fill="white"/>
<path d="M219.76 47.8138C220.166 47.8138 220.505 47.8426 220.773 47.9027L220.546 50.7236C220.304 50.6583 220.01 50.6243 219.661 50.6243C218.705 50.6243 217.958 50.87 217.426 51.3642C216.893 51.8583 216.624 52.5485 216.624 53.4347V59.0478H213.627V48.0177H215.898L216.34 49.8713H216.489C216.83 49.2543 217.291 48.755 217.869 48.3759C218.45 47.9968 219.08 47.8086 219.76 47.8086V47.8138Z" fill="white"/>
<path d="M227.396 56.851C227.919 56.851 228.549 56.7359 229.284 56.5059V58.7464C228.536 59.081 227.62 59.2483 226.531 59.2483C225.333 59.2483 224.458 58.9451 223.911 58.3359C223.365 57.7268 223.091 56.8144 223.091 55.5987V50.281H221.656V49.0078L223.307 48.0013L224.172 45.6719H226.089V48.0196H229.164V50.2784H226.089V55.5961C226.089 56.0248 226.208 56.3385 226.448 56.5425C226.688 56.7464 227.003 56.8483 227.396 56.8483V56.851Z" fill="white"/>
<path d="M47.6189 45.5252L41.4284 41.0011L35.6323 36.7656L24 45.7905V60.7656H48V45.7905L47.6189 45.5252ZM24.7387 60.0326V46.1487L35.6457 37.6877L37.9421 39.366L27.6702 47.618V60.0359H24.7387V60.0326ZM28.4089 60.0326V47.9663L38.3465 39.9829L40.693 41.6114L31.5911 49.1437V60.0326H28.4089ZM32.3298 60.0326V49.4887L41.3214 42.0459L47.1877 46.1189L47.2345 46.1553V60.0326H32.3298Z" fill="white"/>
</svg>
