<svg width="206" height="31" viewBox="0 0 206 31" fill="none" xmlns="http://www.w3.org/2000/svg">
<path d="M59.2893 14.9743C59.2893 19.9368 55.465 23.8067 50.3659 23.8067C45.3123 23.8067 41.4652 19.9368 41.4652 14.9743C41.4652 10.0345 45.3123 6.14189 50.3659 6.14189C55.465 6.14189 59.2893 10.0345 59.2893 14.9743ZM42.3758 14.9743C42.3758 19.4815 45.8359 22.9644 50.3659 22.9644C54.9187 22.9644 58.3788 19.4815 58.3788 14.9743C58.3788 10.467 54.9187 7.00692 50.3659 7.00692C45.8359 7.00692 42.3758 10.467 42.3758 14.9743ZM67.0518 12.6979C64.9803 12.6979 63.3413 13.7906 62.5673 15.1336V23.5107H61.6568V12.0377H62.5673V13.9044C63.5462 12.6524 65.0941 11.7418 67.0518 11.7418V12.6979ZM70.0341 23.5107H69.1235V6.43782H70.0341V23.5107ZM73.8454 9.21502H72.7755L75.0974 6.43782H76.2584L73.8454 9.21502ZM74.1186 23.5107H73.208V12.0377H74.1186V23.5107ZM84.9412 23.5107L80.821 17.8425H78.0665V23.5107H77.156V6.43782H78.0665V17.0003H80.7299L84.7819 12.0377H85.8973L81.5722 17.3417L86.0794 23.5107H84.9412ZM99.901 22.6685V23.5107H93.254V6.43782H94.1418V22.6685H99.901ZM110.905 23.5107V21.3026C109.972 22.7595 108.424 23.8067 106.489 23.8067C103.439 23.8067 100.867 21.2799 100.867 17.7515C100.867 14.2914 103.439 11.7418 106.489 11.7418C108.424 11.7418 109.972 12.7889 110.905 14.2686V12.0377H111.816V23.5107H110.905ZM101.8 17.7515C101.8 20.8246 103.962 22.9416 106.489 22.9416C108.538 22.9416 110.177 21.6441 110.905 20.0051V15.4979C110.177 13.8816 108.561 12.6068 106.489 12.6068C103.962 12.6068 101.8 14.7239 101.8 17.7515ZM122.465 23.5107L118.345 17.8425H115.59V23.5107H114.68V6.43782H115.59V17.0003H118.254L122.305 12.0377H123.421L119.096 17.3417L123.603 23.5107H122.465ZM135.061 20.2327C134.219 22.4636 132.102 23.8067 129.78 23.8067C126.456 23.8067 123.952 21.2116 123.952 17.7287C123.952 14.3597 126.524 11.7418 129.78 11.7418C132.944 11.7418 135.243 14.2914 135.243 17.7287H124.863C124.863 20.7791 126.98 22.9416 129.78 22.9416C131.624 22.9416 133.354 21.9173 134.128 20.2327H135.061ZM129.78 12.6068C127.276 12.6068 125.272 14.3824 124.908 16.9092H134.241C133.991 14.4052 132.261 12.6068 129.78 12.6068ZM148.283 16.2946H143.753V23.5107H142.865V6.43782H148.26C152.039 6.43782 153.997 8.5321 153.997 11.3321C153.997 13.5857 152.745 15.4068 150.309 16.0442L153.678 23.5107H152.722L149.421 16.2263C149.057 16.2718 148.693 16.2946 148.283 16.2946ZM148.283 7.28009H143.753V15.4751H148.26C151.675 15.4751 153.086 13.5857 153.086 11.3321C153.086 9.14672 151.675 7.28009 148.283 7.28009ZM166.344 20.2327C165.501 22.4636 163.384 23.8067 161.062 23.8067C157.739 23.8067 155.235 21.2116 155.235 17.7287C155.235 14.3597 157.807 11.7418 161.062 11.7418C164.227 11.7418 166.526 14.2914 166.526 17.7287H156.145C156.145 20.7791 158.262 22.9416 161.062 22.9416C162.906 22.9416 164.636 21.9173 165.41 20.2327H166.344ZM161.062 12.6068C158.558 12.6068 156.555 14.3824 156.191 16.9092H165.524C165.274 14.4052 163.544 12.6068 161.062 12.6068ZM172.492 23.5107H167.985V22.6685H172.469C174.632 22.6685 175.543 21.4392 175.543 20.0279C175.543 18.7076 174.678 17.5238 172.469 17.5238H171.104C169.26 17.5238 168.008 16.4084 168.008 14.7922C168.008 13.1304 169.26 12.0377 171.104 12.0377H175.588V12.8572H171.126C169.692 12.8572 168.896 13.654 168.896 14.7922C168.896 15.9076 169.692 16.6816 171.126 16.6816H172.515C175.224 16.6816 176.453 18.2523 176.453 20.0506C176.453 21.8945 175.224 23.5107 172.492 23.5107ZM189.985 17.7515C189.985 21.1433 187.412 23.8067 183.975 23.8067C180.538 23.8067 177.943 21.1433 177.943 17.7515C177.943 14.4052 180.538 11.7418 183.975 11.7418C187.412 11.7418 189.985 14.4052 189.985 17.7515ZM178.876 17.7515C178.876 20.688 181.061 22.9416 183.975 22.9416C186.866 22.9416 189.051 20.688 189.051 17.7515C189.051 14.8605 186.866 12.6068 183.975 12.6068C181.061 12.6068 178.876 14.8605 178.876 17.7515ZM197.706 12.6979C195.635 12.6979 193.996 13.7906 193.222 15.1336V23.5107H192.311V12.0377H193.222V13.9044C194.201 12.6524 195.749 11.7418 197.706 11.7418V12.6979ZM204.331 12.8572H201.804V23.5107H200.894V12.8572H198.367V12.0377H200.894V8.82803H201.804V12.0377H204.331V12.8572Z" fill="#2A2E37"/>
<path d="M26.0062 9.72012L19.19 4.69996L12.808 0L0 10.0146V26.6319H26.4258V10.0146L26.0062 9.72012ZM0.813384 25.8185V10.412L12.8228 1.02317L15.3512 2.88549L4.04115 12.0425V25.8222H0.813384V25.8185ZM4.85454 25.8185V12.4289L15.7966 3.57006L18.3803 5.37717L8.35835 13.7355V25.8185H4.85454ZM9.17173 25.8185V14.1183L19.0722 5.85931L25.5314 10.3789L25.5829 10.4194V25.8185H9.17173Z" fill="black"/>
</svg>
