<svg width="57" height="70" viewBox="0 0 57 70" fill="none" xmlns="http://www.w3.org/2000/svg">
<path fill-rule="evenodd" clip-rule="evenodd" d="M26.7343 68.9842L26.9746 69.1214L27.0706 69.1763C27.4517 69.3824 27.8781 69.4903 28.3113 69.4903C28.7445 69.4903 29.1708 69.3824 29.5519 69.1763L29.648 69.1249L29.8917 68.9842C31.2339 68.1883 32.5437 67.3388 33.8177 66.4377C37.116 64.1091 40.1977 61.488 43.0254 58.6062C49.697 51.7767 56.626 41.5154 56.626 28.313C56.626 20.8039 53.643 13.6024 48.3333 8.29268C43.0236 2.98297 35.8221 0 28.313 0C20.8039 0 13.6024 2.98297 8.29268 8.29268C2.98297 13.6024 0 20.8039 0 28.313C0 41.512 6.93239 51.7767 13.6005 58.6062C16.4272 61.4878 19.5077 64.1089 22.8048 66.4377C24.08 67.3388 25.3909 68.1883 26.7343 68.9842ZM28.313 38.6086C31.0436 38.6086 33.6623 37.5239 35.5931 35.5931C37.5239 33.6623 38.6086 31.0436 38.6086 28.313C38.6086 25.5824 37.5239 22.9637 35.5931 21.0329C33.6623 19.1021 31.0436 18.0174 28.313 18.0174C25.5824 18.0174 22.9637 19.1021 21.0329 21.0329C19.1021 22.9637 18.0174 25.5824 18.0174 28.313C18.0174 31.0436 19.1021 33.6623 21.0329 35.5931C22.9637 37.5239 25.5824 38.6086 28.313 38.6086Z" fill="#2A2E37"/>
<rect x="9.45361" y="13.062" width="36.9488" height="30.7907" fill="#2A2E37"/>
<path d="M39.1202 25.0583L33.3621 20.8503L27.971 16.9108L17.1514 25.3051V39.234H39.4746V25.3051L39.1202 25.0583ZM17.8385 38.5522V25.6383L27.9834 17.7684L30.1194 19.3294L20.5651 27.005V38.5553H17.8385V38.5522ZM21.2523 38.5522V27.3289L30.4956 19.9032L32.6781 21.418L24.2121 28.4241V38.5522H21.2523ZM24.8992 38.5522V28.7449L33.2626 21.8221L38.7191 25.6105L38.7626 25.6445V38.5522H24.8992Z" fill="#EF813A"/>
</svg>
